<?xml version="1.0" encoding="UTF-8" standalone="no"?>
<!-- Generated by graphviz version 2.43.0 (0)
 -->

<!-- Title: graphname Pages: 1 -->

<svg
   width="1059.2667pt"
   height="368.68564pt"
   viewBox="0 0 1059.2667 368.68563"
   version="1.1"
   id="svg448"
   sodipodi:docname="aaa.summary.masked.svg"
   inkscape:version="1.2.2 (b0a8486541, 2022-12-01)"
   xmlns:inkscape="http://www.inkscape.org/namespaces/inkscape"
   xmlns:sodipodi="http://sodipodi.sourceforge.net/DTD/sodipodi-0.dtd"
   xmlns="http://www.w3.org/2000/svg"
   xmlns:svg="http://www.w3.org/2000/svg">
  <defs
     id="defs452" />
  <sodipodi:namedview
     id="namedview450"
     pagecolor="#ffffff"
     bordercolor="#000000"
     borderopacity="0.25"
     inkscape:showpageshadow="2"
     inkscape:pageopacity="0.0"
     inkscape:pagecheckerboard="0"
     inkscape:deskcolor="#d1d1d1"
     inkscape:document-units="pt"
     showgrid="false"
     inkscape:zoom="0.50772385"
     inkscape:cx="692.30547"
     inkscape:cy="337.78204"
     inkscape:window-width="1920"
     inkscape:window-height="1011"
     inkscape:window-x="0"
     inkscape:window-y="32"
     inkscape:window-maximized="1"
     inkscape:current-layer="svg448" />
  <g
     id="g3234"
     transform="matrix(0.84182703,0,0,0.84182703,122.09197,-281.94471)">
    <g
       id="node1-67"
       class="node"
       transform="matrix(0.99943658,0,0,0.99943658,-87.090194,755.08969)">
      <title
         id="title1637">5</title>
      <polygon
         fill="none"
         stroke="#000000"
         stroke-width="2"
         points="494.15,-280 494.15,-307 527.15,-307 527.15,-280 "
         id="polygon1639" />
      <text
         text-anchor="start"
         x="500.14999"
         y="-289.79999"
         font-family="Times, serif"
         font-size="14px"
         id="text1641">5:A</text>
    </g>
    <g
       id="node5-5"
       class="node"
       transform="matrix(0.99943658,0,0,0.99943658,-87.090194,755.08969)">
      <title
         id="title1644">6</title>
      <polygon
         fill="none"
         stroke="#000000"
         stroke-width="2"
         points="584.15,-280 584.15,-307 617.15,-307 617.15,-280 "
         id="polygon1646" />
      <text
         text-anchor="start"
         x="590.15002"
         y="-289.79999"
         font-family="Times, serif"
         font-size="14px"
         id="text1648">6:A</text>
    </g>
    <g
       id="edge1-3"
       class="edge"
       transform="matrix(0.99943658,0,0,0.99943658,-87.090194,755.08969)">
      <title
         id="title1651">5:ne-&gt;6:nw</title>
      <path
         fill="none"
         stroke="#000000"
         stroke-width="2"
         d="m 528.15,-309 c 0,-24.44 55,-24.44 55,0"
         id="path1653" />
    </g>
    <g
       id="node2-5"
       class="node"
       transform="matrix(0.99943658,0,0,0.99943658,-87.090194,755.08969)">
      <title
         id="title1656">7</title>
      <polygon
         fill="none"
         stroke="#000000"
         stroke-width="2"
         points="664.65,-340 664.65,-367 833.65,-367 833.65,-340 "
         id="polygon1658" />
      <text
         text-anchor="start"
         x="670.65002"
         y="-349.79999"
         font-family="Times, serif"
         font-size="14px"
         id="text1660">7:AAAAAAAAAAAAAAA</text>
    </g>
    <g
       id="node3-62"
       class="node"
       transform="matrix(0.99943658,0,0,0.99943658,-87.090194,755.08969)">
      <title
         id="title1663">1</title>
      <polygon
         fill="none"
         stroke="#000000"
         stroke-width="2"
         points="46.15,-253 46.15,-280 167.15,-280 167.15,-253 "
         id="polygon1665" />
      <text
         text-anchor="start"
         x="52.150002"
         y="-262.79999"
         font-family="Times, serif"
         font-size="14px"
         id="text1667">1:AAAAAAAAAA</text>
    </g>
    <g
       id="edge5-9"
       class="edge"
       transform="matrix(0.99943658,0,0,0.99943658,-87.090194,755.08969)">
      <title
         id="title1670">1:ne-&gt;5:nw</title>
      <path
         fill="none"
         stroke="#000000"
         stroke-width="2"
         d="m 168.15,-282 c 0,-80.56 325,-98.47 325,-27"
         id="path1672" />
    </g>
    <g
       id="edge7-1"
       class="edge"
       transform="matrix(0.99943658,0,0,0.99943658,-87.090194,755.08969)">
      <title
         id="title1675">1:ne-&gt;7:nw</title>
      <path
         fill="none"
         stroke="#000000"
         stroke-width="2"
         d="m 168.15,-282 c 0,-81.98 79.02,-90 161,-90 0,0 0,0 182,0 67.79,0 152.5,-64.79 152.5,3"
         id="path1677" />
    </g>
    <g
       id="node4-2"
       class="node"
       transform="matrix(0.99943658,0,0,0.99943658,-87.090194,755.08969)">
      <title
         id="title1680">4</title>
      <polygon
         fill="none"
         stroke="#000000"
         stroke-width="2"
         points="404.15,-253 404.15,-280 437.15,-280 437.15,-253 "
         id="polygon1682" />
      <text
         text-anchor="start"
         x="410.14999"
         y="-262.79999"
         font-family="Times, serif"
         font-size="14px"
         id="text1684">4:A</text>
    </g>
    <g
       id="edge4-7"
       class="edge"
       transform="matrix(0.99943658,0,0,0.99943658,-87.090194,755.08969)">
      <title
         id="title1687">1:ne-&gt;4:nw</title>
      <path
         fill="none"
         stroke="#000000"
         stroke-width="2"
         d="m 168.15,-282 c 0,-30.9 16.96,40.02 45,53 21.78,10.08 30.07,1.85 54,0 40.36,-3.12 53.18,2.83 90,-14 24.38,-11.14 46,-65.8 46,-39"
         id="path1689" />
    </g>
    <g
       id="edge6-0"
       class="edge"
       transform="matrix(0.99943658,0,0,0.99943658,-87.090194,755.08969)">
      <title
         id="title1692">1:ne-&gt;6:nw</title>
      <path
         fill="none"
         stroke="#000000"
         stroke-width="2"
         d="m 168.15,-282 c 0,-33.69 18.54,40.15 45,61 43.96,34.64 60.03,49 116,49 0,0 0,0 92,0 2.95,0 162,-139.95 162,-137"
         id="path1694" />
    </g>
    <g
       id="node6-9"
       class="node"
       transform="matrix(0.99943658,0,0,0.99943658,-87.090194,755.08969)">
      <title
         id="title1697">2</title>
      <polygon
         fill="none"
         stroke="#000000"
         stroke-width="2"
         points="224.15,-239 224.15,-266 257.15,-266 257.15,-239 "
         id="polygon1699" />
      <text
         text-anchor="start"
         x="230.14999"
         y="-248.8"
         font-family="Times, serif"
         font-size="14px"
         id="text1701">2:A</text>
    </g>
    <g
       id="edge2-3"
       class="edge"
       transform="matrix(0.99943658,0,0,0.99943658,-87.090194,755.08969)">
      <title
         id="title1704">1:ne-&gt;2:nw</title>
      <path
         fill="none"
         stroke="#000000"
         stroke-width="2"
         d="m 168.15,-282 c 0,-12.61 55,1.39 55,14"
         id="path1706" />
    </g>
    <g
       id="node7-6"
       class="node"
       transform="matrix(0.99943658,0,0,0.99943658,-87.090194,755.08969)">
      <title
         id="title1709">3</title>
      <polygon
         fill="none"
         stroke="#000000"
         stroke-width="2"
         points="314.15,-253 314.15,-280 347.15,-280 347.15,-253 "
         id="polygon1711" />
      <text
         text-anchor="start"
         x="320.14999"
         y="-262.79999"
         font-family="Times, serif"
         font-size="14px"
         id="text1713">3:A</text>
    </g>
    <g
       id="edge3-0"
       class="edge"
       transform="matrix(0.99943658,0,0,0.99943658,-87.090194,755.08969)">
      <title
         id="title1716">1:ne-&gt;3:nw</title>
      <path
         fill="none"
         stroke="#000000"
         stroke-width="2"
         d="m 168.15,-282 c 0,-32.22 145,-32.22 145,0"
         id="path1718" />
    </g>
    <g
       id="edge8-62"
       class="edge"
       transform="matrix(0.99943658,0,0,0.99943658,-87.090194,755.08969)">
      <title
         id="title1721">4:ne-&gt;5:nw</title>
      <path
         fill="none"
         stroke="#000000"
         stroke-width="2"
         d="m 438.15,-282 c 0,-27.23 55,-54.23 55,-27"
         id="path1723" />
    </g>
    <g
       id="edge9-6"
       class="edge"
       transform="matrix(0.99943658,0,0,0.99943658,-87.090194,755.08969)">
      <title
         id="title1726">6:ne-&gt;7:nw</title>
      <path
         fill="none"
         stroke="#000000"
         stroke-width="2"
         d="m 618.15,-309 c 0,-33.47 45.5,-93.47 45.5,-60"
         id="path1728" />
    </g>
    <g
       id="edge10-1"
       class="edge"
       transform="matrix(0.99943658,0,0,0.99943658,-87.090194,755.08969)">
      <title
         id="title1731">2:ne-&gt;3:nw</title>
      <path
         fill="none"
         stroke="#000000"
         stroke-width="2"
         d="m 258.15,-268 c 0,-12.61 55,-26.61 55,-14"
         id="path1733" />
    </g>
    <g
       id="edge11-8"
       class="edge"
       transform="matrix(0.99943658,0,0,0.99943658,-87.090194,755.08969)">
      <title
         id="title1736">3:ne-&gt;4:nw</title>
      <path
         fill="none"
         stroke="#000000"
         stroke-width="2"
         d="m 348.15,-282 c 0,-24.44 55,-24.44 55,0"
         id="path1738" />
    </g>
    <g
       id="node8-7"
       class="node"
       transform="matrix(0.99943658,0,0,0.99943658,-87.090194,755.08969)">
      <title
         id="title1741">8</title>
      <text
         text-anchor="middle"
         x="106.15"
         y="-59.299999"
         font-family="Times, serif"
         font-size="14px"
         fill="#1b9e77"
         id="text1743">🗆 ref#0#0  1</text>
    </g>
    <g
       id="node9-9"
       class="node"
       transform="matrix(0.99943658,0,0,0.99943658,-87.090194,755.08969)">
      <title
         id="title1746">9</title>
      <text
         text-anchor="middle"
         x="510.14999"
         y="-14.3"
         font-family="Times, serif"
         font-size="14px"
         fill="#1b9e77"
         id="text1748">🗆 5</text>
    </g>
    <g
       id="edge13-2"
       class="edge"
       transform="matrix(0.99943658,0,0,0.99943658,-87.090194,755.08969)">
      <title
         id="title1751">8-&gt;9</title>
      <path
         fill="none"
         stroke="#1b9e77"
         d="m 151.71,-58.01 c 84.02,9.4 263.48,29.49 331.01,37.05"
         id="path1753" />
    </g>
    <g
       id="node10-0"
       class="node"
       transform="matrix(0.99943658,0,0,0.99943658,-87.090194,755.08969)">
      <title
         id="title1756">10</title>
      <text
         text-anchor="middle"
         x="600.15002"
         y="-131.3"
         font-family="Times, serif"
         font-size="14px"
         fill="#1b9e77"
         id="text1758">🗆 6</text>
    </g>
    <g
       id="edge15-2"
       class="edge"
       transform="matrix(0.99943658,0,0,0.99943658,-87.090194,755.08969)">
      <title
         id="title1761">9-&gt;10</title>
      <path
         fill="none"
         stroke="#1b9e77"
         d="m 529.47,-36.22 c 2.65,-2.87 5.29,-5.86 7.68,-8.78 19.32,-23.66 38.86,-53.16 50.71,-71.79"
         id="path1763" />
    </g>
    <g
       id="node11-3"
       class="node"
       transform="matrix(0.99943658,0,0,0.99943658,-87.090194,755.08969)">
      <title
         id="title1766">11</title>
      <text
         text-anchor="middle"
         x="748.65002"
         y="-163.3"
         font-family="Times, serif"
         font-size="14px"
         fill="#1b9e77"
         id="text1768">🗆 7</text>
    </g>
    <g
       id="edge17-7"
       class="edge"
       transform="matrix(0.99943658,0,0,0.99943658,-87.090194,755.08969)">
      <title
         id="title1771">10-&gt;11</title>
      <path
         fill="none"
         stroke="#1b9e77"
         d="m 627.34,-140.72 c 26.5,-5.79 67.26,-14.69 93.85,-20.5"
         id="path1773" />
    </g>
    <g
       id="node12-5"
       class="node"
       transform="matrix(0.99943658,0,0,0.99943658,-87.090194,755.08969)">
      <title
         id="title1776">12</title>
      <text
         text-anchor="middle"
         x="106.15"
         y="-206.3"
         font-family="Times, serif"
         font-size="14px"
         fill="#7570b3"
         id="text1778">🗒 sample1#1#0#0  1</text>
    </g>
    <g
       id="node13-9"
       class="node"
       transform="matrix(0.99943658,0,0,0.99943658,-87.090194,755.08969)">
      <title
         id="title1781">13</title>
      <text
         text-anchor="middle"
         x="240.14999"
         y="-122.3"
         font-family="Times, serif"
         font-size="14px"
         fill="#7570b3"
         id="text1783">🗒 2</text>
    </g>
    <g
       id="edge20-2"
       class="edge"
       transform="matrix(0.99943658,0,0,0.99943658,-87.090194,755.08969)">
      <title
         id="title1786">12-&gt;13</title>
      <path
         fill="none"
         stroke="#7570b3"
         d="m 140.31,-191.93 c 11.78,6.65 25.04,14.4 36.84,21.93 12.68,8.1 26.36,17.71 37.64,25.88"
         id="path1788" />
    </g>
    <g
       id="node14-2"
       class="node"
       transform="matrix(0.99943658,0,0,0.99943658,-87.090194,755.08969)">
      <title
         id="title1791">14</title>
      <text
         text-anchor="middle"
         x="330.14999"
         y="-118.3"
         font-family="Times, serif"
         font-size="14px"
         fill="#7570b3"
         id="text1793">🗒 3</text>
    </g>
    <g
       id="edge22"
       class="edge"
       transform="matrix(0.99943658,0,0,0.99943658,-87.090194,755.08969)">
      <title
         id="title1796">13-&gt;14</title>
      <path
         fill="none"
         stroke="#7570b3"
         d="m 267.55,-124.8 c 11.24,0.51 24.32,1.11 35.52,1.61"
         id="path1798" />
    </g>
    <g
       id="node15-8"
       class="node"
       transform="matrix(0.99943658,0,0,0.99943658,-87.090194,755.08969)">
      <title
         id="title1801">15</title>
      <text
         text-anchor="middle"
         x="420.14999"
         y="-121.3"
         font-family="Times, serif"
         font-size="14px"
         fill="#7570b3"
         id="text1803">🗒 4</text>
    </g>
    <g
       id="edge24"
       class="edge"
       transform="matrix(0.99943658,0,0,0.99943658,-87.090194,755.08969)">
      <title
         id="title1806">14-&gt;15</title>
      <path
         fill="none"
         stroke="#7570b3"
         d="m 357.55,-122.9 c 11.24,-0.38 24.32,-0.83 35.52,-1.21"
         id="path1808" />
    </g>
    <g
       id="node16-9"
       class="node"
       transform="matrix(0.99943658,0,0,0.99943658,-87.090194,755.08969)">
      <title
         id="title1811">16</title>
      <text
         text-anchor="middle"
         x="510.14999"
         y="-122.3"
         font-family="Times, serif"
         font-size="14px"
         fill="#7570b3"
         id="text1813">🗒 5</text>
    </g>
    <g
       id="edge26"
       class="edge"
       transform="matrix(0.99943658,0,0,0.99943658,-87.090194,755.08969)">
      <title
         id="title1816">15-&gt;16</title>
      <path
         fill="none"
         stroke="#7570b3"
         d="m 447.55,-125.3 c 11.24,-0.13 24.32,-0.28 35.52,-0.4"
         id="path1818" />
    </g>
    <g
       id="node17-7"
       class="node"
       transform="matrix(0.99943658,0,0,0.99943658,-87.090194,755.08969)">
      <title
         id="title1821">17</title>
      <text
         text-anchor="middle"
         x="600.15002"
         y="-239.3"
         font-family="Times, serif"
         font-size="14px"
         fill="#7570b3"
         id="text1823">🗒 6</text>
    </g>
    <g
       id="edge28"
       class="edge"
       transform="matrix(0.99943658,0,0,0.99943658,-87.090194,755.08969)">
      <title
         id="title1826">16-&gt;17</title>
      <path
         fill="none"
         stroke="#7570b3"
         d="m 526.68,-144.3 c 3.55,-4.41 7.23,-9.15 10.47,-13.7 17.6,-24.71 17.37,-34.05 36,-58 2.32,-2.98 4.92,-5.99 7.56,-8.88"
         id="path1828" />
    </g>
    <g
       id="node18-3"
       class="node"
       transform="matrix(0.99943658,0,0,0.99943658,-87.090194,755.08969)">
      <title
         id="title1831">18</title>
      <text
         text-anchor="middle"
         x="748.65002"
         y="-295.29999"
         font-family="Times, serif"
         font-size="14px"
         fill="#7570b3"
         id="text1833">🗒 7</text>
    </g>
    <g
       id="edge30"
       class="edge"
       transform="matrix(0.99943658,0,0,0.99943658,-87.090194,755.08969)">
      <title
         id="title1836">17-&gt;18</title>
      <path
         fill="none"
         stroke="#7570b3"
         d="m 627.34,-253.01 c 26.5,-10.13 67.26,-25.71 93.85,-35.88"
         id="path1838" />
    </g>
    <g
       id="node19-6"
       class="node"
       transform="matrix(0.99943658,0,0,0.99943658,-87.090194,755.08969)">
      <title
         id="title1841">19</title>
      <text
         text-anchor="middle"
         x="106.15"
         y="-139.3"
         font-family="Times, serif"
         font-size="14px"
         fill="#e7298a"
         id="text1843">💹 sample1#2#0#0  1</text>
    </g>
    <g
       id="node20-1"
       class="node"
       transform="matrix(0.99943658,0,0,0.99943658,-87.090194,755.08969)">
      <title
         id="title1846">20</title>
      <text
         text-anchor="middle"
         x="420.14999"
         y="-65.300003"
         font-family="Times, serif"
         font-size="14px"
         fill="#e7298a"
         id="text1848">💹 4</text>
    </g>
    <g
       id="edge33-2"
       class="edge"
       transform="matrix(0.99943658,0,0,0.99943658,-87.090194,755.08969)">
      <title
         id="title1851">19-&gt;20</title>
      <path
         fill="none"
         stroke="#e7298a"
         d="m 144.12,-124.99 c 20.01,9.06 45.4,19.48 69.03,25.99 63.24,17.44 140.35,25.23 179.88,28.29"
         id="path1853" />
    </g>
    <g
       id="node21-9"
       class="node"
       transform="matrix(0.99943658,0,0,0.99943658,-87.090194,755.08969)">
      <title
         id="title1856">21</title>
      <text
         text-anchor="middle"
         x="510.14999"
         y="-68.300003"
         font-family="Times, serif"
         font-size="14px"
         fill="#e7298a"
         id="text1858">💹 5</text>
    </g>
    <g
       id="edge35-3"
       class="edge"
       transform="matrix(0.99943658,0,0,0.99943658,-87.090194,755.08969)">
      <title
         id="title1861">20-&gt;21</title>
      <path
         fill="none"
         stroke="#e7298a"
         d="m 447.55,-69.9 c 11.24,-0.38 24.32,-0.83 35.52,-1.21"
         id="path1863" />
    </g>
    <g
       id="node22-1"
       class="node"
       transform="matrix(0.99943658,0,0,0.99943658,-87.090194,755.08969)">
      <title
         id="title1866">22</title>
      <text
         text-anchor="middle"
         x="600.15002"
         y="-185.3"
         font-family="Times, serif"
         font-size="14px"
         fill="#e7298a"
         id="text1868">💹 6</text>
    </g>
    <g
       id="edge37"
       class="edge"
       transform="matrix(0.99943658,0,0,0.99943658,-87.090194,755.08969)">
      <title
         id="title1871">21-&gt;22</title>
      <path
         fill="none"
         stroke="#e7298a"
         d="m 529.69,-90.05 c 2.63,-2.89 5.2,-5.93 7.46,-8.95 19.33,-25.81 16.67,-37.19 36,-63 2.26,-3.02 4.83,-6.06 7.46,-8.95"
         id="path1873" />
    </g>
    <g
       id="node23-9"
       class="node"
       transform="matrix(0.99943658,0,0,0.99943658,-87.090194,755.08969)">
      <title
         id="title1876">23</title>
      <text
         text-anchor="middle"
         x="748.65002"
         y="-233.3"
         font-family="Times, serif"
         font-size="14px"
         fill="#e7298a"
         id="text1878">💹 7</text>
    </g>
    <g
       id="edge39"
       class="edge"
       transform="matrix(0.99943658,0,0,0.99943658,-87.090194,755.08969)">
      <title
         id="title1881">22-&gt;23</title>
      <path
         fill="none"
         stroke="#e7298a"
         d="m 627.34,-197.58 c 26.5,-8.68 67.26,-22.04 93.85,-30.75"
         id="path1883" />
    </g>
  </g>
</svg>
