<?xml version="1.0" encoding="UTF-8" standalone="no"?>
<!-- Created with Inkscape (http://www.inkscape.org/) -->

<svg
   width="689.63068mm"
   height="453.04684mm"
   viewBox="0 0 689.63067 453.04684"
   version="1.1"
   id="svg5"
   xml:space="preserve"
   inkscape:version="1.2.2 (b0a8486541, 2022-12-01)"
   sodipodi:docname="distance-index1.svg"
   inkscape:export-filename="giraffe-chaining5.png"
   inkscape:export-xdpi="96"
   inkscape:export-ydpi="96"
   xmlns:inkscape="http://www.inkscape.org/namespaces/inkscape"
   xmlns:sodipodi="http://sodipodi.sourceforge.net/DTD/sodipodi-0.dtd"
   xmlns="http://www.w3.org/2000/svg"
   xmlns:svg="http://www.w3.org/2000/svg"><sodipodi:namedview
     id="namedview7"
     pagecolor="#ffffff"
     bordercolor="#000000"
     borderopacity="0.25"
     inkscape:showpageshadow="2"
     inkscape:pageopacity="0.0"
     inkscape:pagecheckerboard="0"
     inkscape:deskcolor="#d1d1d1"
     inkscape:document-units="mm"
     showgrid="false"
     inkscape:zoom="0.70710678"
     inkscape:cx="1780.4949"
     inkscape:cy="908.63222"
     inkscape:window-width="1920"
     inkscape:window-height="1043"
     inkscape:window-x="0"
     inkscape:window-y="0"
     inkscape:window-maximized="1"
     inkscape:current-layer="layer1" /><defs
     id="defs2" /><g
     inkscape:label="Calque 1"
     inkscape:groupmode="layer"
     id="layer1"
     transform="translate(-123.00181,-1393.0022)"><g
       id="g977-9-6"
       transform="matrix(2.3285795,0,0,2.4424969,-435.73497,975.19627)"><path
         d="m 359.543,285.371 h 7.465 c 0.969,0 1.75,0.883 1.75,1.981 v 1.343 c 0,1.098 -0.781,1.981 -1.75,1.981 h -7.465 c -0.969,0 -1.746,-0.883 -1.746,-1.981 v -1.343 c 0,-1.098 0.777,-1.981 1.746,-1.981 z"
         style="fill:#f57600;fill-opacity:1;fill-rule:nonzero;stroke:#000000;stroke-width:1.30394;stroke-linecap:butt;stroke-linejoin:miter;stroke-miterlimit:4;stroke-dasharray:none;stroke-opacity:1"
         id="path979-3-2" /></g><g
       id="g981-9-8"
       transform="matrix(2.3285795,0,0,2.4424969,-435.73497,975.19627)"><path
         d="m 411.941,285.414 h 7.704 c 0.851,0 1.535,0.891 1.535,1.992 v 1.657 c 0,1.101 -0.684,1.992 -1.535,1.992 h -7.704 c -0.851,0 -1.539,-0.891 -1.539,-1.992 v -1.657 c 0,-1.101 0.688,-1.992 1.539,-1.992 z"
         style="fill:#01b8c5;fill-opacity:1;fill-rule:nonzero;stroke:#000000;stroke-width:1.30394;stroke-linecap:butt;stroke-linejoin:miter;stroke-miterlimit:4;stroke-dasharray:none;stroke-opacity:1"
         id="path983-2-4" /></g><g
       id="g985-8-7"
       transform="matrix(2.3285795,0,0,2.4424969,-435.73497,975.19627)"><path
         d="m 430.668,277.891 h 7.773 c 0.86,0 1.551,0.886 1.551,1.992 v 1.652 c 0,1.106 -0.691,1.992 -1.551,1.992 h -7.773 c -0.859,0 -1.547,-0.886 -1.547,-1.992 v -1.652 c 0,-1.106 0.688,-1.992 1.547,-1.992 z"
         style="fill:#dfb9f4;fill-opacity:1;fill-rule:nonzero;stroke:#000000;stroke-width:1.30394;stroke-linecap:butt;stroke-linejoin:miter;stroke-miterlimit:4;stroke-dasharray:none;stroke-opacity:1"
         id="path987-30-2" /></g><g
       id="g989-1-4"
       transform="matrix(2.3285795,0,0,2.4424969,-435.73497,975.19627)"><path
         d="m 449.512,285.297 h 7.636 c 0.844,0 1.524,0.891 1.524,1.996 v 1.652 c 0,1.106 -0.68,1.996 -1.524,1.996 h -7.636 c -0.844,0 -1.524,-0.89 -1.524,-1.996 v -1.652 c 0,-1.105 0.68,-1.996 1.524,-1.996 z"
         style="fill:#01b8c5;fill-opacity:1;fill-rule:nonzero;stroke:#000000;stroke-width:1.30394;stroke-linecap:butt;stroke-linejoin:miter;stroke-miterlimit:4;stroke-dasharray:none;stroke-opacity:1"
         id="path991-7-0" /></g><g
       id="g997-15-9"
       transform="matrix(2.3285795,0,0,2.4424969,-435.73497,974.91231)"><path
         d="m 329.652,298.703 h 14.7 c 0.968,0 1.75,0.883 1.75,1.981 v 1.621 c 0,1.097 -0.782,1.98 -1.75,1.98 h -14.7 c -0.968,0 -1.75,-0.883 -1.75,-1.98 v -1.621 c 0,-1.098 0.782,-1.981 1.75,-1.981 z"
         style="fill:#949494;fill-opacity:1;fill-rule:nonzero;stroke:#000000;stroke-width:1.30394;stroke-linecap:butt;stroke-linejoin:miter;stroke-miterlimit:4;stroke-dasharray:none;stroke-opacity:1"
         id="path999-4-9" /></g><g
       id="g1001-92-0"
       transform="matrix(2.3285795,0,0,2.4424969,-435.73497,974.91231)"><path
         d="m 382.227,298.703 h 14.699 c 0.969,0 1.75,0.883 1.75,1.981 v 1.621 c 0,1.097 -0.781,1.98 -1.75,1.98 h -14.699 c -0.969,0 -1.75,-0.883 -1.75,-1.98 v -1.621 c 0,-1.098 0.781,-1.981 1.75,-1.981 z"
         style="fill:#949494;fill-opacity:1;fill-rule:nonzero;stroke:#000000;stroke-width:1.30394;stroke-linecap:butt;stroke-linejoin:miter;stroke-miterlimit:4;stroke-dasharray:none;stroke-opacity:1"
         id="path1003-5-8" /></g><g
       id="g1005-7-1"
       transform="matrix(2.3285795,0,0,2.4424969,-470.74541,974.66318)"><path
         d="m 488.86475,298.805 h 14.699 c 0.969,0 1.75,0.883 1.75,1.98 v 1.617 c 0,1.102 -0.781,1.985 -1.75,1.985 h -14.699 c -0.969,0 -1.75,-0.883 -1.75,-1.985 v -1.617 c 0,-1.097 0.781,-1.98 1.75,-1.98 z"
         style="fill:#949494;fill-opacity:1;fill-rule:nonzero;stroke:#000000;stroke-width:1.30394;stroke-linecap:butt;stroke-linejoin:miter;stroke-miterlimit:4;stroke-dasharray:none;stroke-opacity:1"
         id="path1007-4-3" /></g><g
       id="g1009-9-1"
       transform="matrix(2.3285795,0,0,2.4424969,-435.73497,975.19627)"><path
         d="m 346.117,301.617 c 6.121,0.156 6.258,-13.094 11.727,-13.086"
         style="fill:none;stroke:#000000;stroke-width:1.30394;stroke-linecap:butt;stroke-linejoin:miter;stroke-miterlimit:4;stroke-dasharray:none;stroke-opacity:1"
         id="path1011-9-1" /></g><g
       id="g1013-4-0"
       transform="matrix(2.3285795,0,0,2.4424969,-435.73497,975.19627)"><path
         d="m 369.055,288.785 c 6.047,-0.086 5.023,12.942 11.41,12.926"
         style="fill:none;stroke:#000000;stroke-width:1.30394;stroke-linecap:butt;stroke-linejoin:miter;stroke-miterlimit:4;stroke-dasharray:none;stroke-opacity:1"
         id="path1015-5-3" /></g><g
       id="g1021-9-4"
       transform="matrix(2.3285795,0,0,2.4424969,-435.73497,975.19627)"><path
         d="m 398.703,301.645 c 5.985,-0.215 5.699,-12.715 11.555,-12.875"
         style="fill:none;stroke:#000000;stroke-width:1.30394;stroke-linecap:butt;stroke-linejoin:miter;stroke-miterlimit:4;stroke-dasharray:none;stroke-opacity:1"
         id="path1023-3-0" /></g><g
       id="g1025-5-3"
       transform="matrix(2.3285795,0,0,2.4424969,-435.73497,975.19627)"><path
         d="m 421.156,288.152 26.922,0.008 c -4.316,-0.031 -4.277,-7.144 -7.996,-7.504"
         style="fill:none;stroke:#000000;stroke-width:1.30394;stroke-linecap:butt;stroke-linejoin:miter;stroke-miterlimit:4;stroke-dasharray:none;stroke-opacity:1"
         id="path1027-7-9" /></g><g
       id="g1029-0-1"
       transform="matrix(2.3285795,0,0,2.4424969,-435.73497,975.19627)"><path
         d="m 429.059,280.367 c -3.793,0.024 -4.196,7.871 -7.852,7.828"
         style="fill:none;stroke:#000000;stroke-width:1.30394;stroke-linecap:butt;stroke-linejoin:miter;stroke-miterlimit:4;stroke-dasharray:none;stroke-opacity:1"
         id="path1031-8-9" /></g><g
       id="g1037-9-3"
       transform="matrix(2.3285795,0,0,2.4424969,-435.73497,975.19627)"><path
         d="m 459.047,288.473 c 6.223,0.511 7.57356,12.56189 12.85556,12.99189"
         style="fill:none;stroke:#000000;stroke-width:1.30394;stroke-linecap:butt;stroke-linejoin:miter;stroke-miterlimit:4;stroke-dasharray:none;stroke-opacity:1"
         id="path1039-7-3"
         sodipodi:nodetypes="cc" /></g><g
       id="g1045-5-5"
       transform="matrix(2.3285795,0,0,2.4424969,-435.73497,975.19627)"><path
         d="M 472.33406,301.71511 C 460.45906,301.23911 410.359,301.535 398.645,301.551"
         style="fill:none;stroke:#000000;stroke-width:1.30394;stroke-linecap:butt;stroke-linejoin:miter;stroke-miterlimit:4;stroke-dasharray:none;stroke-opacity:1"
         id="path1047-3-6"
         sodipodi:nodetypes="cc" /></g><g
       id="g977-3-1-6-4-6"
       transform="matrix(2.3285795,0,0,2.4424969,-434.67479,1039.4946)"
       style="fill:#f2c300;fill-opacity:1"><path
         d="m 359.543,285.371 h 7.465 c 0.969,0 1.75,0.883 1.75,1.981 v 1.343 c 0,1.098 -0.781,1.981 -1.75,1.981 h -7.465 c -0.969,0 -1.746,-0.883 -1.746,-1.981 v -1.343 c 0,-1.098 0.777,-1.981 1.746,-1.981 z"
         style="fill:#f2c300;fill-opacity:1;fill-rule:nonzero;stroke:#000000;stroke-width:1.30394;stroke-linecap:butt;stroke-linejoin:miter;stroke-miterlimit:4;stroke-dasharray:none;stroke-opacity:1"
         id="path979-6-0-7-9-4" /></g><g
       id="g1009-0-1-3-0-0"
       transform="matrix(2.3285795,0,0,2.4424969,-383.51201,1006.7875)"><path
         d="m 346.117,301.617 c 6.121,0.156 6.258,-13.094 11.727,-13.086"
         style="fill:none;stroke:#000000;stroke-width:1.30394;stroke-linecap:butt;stroke-linejoin:miter;stroke-miterlimit:4;stroke-dasharray:none;stroke-opacity:1"
         id="path1011-6-5-6-2-0" /></g><g
       id="g1013-2-9-5-0-4"
       transform="matrix(2.3285795,0,0,2.4424969,-488.58749,1006.5681)"><path
         d="m 369.055,288.785 c 6.047,-0.086 5.023,12.942 11.41,12.926"
         style="fill:none;stroke:#000000;stroke-width:1.30394;stroke-linecap:butt;stroke-linejoin:miter;stroke-miterlimit:4;stroke-dasharray:none;stroke-opacity:1"
         id="path1015-6-7-6-19-6" /></g><path
       d="m 579.88408,1637.5447 -0.009,3.3316 h -12.28791 v 6.5923 h 12.26929 l -0.009,3.2998 7.36763,-6.563 z"
       style="opacity:1;fill:#000000;fill-opacity:1;fill-rule:evenodd;stroke:#000000;stroke-width:0.0373164;stroke-linecap:butt;stroke-linejoin:miter;stroke-miterlimit:4;stroke-dasharray:none;stroke-opacity:1"
       id="path1115-7-3-7-2" /><g
       id="g977-9-6-9"
       transform="matrix(2.3285795,0,0,2.4424969,-558.2923,975.75273)"
       style="fill:#1a992d;fill-opacity:1"><path
         d="m 359.543,285.371 h 7.465 c 0.969,0 1.75,0.883 1.75,1.981 v 1.343 c 0,1.098 -0.781,1.981 -1.75,1.981 h -7.465 c -0.969,0 -1.746,-0.883 -1.746,-1.981 v -1.343 c 0,-1.098 0.777,-1.981 1.746,-1.981 z"
         style="fill:#1a992d;fill-opacity:1;fill-rule:nonzero;stroke:#000000;stroke-width:1.30394;stroke-linecap:butt;stroke-linejoin:miter;stroke-miterlimit:4;stroke-dasharray:none;stroke-opacity:1"
         id="path979-3-2-1" /></g><g
       id="g997-15-9-0"
       transform="matrix(2.3285795,0,0,2.4424969,-558.2923,975.46873)"><path
         d="m 329.652,298.703 h 14.7 c 0.968,0 1.75,0.883 1.75,1.981 v 1.621 c 0,1.097 -0.782,1.98 -1.75,1.98 h -14.7 c -0.968,0 -1.75,-0.883 -1.75,-1.98 v -1.621 c 0,-1.098 0.782,-1.981 1.75,-1.981 z"
         style="fill:#949494;fill-opacity:1;fill-rule:nonzero;stroke:#000000;stroke-width:1.30394;stroke-linecap:butt;stroke-linejoin:miter;stroke-miterlimit:4;stroke-dasharray:none;stroke-opacity:1"
         id="path999-4-9-4" /></g><g
       id="g1009-9-1-2"
       transform="matrix(2.3285795,0,0,2.4424969,-558.2923,975.75273)"><path
         d="m 346.117,301.617 c 6.121,0.156 6.258,-13.094 11.727,-13.086"
         style="fill:none;stroke:#000000;stroke-width:1.30394;stroke-linecap:butt;stroke-linejoin:miter;stroke-miterlimit:4;stroke-dasharray:none;stroke-opacity:1"
         id="path1011-9-1-7" /></g><g
       id="g1013-4-0-4"
       transform="matrix(2.3285795,0,0,2.4424969,-558.2923,975.75273)"><path
         d="m 369.055,288.785 c 6.047,-0.086 5.023,12.942 11.41,12.926"
         style="fill:none;stroke:#000000;stroke-width:1.30394;stroke-linecap:butt;stroke-linejoin:miter;stroke-miterlimit:4;stroke-dasharray:none;stroke-opacity:1"
         id="path1015-5-3-0" /></g><g
       id="g1013-2-9-5-0-4-3"
       transform="matrix(2.3285795,0,0,2.4424969,-611.14482,1007.1245)"><path
         d="m 369.16704,288.97171 c 6.047,-0.086 27.13156,-0.16063 33.51856,-0.17663"
         style="fill:none;stroke:#000000;stroke-width:1.30394;stroke-linecap:butt;stroke-linejoin:miter;stroke-miterlimit:4;stroke-dasharray:none;stroke-opacity:1"
         id="path1015-6-7-6-19-6-7"
         sodipodi:nodetypes="cc" /></g><path
       d="m 291.17431,1656.7893 -0.0163,3.3291 h -12.29024 v 6.6021 h 12.27161 l -0.009,3.2925 4.59987,-4.093 2.76775,-2.4627 z"
       style="fill:#000000;fill-opacity:1;fill-rule:evenodd;stroke:#000000;stroke-width:0.0373164;stroke-linecap:butt;stroke-linejoin:miter;stroke-miterlimit:4;stroke-dasharray:none;stroke-opacity:1"
       id="path1107-5-9-4-6-0"
       sodipodi:nodetypes="ccccccccc" /><path
       d="m 719.82902,1588.8829 -0.009,3.3316 h -12.28791 v 6.5923 h 12.26929 l -0.009,3.2998 7.36763,-6.563 z"
       style="fill:#000000;fill-opacity:1;fill-rule:evenodd;stroke:#000000;stroke-width:0.0373164;stroke-linecap:butt;stroke-linejoin:miter;stroke-miterlimit:4;stroke-dasharray:none;stroke-opacity:1"
       id="path1115-7-3-7-2-9" /><path
       d="m 557.72419,1518.8073 -0.0163,3.3291 h -12.29024 v 6.6021 h 12.27161 l -0.009,3.2925 4.59987,-4.093 2.76775,-2.4627 z"
       style="fill:#000000;fill-opacity:1;fill-rule:evenodd;stroke:#000000;stroke-width:0.0373164;stroke-linecap:butt;stroke-linejoin:miter;stroke-miterlimit:4;stroke-dasharray:none;stroke-opacity:1"
       id="path1107-5-9-4-6-0-2"
       sodipodi:nodetypes="ccccccccc" /><g
       id="g1929"
       transform="translate(-21.754904,-27.493265)"><path
         d="m 641.3521,1452.8696 h 30.7436 c 1.09874,0 1.99029,0.8424 1.99029,1.8806 v 13.2651 c 0,1.0404 -0.89156,1.874 -1.99029,1.874 h -30.7436 c -1.10105,0 -1.99262,-0.8336 -1.99262,-1.874 v -13.2651 c 0,-1.0382 0.89157,-1.8806 1.99262,-1.8806 z"
         style="fill:#949494;fill-opacity:1;fill-rule:evenodd;stroke:#000000;stroke-width:2.95049;stroke-linecap:butt;stroke-linejoin:miter;stroke-miterlimit:4;stroke-dasharray:none;stroke-opacity:1"
         id="path475-9" /><path
         d="m 667.91297,1523.5057 h 30.2082 c 1.2547,0 2.26265,0.9524 2.26265,2.1379 v 12.7417 c 0,1.1855 -1.00795,2.1401 -2.26265,2.1401 h -30.2082 c -1.24539,0 -2.25566,-0.9546 -2.25566,-2.1401 v -12.7417 c 0,-1.1855 1.01027,-2.1379 2.25566,-2.1379 z"
         style="fill:#f2c300;fill-opacity:1;fill-rule:evenodd;stroke:#000000;stroke-width:2.95049;stroke-linecap:butt;stroke-linejoin:miter;stroke-miterlimit:4;stroke-dasharray:none;stroke-opacity:1"
         id="path479-9" /><path
         d="m 615.18928,1523.5057 h 30.2082 c 1.2547,0 2.26265,0.9524 2.26265,2.1379 v 12.7417 c 0,1.1855 -1.00795,2.1401 -2.26265,2.1401 h -30.2082 c -1.24539,0 -2.25566,-0.9546 -2.25566,-2.1401 v -12.7417 c 0,-1.1855 1.01027,-2.1379 2.25566,-2.1379 z"
         style="fill:#f57600;fill-opacity:1;fill-rule:evenodd;stroke:#000000;stroke-width:2.95049;stroke-linecap:butt;stroke-linejoin:miter;stroke-miterlimit:4;stroke-dasharray:none;stroke-opacity:1"
         id="path479-9-5" /><path
         d="m 720.67857,1523.5057 h 30.13371 c 1.27332,0 2.29058,0.97 2.29058,2.1731 v 12.6735 c 0,1.2031 -1.01726,2.1731 -2.29058,2.1731 h -30.13371 c -1.27332,0 -2.29291,-0.97 -2.29291,-2.1731 v -12.6735 c 0,-1.2031 1.01959,-2.1731 2.29291,-2.1731 z"
         style="fill:#01b8c5;fill-opacity:1;fill-rule:evenodd;stroke:#000000;stroke-width:2.95049;stroke-linecap:butt;stroke-linejoin:miter;stroke-miterlimit:4;stroke-dasharray:none;stroke-opacity:1"
         id="path483-1" /><path
         d="m 562.51215,1523.5057 h 30.13371 c 1.27332,0 2.29058,0.97 2.29058,2.1731 v 12.6735 c 0,1.2031 -1.01726,2.1731 -2.29058,2.1731 h -30.13371 c -1.27332,0 -2.29291,-0.97 -2.29291,-2.1731 v -12.6735 c 0,-1.2031 1.01959,-2.1731 2.29291,-2.1731 z"
         style="fill:#19912b;fill-opacity:1;fill-rule:evenodd;stroke:#000000;stroke-width:2.95049;stroke-linecap:butt;stroke-linejoin:miter;stroke-miterlimit:4;stroke-dasharray:none;stroke-opacity:1"
         id="path483-1-0" /><path
         d="m 718.381,1594.1328 h 34.72651 v 17.0109 H 718.381 Z"
         style="fill:#dfb9f4;fill-opacity:1;fill-rule:evenodd;stroke:#000000;stroke-width:2.95049;stroke-linecap:butt;stroke-linejoin:round;stroke-miterlimit:4;stroke-dasharray:none;stroke-opacity:1"
         id="path487-4" /><path
         d="m 594.93644,1496.6942 c 0,4.6893 -7.747,8.4967 -17.29342,8.4967 -9.55805,0 -17.30506,-3.8074 -17.30506,-8.4967 0,-4.6827 7.74701,-8.4901 17.30506,-8.4901 9.54642,0 17.29342,3.8074 17.29342,8.4901 z"
         style="fill:#96dca1;fill-opacity:1;fill-rule:nonzero;stroke:#000000;stroke-width:2.95049;stroke-linecap:butt;stroke-linejoin:miter;stroke-miterlimit:4;stroke-dasharray:none;stroke-opacity:1"
         id="path495-1" /><path
         d="m 753.04349,1496.6942 c 0,4.6893 -7.74699,8.4967 -17.29342,8.4967 -9.55804,0 -17.30506,-3.8074 -17.30506,-8.4967 0,-4.6827 7.74702,-8.4901 17.30506,-8.4901 9.54643,0 17.29342,3.8074 17.29342,8.4901 z"
         style="fill:#99d4d9;fill-opacity:1;fill-rule:nonzero;stroke:#000000;stroke-width:2.95049;stroke-linecap:butt;stroke-linejoin:miter;stroke-miterlimit:4;stroke-dasharray:none;stroke-opacity:1"
         id="path495-1-0" /><path
         d="m 673.95796,1496.6964 c 0,4.6916 -7.74701,8.4901 -17.30274,8.4901 -9.54873,0 -17.29574,-3.7986 -17.29574,-8.4901 0,-4.6893 7.747,-8.4879 17.29574,-8.4879 9.55574,0 17.30274,3.7986 17.30274,8.4879 z"
         style="fill:#c44601;fill-opacity:1;fill-rule:nonzero;stroke:#000000;stroke-width:2.95049;stroke-linecap:butt;stroke-linejoin:miter;stroke-miterlimit:4;stroke-dasharray:none;stroke-opacity:1"
         id="path499-0" /><path
         d="m 753.03884,1567.3279 c 0,4.6916 -7.7377,8.4901 -17.29575,8.4901 -9.55573,0 -17.29342,-3.7985 -17.29342,-8.4901 0,-4.6893 7.73769,-8.4878 17.29342,-8.4878 9.55805,0 17.29575,3.7985 17.29575,8.4878 z"
         style="fill:#5f97eb;fill-opacity:1;fill-rule:nonzero;stroke:#000000;stroke-width:2.95049;stroke-linecap:butt;stroke-linejoin:miter;stroke-miterlimit:4;stroke-dasharray:none;stroke-opacity:1"
         id="path503-7" /><path
         d="m 656.35201,1487.4212 -0.77934,-17.6156"
         style="fill:none;stroke:#000000;stroke-width:2.95049;stroke-linecap:butt;stroke-linejoin:miter;stroke-miterlimit:4;stroke-dasharray:none;stroke-opacity:1"
         id="path507-5"
         sodipodi:nodetypes="cc" /><path
         d="m 735.76167,1487.3904 -79.60123,-17.1228"
         style="fill:none;stroke:#000000;stroke-width:2.95049;stroke-linecap:butt;stroke-linejoin:miter;stroke-miterlimit:4;stroke-dasharray:none;stroke-opacity:1"
         id="path511-8"
         sodipodi:nodetypes="cc" /><path
         d="m 681.02515,1524.1769 -24.45857,-18.0986"
         style="fill:none;stroke:#000000;stroke-width:2.95049;stroke-linecap:butt;stroke-linejoin:miter;stroke-miterlimit:4;stroke-dasharray:none;stroke-opacity:1"
         id="path515-7"
         sodipodi:nodetypes="cc" /><path
         d="m 578.314,1487.6381 78.39266,-17.1363"
         style="fill:none;stroke:#000000;stroke-width:2.95049;stroke-linecap:butt;stroke-linejoin:miter;stroke-miterlimit:4;stroke-dasharray:none;stroke-opacity:1"
         id="path519-0"
         sodipodi:nodetypes="cc" /><path
         d="m 655.87993,1504.9636 -26.38311,18.6166"
         style="fill:#f57600;fill-opacity:1;fill-rule:nonzero;stroke:#000000;stroke-width:2.95049;stroke-linecap:butt;stroke-linejoin:miter;stroke-miterlimit:4;stroke-dasharray:none;stroke-opacity:1"
         id="path523-4"
         sodipodi:nodetypes="cc" /><path
         d="m 735.7629,1539.596 -0.0373,19.6063"
         style="fill:none;stroke:#000000;stroke-width:2.95049;stroke-linecap:butt;stroke-linejoin:miter;stroke-miterlimit:4;stroke-dasharray:none;stroke-opacity:1"
         id="path527-8" /><path
         d="m 735.7629,1505.409 -0.0373,19.6063"
         style="fill:none;stroke:#000000;stroke-width:2.95049;stroke-linecap:butt;stroke-linejoin:miter;stroke-miterlimit:4;stroke-dasharray:none;stroke-opacity:1"
         id="path527-8-3" /><path
         d="m 576.99394,1503.6272 -0.0373,19.6063"
         style="fill:none;stroke:#000000;stroke-width:2.95049;stroke-linecap:butt;stroke-linejoin:miter;stroke-miterlimit:4;stroke-dasharray:none;stroke-opacity:1"
         id="path527-8-3-4" /><path
         d="m 735.73975,1575.9187 0.009,18.8167"
         style="fill:none;stroke:#000000;stroke-width:2.95049;stroke-linecap:butt;stroke-linejoin:miter;stroke-miterlimit:4;stroke-dasharray:none;stroke-opacity:1"
         id="path531-0" /></g></g></svg>
