<?xml version="1.0" encoding="UTF-8" standalone="no"?>
<!-- Created with Inkscape (http://www.inkscape.org/) -->

<svg
   width="689.63068mm"
   height="453.04684mm"
   viewBox="0 0 689.63067 453.04684"
   version="1.1"
   id="svg5"
   xml:space="preserve"
   inkscape:version="1.2.2 (b0a8486541, 2022-12-01)"
   sodipodi:docname="giraffe-algorithm-full.svg"
   inkscape:export-filename="giraffe-zips3.svg"
   inkscape:export-xdpi="96"
   inkscape:export-ydpi="96"
   xmlns:inkscape="http://www.inkscape.org/namespaces/inkscape"
   xmlns:sodipodi="http://sodipodi.sourceforge.net/DTD/sodipodi-0.dtd"
   xmlns="http://www.w3.org/2000/svg"
   xmlns:svg="http://www.w3.org/2000/svg"><sodipodi:namedview
     id="namedview7"
     pagecolor="#ffffff"
     bordercolor="#000000"
     borderopacity="0.25"
     inkscape:showpageshadow="2"
     inkscape:pageopacity="0.0"
     inkscape:pagecheckerboard="0"
     inkscape:deskcolor="#d1d1d1"
     inkscape:document-units="mm"
     showgrid="false"
     inkscape:zoom="0.125"
     inkscape:cx="1672"
     inkscape:cy="452"
     inkscape:window-width="1674"
     inkscape:window-height="991"
     inkscape:window-x="26"
     inkscape:window-y="23"
     inkscape:window-maximized="0"
     inkscape:current-layer="layer1" /><defs
     id="defs2" /><g
     inkscape:label="Calque 1"
     inkscape:groupmode="layer"
     id="layer1"
     transform="translate(-123.00181,-1393.0022)"><rect
       style="opacity:0.971563;fill:#1a992d;fill-opacity:1;stroke:none;stroke-width:0.240198;stroke-dasharray:none;stroke-opacity:1"
       id="rect7436-4-8"
       width="71.071457"
       height="38.588291"
       x="409.18802"
       y="1555.1975"
       ry="1.0657892"
       inkscape:label="chain4-6" /><g
       id="g16364-7-8"
       inkscape:label="graph"
       transform="translate(59.387119,1195.0656)"
       style="opacity:0.152999"><g
         id="g977-9-6"
         transform="matrix(2.3285795,0,0,2.4424969,-665.03833,-391.19737)"><path
           d="m 359.543,285.371 h 7.465 c 0.969,0 1.75,0.883 1.75,1.981 v 1.343 c 0,1.098 -0.781,1.981 -1.75,1.981 h -7.465 c -0.969,0 -1.746,-0.883 -1.746,-1.981 v -1.343 c 0,-1.098 0.777,-1.981 1.746,-1.981 z"
           style="fill:#f57600;fill-opacity:1;fill-rule:nonzero;stroke:#000000;stroke-width:1.30394;stroke-linecap:butt;stroke-linejoin:miter;stroke-miterlimit:4;stroke-dasharray:none;stroke-opacity:1"
           id="path979-3-2" /></g><g
         id="g981-9-8"
         transform="matrix(2.3285795,0,0,2.4424969,-665.03833,-391.19737)"><path
           d="m 411.941,285.414 h 7.704 c 0.851,0 1.535,0.891 1.535,1.992 v 1.657 c 0,1.101 -0.684,1.992 -1.535,1.992 h -7.704 c -0.851,0 -1.539,-0.891 -1.539,-1.992 v -1.657 c 0,-1.101 0.688,-1.992 1.539,-1.992 z"
           style="fill:#01b8c5;fill-opacity:1;fill-rule:nonzero;stroke:#000000;stroke-width:1.30394;stroke-linecap:butt;stroke-linejoin:miter;stroke-miterlimit:4;stroke-dasharray:none;stroke-opacity:1"
           id="path983-2-4" /></g><g
         id="g985-8-7"
         transform="matrix(2.3285795,0,0,2.4424969,-665.03833,-391.19737)"><path
           d="m 430.668,277.891 h 7.773 c 0.86,0 1.551,0.886 1.551,1.992 v 1.652 c 0,1.106 -0.691,1.992 -1.551,1.992 h -7.773 c -0.859,0 -1.547,-0.886 -1.547,-1.992 v -1.652 c 0,-1.106 0.688,-1.992 1.547,-1.992 z"
           style="fill:#dfb9f4;fill-opacity:1;fill-rule:nonzero;stroke:#000000;stroke-width:1.30394;stroke-linecap:butt;stroke-linejoin:miter;stroke-miterlimit:4;stroke-dasharray:none;stroke-opacity:1"
           id="path987-30-2" /></g><g
         id="g989-1-4"
         transform="matrix(2.3285795,0,0,2.4424969,-665.03833,-391.19737)"><path
           d="m 449.512,285.297 h 7.636 c 0.844,0 1.524,0.891 1.524,1.996 v 1.652 c 0,1.106 -0.68,1.996 -1.524,1.996 h -7.636 c -0.844,0 -1.524,-0.89 -1.524,-1.996 v -1.652 c 0,-1.105 0.68,-1.996 1.524,-1.996 z"
           style="fill:#01b8c5;fill-opacity:1;fill-rule:nonzero;stroke:#000000;stroke-width:1.30394;stroke-linecap:butt;stroke-linejoin:miter;stroke-miterlimit:4;stroke-dasharray:none;stroke-opacity:1"
           id="path991-7-0" /></g><g
         id="g993-8-6"
         transform="matrix(2.3285795,0,0,2.4424969,-665.03833,-391.19737)"><path
           d="m 438.086,312.008 h 25.953 c 0.879,0 1.59,0.719 1.59,1.617 v 2.137 c 0,0.894 -0.711,1.617 -1.59,1.617 h -25.953 c -0.879,0 -1.59,-0.723 -1.59,-1.617 v -2.137 c 0,-0.898 0.711,-1.617 1.59,-1.617 z"
           style="fill:#1a992d;fill-opacity:1;fill-rule:nonzero;stroke:#000000;stroke-width:1.30394;stroke-linecap:butt;stroke-linejoin:miter;stroke-miterlimit:4;stroke-dasharray:none;stroke-opacity:1"
           id="path995-9-2" /></g><g
         id="g997-15-9"
         transform="matrix(2.3285795,0,0,2.4424969,-665.03833,-391.19737)"><path
           d="m 329.652,298.703 h 14.7 c 0.968,0 1.75,0.883 1.75,1.981 v 1.621 c 0,1.097 -0.782,1.98 -1.75,1.98 h -14.7 c -0.968,0 -1.75,-0.883 -1.75,-1.98 v -1.621 c 0,-1.098 0.782,-1.981 1.75,-1.981 z"
           style="fill:#949494;fill-opacity:1;fill-rule:nonzero;stroke:#000000;stroke-width:1.30394;stroke-linecap:butt;stroke-linejoin:miter;stroke-miterlimit:4;stroke-dasharray:none;stroke-opacity:1"
           id="path999-4-9" /></g><g
         id="g1001-92-0"
         transform="matrix(2.3285795,0,0,2.4424969,-665.03833,-391.19737)"><path
           d="m 382.227,298.703 h 14.699 c 0.969,0 1.75,0.883 1.75,1.981 v 1.621 c 0,1.097 -0.781,1.98 -1.75,1.98 h -14.699 c -0.969,0 -1.75,-0.883 -1.75,-1.98 v -1.621 c 0,-1.098 0.781,-1.981 1.75,-1.981 z"
           style="fill:#949494;fill-opacity:1;fill-rule:nonzero;stroke:#000000;stroke-width:1.30394;stroke-linecap:butt;stroke-linejoin:miter;stroke-miterlimit:4;stroke-dasharray:none;stroke-opacity:1"
           id="path1003-5-8" /></g><g
         id="g1005-7-1"
         transform="matrix(2.3285795,0,0,2.4424969,-665.03833,-391.19737)"><path
           d="m 490.91,298.805 h 14.699 c 0.969,0 1.75,0.883 1.75,1.98 v 1.617 c 0,1.102 -0.781,1.985 -1.75,1.985 H 490.91 c -0.969,0 -1.75,-0.883 -1.75,-1.985 v -1.617 c 0,-1.097 0.781,-1.98 1.75,-1.98 z"
           style="fill:#949494;fill-opacity:1;fill-rule:nonzero;stroke:#000000;stroke-width:1.30394;stroke-linecap:butt;stroke-linejoin:miter;stroke-miterlimit:4;stroke-dasharray:none;stroke-opacity:1"
           id="path1007-4-3" /></g><g
         id="g1009-9-1"
         transform="matrix(2.3285795,0,0,2.4424969,-665.03833,-391.19737)"><path
           d="m 346.117,301.617 c 6.121,0.156 6.258,-13.094 11.727,-13.086"
           style="fill:none;stroke:#000000;stroke-width:1.30394;stroke-linecap:butt;stroke-linejoin:miter;stroke-miterlimit:4;stroke-dasharray:none;stroke-opacity:1"
           id="path1011-9-1" /></g><g
         id="g1013-4-0"
         transform="matrix(2.3285795,0,0,2.4424969,-665.03833,-391.19737)"><path
           d="m 369.055,288.785 c 6.047,-0.086 5.023,12.942 11.41,12.926"
           style="fill:none;stroke:#000000;stroke-width:1.30394;stroke-linecap:butt;stroke-linejoin:miter;stroke-miterlimit:4;stroke-dasharray:none;stroke-opacity:1"
           id="path1015-5-3" /></g><g
         id="g1021-9-4"
         transform="matrix(2.3285795,0,0,2.4424969,-665.03833,-391.19737)"><path
           d="m 398.703,301.645 c 5.985,-0.215 5.699,-12.715 11.555,-12.875"
           style="fill:none;stroke:#000000;stroke-width:1.30394;stroke-linecap:butt;stroke-linejoin:miter;stroke-miterlimit:4;stroke-dasharray:none;stroke-opacity:1"
           id="path1023-3-0" /></g><g
         id="g1025-5-3"
         transform="matrix(2.3285795,0,0,2.4424969,-665.03833,-391.19737)"><path
           d="m 421.156,288.152 26.922,0.008 c -4.316,-0.031 -4.277,-7.144 -7.996,-7.504"
           style="fill:none;stroke:#000000;stroke-width:1.30394;stroke-linecap:butt;stroke-linejoin:miter;stroke-miterlimit:4;stroke-dasharray:none;stroke-opacity:1"
           id="path1027-7-9" /></g><g
         id="g1029-0-1"
         transform="matrix(2.3285795,0,0,2.4424969,-665.03833,-391.19737)"><path
           d="m 429.059,280.367 c -3.793,0.024 -4.196,7.871 -7.852,7.828"
           style="fill:none;stroke:#000000;stroke-width:1.30394;stroke-linecap:butt;stroke-linejoin:miter;stroke-miterlimit:4;stroke-dasharray:none;stroke-opacity:1"
           id="path1031-8-9" /></g><g
         id="g1033-1-6"
         transform="matrix(2.3285795,0,0,2.4424969,-665.03833,-391.19737)"><path
           d="m 458.734,288.234 c 14.875,10.379 -37.89,17.688 -22.48,26.621"
           style="fill:none;stroke:#000000;stroke-width:1.30394;stroke-linecap:butt;stroke-linejoin:miter;stroke-miterlimit:4;stroke-dasharray:none;stroke-opacity:1"
           id="path1035-9-9" /></g><g
         id="g1037-9-3"
         transform="matrix(2.3285795,0,0,2.4424969,-665.03833,-391.19737)"><path
           d="m 459.047,288.473 c 6.223,0.511 24.855,12.894 30.137,13.324"
           style="fill:none;stroke:#000000;stroke-width:1.30394;stroke-linecap:butt;stroke-linejoin:miter;stroke-miterlimit:4;stroke-dasharray:none;stroke-opacity:1"
           id="path1039-7-3" /></g><g
         id="g1041-8-8"
         transform="matrix(2.3285795,0,0,2.4424969,-665.03833,-391.19737)"><path
           d="m 466.094,314.711 c 11.75,0.164 12.176,-12.609 23.054,-13.031"
           style="fill:none;stroke:#000000;stroke-width:1.30394;stroke-linecap:butt;stroke-linejoin:miter;stroke-miterlimit:4;stroke-dasharray:none;stroke-opacity:1"
           id="path1043-2-0" /></g><g
         id="g1045-5-5"
         transform="matrix(2.3285795,0,0,2.4424969,-665.03833,-391.19737)"><path
           d="m 436.449,314.816 c -11.875,-0.476 -26.09,-13.281 -37.804,-13.265"
           style="fill:none;stroke:#000000;stroke-width:1.30394;stroke-linecap:butt;stroke-linejoin:miter;stroke-miterlimit:4;stroke-dasharray:none;stroke-opacity:1"
           id="path1047-3-6" /></g><g
         id="g977-3-1-6-4-6"
         transform="matrix(2.3285795,0,0,2.4424969,-663.97815,-326.89901)"
         style="fill:#f2c300;fill-opacity:1"><path
           d="m 359.543,285.371 h 7.465 c 0.969,0 1.75,0.883 1.75,1.981 v 1.343 c 0,1.098 -0.781,1.981 -1.75,1.981 h -7.465 c -0.969,0 -1.746,-0.883 -1.746,-1.981 v -1.343 c 0,-1.098 0.777,-1.981 1.746,-1.981 z"
           style="fill:#f2c300;fill-opacity:1;fill-rule:nonzero;stroke:#000000;stroke-width:1.30394;stroke-linecap:butt;stroke-linejoin:miter;stroke-miterlimit:4;stroke-dasharray:none;stroke-opacity:1"
           id="path979-6-0-7-9-4" /></g><g
         id="g1009-0-1-3-0-0"
         transform="matrix(2.3285795,0,0,2.4424969,-612.81537,-359.60615)"><path
           d="m 346.117,301.617 c 6.121,0.156 6.258,-13.094 11.727,-13.086"
           style="fill:none;stroke:#000000;stroke-width:1.30394;stroke-linecap:butt;stroke-linejoin:miter;stroke-miterlimit:4;stroke-dasharray:none;stroke-opacity:1"
           id="path1011-6-5-6-2-0" /></g><g
         id="g1013-2-9-5-0-4"
         transform="matrix(2.3285795,0,0,2.4424969,-717.89085,-359.82551)"><path
           d="m 369.055,288.785 c 6.047,-0.086 5.023,12.942 11.41,12.926"
           style="fill:none;stroke:#000000;stroke-width:1.30394;stroke-linecap:butt;stroke-linejoin:miter;stroke-miterlimit:4;stroke-dasharray:none;stroke-opacity:1"
           id="path1015-6-7-6-19-6" /></g></g><path
       d="m 408.95055,1483.309 -0.009,3.3316 h -12.28791 v 6.5923 h 12.26929 l -0.009,3.2998 7.36763,-6.563 z"
       style="fill:#000000;fill-opacity:1;fill-rule:evenodd;stroke:#000000;stroke-width:0.0373164;stroke-linecap:butt;stroke-linejoin:miter;stroke-miterlimit:4;stroke-dasharray:none;stroke-opacity:1"
       id="path1115-7-3-7-2" /><path
       d="m 394.89434,1563.1495 c -1.30589,0 -2.35824,1.0736 -2.35824,2.4058 v 20.0108 c 0,1.3322 1.05235,2.4058 2.35824,2.4058 h 13.7613 v -24.8224 z"
       style="fill:#1a992d;fill-opacity:1;fill-rule:evenodd;stroke:#000000;stroke-width:2.95514;stroke-linecap:butt;stroke-linejoin:miter;stroke-miterlimit:5.4;stroke-dasharray:none;stroke-opacity:1"
       id="path959-8-6" /><path
       d="m 478.75136,1561.9186 v 24.9643 h 14.1203 c 1.3934,0 2.52428,-1.0827 2.52428,-2.4309 v -20.1024 c 0,-1.3505 -1.13088,-2.431 -2.52428,-2.431 z"
       style="fill:#1a992d;fill-opacity:1;fill-rule:evenodd;stroke:#000000;stroke-width:3.03387;stroke-linecap:butt;stroke-linejoin:miter;stroke-miterlimit:4;stroke-dasharray:none;stroke-opacity:1"
       id="path963-2-2" /><path
       d="m 243.10213,1501.6961 -0.0163,3.3291 h -12.29024 v 6.6021 h 12.27161 l -0.009,3.2925 4.59987,-4.093 2.76775,-2.4627 z"
       style="fill:#000000;fill-opacity:1;fill-rule:evenodd;stroke:#000000;stroke-width:0.0373164;stroke-linecap:butt;stroke-linejoin:miter;stroke-miterlimit:4;stroke-dasharray:none;stroke-opacity:1"
       id="path1107-5-9-4-6"
       sodipodi:nodetypes="ccccccccc" /><path
       d="m 305.47546,1534.1838 -0.009,3.3291 H 293.1669 v 6.5923 h 12.28093 l -0.0186,3.3023 7.36763,-6.5655 z"
       style="fill:#000000;fill-opacity:1;fill-rule:evenodd;stroke:#000000;stroke-width:0.0373164;stroke-linecap:butt;stroke-linejoin:miter;stroke-miterlimit:4;stroke-dasharray:none;stroke-opacity:1"
       id="path1111-9-3-0-1" /><path
       d="m 453.80365,1501.6668 -0.009,3.3389 h -12.29024 v 6.5923 h 12.27161 l -0.009,3.3023 7.36763,-6.563 z"
       style="fill:#000000;fill-opacity:1;fill-rule:evenodd;stroke:#000000;stroke-width:0.0373164;stroke-linecap:butt;stroke-linejoin:miter;stroke-miterlimit:4;stroke-dasharray:none;stroke-opacity:1"
       id="path1119-5-3-6-3" /><path
       d="m 449.0906,1566.603 -0.009,3.3389 h -12.28823 v 6.5923 h 12.27162 l -0.009,3.3023 7.35832,-6.5654 z"
       style="fill:#000000;fill-opacity:1;fill-rule:evenodd;stroke:#000000;stroke-width:0.0373164;stroke-linecap:butt;stroke-linejoin:miter;stroke-miterlimit:4;stroke-dasharray:none;stroke-opacity:1"
       id="path1123-5-7-4-2" /><path
       d="m 715.70586,1452.8696 h 30.7436 c 1.09873,0 1.99029,0.8424 1.99029,1.8806 v 13.2651 c 0,1.0404 -0.89156,1.874 -1.99029,1.874 h -30.7436 c -1.10106,0 -1.99262,-0.8336 -1.99262,-1.874 v -13.2651 c 0,-1.0382 0.89156,-1.8806 1.99262,-1.8806 z"
       style="opacity:0.152021;fill:#949494;fill-opacity:1;fill-rule:evenodd;stroke:#000000;stroke-width:2.95049;stroke-linecap:butt;stroke-linejoin:miter;stroke-miterlimit:4;stroke-dasharray:none;stroke-opacity:1"
       id="path475-9" /><path
       d="m 663.39262,1524.2851 h 30.2082 c 1.2547,0 2.26265,0.9524 2.26265,2.1379 v 12.7417 c 0,1.1855 -1.00795,2.1401 -2.26265,2.1401 h -30.2082 c -1.24539,0 -2.25566,-0.9546 -2.25566,-2.1401 v -12.7417 c 0,-1.1855 1.01027,-2.1379 2.25566,-2.1379 z"
       style="opacity:0.152021;fill:#f57600;fill-opacity:1;fill-rule:evenodd;stroke:#000000;stroke-width:2.95049;stroke-linecap:butt;stroke-linejoin:miter;stroke-miterlimit:4;stroke-dasharray:none;stroke-opacity:1"
       id="path479-9" /><path
       d="m 716.88839,1524.2587 h 30.13371 c 1.27332,0 2.29058,0.97 2.29058,2.1731 v 12.6735 c 0,1.2031 -1.01726,2.1731 -2.29058,2.1731 h -30.13371 c -1.27332,0 -2.29291,-0.97 -2.29291,-2.1731 v -12.6735 c 0,-1.2031 1.01959,-2.1731 2.29291,-2.1731 z"
       style="opacity:0.152021;fill:#01b8c5;fill-opacity:1;fill-rule:evenodd;stroke:#000000;stroke-width:2.95049;stroke-linecap:butt;stroke-linejoin:miter;stroke-miterlimit:4;stroke-dasharray:none;stroke-opacity:1"
       id="path483-1" /><path
       d="m 714.46047,1596.4726 h 34.72651 v 17.0109 h -34.72651 z"
       style="opacity:0.152021;fill:#dfb9f4;fill-opacity:1;fill-rule:evenodd;stroke:#000000;stroke-width:2.95049;stroke-linecap:butt;stroke-linejoin:round;stroke-miterlimit:4;stroke-dasharray:none;stroke-opacity:1"
       id="path487-4" /><path
       d="m 770.5541,1524.1729 h 30.11741 c 1.28264,0 2.30921,0.97 2.30921,2.1819 v 12.6647 c 0,1.2032 -1.02657,2.1731 -2.30921,2.1731 H 770.5541 c -1.27332,0 -2.29989,-0.9699 -2.29989,-2.1731 v -12.6647 c 0,-1.2119 1.02657,-2.1819 2.29989,-2.1819 z"
       style="fill:#1a992d;fill-opacity:1;fill-rule:evenodd;stroke:#000000;stroke-width:2.95049;stroke-linecap:butt;stroke-linejoin:miter;stroke-miterlimit:4;stroke-dasharray:none;stroke-opacity:1"
       id="path491-9" /><path
       d="m 775.87318,1497.5216 c 0,4.6893 -7.747,8.4967 -17.29342,8.4967 -9.55805,0 -17.30506,-3.8074 -17.30506,-8.4967 0,-4.6827 7.74701,-8.4901 17.30506,-8.4901 9.54642,0 17.29342,3.8074 17.29342,8.4901 z"
       style="opacity:0.152021;fill:#96dca1;fill-opacity:1;fill-rule:nonzero;stroke:#000000;stroke-width:2.95049;stroke-linecap:butt;stroke-linejoin:miter;stroke-miterlimit:4;stroke-dasharray:none;stroke-opacity:1"
       id="path495-1" /><path
       d="m 722.1423,1497.3566 c 0,4.6916 -7.74701,8.4901 -17.30274,8.4901 -9.54874,0 -17.29574,-3.7985 -17.29574,-8.4901 0,-4.6893 7.747,-8.4878 17.29574,-8.4878 9.55573,0 17.30274,3.7985 17.30274,8.4878 z"
       style="opacity:0.152021;fill:#c44601;fill-opacity:1;fill-rule:nonzero;stroke:#000000;stroke-width:2.95049;stroke-linecap:butt;stroke-linejoin:miter;stroke-miterlimit:4;stroke-dasharray:none;stroke-opacity:1"
       id="path499-0" /><path
       d="m 748.74004,1569.2868 c 0,4.6916 -7.7377,8.4901 -17.29575,8.4901 -9.55573,0 -17.29342,-3.7985 -17.29342,-8.4901 0,-4.6893 7.73769,-8.4878 17.29342,-8.4878 9.55805,0 17.29575,3.7985 17.29575,8.4878 z"
       style="opacity:0.152021;fill:#5f97eb;fill-opacity:1;fill-rule:nonzero;stroke:#000000;stroke-width:2.95049;stroke-linecap:butt;stroke-linejoin:miter;stroke-miterlimit:4;stroke-dasharray:none;stroke-opacity:1"
       id="path503-7" /><path
       d="m 705.11192,1489.0403 25.3058,-19.4259"
       style="opacity:0.152021;fill:none;stroke:#000000;stroke-width:2.95049;stroke-linecap:butt;stroke-linejoin:miter;stroke-miterlimit:4;stroke-dasharray:none;stroke-opacity:1"
       id="path507-5" /><path
       d="m 758.51458,1489.3241 -28.06893,-18.8937"
       style="opacity:0.152021;fill:none;stroke:#000000;stroke-width:2.95049;stroke-linecap:butt;stroke-linejoin:miter;stroke-miterlimit:4;stroke-dasharray:none;stroke-opacity:1"
       id="path511-8" /><path
       d="m 785.74084,1524.1377 -27.21695,-17.9985"
       style="opacity:0.152021;fill:none;stroke:#000000;stroke-width:2.95049;stroke-linecap:butt;stroke-linejoin:miter;stroke-miterlimit:4;stroke-dasharray:none;stroke-opacity:1"
       id="path515-7" /><path
       d="m 732.70132,1523.7264 25.82257,-17.7169"
       style="opacity:0.152021;fill:none;stroke:#000000;stroke-width:2.95049;stroke-linecap:butt;stroke-linejoin:miter;stroke-miterlimit:4;stroke-dasharray:none;stroke-opacity:1"
       id="path519-0" /><path
       d="m 705.01182,1505.9061 -24.45148,17.9479"
       style="opacity:0.152021;fill:#f57600;fill-opacity:1;fill-rule:nonzero;stroke:#000000;stroke-width:2.95049;stroke-linecap:butt;stroke-linejoin:miter;stroke-miterlimit:4;stroke-dasharray:none;stroke-opacity:1"
       id="path523-4" /><path
       d="m 732.39172,1541.3312 -0.0373,19.6063"
       style="opacity:0.152021;fill:none;stroke:#000000;stroke-width:2.95049;stroke-linecap:butt;stroke-linejoin:miter;stroke-miterlimit:4;stroke-dasharray:none;stroke-opacity:1"
       id="path527-8" /><path
       d="m 732.3824,1577.7593 0.009,18.8167"
       style="opacity:0.152021;fill:none;stroke:#000000;stroke-width:2.95049;stroke-linecap:butt;stroke-linejoin:miter;stroke-miterlimit:4;stroke-dasharray:none;stroke-opacity:1"
       id="path531-0" /></g></svg>
