<?xml version="1.0" encoding="UTF-8" standalone="no"?>
<!-- Created with Inkscape (http://www.inkscape.org/) -->

<svg
   width="689.63068mm"
   height="453.04684mm"
   viewBox="0 0 689.63067 453.04684"
   version="1.1"
   id="svg5"
   xml:space="preserve"
   inkscape:version="1.2.2 (b0a8486541, 2022-12-01)"
   sodipodi:docname="giraffe-zips10.svg"
   inkscape:export-filename="giraffe-zips7.svg"
   inkscape:export-xdpi="96"
   inkscape:export-ydpi="96"
   xmlns:inkscape="http://www.inkscape.org/namespaces/inkscape"
   xmlns:sodipodi="http://sodipodi.sourceforge.net/DTD/sodipodi-0.dtd"
   xmlns="http://www.w3.org/2000/svg"
   xmlns:svg="http://www.w3.org/2000/svg"><sodipodi:namedview
     id="namedview7"
     pagecolor="#ffffff"
     bordercolor="#000000"
     borderopacity="0.25"
     inkscape:showpageshadow="2"
     inkscape:pageopacity="0.0"
     inkscape:pagecheckerboard="0"
     inkscape:deskcolor="#d1d1d1"
     inkscape:document-units="mm"
     showgrid="false"
     inkscape:zoom="0.25"
     inkscape:cx="1672"
     inkscape:cy="998"
     inkscape:window-width="1854"
     inkscape:window-height="1011"
     inkscape:window-x="0"
     inkscape:window-y="0"
     inkscape:window-maximized="1"
     inkscape:current-layer="layer1" /><defs
     id="defs2" /><g
     inkscape:label="Calque 1"
     inkscape:groupmode="layer"
     id="layer1"
     transform="translate(-123.00181,-1393.0022)"><path
       d="m 155.42516,1660.7215 c -1.3059,0 -2.35824,1.0735 -2.35824,2.4058 v 20.0108 c 0,1.3322 1.05234,2.4057 2.35824,2.4057 h 13.76129 v -24.8223 z"
       style="fill:#949494;fill-opacity:1;fill-rule:evenodd;stroke:#000000;stroke-width:2.95514;stroke-linecap:butt;stroke-linejoin:miter;stroke-miterlimit:5.4;stroke-dasharray:none;stroke-opacity:1"
       id="path795-7" /><path
       d="m 779.37058,1660.6505 v 24.9643 h 14.1203 c 1.40238,0 2.52429,-1.0804 2.52429,-2.4218 v -20.1092 c 0,-1.3506 -1.12191,-2.4333 -2.52429,-2.4333 z"
       style="fill:#949494;fill-opacity:1;fill-rule:evenodd;stroke:#000000;stroke-width:3.03387;stroke-linecap:butt;stroke-linejoin:miter;stroke-miterlimit:4;stroke-dasharray:none;stroke-opacity:1"
       id="path799-7" /><path
       d="m 251.70708,1699.5825 -0.009,3.8548 h -14.61169 v 7.6271 h 14.59374 l -0.009,3.8181 8.76657,-7.5928 z"
       style="fill:#000000;fill-opacity:1;fill-rule:evenodd;stroke:#000000;stroke-width:2.95514;stroke-linecap:butt;stroke-linejoin:miter;stroke-miterlimit:4;stroke-dasharray:none;stroke-opacity:1"
       id="path803-6" /><path
       d="m 582.5996,1699.5825 -0.009,3.8548 h -14.62067 v 7.6271 h 14.60272 l -0.009,3.8181 8.75535,-7.5928 z"
       style="fill:#000000;fill-opacity:1;fill-rule:evenodd;stroke:#000000;stroke-width:2.95514;stroke-linecap:butt;stroke-linejoin:miter;stroke-miterlimit:4;stroke-dasharray:none;stroke-opacity:1"
       id="path807-4" /><path
       d="m 343.11544,1665.4964 -0.009,3.8639 h -14.61842 v 7.6271 h 14.59374 v 3.8181 l 8.75535,-7.5927 z"
       style="fill:#000000;fill-opacity:1;fill-rule:evenodd;stroke:#000000;stroke-width:2.95514;stroke-linecap:butt;stroke-linejoin:miter;stroke-miterlimit:4;stroke-dasharray:none;stroke-opacity:1"
       id="path811-3" /><path
       d="m 196.97829,1661.2045 c -9.66633,1.861 -16.08363,6.6176 -16.08363,11.9282 0,5.322 6.4173,10.0695 16.08363,11.9282 z"
       style="fill:#c44601;fill-opacity:1;fill-rule:nonzero;stroke:#000000;stroke-width:2.95514;stroke-linecap:butt;stroke-linejoin:miter;stroke-miterlimit:4;stroke-dasharray:none;stroke-opacity:1"
       id="path815-0" /><path
       d="m 300.65805,1661.2136 v 23.8381 c 10.30807,-1.6344 17.31998,-6.4551 17.32895,-11.919 0,-5.4525 -7.0119,-10.2824 -17.32895,-11.9191 z"
       style="fill:#c44601;fill-opacity:1;fill-rule:nonzero;stroke:#000000;stroke-width:2.95514;stroke-linecap:butt;stroke-linejoin:miter;stroke-miterlimit:4;stroke-dasharray:none;stroke-opacity:1"
       id="path819-3" /><path
       d="m 491.189,1733.3093 -0.009,3.8547 h -14.60945 v 7.6271 h 14.59374 l -0.009,3.8181 8.76432,-7.5904 z"
       style="fill:#000000;fill-opacity:1;fill-rule:evenodd;stroke:#000000;stroke-width:2.95514;stroke-linecap:butt;stroke-linejoin:miter;stroke-miterlimit:4;stroke-dasharray:none;stroke-opacity:1"
       id="path823-0" /><path
       d="m 436.46245,1695.2906 c -9.66858,1.861 -16.08363,6.6176 -16.08363,11.9282 0,5.3105 6.41505,10.0672 16.08363,11.9282 z"
       style="fill:#5f97eb;fill-opacity:1;fill-rule:nonzero;stroke:#000000;stroke-width:2.95514;stroke-linecap:butt;stroke-linejoin:miter;stroke-miterlimit:4;stroke-dasharray:none;stroke-opacity:1"
       id="path827-9" /><path
       d="m 540.14221,1695.4966 v 23.4444 c 10.3148,-1.6092 17.32671,-6.3567 17.33568,-11.7222 0,-5.3655 -7.02088,-10.113 -17.33568,-11.7222 z"
       style="fill:#5f97eb;fill-opacity:1;fill-rule:nonzero;stroke:#000000;stroke-width:2.95514;stroke-linecap:butt;stroke-linejoin:miter;stroke-miterlimit:4;stroke-dasharray:none;stroke-opacity:1"
       id="path831-2" /><path
       d="m 378.9648,1661.367 c -9.67755,1.8312 -16.09261,6.5261 -16.09261,11.7657 0,5.2487 6.41506,9.9344 16.09261,11.7679 z"
       style="fill:#96dca1;fill-opacity:1;fill-rule:nonzero;stroke:#000000;stroke-width:2.95514;stroke-linecap:butt;stroke-linejoin:miter;stroke-miterlimit:4;stroke-dasharray:none;stroke-opacity:1"
       id="path835-54" /><path
       d="m 750.35811,1661.1152 v 24.0349 c 10.29909,-1.6435 17.311,-6.5077 17.311,-12.0174 0,-5.4983 -7.01191,-10.3625 -17.311,-12.0175 z"
       style="fill:#96dca1;fill-opacity:1;fill-rule:nonzero;stroke:#000000;stroke-width:2.95514;stroke-linecap:butt;stroke-linejoin:miter;stroke-miterlimit:4;stroke-dasharray:none;stroke-opacity:1"
       id="path839-0" /><path
       d="m 701.39816,1699.5825 -0.009,3.8548 h -14.62067 v 7.6271 h 14.60272 l -0.009,3.8181 8.75759,-7.5928 z"
       style="fill:#000000;fill-opacity:1;fill-rule:evenodd;stroke:#000000;stroke-width:2.95514;stroke-linecap:butt;stroke-linejoin:miter;stroke-miterlimit:4;stroke-dasharray:none;stroke-opacity:1"
       id="path843-5" /><path
       d="m 169.75414,1672.9907 10.9655,0.2862"
       style="fill:none;stroke:#000000;stroke-width:2.95514;stroke-linecap:butt;stroke-linejoin:miter;stroke-miterlimit:4;stroke-dasharray:none;stroke-opacity:1"
       id="path847-9" /><path
       d="m 196.86386,1672.4711 c 9.65063,0.1694 2.39414,34.5142 11.53543,34.5233"
       style="fill:none;stroke:#000000;stroke-width:2.95514;stroke-linecap:butt;stroke-linejoin:miter;stroke-miterlimit:4;stroke-dasharray:none;stroke-opacity:1"
       id="path851-4" /><path
       d="m 226.98029,1707.2096 14.13825,0.018"
       style="fill:none;stroke:#000000;stroke-width:2.95514;stroke-linecap:butt;stroke-linejoin:miter;stroke-miterlimit:4;stroke-dasharray:none;stroke-opacity:1"
       id="path855-6" /><path
       d="m 256.53576,1707.2188 h 14.26166"
       style="fill:none;stroke:#000000;stroke-width:2.95514;stroke-linecap:butt;stroke-linejoin:miter;stroke-miterlimit:4;stroke-dasharray:none;stroke-opacity:1"
       id="path859-9" /><path
       d="m 289.42105,1706.9944 c 9.23104,0.1877 3.8055,-34.2554 11.31554,-34.3607"
       style="fill:none;stroke:#000000;stroke-width:2.95514;stroke-linecap:butt;stroke-linejoin:miter;stroke-miterlimit:4;stroke-dasharray:none;stroke-opacity:1"
       id="path863-2" /><path
       d="m 197.1017,1673.0091 103.77625,0.2495"
       style="fill:none;stroke:#000000;stroke-width:2.95514;stroke-linecap:butt;stroke-linejoin:miter;stroke-miterlimit:4;stroke-dasharray:none;stroke-opacity:1"
       id="path867-2" /><path
       d="m 317.70653,1673.1693 14.65433,-0.062"
       style="fill:none;stroke:#000000;stroke-width:2.95514;stroke-linecap:butt;stroke-linejoin:miter;stroke-miterlimit:4;stroke-dasharray:none;stroke-opacity:1"
       id="path871-4" /><path
       d="m 348.05855,1673.1601 14.79569,-0.053"
       style="fill:none;stroke:#000000;stroke-width:2.95514;stroke-linecap:butt;stroke-linejoin:miter;stroke-miterlimit:4;stroke-dasharray:none;stroke-opacity:1"
       id="path875-7" /><path
       d="m 378.91993,1672.6245 c 7.06576,-0.055 4.56615,34.1388 11.32451,34.505"
       style="fill:none;stroke:#000000;stroke-width:2.95514;stroke-linecap:butt;stroke-linejoin:miter;stroke-miterlimit:4;stroke-dasharray:none;stroke-opacity:1"
       id="path879-7" /><path
       d="m 409.04533,1707.2371 11.29759,-0.037"
       style="fill:none;stroke:#000000;stroke-width:2.95514;stroke-linecap:butt;stroke-linejoin:miter;stroke-miterlimit:4;stroke-dasharray:none;stroke-opacity:1"
       id="path883-5" /><path
       d="m 436.56791,1706.9143 c 9.43971,0.2427 4.16227,34.8003 11.51524,34.4249"
       style="fill:none;stroke:#000000;stroke-width:2.95514;stroke-linecap:butt;stroke-linejoin:miter;stroke-miterlimit:4;stroke-dasharray:none;stroke-opacity:1"
       id="path887-4" /><path
       d="m 466.60356,1740.9821 13.77027,-0.08"
       style="fill:none;stroke:#000000;stroke-width:2.95514;stroke-linecap:butt;stroke-linejoin:miter;stroke-miterlimit:4;stroke-dasharray:none;stroke-opacity:1"
       id="path891-8" /><path
       d="m 496.01094,1740.9203 14.3043,0.043"
       style="fill:#000000;fill-opacity:1;fill-rule:nonzero;stroke:#000000;stroke-width:2.95514;stroke-linecap:butt;stroke-linejoin:miter;stroke-miterlimit:4;stroke-dasharray:none;stroke-opacity:1"
       id="path895-1" /><path
       d="m 529.0892,1741.2774 c 8.11587,-0.037 4.18022,-33.7542 11.07096,-34.4958"
       style="fill:none;stroke:#000000;stroke-width:2.95514;stroke-linecap:butt;stroke-linejoin:miter;stroke-miterlimit:4;stroke-dasharray:none;stroke-opacity:1"
       id="path899-2" /><path
       d="m 436.58362,1707.3172 103.54064,-0.1969"
       style="fill:none;stroke:#000000;stroke-width:2.95514;stroke-linecap:butt;stroke-linejoin:miter;stroke-miterlimit:4;stroke-dasharray:none;stroke-opacity:1"
       id="path903-8" /><path
       d="m 557.49585,1707.2096 14.47931,0.018"
       style="fill:none;stroke:#000000;stroke-width:2.95514;stroke-linecap:butt;stroke-linejoin:miter;stroke-miterlimit:4;stroke-dasharray:none;stroke-opacity:1"
       id="path907-9" /><path
       d="m 587.41033,1707.2897 14.09337,-0.1419"
       style="fill:none;stroke:#000000;stroke-width:2.95514;stroke-linecap:butt;stroke-linejoin:miter;stroke-miterlimit:4;stroke-dasharray:none;stroke-opacity:1"
       id="path911-3" /><path
       d="m 620.44595,1707.2897 38.19639,-0.4189"
       style="fill:none;stroke:#000000;stroke-width:2.95514;stroke-linecap:butt;stroke-linejoin:miter;stroke-miterlimit:4;stroke-dasharray:none;stroke-opacity:1"
       id="path915-6" /><path
       d="m 676.81272,1707.2279 13.90041,-0.018"
       style="fill:none;stroke:#000000;stroke-width:2.95514;stroke-linecap:butt;stroke-linejoin:miter;stroke-miterlimit:4;stroke-dasharray:none;stroke-opacity:1"
       id="path919-8" /><path
       d="m 706.20216,1707.2462 14.18088,-0.055"
       style="fill:#000000;fill-opacity:1;fill-rule:nonzero;stroke:#000000;stroke-width:2.95514;stroke-linecap:butt;stroke-linejoin:miter;stroke-miterlimit:4;stroke-dasharray:none;stroke-opacity:1"
       id="path923-0" /><path
       d="m 739.35895,1706.9418 c 8.06425,-0.1877 2.33132,-33.8183 10.86902,-34.3814"
       style="fill:none;stroke:#000000;stroke-width:2.95514;stroke-linecap:butt;stroke-linejoin:miter;stroke-miterlimit:4;stroke-dasharray:none;stroke-opacity:1"
       id="path927-2" /><path
       d="m 767.59057,1673.0709 10.98121,0.1259"
       style="fill:none;stroke:#000000;stroke-width:2.95514;stroke-linecap:butt;stroke-linejoin:miter;stroke-miterlimit:4;stroke-dasharray:none;stroke-opacity:1"
       id="path931-1" /><path
       d="m 378.42853,1672.1415 370.91313,-0.4647"
       style="fill:none;stroke:#000000;stroke-width:2.95514;stroke-linecap:butt;stroke-linejoin:miter;stroke-miterlimit:4;stroke-dasharray:none;stroke-opacity:1"
       id="path935-0" /><path
       d="m 620.50654,1706.8869 c 15.54961,-1.0553 23.26158,-22.1465 36.89946,-22.3891 14.05075,-0.2404 37.48062,-0.062 64.66887,-0.2221 11.43671,-0.073 13.2699,-11.4818 26.85617,-11.3925"
       style="fill:none;stroke:#000000;stroke-width:2.95514;stroke-linecap:butt;stroke-linejoin:miter;stroke-miterlimit:4;stroke-dasharray:none;stroke-opacity:1"
       id="path939-5" /><path
       d="m 379.07924,1672.874 c 10.4023,0.5288 40.37962,11.8298 60.88804,12.0884 47.40051,0.5906 143.89334,-1.6366 181.8115,-0.6432 12.29608,0.3228 26.02147,21.4872 36.22408,22.7027"
       style="fill:none;stroke:#000000;stroke-width:2.95514;stroke-linecap:butt;stroke-linejoin:miter;stroke-miterlimit:4;stroke-dasharray:none;stroke-opacity:1"
       id="path943-1" /><path
       d="m 211.88841,1694.8076 c -1.30589,0 -2.36722,1.0736 -2.36722,2.4058 v 20.0108 c 0,1.3322 1.06133,2.4058 2.36722,2.4058 h 13.75232 v -24.8224 z"
       style="fill:#f57600;fill-opacity:1;fill-rule:evenodd;stroke:#000000;stroke-width:2.95514;stroke-linecap:butt;stroke-linejoin:miter;stroke-miterlimit:5.4;stroke-dasharray:none;stroke-opacity:1"
       id="path947-1" /><path
       d="m 393.89961,1694.8076 c -1.3059,0 -2.35825,1.0736 -2.35825,2.4058 v 20.0108 c 0,1.3322 1.05235,2.4058 2.35825,2.4058 h 13.76129 v -24.8224 z"
       style="fill:#01b8c5;fill-opacity:1;fill-rule:evenodd;stroke:#000000;stroke-width:2.95514;stroke-linecap:butt;stroke-linejoin:miter;stroke-miterlimit:5.4;stroke-dasharray:none;stroke-opacity:1"
       id="path951-0" /><path
       d="m 451.87968,1728.5275 c -1.3059,0 -2.35825,1.0804 -2.35825,2.4126 v 20.0039 c 0,1.3323 1.05235,2.4127 2.35825,2.4127 h 13.76129 v -24.8292 z"
       style="fill:#dfb9f4;fill-opacity:1;fill-rule:evenodd;stroke:#000000;stroke-width:2.95514;stroke-linecap:butt;stroke-linejoin:miter;stroke-miterlimit:5.4;stroke-dasharray:none;stroke-opacity:1"
       id="path955-8" /><path
       d="m 661.86894,1694.8076 c -1.30589,0 -2.35824,1.0736 -2.35824,2.4058 v 20.0108 c 0,1.3322 1.05235,2.4058 2.35824,2.4058 h 13.7613 v -24.8224 z"
       style="fill:#1a992d;fill-opacity:1;fill-rule:evenodd;stroke:#000000;stroke-width:2.95514;stroke-linecap:butt;stroke-linejoin:miter;stroke-miterlimit:5.4;stroke-dasharray:none;stroke-opacity:1"
       id="path959-5" /><path
       d="m 721.29403,1694.7366 v 24.9643 h 14.1203 c 1.3934,0 2.52428,-1.0827 2.52428,-2.4309 v -20.1024 c 0,-1.3505 -1.13088,-2.431 -2.52428,-2.431 z"
       style="fill:#1a992d;fill-opacity:1;fill-rule:evenodd;stroke:#000000;stroke-width:3.03387;stroke-linecap:butt;stroke-linejoin:miter;stroke-miterlimit:4;stroke-dasharray:none;stroke-opacity:1"
       id="path963-0" /><path
       d="m 602.48649,1694.7366 v 24.9643 h 14.1203 c 1.40239,0 2.53327,-1.0827 2.53327,-2.4309 v -20.1024 c 0,-1.3505 -1.13088,-2.431 -2.53327,-2.431 z"
       style="fill:#01b8c5;fill-opacity:1;fill-rule:evenodd;stroke:#000000;stroke-width:3.03387;stroke-linecap:butt;stroke-linejoin:miter;stroke-miterlimit:4;stroke-dasharray:none;stroke-opacity:1"
       id="path967-6" /><path
       d="m 511.13872,1728.4542 v 24.9734 h 14.1203 c 1.40238,0 2.52428,-1.0895 2.52428,-2.4309 v -20.1092 c 0,-1.3414 -1.1219,-2.4333 -2.52428,-2.4333 z"
       style="fill:#dfb9f4;fill-opacity:1;fill-rule:evenodd;stroke:#000000;stroke-width:3.03387;stroke-linecap:butt;stroke-linejoin:miter;stroke-miterlimit:4;stroke-dasharray:none;stroke-opacity:1"
       id="path971-46" /><path
       d="m 271.51544,1694.7366 v 24.9643 h 14.1203 c 1.40238,0 2.53326,-1.0827 2.53326,-2.4309 v -20.1024 c 0,-1.3505 -1.13088,-2.431 -2.53326,-2.431 z"
       style="fill:#f57600;fill-opacity:1;fill-rule:evenodd;stroke:#000000;stroke-width:3.03387;stroke-linecap:butt;stroke-linejoin:miter;stroke-miterlimit:4;stroke-dasharray:none;stroke-opacity:1"
       id="path975-2" /><g
       id="g16364-7-8"
       inkscape:label="graph"
       transform="translate(59.387119,1195.0656)"
       style="opacity:0.152999"><g
         id="g977-9-6"
         transform="matrix(2.3285795,0,0,2.4424969,-665.03833,-391.19737)"><path
           d="m 359.543,285.371 h 7.465 c 0.969,0 1.75,0.883 1.75,1.981 v 1.343 c 0,1.098 -0.781,1.981 -1.75,1.981 h -7.465 c -0.969,0 -1.746,-0.883 -1.746,-1.981 v -1.343 c 0,-1.098 0.777,-1.981 1.746,-1.981 z"
           style="fill:#f57600;fill-opacity:1;fill-rule:nonzero;stroke:#000000;stroke-width:1.30394;stroke-linecap:butt;stroke-linejoin:miter;stroke-miterlimit:4;stroke-dasharray:none;stroke-opacity:1"
           id="path979-3-2" /></g><g
         id="g981-9-8"
         transform="matrix(2.3285795,0,0,2.4424969,-665.03833,-391.19737)"><path
           d="m 411.941,285.414 h 7.704 c 0.851,0 1.535,0.891 1.535,1.992 v 1.657 c 0,1.101 -0.684,1.992 -1.535,1.992 h -7.704 c -0.851,0 -1.539,-0.891 -1.539,-1.992 v -1.657 c 0,-1.101 0.688,-1.992 1.539,-1.992 z"
           style="fill:#01b8c5;fill-opacity:1;fill-rule:nonzero;stroke:#000000;stroke-width:1.30394;stroke-linecap:butt;stroke-linejoin:miter;stroke-miterlimit:4;stroke-dasharray:none;stroke-opacity:1"
           id="path983-2-4" /></g><g
         id="g985-8-7"
         transform="matrix(2.3285795,0,0,2.4424969,-665.03833,-391.19737)"><path
           d="m 430.668,277.891 h 7.773 c 0.86,0 1.551,0.886 1.551,1.992 v 1.652 c 0,1.106 -0.691,1.992 -1.551,1.992 h -7.773 c -0.859,0 -1.547,-0.886 -1.547,-1.992 v -1.652 c 0,-1.106 0.688,-1.992 1.547,-1.992 z"
           style="fill:#dfb9f4;fill-opacity:1;fill-rule:nonzero;stroke:#000000;stroke-width:1.30394;stroke-linecap:butt;stroke-linejoin:miter;stroke-miterlimit:4;stroke-dasharray:none;stroke-opacity:1"
           id="path987-30-2" /></g><g
         id="g989-1-4"
         transform="matrix(2.3285795,0,0,2.4424969,-665.03833,-391.19737)"><path
           d="m 449.512,285.297 h 7.636 c 0.844,0 1.524,0.891 1.524,1.996 v 1.652 c 0,1.106 -0.68,1.996 -1.524,1.996 h -7.636 c -0.844,0 -1.524,-0.89 -1.524,-1.996 v -1.652 c 0,-1.105 0.68,-1.996 1.524,-1.996 z"
           style="fill:#01b8c5;fill-opacity:1;fill-rule:nonzero;stroke:#000000;stroke-width:1.30394;stroke-linecap:butt;stroke-linejoin:miter;stroke-miterlimit:4;stroke-dasharray:none;stroke-opacity:1"
           id="path991-7-0" /></g><g
         id="g993-8-6"
         transform="matrix(2.3285795,0,0,2.4424969,-665.03833,-391.19737)"><path
           d="m 438.086,312.008 h 25.953 c 0.879,0 1.59,0.719 1.59,1.617 v 2.137 c 0,0.894 -0.711,1.617 -1.59,1.617 h -25.953 c -0.879,0 -1.59,-0.723 -1.59,-1.617 v -2.137 c 0,-0.898 0.711,-1.617 1.59,-1.617 z"
           style="fill:#1a992d;fill-opacity:1;fill-rule:nonzero;stroke:#000000;stroke-width:1.30394;stroke-linecap:butt;stroke-linejoin:miter;stroke-miterlimit:4;stroke-dasharray:none;stroke-opacity:1"
           id="path995-9-2" /></g><g
         id="g997-15-9"
         transform="matrix(2.3285795,0,0,2.4424969,-665.03833,-391.19737)"><path
           d="m 329.652,298.703 h 14.7 c 0.968,0 1.75,0.883 1.75,1.981 v 1.621 c 0,1.097 -0.782,1.98 -1.75,1.98 h -14.7 c -0.968,0 -1.75,-0.883 -1.75,-1.98 v -1.621 c 0,-1.098 0.782,-1.981 1.75,-1.981 z"
           style="fill:#949494;fill-opacity:1;fill-rule:nonzero;stroke:#000000;stroke-width:1.30394;stroke-linecap:butt;stroke-linejoin:miter;stroke-miterlimit:4;stroke-dasharray:none;stroke-opacity:1"
           id="path999-4-9" /></g><g
         id="g1001-92-0"
         transform="matrix(2.3285795,0,0,2.4424969,-665.03833,-391.19737)"><path
           d="m 382.227,298.703 h 14.699 c 0.969,0 1.75,0.883 1.75,1.981 v 1.621 c 0,1.097 -0.781,1.98 -1.75,1.98 h -14.699 c -0.969,0 -1.75,-0.883 -1.75,-1.98 v -1.621 c 0,-1.098 0.781,-1.981 1.75,-1.981 z"
           style="fill:#949494;fill-opacity:1;fill-rule:nonzero;stroke:#000000;stroke-width:1.30394;stroke-linecap:butt;stroke-linejoin:miter;stroke-miterlimit:4;stroke-dasharray:none;stroke-opacity:1"
           id="path1003-5-8" /></g><g
         id="g1005-7-1"
         transform="matrix(2.3285795,0,0,2.4424969,-665.03833,-391.19737)"><path
           d="m 490.91,298.805 h 14.699 c 0.969,0 1.75,0.883 1.75,1.98 v 1.617 c 0,1.102 -0.781,1.985 -1.75,1.985 H 490.91 c -0.969,0 -1.75,-0.883 -1.75,-1.985 v -1.617 c 0,-1.097 0.781,-1.98 1.75,-1.98 z"
           style="fill:#949494;fill-opacity:1;fill-rule:nonzero;stroke:#000000;stroke-width:1.30394;stroke-linecap:butt;stroke-linejoin:miter;stroke-miterlimit:4;stroke-dasharray:none;stroke-opacity:1"
           id="path1007-4-3" /></g><g
         id="g1009-9-1"
         transform="matrix(2.3285795,0,0,2.4424969,-665.03833,-391.19737)"><path
           d="m 346.117,301.617 c 6.121,0.156 6.258,-13.094 11.727,-13.086"
           style="fill:none;stroke:#000000;stroke-width:1.30394;stroke-linecap:butt;stroke-linejoin:miter;stroke-miterlimit:4;stroke-dasharray:none;stroke-opacity:1"
           id="path1011-9-1" /></g><g
         id="g1013-4-0"
         transform="matrix(2.3285795,0,0,2.4424969,-665.03833,-391.19737)"><path
           d="m 369.055,288.785 c 6.047,-0.086 5.023,12.942 11.41,12.926"
           style="fill:none;stroke:#000000;stroke-width:1.30394;stroke-linecap:butt;stroke-linejoin:miter;stroke-miterlimit:4;stroke-dasharray:none;stroke-opacity:1"
           id="path1015-5-3" /></g><g
         id="g1021-9-4"
         transform="matrix(2.3285795,0,0,2.4424969,-665.03833,-391.19737)"><path
           d="m 398.703,301.645 c 5.985,-0.215 5.699,-12.715 11.555,-12.875"
           style="fill:none;stroke:#000000;stroke-width:1.30394;stroke-linecap:butt;stroke-linejoin:miter;stroke-miterlimit:4;stroke-dasharray:none;stroke-opacity:1"
           id="path1023-3-0" /></g><g
         id="g1025-5-3"
         transform="matrix(2.3285795,0,0,2.4424969,-665.03833,-391.19737)"><path
           d="m 421.156,288.152 26.922,0.008 c -4.316,-0.031 -4.277,-7.144 -7.996,-7.504"
           style="fill:none;stroke:#000000;stroke-width:1.30394;stroke-linecap:butt;stroke-linejoin:miter;stroke-miterlimit:4;stroke-dasharray:none;stroke-opacity:1"
           id="path1027-7-9" /></g><g
         id="g1029-0-1"
         transform="matrix(2.3285795,0,0,2.4424969,-665.03833,-391.19737)"><path
           d="m 429.059,280.367 c -3.793,0.024 -4.196,7.871 -7.852,7.828"
           style="fill:none;stroke:#000000;stroke-width:1.30394;stroke-linecap:butt;stroke-linejoin:miter;stroke-miterlimit:4;stroke-dasharray:none;stroke-opacity:1"
           id="path1031-8-9" /></g><g
         id="g1033-1-6"
         transform="matrix(2.3285795,0,0,2.4424969,-665.03833,-391.19737)"><path
           d="m 458.734,288.234 c 14.875,10.379 -37.89,17.688 -22.48,26.621"
           style="fill:none;stroke:#000000;stroke-width:1.30394;stroke-linecap:butt;stroke-linejoin:miter;stroke-miterlimit:4;stroke-dasharray:none;stroke-opacity:1"
           id="path1035-9-9" /></g><g
         id="g1037-9-3"
         transform="matrix(2.3285795,0,0,2.4424969,-665.03833,-391.19737)"><path
           d="m 459.047,288.473 c 6.223,0.511 24.855,12.894 30.137,13.324"
           style="fill:none;stroke:#000000;stroke-width:1.30394;stroke-linecap:butt;stroke-linejoin:miter;stroke-miterlimit:4;stroke-dasharray:none;stroke-opacity:1"
           id="path1039-7-3" /></g><g
         id="g1041-8-8"
         transform="matrix(2.3285795,0,0,2.4424969,-665.03833,-391.19737)"><path
           d="m 466.094,314.711 c 11.75,0.164 12.176,-12.609 23.054,-13.031"
           style="fill:none;stroke:#000000;stroke-width:1.30394;stroke-linecap:butt;stroke-linejoin:miter;stroke-miterlimit:4;stroke-dasharray:none;stroke-opacity:1"
           id="path1043-2-0" /></g><g
         id="g1045-5-5"
         transform="matrix(2.3285795,0,0,2.4424969,-665.03833,-391.19737)"><path
           d="m 436.449,314.816 c -11.875,-0.476 -26.09,-13.281 -37.804,-13.265"
           style="fill:none;stroke:#000000;stroke-width:1.30394;stroke-linecap:butt;stroke-linejoin:miter;stroke-miterlimit:4;stroke-dasharray:none;stroke-opacity:1"
           id="path1047-3-6" /></g><g
         id="g977-3-1-6-4-6"
         transform="matrix(2.3285795,0,0,2.4424969,-663.97815,-326.89901)"
         style="fill:#f2c300;fill-opacity:1"><path
           d="m 359.543,285.371 h 7.465 c 0.969,0 1.75,0.883 1.75,1.981 v 1.343 c 0,1.098 -0.781,1.981 -1.75,1.981 h -7.465 c -0.969,0 -1.746,-0.883 -1.746,-1.981 v -1.343 c 0,-1.098 0.777,-1.981 1.746,-1.981 z"
           style="fill:#f2c300;fill-opacity:1;fill-rule:nonzero;stroke:#000000;stroke-width:1.30394;stroke-linecap:butt;stroke-linejoin:miter;stroke-miterlimit:4;stroke-dasharray:none;stroke-opacity:1"
           id="path979-6-0-7-9-4" /></g><g
         id="g1009-0-1-3-0-0"
         transform="matrix(2.3285795,0,0,2.4424969,-612.81537,-359.60615)"><path
           d="m 346.117,301.617 c 6.121,0.156 6.258,-13.094 11.727,-13.086"
           style="fill:none;stroke:#000000;stroke-width:1.30394;stroke-linecap:butt;stroke-linejoin:miter;stroke-miterlimit:4;stroke-dasharray:none;stroke-opacity:1"
           id="path1011-6-5-6-2-0" /></g><g
         id="g1013-2-9-5-0-4"
         transform="matrix(2.3285795,0,0,2.4424969,-717.89085,-359.82551)"><path
           d="m 369.055,288.785 c 6.047,-0.086 5.023,12.942 11.41,12.926"
           style="fill:none;stroke:#000000;stroke-width:1.30394;stroke-linecap:butt;stroke-linejoin:miter;stroke-miterlimit:4;stroke-dasharray:none;stroke-opacity:1"
           id="path1015-6-7-6-19-6" /></g></g><path
       d="m 408.95055,1483.717 -0.009,3.3316 h -12.28791 v 6.5923 h 12.26929 l -0.009,3.2998 7.36763,-6.563 z"
       style="fill:#000000;fill-opacity:1;fill-rule:evenodd;stroke:#000000;stroke-width:0.0373164;stroke-linecap:butt;stroke-linejoin:miter;stroke-miterlimit:4;stroke-dasharray:none;stroke-opacity:1"
       id="path1115-7-3-7-2" /><path
       d="m 243.10213,1501.6961 -0.0163,3.3291 h -12.29024 v 6.6021 h 12.27161 l -0.009,3.2925 4.59987,-4.093 2.76775,-2.4627 z"
       style="fill:#000000;fill-opacity:1;fill-rule:evenodd;stroke:#000000;stroke-width:0.0373164;stroke-linecap:butt;stroke-linejoin:miter;stroke-miterlimit:4;stroke-dasharray:none;stroke-opacity:1"
       id="path1107-5-9-4-6"
       sodipodi:nodetypes="ccccccccc" /><path
       d="m 305.47546,1534.2187 -0.009,3.3291 H 293.1669 v 6.5923 h 12.28093 l -0.0186,3.3023 7.36763,-6.5655 z"
       style="fill:#000000;fill-opacity:1;fill-rule:evenodd;stroke:#000000;stroke-width:0.0373164;stroke-linecap:butt;stroke-linejoin:miter;stroke-miterlimit:4;stroke-dasharray:none;stroke-opacity:1"
       id="path1111-9-3-0-1" /><path
       d="m 453.80365,1497.8382 -0.009,3.3389 h -12.29024 v 6.5923 h 12.27161 l -0.009,3.3023 7.36763,-6.563 z"
       style="fill:#000000;fill-opacity:1;fill-rule:evenodd;stroke:#000000;stroke-width:0.0373164;stroke-linecap:butt;stroke-linejoin:miter;stroke-miterlimit:4;stroke-dasharray:none;stroke-opacity:1"
       id="path1119-5-3-6-3" /><path
       d="m 449.0906,1566.603 -0.009,3.3389 h -12.28823 v 6.5923 h 12.27162 l -0.009,3.3023 7.35832,-6.5654 z"
       style="fill:#000000;fill-opacity:1;fill-rule:evenodd;stroke:#000000;stroke-width:0.0373164;stroke-linecap:butt;stroke-linejoin:miter;stroke-miterlimit:4;stroke-dasharray:none;stroke-opacity:1"
       id="path1123-5-7-4-2" /><path
       d="m 354.35773,1688.3801 c 0.087,5.2854 -0.1571,10.4174 -0.2177,16.7832 m 118.8502,67.8495 -0.2087,18.429 m -117.818,-94.503 c 14.7082,0.1694 16.5908,0.6707 20.4658,5.1137 4.4271,5.0702 0.9895,30.2314 3.8908,33.056 3.9446,3.9715 37.9698,0.3938 42.0378,4.759 4.0747,4.2644 -0.202,34.2715 4.0658,38.7878 4.1981,4.0332 30.0109,3.0032 46.6376,3.0856"
       style="fill:none;stroke:#000000;stroke-width:2.56968;stroke-linecap:butt;stroke-linejoin:miter;stroke-miterlimit:4;stroke-dasharray:none;stroke-opacity:1"
       id="path539-1" /><text
       xml:space="preserve"
       style="font-size:3.175px;fill:#000000;stroke-width:1.4;stroke-dasharray:none"
       x="374.66406"
       y="1757.5109"
       id="text250-67-3-4-1-3-8-7-2-4"
       inkscape:label="text250-67-3-4-1-3"><tspan
         sodipodi:role="line"
         style="font-style:normal;font-variant:normal;font-weight:normal;font-stretch:normal;font-size:11.2889px;font-family:sans-serif;-inkscape-font-specification:'sans-serif, Normal';font-variant-ligatures:normal;font-variant-caps:normal;font-variant-numeric:normal;font-variant-east-asian:normal;stroke-width:1.4;stroke-dasharray:none"
         x="374.66406"
         y="1757.5109"
         id="tspan16216-9-7-8-2">graph</tspan><tspan
         sodipodi:role="line"
         style="font-style:normal;font-variant:normal;font-weight:normal;font-stretch:normal;font-size:11.2889px;font-family:sans-serif;-inkscape-font-specification:'sans-serif, Normal';font-variant-ligatures:normal;font-variant-caps:normal;font-variant-numeric:normal;font-variant-east-asian:normal;stroke-width:1.4;stroke-dasharray:none"
         x="374.66406"
         y="1771.6219"
         id="tspan35795-9">distance</tspan></text><text
       xml:space="preserve"
       style="font-style:normal;font-variant:normal;font-weight:normal;font-stretch:normal;font-size:16.9333px;font-family:sans-serif;-inkscape-font-specification:'sans-serif, Normal';font-variant-ligatures:normal;font-variant-caps:normal;font-variant-numeric:normal;font-variant-east-asian:normal;fill:#000000;stroke-width:1.4;stroke-dasharray:none"
       x="158.64757"
       y="1770.703"
       id="text250-67-3-0-2"><tspan
         sodipodi:role="line"
         style="font-style:normal;font-variant:normal;font-weight:normal;font-stretch:normal;font-size:16.9333px;font-family:sans-serif;-inkscape-font-specification:'sans-serif, Normal';font-variant-ligatures:normal;font-variant-caps:normal;font-variant-numeric:normal;font-variant-east-asian:normal;stroke-width:1.4;stroke-dasharray:none"
         x="158.64757"
         y="1770.703"
         id="tspan333">Distances can be found</tspan><tspan
         sodipodi:role="line"
         style="font-style:normal;font-variant:normal;font-weight:normal;font-stretch:normal;font-size:16.9333px;font-family:sans-serif;-inkscape-font-specification:'sans-serif, Normal';font-variant-ligatures:normal;font-variant-caps:normal;font-variant-numeric:normal;font-variant-east-asian:normal;stroke-width:1.4;stroke-dasharray:none"
         x="158.64757"
         y="1791.8696"
         id="tspan2866">in a walk through the </tspan><tspan
         sodipodi:role="line"
         style="font-style:normal;font-variant:normal;font-weight:normal;font-stretch:normal;font-size:16.9333px;font-family:sans-serif;-inkscape-font-specification:'sans-serif, Normal';font-variant-ligatures:normal;font-variant-caps:normal;font-variant-numeric:normal;font-variant-east-asian:normal;stroke-width:1.4;stroke-dasharray:none"
         x="158.64757"
         y="1813.0363"
         id="tspan2868">zip code tree</tspan></text><g
       id="g1929"
       transform="translate(-1.151395,-7.533155)"><path
         d="m 691.8016,1452.8696 h 30.7436 c 1.09874,0 1.99029,0.8424 1.99029,1.8806 v 13.2651 c 0,1.0404 -0.89156,1.874 -1.99029,1.874 h -30.7436 c -1.10105,0 -1.99262,-0.8336 -1.99262,-1.874 v -13.2651 c 0,-1.0382 0.89157,-1.8806 1.99262,-1.8806 z"
         style="fill:#949494;fill-opacity:1;fill-rule:evenodd;stroke:#000000;stroke-width:2.95049;stroke-linecap:butt;stroke-linejoin:miter;stroke-miterlimit:4;stroke-dasharray:none;stroke-opacity:1"
         id="path475-9" /><path
         d="m 665.87046,1524.2851 h 30.2082 c 1.2547,0 2.26265,0.9524 2.26265,2.1379 v 12.7417 c 0,1.1855 -1.00795,2.1401 -2.26265,2.1401 h -30.2082 c -1.24539,0 -2.25566,-0.9546 -2.25566,-2.1401 v -12.7417 c 0,-1.1855 1.01027,-2.1379 2.25566,-2.1379 z"
         style="opacity:0.100497;fill:#f2c300;fill-opacity:1;fill-rule:evenodd;stroke:#000000;stroke-width:2.95049;stroke-linecap:butt;stroke-linejoin:miter;stroke-miterlimit:4;stroke-dasharray:none;stroke-opacity:1"
         id="path479-9" /><path
         d="m 613.61011,1524.0456 h 30.2082 c 1.2547,0 2.26265,0.9524 2.26265,2.1379 v 12.7417 c 0,1.1855 -1.00795,2.1401 -2.26265,2.1401 h -30.2082 c -1.24539,0 -2.25566,-0.9546 -2.25566,-2.1401 v -12.7417 c 0,-1.1855 1.01027,-2.1379 2.25566,-2.1379 z"
         style="fill:#f57600;fill-opacity:1;fill-rule:evenodd;stroke:#000000;stroke-width:2.95049;stroke-linecap:butt;stroke-linejoin:miter;stroke-miterlimit:4;stroke-dasharray:none;stroke-opacity:1"
         id="path479-9-5" /><path
         d="m 718.29142,1524.2587 h 30.13371 c 1.27332,0 2.29058,0.97 2.29058,2.1731 v 12.6735 c 0,1.2031 -1.01726,2.1731 -2.29058,2.1731 h -30.13371 c -1.27332,0 -2.29291,-0.97 -2.29291,-2.1731 v -12.6735 c 0,-1.2031 1.01959,-2.1731 2.29291,-2.1731 z"
         style="fill:#01b8c5;fill-opacity:1;fill-rule:evenodd;stroke:#000000;stroke-width:2.95049;stroke-linecap:butt;stroke-linejoin:miter;stroke-miterlimit:4;stroke-dasharray:none;stroke-opacity:1"
         id="path483-1" /><path
         d="m 715.99386,1596.4726 h 34.72651 v 17.0109 h -34.72651 z"
         style="fill:#dfb9f4;fill-opacity:1;fill-rule:evenodd;stroke:#000000;stroke-width:2.95049;stroke-linecap:butt;stroke-linejoin:round;stroke-miterlimit:4;stroke-dasharray:none;stroke-opacity:1"
         id="path487-4" /><path
         d="m 770.5541,1524.1729 h 30.11741 c 1.28264,0 2.30921,0.97 2.30921,2.1819 v 12.6647 c 0,1.2032 -1.02657,2.1731 -2.30921,2.1731 H 770.5541 c -1.27332,0 -2.29989,-0.9699 -2.29989,-2.1731 v -12.6647 c 0,-1.2119 1.02657,-2.1819 2.29989,-2.1819 z"
         style="fill:#1a992d;fill-opacity:1;fill-rule:evenodd;stroke:#000000;stroke-width:2.95049;stroke-linecap:butt;stroke-linejoin:miter;stroke-miterlimit:4;stroke-dasharray:none;stroke-opacity:1"
         id="path491-9" /><path
         d="m 776.78653,1497.5216 c 0,4.6893 -7.747,8.4967 -17.29342,8.4967 -9.55805,0 -17.30506,-3.8074 -17.30506,-8.4967 0,-4.6827 7.74701,-8.4901 17.30506,-8.4901 9.54642,0 17.29342,3.8074 17.29342,8.4901 z"
         style="fill:#96dca1;fill-opacity:1;fill-rule:nonzero;stroke:#000000;stroke-width:2.95049;stroke-linecap:butt;stroke-linejoin:miter;stroke-miterlimit:4;stroke-dasharray:none;stroke-opacity:1"
         id="path495-1" /><path
         d="m 672.14712,1498.5865 c 0,4.6916 -7.74701,8.4901 -17.30274,8.4901 -9.54874,0 -17.29574,-3.7985 -17.29574,-8.4901 0,-4.6893 7.747,-8.4878 17.29574,-8.4878 9.55573,0 17.30274,3.7985 17.30274,8.4878 z"
         style="fill:#c44601;fill-opacity:1;fill-rule:nonzero;stroke:#000000;stroke-width:2.95049;stroke-linecap:butt;stroke-linejoin:miter;stroke-miterlimit:4;stroke-dasharray:none;stroke-opacity:1"
         id="path499-0" /><path
         d="m 750.6517,1569.2868 c 0,4.6916 -7.7377,8.4901 -17.29575,8.4901 -9.55573,0 -17.29342,-3.7985 -17.29342,-8.4901 0,-4.6893 7.73769,-8.4878 17.29342,-8.4878 9.55805,0 17.29575,3.7985 17.29575,8.4878 z"
         style="fill:#5f97eb;fill-opacity:1;fill-rule:nonzero;stroke:#000000;stroke-width:2.95049;stroke-linecap:butt;stroke-linejoin:miter;stroke-miterlimit:4;stroke-dasharray:none;stroke-opacity:1"
         id="path503-7" /><path
         d="m 654.42345,1489.7466 51.37251,-19.4025"
         style="fill:none;stroke:#000000;stroke-width:2.95049;stroke-linecap:butt;stroke-linejoin:miter;stroke-miterlimit:4;stroke-dasharray:none;stroke-opacity:1"
         id="path507-5"
         sodipodi:nodetypes="cc" /><path
         d="m 760.08364,1489.293 -51.91397,-19.0957"
         style="fill:none;stroke:#000000;stroke-width:2.95049;stroke-linecap:butt;stroke-linejoin:miter;stroke-miterlimit:4;stroke-dasharray:none;stroke-opacity:1"
         id="path511-8"
         sodipodi:nodetypes="cc" /><path
         d="m 681.02515,1524.1769 -25.63473,-16.4594"
         style="opacity:0.100497;fill:none;stroke:#000000;stroke-width:2.95049;stroke-linecap:butt;stroke-linejoin:miter;stroke-miterlimit:4;stroke-dasharray:none;stroke-opacity:1"
         id="path515-7"
         sodipodi:nodetypes="cc" /><path
         d="M 786.28494,1523.6624 760.65021,1507.203"
         style="opacity:1;fill:none;stroke:#000000;stroke-width:2.95049;stroke-linecap:butt;stroke-linejoin:miter;stroke-miterlimit:4;stroke-dasharray:none;stroke-opacity:1"
         id="path515-7-5"
         sodipodi:nodetypes="cc" /><path
         d="m 732.70132,1523.7264 26.7741,-17.1001"
         style="fill:none;stroke:#000000;stroke-width:2.95049;stroke-linecap:butt;stroke-linejoin:miter;stroke-miterlimit:4;stroke-dasharray:none;stroke-opacity:1"
         id="path519-0"
         sodipodi:nodetypes="cc" /><path
         d="m 653.89349,1507.5433 -24.39667,16.0369"
         style="fill:#f57600;fill-opacity:1;fill-rule:nonzero;stroke:#000000;stroke-width:2.95049;stroke-linecap:butt;stroke-linejoin:miter;stroke-miterlimit:4;stroke-dasharray:none;stroke-opacity:1"
         id="path523-4"
         sodipodi:nodetypes="cc" /><path
         d="m 733.37577,1541.3312 -0.0373,19.6063"
         style="fill:none;stroke:#000000;stroke-width:2.95049;stroke-linecap:butt;stroke-linejoin:miter;stroke-miterlimit:4;stroke-dasharray:none;stroke-opacity:1"
         id="path527-8" /><path
         d="m 733.35262,1577.7593 0.009,18.8167"
         style="fill:none;stroke:#000000;stroke-width:2.95049;stroke-linecap:butt;stroke-linejoin:miter;stroke-miterlimit:4;stroke-dasharray:none;stroke-opacity:1"
         id="path531-0" /></g></g></svg>
