<?xml version="1.0" encoding="UTF-8" standalone="no"?>
<!-- Created with Inkscape (http://www.inkscape.org/) -->

<svg
   width="244.07001mm"
   height="91.473mm"
   viewBox="0 0 244.07001 91.472999"
   version="1.1"
   id="svg1"
   inkscape:version="1.2.2 (b0a8486541, 2022-12-01)"
   sodipodi:docname="pangenome-cartoon-nopaths.svg"
   xmlns:inkscape="http://www.inkscape.org/namespaces/inkscape"
   xmlns:sodipodi="http://sodipodi.sourceforge.net/DTD/sodipodi-0.dtd"
   xmlns="http://www.w3.org/2000/svg"
   xmlns:svg="http://www.w3.org/2000/svg">
  <sodipodi:namedview
     id="namedview1"
     pagecolor="#ffffff"
     bordercolor="#000000"
     borderopacity="0.25"
     inkscape:showpageshadow="2"
     inkscape:pageopacity="0.0"
     inkscape:pagecheckerboard="0"
     inkscape:deskcolor="#d1d1d1"
     inkscape:document-units="mm"
     inkscape:zoom="1.0280428"
     inkscape:cx="353.58451"
     inkscape:cy="207.67618"
     inkscape:window-width="1920"
     inkscape:window-height="1011"
     inkscape:window-x="0"
     inkscape:window-y="32"
     inkscape:window-maximized="1"
     inkscape:current-layer="layer1"
     showgrid="false" />
  <defs
     id="defs1" />
  <g
     inkscape:label="Layer 1"
     inkscape:groupmode="layer"
     id="layer1"
     transform="translate(-17.202135,-71.169423)">
    <rect
       style="font-variation-settings:normal;fill:#ffffff;fill-opacity:1;fill-rule:evenodd;stroke:#000000;stroke-width:0.800884;stroke-linecap:butt;stroke-linejoin:miter;stroke-miterlimit:4;stroke-dasharray:none;stroke-dashoffset:0;stroke-opacity:1;stop-color:#000000"
       id="rect1161"
       width="21.153175"
       height="8.1396637"
       x="234.76509"
       y="131.74524"
       ry="0" />
    <path
       style="fill:#e0ba09;fill-opacity:1;stroke:#000000;stroke-width:0.800884;stroke-dasharray:none;stroke-opacity:1"
       d="m 233.51529,139.8973 c -0.51148,-0.11437 -0.93013,-0.56273 -1.24718,-1.0165 -0.20572,-0.30427 -0.54814,-1.1722 -0.60956,-1.54501 -0.0204,-0.12367 -0.056,-0.66156 -0.0792,-1.19532 -0.0701,-1.61409 0.24498,-2.93691 0.87071,-3.65554 0.3123,-0.35867 0.39188,-0.44751 0.57192,-0.52903 0.67223,-0.30581 1.202,-0.21179 1.72362,-0.21344 -0.004,0.14953 0.007,8.14275 0.007,8.14275 -0.75775,-0.009 -1.21824,0.0284 -1.23677,0.0121 z"
       id="path1163"
       sodipodi:nodetypes="ccssscccsc" />
    <path
       style="fill:#cb6b08;fill-opacity:1;stroke:#000000;stroke-width:0.800884;stroke-dasharray:none;stroke-opacity:1"
       d="m 255.77014,131.74806 c 1.59676,0.047 1.67122,0.0947 1.94939,0.3133 0.53049,0.41684 1.0292,1.34608 1.17927,2.19731 0.0862,0.48919 0.0575,3.11528 -0.0379,3.46028 -0.008,0.0293 -0.0133,0.0782 -0.0116,0.10864 0.0121,0.21109 -0.63312,1.28054 -0.96954,1.60714 -0.26525,0.25055 -0.431,0.39437 -0.73981,0.47557 -0.047,0.0123 -0.50649,-0.0189 -1.35473,-0.0235 0.016,-0.3285 0.004,-7.93852 -0.0152,-8.13869 z"
       id="path1165"
       sodipodi:nodetypes="cssscccccc" />
    <rect
       style="font-variation-settings:normal;fill:#ffffff;fill-opacity:1;fill-rule:evenodd;stroke:#000000;stroke-width:0.800884;stroke-linecap:butt;stroke-linejoin:miter;stroke-miterlimit:4;stroke-dasharray:none;stroke-dashoffset:0;stroke-opacity:1;stop-color:#000000"
       id="rect1084"
       width="22.632866"
       height="8.1396637"
       x="196.21472"
       y="131.74524"
       ry="0" />
    <path
       style="fill:#e0ba09;fill-opacity:1;stroke:#000000;stroke-width:0.800884;stroke-dasharray:none;stroke-opacity:1"
       d="m 194.96485,139.8973 c -0.51148,-0.11437 -0.93013,-0.56273 -1.24718,-1.0165 -0.20572,-0.30427 -0.54814,-1.1722 -0.60956,-1.54501 -0.0204,-0.12367 -0.056,-0.66156 -0.0792,-1.19532 -0.0701,-1.61409 0.24498,-2.93691 0.87071,-3.65554 0.3123,-0.35867 0.39188,-0.44751 0.57192,-0.52903 0.67223,-0.30581 1.202,-0.21179 1.72362,-0.21344 -0.004,0.14953 0.007,8.14275 0.007,8.14275 -0.75775,-0.009 -1.21824,0.0284 -1.23677,0.0121 z"
       id="path1086"
       sodipodi:nodetypes="ccssscccsc" />
    <path
       style="fill:#cb6b08;fill-opacity:1;stroke:#000000;stroke-width:0.800884;stroke-dasharray:none;stroke-opacity:1"
       d="m 218.80721,131.74806 c 1.59676,0.047 1.67122,0.0947 1.94939,0.3133 0.53049,0.41684 1.0292,1.34608 1.17927,2.19731 0.0862,0.48919 0.0575,3.11528 -0.0379,3.46028 -0.008,0.0293 -0.0133,0.0782 -0.0116,0.10864 0.0121,0.21109 -0.63312,1.28054 -0.96954,1.60714 -0.26525,0.25055 -0.431,0.39437 -0.73981,0.47557 -0.047,0.0123 -0.50649,-0.0189 -1.35473,-0.0235 0.016,-0.3285 0.004,-7.93852 -0.0152,-8.13869 z"
       id="path1088"
       sodipodi:nodetypes="cssscccccc" />
    <rect
       style="font-variation-settings:normal;fill:#ffffff;fill-opacity:1;fill-rule:evenodd;stroke:#000000;stroke-width:0.800884;stroke-linecap:butt;stroke-linejoin:miter;stroke-miterlimit:4;stroke-dasharray:none;stroke-dashoffset:0;stroke-opacity:1;stop-color:#000000"
       id="rect950"
       width="26.43965"
       height="8.1396637"
       x="147.00212"
       y="131.74524"
       ry="0" />
    <path
       style="fill:#e0ba09;fill-opacity:1;stroke:#000000;stroke-width:0.800884;stroke-dasharray:none;stroke-opacity:1"
       d="m 145.75234,139.8973 c -0.51148,-0.11437 -0.93013,-0.56273 -1.24718,-1.0165 -0.20572,-0.30427 -0.54814,-1.1722 -0.60956,-1.54501 -0.0204,-0.12367 -0.056,-0.66156 -0.0792,-1.19532 -0.0701,-1.61409 0.24498,-2.93691 0.87071,-3.65554 0.3123,-0.35867 0.39188,-0.44751 0.57192,-0.52903 0.67223,-0.30581 1.202,-0.21179 1.72362,-0.21344 -0.004,0.14953 0.007,8.14275 0.007,8.14275 -0.75775,-0.009 -1.21824,0.0284 -1.23677,0.0121 z"
       id="path952"
       sodipodi:nodetypes="ccssscccsc" />
    <path
       style="fill:#cb6b08;fill-opacity:1;stroke:#000000;stroke-width:0.800884;stroke-dasharray:none;stroke-opacity:1"
       d="m 173.29886,131.74806 c 1.59676,0.047 1.67122,0.0947 1.94939,0.3133 0.53049,0.41684 1.0292,1.34608 1.17927,2.19731 0.0862,0.48919 0.0575,3.11528 -0.0379,3.46028 -0.008,0.0293 -0.0133,0.0782 -0.0116,0.10864 0.0121,0.21109 -0.63312,1.28054 -0.96954,1.60714 -0.26525,0.25055 -0.431,0.39437 -0.73981,0.47557 -0.047,0.0123 -0.50649,-0.0189 -1.35473,-0.0235 0.016,-0.3285 0.004,-7.93852 -0.0152,-8.13869 z"
       id="path954"
       sodipodi:nodetypes="cssscccccc" />
    <rect
       style="font-variation-settings:normal;fill:#ffffff;fill-opacity:1;fill-rule:evenodd;stroke:#000000;stroke-width:0.800884;stroke-linecap:butt;stroke-linejoin:miter;stroke-miterlimit:4;stroke-dasharray:none;stroke-dashoffset:0;stroke-opacity:1;stop-color:#000000"
       id="rect699"
       width="5.7560163"
       height="8.1396637"
       x="129.49413"
       y="116.92857"
       ry="0" />
    <path
       style="fill:#e0ba09;fill-opacity:1;stroke:#000000;stroke-width:0.800884;stroke-dasharray:none;stroke-opacity:1"
       d="m 128.24434,125.08063 c -0.51148,-0.11437 -0.93014,-0.56273 -1.24718,-1.0165 -0.20572,-0.30427 -0.54815,-1.1722 -0.60956,-1.54501 -0.0204,-0.12367 -0.056,-0.66156 -0.0792,-1.19532 -0.0701,-1.61409 0.24498,-2.93691 0.8707,-3.65554 0.3123,-0.35867 0.39189,-0.44751 0.57192,-0.52903 0.67223,-0.30581 1.20201,-0.21179 1.72363,-0.21344 -0.004,0.14953 0.007,8.14275 0.007,8.14275 -0.75775,-0.009 -1.21825,0.0284 -1.23678,0.0121 z"
       id="path701"
       sodipodi:nodetypes="ccssscccsc" />
    <path
       style="fill:#cb6b08;fill-opacity:1;stroke:#000000;stroke-width:0.800884;stroke-dasharray:none;stroke-opacity:1"
       d="m 135.15336,116.93139 c 1.59676,0.047 1.67122,0.0947 1.94939,0.3133 0.53049,0.41684 1.0292,1.34608 1.17927,2.19731 0.0862,0.48919 0.0575,3.11528 -0.0379,3.46028 -0.008,0.0293 -0.0133,0.0782 -0.0116,0.10864 0.0121,0.21109 -0.63312,1.28054 -0.96954,1.60714 -0.26525,0.25055 -0.431,0.39437 -0.73981,0.47557 -0.047,0.0123 -0.50649,-0.0189 -1.35473,-0.0235 0.016,-0.3285 0.004,-7.93852 -0.0152,-8.13869 z"
       id="path703"
       sodipodi:nodetypes="cssscccccc" />
    <rect
       style="font-variation-settings:normal;fill:#ffffff;fill-opacity:1;fill-rule:evenodd;stroke:#000000;stroke-width:0.800884;stroke-linecap:butt;stroke-linejoin:miter;stroke-miterlimit:4;stroke-dasharray:none;stroke-dashoffset:0;stroke-opacity:1;stop-color:#000000"
       id="rect626"
       width="21.153175"
       height="8.1396637"
       x="96.731247"
       y="131.74524"
       ry="0" />
    <path
       style="fill:#e0ba09;fill-opacity:1;stroke:#000000;stroke-width:0.800884;stroke-dasharray:none;stroke-opacity:1"
       d="m 95.481497,139.8973 c -0.51148,-0.11437 -0.930132,-0.56273 -1.247179,-1.0165 -0.205717,-0.30427 -0.548143,-1.1722 -0.609557,-1.54501 -0.02037,-0.12367 -0.05601,-0.66156 -0.07919,-1.19532 -0.0701,-1.61409 0.244982,-2.93691 0.870703,-3.65554 0.3123,-0.35867 0.391885,-0.44751 0.571919,-0.52903 0.672232,-0.30581 1.202003,-0.21179 1.723624,-0.21344 -0.004,0.14953 0.007,8.14275 0.007,8.14275 -0.757747,-0.009 -1.218245,0.0284 -1.236773,0.0121 z"
       id="path628"
       sodipodi:nodetypes="ccssscccsc" />
    <path
       style="fill:#cb6b08;fill-opacity:1;stroke:#000000;stroke-width:0.800884;stroke-dasharray:none;stroke-opacity:1"
       d="m 117.73634,131.74806 c 1.59676,0.047 1.67122,0.0947 1.94939,0.3133 0.53049,0.41684 1.0292,1.34608 1.17927,2.19731 0.0862,0.48919 0.0575,3.11528 -0.0379,3.46028 -0.008,0.0293 -0.0133,0.0782 -0.0116,0.10864 0.0121,0.21109 -0.63312,1.28054 -0.96954,1.60714 -0.26525,0.25055 -0.431,0.39437 -0.73981,0.47557 -0.047,0.0123 -0.50649,-0.0189 -1.35473,-0.0235 0.016,-0.3285 0.004,-7.93852 -0.0152,-8.13869 z"
       id="path630"
       sodipodi:nodetypes="cssscccccc" />
    <rect
       style="font-variation-settings:normal;fill:#ffffff;fill-opacity:1;fill-rule:evenodd;stroke:#000000;stroke-width:0.800884;stroke-linecap:butt;stroke-linejoin:miter;stroke-miterlimit:4;stroke-dasharray:none;stroke-dashoffset:0;stroke-opacity:1;stop-color:#000000"
       id="rect446"
       width="21.524338"
       height="8.1396637"
       x="62.819099"
       y="116.39941"
       ry="0" />
    <path
       style="fill:#e0ba09;fill-opacity:1;stroke:#000000;stroke-width:0.800884;stroke-dasharray:none;stroke-opacity:1"
       d="m 61.569334,124.55146 c -0.51148,-0.11437 -0.930132,-0.56273 -1.247179,-1.0165 -0.205717,-0.30427 -0.548143,-1.1722 -0.609557,-1.54501 -0.02037,-0.12367 -0.05601,-0.66156 -0.07919,-1.19532 -0.0701,-1.61409 0.244982,-2.93691 0.870703,-3.65554 0.3123,-0.35867 0.391885,-0.44751 0.571919,-0.52903 0.672232,-0.30581 1.202003,-0.21179 1.723622,-0.21344 -0.0035,0.14953 0.0065,8.14275 0.0065,8.14275 -0.757745,-0.009 -1.218243,0.0284 -1.236771,0.0121 z"
       id="path448"
       sodipodi:nodetypes="ccssscccsc" />
    <path
       style="fill:#cb6b08;fill-opacity:1;stroke:#000000;stroke-width:0.800884;stroke-dasharray:none;stroke-opacity:1"
       d="m 84.353351,116.40222 c 1.596766,0.047 1.671224,0.0947 1.949395,0.3133 0.53049,0.41684 1.029201,1.34608 1.179262,2.19731 0.08624,0.48919 0.0575,3.11528 -0.03788,3.46028 -0.0081,0.0293 -0.01329,0.0782 -0.01157,0.10864 0.01205,0.21109 -0.633119,1.28054 -0.969535,1.60714 -0.265248,0.25055 -0.431003,0.39437 -0.739808,0.47557 -0.04697,0.0123 -0.506491,-0.0189 -1.354736,-0.0235 0.01601,-0.3285 0.004,-7.93852 -0.01515,-8.13869 z"
       id="path450"
       sodipodi:nodetypes="cssscccccc" />
    <text
       xml:space="preserve"
       style="font-size:5.64444px;line-height:0.4;font-family:Arial;-inkscape-font-specification:Arial;text-decoration-color:#000000;letter-spacing:0.0185208px;fill:none;fill-rule:evenodd;stroke:#000000;stroke-width:2.449;stroke-opacity:1"
       x="102.96093"
       y="47.815834"
       id="text1"><tspan
         sodipodi:role="line"
         id="tspan1"
         style="stroke:#000000;stroke-width:2.449;stroke-opacity:1"
         x="102.96093"
         y="47.815834" /></text>
    <text
       xml:space="preserve"
       style="font-size:9.87778px;line-height:0.4;font-family:Arial;-inkscape-font-specification:Arial;text-decoration-color:#000000;letter-spacing:0.0185208px;fill:#000997;fill-opacity:1;fill-rule:evenodd;stroke:none;stroke-width:0.3;stroke-dasharray:none;stroke-opacity:1"
       x="34.779545"
       y="81.675591"
       id="text2"><tspan
         sodipodi:role="line"
         id="tspan2"
         style="font-style:normal;font-variant:normal;font-weight:normal;font-stretch:normal;font-size:9.87778px;font-family:'DejaVu Sans Mono';-inkscape-font-specification:'DejaVu Sans Mono';fill:#000997;fill-opacity:1;stroke:none;stroke-width:0.3;stroke-dasharray:none"
         x="34.779545"
         y="81.675591">ATTGGGC<tspan
   style="font-weight:bold;font-size:9.87778px;fill:#000997;fill-opacity:1"
   id="tspan9">ATCGG</tspan>GTGAG<tspan
   style="font-weight:bold;font-size:9.87778px;fill:#000997;fill-opacity:1"
   id="tspan7">A</tspan>GTGACCC<tspan
   style="font-weight:bold;font-size:9.87778px;fill:#000997;fill-opacity:1"
   id="tspan11">TTTAAG</tspan>GCAGG</tspan></text>
    <text
       xml:space="preserve"
       style="font-size:9.87778px;line-height:0.4;font-family:Arial;-inkscape-font-specification:Arial;text-decoration-color:#000000;letter-spacing:0.0185208px;fill:#b28400;fill-opacity:1;fill-rule:evenodd;stroke:none;stroke-width:0.3;stroke-dasharray:none;stroke-opacity:1"
       x="34.779545"
       y="97.021423"
       id="text5"><tspan
         sodipodi:role="line"
         id="tspan5"
         style="font-style:normal;font-variant:normal;font-weight:normal;font-stretch:normal;font-size:9.87778px;font-family:'DejaVu Sans Mono';-inkscape-font-specification:'DejaVu Sans Mono';fill:#b28400;fill-opacity:1;stroke:none;stroke-width:0.3;stroke-dasharray:none"
         x="34.779545"
         y="97.021423">ATTGGGC<tspan
   style="font-weight:bold;font-size:9.87778px;fill:#b28400;fill-opacity:1"
   id="tspan8">-----</tspan>GTGAG<tspan
   style="font-weight:bold;font-size:9.87778px;fill:#b28400;fill-opacity:1"
   id="tspan6">C</tspan>GTGACCC<tspan
   style="font-weight:bold;font-size:9.87778px;fill:#b28400;fill-opacity:1"
   id="tspan10">CTTAAA</tspan>GCAGG</tspan></text>
    <text
       xml:space="preserve"
       style="font-style:normal;font-variant:normal;font-weight:normal;font-stretch:normal;font-size:5.64444px;line-height:0.4;font-family:'DejaVu Sans Mono';-inkscape-font-specification:'DejaVu Sans Mono';text-decoration-color:#000000;letter-spacing:0.0185208px;fill:#000000;fill-opacity:1;fill-rule:evenodd;stroke:none;stroke-width:0.3;stroke-dasharray:none;stroke-opacity:1"
       x="65.296326"
       y="122.40921"
       id="text13"><tspan
         sodipodi:role="line"
         id="tspan13"
         style="stroke-width:0.3"
         x="65.296326"
         y="122.40921">ATCGG</tspan></text>
    <text
       xml:space="preserve"
       style="font-style:normal;font-variant:normal;font-weight:normal;font-stretch:normal;font-size:5.64444px;line-height:0.4;font-family:'DejaVu Sans Mono';-inkscape-font-specification:'DejaVu Sans Mono';text-decoration-color:#000000;letter-spacing:0.0185208px;fill:#000000;fill-opacity:1;fill-rule:evenodd;stroke:none;stroke-width:0.3;stroke-dasharray:none;stroke-opacity:1"
       x="98.389137"
       y="137.7852"
       id="text14"><tspan
         sodipodi:role="line"
         id="tspan14"
         style="stroke-width:0.3"
         x="98.389137"
         y="137.7852">GTGAG</tspan></text>
    <text
       xml:space="preserve"
       style="font-style:normal;font-variant:normal;font-weight:normal;font-stretch:normal;font-size:5.64444px;line-height:0.4;font-family:'DejaVu Sans Mono';-inkscape-font-specification:'DejaVu Sans Mono';text-decoration-color:#000000;letter-spacing:0.0185208px;fill:#000000;fill-opacity:1;fill-rule:evenodd;stroke:none;stroke-width:0.3;stroke-dasharray:none;stroke-opacity:1"
       x="130.50784"
       y="123.27029"
       id="text15"><tspan
         sodipodi:role="line"
         id="tspan15"
         style="stroke-width:0.3"
         x="130.50784"
         y="123.27029">A</tspan></text>
    <text
       xml:space="preserve"
       style="font-style:normal;font-variant:normal;font-weight:normal;font-stretch:normal;font-size:5.64444px;line-height:0.4;font-family:'DejaVu Sans Mono';-inkscape-font-specification:'DejaVu Sans Mono';text-decoration-color:#000000;letter-spacing:0.0185208px;fill:#000000;fill-opacity:1;fill-rule:evenodd;stroke:none;stroke-width:0.3;stroke-dasharray:none;stroke-opacity:1"
       x="148.12274"
       y="137.7852"
       id="text17"><tspan
         sodipodi:role="line"
         id="tspan17"
         style="stroke-width:0.3"
         x="148.12274"
         y="137.7852">GTGACCC</tspan></text>
    <text
       xml:space="preserve"
       style="font-style:normal;font-variant:normal;font-weight:normal;font-stretch:normal;font-size:5.64444px;line-height:0.4;font-family:'DejaVu Sans Mono';-inkscape-font-specification:'DejaVu Sans Mono';text-decoration-color:#000000;letter-spacing:0.0185208px;fill:#000000;fill-opacity:1;fill-rule:evenodd;stroke:none;stroke-width:0.3;stroke-dasharray:none;stroke-opacity:1"
       x="197.10199"
       y="137.7852"
       id="text18"><tspan
         sodipodi:role="line"
         id="tspan18"
         style="stroke-width:0.3"
         x="197.10199"
         y="137.7852">CTTAAA</tspan></text>
    <text
       xml:space="preserve"
       style="font-style:normal;font-variant:normal;font-weight:normal;font-stretch:normal;font-size:5.64444px;line-height:0.4;font-family:'DejaVu Sans Mono';-inkscape-font-specification:'DejaVu Sans Mono';text-decoration-color:#000000;letter-spacing:0.0185208px;fill:#000000;fill-opacity:1;fill-rule:evenodd;stroke:none;stroke-width:0.3;stroke-dasharray:none;stroke-opacity:1"
       x="236.63498"
       y="137.7852"
       id="text19"><tspan
         sodipodi:role="line"
         id="tspan19"
         style="stroke-width:0.3"
         x="236.63498"
         y="137.7852">GCAGG</tspan></text>
    <path
       style="fill:none;fill-opacity:1;fill-rule:evenodd;stroke:#000000;stroke-width:0.5;stroke-dasharray:none;stroke-opacity:1"
       d="m 53.298158,135.32048 c 6.159516,0 10.674646,2.79118 21.294112,2.79118 10.058412,0 12.536971,-2.72536 19.205749,-2.69926"
       id="path33"
       sodipodi:nodetypes="csc" />
    <path
       style="fill:none;fill-opacity:1;fill-rule:evenodd;stroke:#000000;stroke-width:0.5;stroke-dasharray:none;stroke-opacity:1"
       d="m 53.298158,135.32048 c 5.069684,-1.4875 4.073781,-4.86452 3.93199,-8.12832 -0.115012,-2.64739 -0.812435,-6.72986 2.641289,-6.72173"
       id="path34"
       sodipodi:nodetypes="csc" />
    <path
       style="fill:none;fill-opacity:1;fill-rule:evenodd;stroke:#000000;stroke-width:0.5;stroke-dasharray:none;stroke-opacity:1"
       d="m 93.844881,135.32048 c -5.069684,-1.4875 -4.073781,-4.86452 -3.93199,-8.12832 0.115012,-2.64739 0.812435,-6.72986 -2.641289,-6.72173"
       id="path35"
       sodipodi:nodetypes="csc" />
    <path
       style="fill:none;fill-opacity:1;fill-rule:evenodd;stroke:#000000;stroke-width:0.5;stroke-dasharray:none;stroke-opacity:1"
       d="m 120.97046,135.92862 c 5.06969,-1.4875 4.07378,-4.86452 3.93199,-8.12832 -0.11501,-2.64739 -2.07615,-6.83022 1.37757,-6.82209"
       id="path36"
       sodipodi:nodetypes="csc" />
    <path
       style="fill:none;fill-opacity:1;fill-rule:evenodd;stroke:#000000;stroke-width:0.5;stroke-dasharray:none;stroke-opacity:1"
       d="m 143.60844,135.73601 c -5.06968,-1.4875 -4.07378,-4.86452 -3.93199,-8.12832 0.11502,-2.64739 2.19493,-6.8611 -1.25879,-6.85297"
       id="path37"
       sodipodi:nodetypes="csc" />
    <path
       style="fill:none;fill-opacity:1;fill-rule:evenodd;stroke:#000000;stroke-width:0.5;stroke-dasharray:none;stroke-opacity:1"
       d="m 121.04428,136.50501 c 5.06969,1.4875 4.07378,4.86452 3.93199,8.12832 -0.11501,2.64739 -0.81243,6.72986 2.64129,6.72173"
       id="path38"
       sodipodi:nodetypes="csc" />
    <path
       style="fill:none;fill-opacity:1;fill-rule:evenodd;stroke:#000000;stroke-width:0.5;stroke-dasharray:none;stroke-opacity:1"
       d="m 143.75048,136.69762 c -5.06968,1.4875 -4.07378,4.86452 -3.93199,8.12832 0.11502,2.64739 0.81244,6.72986 -2.64128,6.72173"
       id="path39"
       sodipodi:nodetypes="csc" />
    <path
       style="fill:none;fill-opacity:1;fill-rule:evenodd;stroke:#000000;stroke-width:0.499999;stroke-dasharray:none;stroke-opacity:1"
       d="m 176.59653,136.02376 16.87061,0.54832"
       id="path40"
       sodipodi:nodetypes="cc" />
    <path
       style="fill:none;fill-opacity:1;fill-rule:evenodd;stroke:#000000;stroke-width:0.499999;stroke-dasharray:none;stroke-opacity:1"
       d="m 222.04749,136.26098 9.79328,0.15509"
       id="path41"
       sodipodi:nodetypes="cc" />
    <path
       style="fill:none;fill-opacity:1;fill-rule:evenodd;stroke:#000000;stroke-width:0.499999;stroke-dasharray:none;stroke-opacity:1"
       d="m 176.49862,135.72747 c 5.83753,0 9.34564,-7.12343 18.27043,-11.04593 8.93793,-3.92828 22.39897,-5.69669 29.36409,1.14473 2.39901,2.35641 2.45773,5.26053 1.50214,6.91566 -1.52077,2.63405 -3.629,3.03563 -3.629,3.03563"
       id="path42"
       sodipodi:nodetypes="csssc" />
    <path
       style="fill:none;fill-opacity:1;fill-rule:evenodd;stroke:#000000;stroke-width:0.499999;stroke-dasharray:none;stroke-opacity:1"
       d="m 231.82091,136.5722 c -7.07927,0 -2.78288,9.22523 -11.51578,14.26717 -6.33283,3.65626 -26.66302,2.97075 -30.65504,-0.95037 -2.39901,-2.35641 -2.53625,-5.69117 -1.21988,-8.78554 1.19064,-2.79882 4.88108,-4.40465 4.88108,-4.40465"
       id="path43"
       sodipodi:nodetypes="csssc" />
    <rect
       style="font-variation-settings:normal;fill:#ffffff;fill-opacity:1;fill-rule:evenodd;stroke:#000000;stroke-width:0.800884;stroke-linecap:butt;stroke-linejoin:miter;stroke-miterlimit:4;stroke-dasharray:none;stroke-dashoffset:0;stroke-opacity:1;stop-color:#000000"
       id="rect5864-1"
       width="26.524719"
       height="8.1396637"
       x="23.660757"
       y="131.47343"
       ry="0" />
    <path
       style="fill:#e0ba09;fill-opacity:1;stroke:#000000;stroke-width:0.800884;stroke-dasharray:none;stroke-opacity:1"
       d="m 22.410997,139.62549 c -0.51148,-0.11437 -0.930132,-0.56273 -1.247179,-1.0165 -0.205717,-0.30427 -0.548143,-1.1722 -0.609557,-1.54501 -0.02037,-0.12367 -0.05601,-0.66156 -0.07919,-1.19532 -0.0701,-1.61409 0.244982,-2.93691 0.870703,-3.65554 0.3123,-0.35867 0.391885,-0.44751 0.571919,-0.52903 0.672232,-0.30581 1.202003,-0.21179 1.723622,-0.21344 -0.0035,0.14953 0.0065,8.14275 0.0065,8.14275 -0.757745,-0.009 -1.218243,0.0284 -1.236771,0.0121 z"
       id="path429-3-1"
       sodipodi:nodetypes="ccssscccsc" />
    <path
       style="fill:#cb6b08;fill-opacity:1;stroke:#000000;stroke-width:0.800884;stroke-dasharray:none;stroke-opacity:1"
       d="m 49.957517,131.47625 c 1.596766,0.047 1.671224,0.0947 1.949395,0.3133 0.53049,0.41684 1.029201,1.34608 1.179262,2.19731 0.08624,0.48919 0.0575,3.11528 -0.03788,3.46028 -0.0081,0.0293 -0.01329,0.0782 -0.01157,0.10864 0.01205,0.21109 -0.633119,1.28054 -0.969535,1.60714 -0.265248,0.25055 -0.431003,0.39437 -0.739808,0.47557 -0.04697,0.0123 -0.506491,-0.0189 -1.354736,-0.0235 0.01601,-0.3285 0.004,-7.93852 -0.01515,-8.13869 z"
       id="path429-59"
       sodipodi:nodetypes="cssscccccc" />
    <text
       xml:space="preserve"
       style="font-style:normal;font-variant:normal;font-weight:normal;font-stretch:normal;font-size:5.64444px;line-height:0.4;font-family:'DejaVu Sans Mono';-inkscape-font-specification:'DejaVu Sans Mono';text-decoration-color:#000000;letter-spacing:0.0185208px;fill:#000000;fill-opacity:1;fill-rule:evenodd;stroke:none;stroke-width:0.3;stroke-dasharray:none;stroke-opacity:1"
       x="25.088972"
       y="137.47116"
       id="text12"><tspan
         sodipodi:role="line"
         id="tspan12"
         style="stroke-width:0.3"
         x="25.088972"
         y="137.47116">ATTGGGC</tspan></text>
    <rect
       style="font-variation-settings:normal;fill:#ffffff;fill-opacity:1;fill-rule:evenodd;stroke:#000000;stroke-width:0.800884;stroke-linecap:butt;stroke-linejoin:miter;stroke-miterlimit:4;stroke-dasharray:none;stroke-dashoffset:0;stroke-opacity:1;stop-color:#000000"
       id="rect822"
       width="5.7560163"
       height="8.1396637"
       x="129.49413"
       y="146.83492"
       ry="0" />
    <path
       style="fill:#e0ba09;fill-opacity:1;stroke:#000000;stroke-width:0.800884;stroke-dasharray:none;stroke-opacity:1"
       d="m 128.24434,154.98694 c -0.51148,-0.11437 -0.93014,-0.56273 -1.24718,-1.0165 -0.20572,-0.30427 -0.54815,-1.1722 -0.60956,-1.54501 -0.0204,-0.12367 -0.056,-0.66156 -0.0792,-1.19532 -0.0701,-1.61409 0.24498,-2.93691 0.8707,-3.65554 0.3123,-0.35867 0.39189,-0.44751 0.57192,-0.52903 0.67223,-0.30581 1.20201,-0.21179 1.72363,-0.21344 -0.004,0.14953 0.007,8.14275 0.007,8.14275 -0.75775,-0.009 -1.21825,0.0284 -1.23678,0.0121 z"
       id="path824"
       sodipodi:nodetypes="ccssscccsc" />
    <path
       style="fill:#cb6b08;fill-opacity:1;stroke:#000000;stroke-width:0.800884;stroke-dasharray:none;stroke-opacity:1"
       d="m 135.15336,146.8377 c 1.59676,0.047 1.67122,0.0947 1.94939,0.3133 0.53049,0.41684 1.0292,1.34608 1.17927,2.19731 0.0862,0.48919 0.0575,3.11528 -0.0379,3.46028 -0.008,0.0293 -0.0133,0.0782 -0.0116,0.10864 0.0121,0.21109 -0.63312,1.28054 -0.96954,1.60714 -0.26525,0.25055 -0.431,0.39437 -0.73981,0.47557 -0.047,0.0123 -0.50649,-0.0189 -1.35473,-0.0235 0.016,-0.3285 0.004,-7.93852 -0.0152,-8.13869 z"
       id="path826"
       sodipodi:nodetypes="cssscccccc" />
    <text
       xml:space="preserve"
       style="font-style:normal;font-variant:normal;font-weight:normal;font-stretch:normal;font-size:5.64444px;line-height:0.4;font-family:'DejaVu Sans Mono';-inkscape-font-specification:'DejaVu Sans Mono';text-decoration-color:#000000;letter-spacing:0.0185208px;fill:#000000;fill-opacity:1;fill-rule:evenodd;stroke:none;stroke-width:0.3;stroke-dasharray:none;stroke-opacity:1"
       x="130.50784"
       y="153.17664"
       id="text830"><tspan
         sodipodi:role="line"
         id="tspan828"
         style="stroke-width:0.3"
         x="130.50784"
         y="153.17664">C</tspan></text>
  </g>
</svg>
