<?xml version="1.0" encoding="UTF-8" standalone="no"?>
<!-- Created with Inkscape (http://www.inkscape.org/) -->

<svg
   width="243.28674mm"
   height="83.806305mm"
   viewBox="0 0 243.28675 83.806304"
   version="1.1"
   id="svg1"
   inkscape:version="1.2.2 (b0a8486541, 2022-12-01)"
   sodipodi:docname="pangenome-cartoon.svg"
   xmlns:inkscape="http://www.inkscape.org/namespaces/inkscape"
   xmlns:sodipodi="http://sodipodi.sourceforge.net/DTD/sodipodi-0.dtd"
   xmlns="http://www.w3.org/2000/svg"
   xmlns:svg="http://www.w3.org/2000/svg">
  <sodipodi:namedview
     id="namedview1"
     pagecolor="#ffffff"
     bordercolor="#000000"
     borderopacity="0.25"
     inkscape:showpageshadow="2"
     inkscape:pageopacity="0.0"
     inkscape:pagecheckerboard="0"
     inkscape:deskcolor="#d1d1d1"
     inkscape:document-units="mm"
     inkscape:zoom="1.0280428"
     inkscape:cx="353.5845"
     inkscape:cy="151.25829"
     inkscape:window-width="1920"
     inkscape:window-height="1011"
     inkscape:window-x="0"
     inkscape:window-y="32"
     inkscape:window-maximized="1"
     inkscape:current-layer="layer1"
     showgrid="false" />
  <defs
     id="defs1" />
  <g
     inkscape:label="Layer 1"
     inkscape:groupmode="layer"
     id="layer1"
     transform="translate(-17.33934,-86.33935)">
    <rect
       style="font-variation-settings:normal;fill:#ffffff;fill-opacity:1;fill-rule:evenodd;stroke:#000000;stroke-width:0.800884;stroke-linecap:butt;stroke-linejoin:miter;stroke-miterlimit:4;stroke-dasharray:none;stroke-dashoffset:0;stroke-opacity:1;stop-color:#000000"
       id="rect1161"
       width="21.153175"
       height="8.1396637"
       x="234.11903"
       y="139.24847"
       ry="0" />
    <path
       style="fill:#e0ba09;fill-opacity:1;stroke:#000000;stroke-width:0.800884;stroke-dasharray:none;stroke-opacity:1"
       d="m 232.86924,147.40053 c -0.51148,-0.11437 -0.93013,-0.56273 -1.24718,-1.0165 -0.20572,-0.30427 -0.54814,-1.1722 -0.60956,-1.54501 -0.0204,-0.12367 -0.056,-0.66156 -0.0792,-1.19532 -0.0701,-1.61409 0.24498,-2.93691 0.87071,-3.65554 0.3123,-0.35867 0.39188,-0.44751 0.57192,-0.52903 0.67223,-0.30581 1.202,-0.21179 1.72362,-0.21344 -0.004,0.14953 0.007,8.14275 0.007,8.14275 -0.75775,-0.009 -1.21824,0.0284 -1.23677,0.0121 z"
       id="path1163"
       sodipodi:nodetypes="ccssscccsc" />
    <path
       style="fill:#cb6b08;fill-opacity:1;stroke:#000000;stroke-width:0.800884;stroke-dasharray:none;stroke-opacity:1"
       d="m 255.12409,139.25129 c 1.59676,0.047 1.67122,0.0947 1.94939,0.3133 0.53049,0.41684 1.0292,1.34608 1.17927,2.19731 0.0862,0.48919 0.0575,3.11528 -0.0379,3.46028 -0.008,0.0293 -0.0133,0.0782 -0.0116,0.10864 0.0121,0.21109 -0.63312,1.28054 -0.96954,1.60714 -0.26525,0.25055 -0.431,0.39437 -0.73981,0.47557 -0.047,0.0123 -0.50649,-0.0189 -1.35473,-0.0235 0.016,-0.3285 0.004,-7.93852 -0.0152,-8.13869 z"
       id="path1165"
       sodipodi:nodetypes="cssscccccc" />
    <rect
       style="font-variation-settings:normal;fill:#ffffff;fill-opacity:1;fill-rule:evenodd;stroke:#000000;stroke-width:0.800884;stroke-linecap:butt;stroke-linejoin:miter;stroke-miterlimit:4;stroke-dasharray:none;stroke-dashoffset:0;stroke-opacity:1;stop-color:#000000"
       id="rect1084"
       width="22.632866"
       height="8.1396637"
       x="195.56866"
       y="139.24847"
       ry="0" />
    <path
       style="fill:#e0ba09;fill-opacity:1;stroke:#000000;stroke-width:0.800884;stroke-dasharray:none;stroke-opacity:1"
       d="m 194.3188,147.40053 c -0.51148,-0.11437 -0.93013,-0.56273 -1.24718,-1.0165 -0.20572,-0.30427 -0.54814,-1.1722 -0.60956,-1.54501 -0.0204,-0.12367 -0.056,-0.66156 -0.0792,-1.19532 -0.0701,-1.61409 0.24498,-2.93691 0.87071,-3.65554 0.3123,-0.35867 0.39188,-0.44751 0.57192,-0.52903 0.67223,-0.30581 1.202,-0.21179 1.72362,-0.21344 -0.004,0.14953 0.007,8.14275 0.007,8.14275 -0.75775,-0.009 -1.21824,0.0284 -1.23677,0.0121 z"
       id="path1086"
       sodipodi:nodetypes="ccssscccsc" />
    <path
       style="fill:#cb6b08;fill-opacity:1;stroke:#000000;stroke-width:0.800884;stroke-dasharray:none;stroke-opacity:1"
       d="m 218.16116,139.25129 c 1.59676,0.047 1.67122,0.0947 1.94939,0.3133 0.53049,0.41684 1.0292,1.34608 1.17927,2.19731 0.0862,0.48919 0.0575,3.11528 -0.0379,3.46028 -0.008,0.0293 -0.0133,0.0782 -0.0116,0.10864 0.0121,0.21109 -0.63312,1.28054 -0.96954,1.60714 -0.26525,0.25055 -0.431,0.39437 -0.73981,0.47557 -0.047,0.0123 -0.50649,-0.0189 -1.35473,-0.0235 0.016,-0.3285 0.004,-7.93852 -0.0152,-8.13869 z"
       id="path1088"
       sodipodi:nodetypes="cssscccccc" />
    <rect
       style="font-variation-settings:normal;fill:#ffffff;fill-opacity:1;fill-rule:evenodd;stroke:#000000;stroke-width:0.800884;stroke-linecap:butt;stroke-linejoin:miter;stroke-miterlimit:4;stroke-dasharray:none;stroke-dashoffset:0;stroke-opacity:1;stop-color:#000000"
       id="rect950"
       width="26.43965"
       height="8.1396637"
       x="146.35606"
       y="139.24847"
       ry="0" />
    <path
       style="fill:#e0ba09;fill-opacity:1;stroke:#000000;stroke-width:0.800884;stroke-dasharray:none;stroke-opacity:1"
       d="m 145.10629,147.40053 c -0.51148,-0.11437 -0.93013,-0.56273 -1.24718,-1.0165 -0.20572,-0.30427 -0.54814,-1.1722 -0.60956,-1.54501 -0.0204,-0.12367 -0.056,-0.66156 -0.0792,-1.19532 -0.0701,-1.61409 0.24498,-2.93691 0.87071,-3.65554 0.3123,-0.35867 0.39188,-0.44751 0.57192,-0.52903 0.67223,-0.30581 1.202,-0.21179 1.72362,-0.21344 -0.004,0.14953 0.007,8.14275 0.007,8.14275 -0.75775,-0.009 -1.21824,0.0284 -1.23677,0.0121 z"
       id="path952"
       sodipodi:nodetypes="ccssscccsc" />
    <path
       style="fill:#cb6b08;fill-opacity:1;stroke:#000000;stroke-width:0.800884;stroke-dasharray:none;stroke-opacity:1"
       d="m 172.65281,139.25129 c 1.59676,0.047 1.67122,0.0947 1.94939,0.3133 0.53049,0.41684 1.0292,1.34608 1.17927,2.19731 0.0862,0.48919 0.0575,3.11528 -0.0379,3.46028 -0.008,0.0293 -0.0133,0.0782 -0.0116,0.10864 0.0121,0.21109 -0.63312,1.28054 -0.96954,1.60714 -0.26525,0.25055 -0.431,0.39437 -0.73981,0.47557 -0.047,0.0123 -0.50649,-0.0189 -1.35473,-0.0235 0.016,-0.3285 0.004,-7.93852 -0.0152,-8.13869 z"
       id="path954"
       sodipodi:nodetypes="cssscccccc" />
    <rect
       style="font-variation-settings:normal;fill:#ffffff;fill-opacity:1;fill-rule:evenodd;stroke:#000000;stroke-width:0.800884;stroke-linecap:butt;stroke-linejoin:miter;stroke-miterlimit:4;stroke-dasharray:none;stroke-dashoffset:0;stroke-opacity:1;stop-color:#000000"
       id="rect699"
       width="5.7560163"
       height="8.1396637"
       x="128.84807"
       y="124.43181"
       ry="0" />
    <path
       style="fill:#e0ba09;fill-opacity:1;stroke:#000000;stroke-width:0.800884;stroke-dasharray:none;stroke-opacity:1"
       d="m 127.59829,132.58386 c -0.51148,-0.11437 -0.93014,-0.56273 -1.24718,-1.0165 -0.20572,-0.30427 -0.54815,-1.1722 -0.60956,-1.54501 -0.0204,-0.12367 -0.056,-0.66156 -0.0792,-1.19532 -0.0701,-1.61409 0.24498,-2.93691 0.8707,-3.65554 0.3123,-0.35867 0.39189,-0.44751 0.57192,-0.52903 0.67223,-0.30581 1.20201,-0.21179 1.72363,-0.21344 -0.004,0.14953 0.007,8.14275 0.007,8.14275 -0.75775,-0.009 -1.21825,0.0284 -1.23678,0.0121 z"
       id="path701"
       sodipodi:nodetypes="ccssscccsc" />
    <path
       style="fill:#cb6b08;fill-opacity:1;stroke:#000000;stroke-width:0.800884;stroke-dasharray:none;stroke-opacity:1"
       d="m 134.50731,124.43462 c 1.59676,0.047 1.67122,0.0947 1.94939,0.3133 0.53049,0.41684 1.0292,1.34608 1.17927,2.19731 0.0862,0.48919 0.0575,3.11528 -0.0379,3.46028 -0.008,0.0293 -0.0133,0.0782 -0.0116,0.10864 0.0121,0.21109 -0.63312,1.28054 -0.96954,1.60714 -0.26525,0.25055 -0.431,0.39437 -0.73981,0.47557 -0.047,0.0123 -0.50649,-0.0189 -1.35473,-0.0235 0.016,-0.3285 0.004,-7.93852 -0.0152,-8.13869 z"
       id="path703"
       sodipodi:nodetypes="cssscccccc" />
    <rect
       style="font-variation-settings:normal;fill:#ffffff;fill-opacity:1;fill-rule:evenodd;stroke:#000000;stroke-width:0.800884;stroke-linecap:butt;stroke-linejoin:miter;stroke-miterlimit:4;stroke-dasharray:none;stroke-dashoffset:0;stroke-opacity:1;stop-color:#000000"
       id="rect626"
       width="21.153175"
       height="8.1396637"
       x="96.08519"
       y="139.24847"
       ry="0" />
    <path
       style="fill:#e0ba09;fill-opacity:1;stroke:#000000;stroke-width:0.800884;stroke-dasharray:none;stroke-opacity:1"
       d="m 94.835443,147.40053 c -0.51148,-0.11437 -0.930132,-0.56273 -1.247179,-1.0165 -0.205717,-0.30427 -0.548143,-1.1722 -0.609557,-1.54501 -0.02037,-0.12367 -0.05601,-0.66156 -0.07919,-1.19532 -0.0701,-1.61409 0.244982,-2.93691 0.870703,-3.65554 0.3123,-0.35867 0.391885,-0.44751 0.571919,-0.52903 0.672232,-0.30581 1.202003,-0.21179 1.723624,-0.21344 -0.004,0.14953 0.007,8.14275 0.007,8.14275 -0.757747,-0.009 -1.218245,0.0284 -1.236773,0.0121 z"
       id="path628"
       sodipodi:nodetypes="ccssscccsc" />
    <path
       style="fill:#cb6b08;fill-opacity:1;stroke:#000000;stroke-width:0.800884;stroke-dasharray:none;stroke-opacity:1"
       d="m 117.09029,139.25129 c 1.59676,0.047 1.67122,0.0947 1.94939,0.3133 0.53049,0.41684 1.0292,1.34608 1.17927,2.19731 0.0862,0.48919 0.0575,3.11528 -0.0379,3.46028 -0.008,0.0293 -0.0133,0.0782 -0.0116,0.10864 0.0121,0.21109 -0.63312,1.28054 -0.96954,1.60714 -0.26525,0.25055 -0.431,0.39437 -0.73981,0.47557 -0.047,0.0123 -0.50649,-0.0189 -1.35473,-0.0235 0.016,-0.3285 0.004,-7.93852 -0.0152,-8.13869 z"
       id="path630"
       sodipodi:nodetypes="cssscccccc" />
    <rect
       style="font-variation-settings:normal;fill:#ffffff;fill-opacity:1;fill-rule:evenodd;stroke:#000000;stroke-width:0.800884;stroke-linecap:butt;stroke-linejoin:miter;stroke-miterlimit:4;stroke-dasharray:none;stroke-dashoffset:0;stroke-opacity:1;stop-color:#000000"
       id="rect446"
       width="21.524338"
       height="8.1396637"
       x="62.173046"
       y="123.90264"
       ry="0" />
    <path
       style="fill:#e0ba09;fill-opacity:1;stroke:#000000;stroke-width:0.800884;stroke-dasharray:none;stroke-opacity:1"
       d="m 60.92328,132.05469 c -0.51148,-0.11437 -0.930132,-0.56273 -1.247179,-1.0165 -0.205717,-0.30427 -0.548143,-1.1722 -0.609557,-1.54501 -0.02037,-0.12367 -0.05601,-0.66156 -0.07919,-1.19532 -0.0701,-1.61409 0.244982,-2.93691 0.870703,-3.65554 0.3123,-0.35867 0.391885,-0.44751 0.571919,-0.52903 0.672232,-0.30581 1.202003,-0.21179 1.723622,-0.21344 -0.0035,0.14953 0.0065,8.14275 0.0065,8.14275 -0.757745,-0.009 -1.218243,0.0284 -1.236771,0.0121 z"
       id="path448"
       sodipodi:nodetypes="ccssscccsc" />
    <path
       style="fill:#cb6b08;fill-opacity:1;stroke:#000000;stroke-width:0.800884;stroke-dasharray:none;stroke-opacity:1"
       d="m 83.707297,123.90545 c 1.596766,0.047 1.671224,0.0947 1.949395,0.3133 0.53049,0.41684 1.029201,1.34608 1.179262,2.19731 0.08624,0.48919 0.0575,3.11528 -0.03788,3.46028 -0.0081,0.0293 -0.01329,0.0782 -0.01157,0.10864 0.01205,0.21109 -0.633119,1.28054 -0.969535,1.60714 -0.265248,0.25055 -0.431003,0.39437 -0.739808,0.47557 -0.04697,0.0123 -0.506491,-0.0189 -1.354736,-0.0235 0.01601,-0.3285 0.004,-7.93852 -0.01515,-8.13869 z"
       id="path450"
       sodipodi:nodetypes="cssscccccc" />
    <text
       xml:space="preserve"
       style="font-size:5.64444px;line-height:0.4;font-family:Arial;-inkscape-font-specification:Arial;text-decoration-color:#000000;letter-spacing:0.0185208px;fill:none;fill-rule:evenodd;stroke:#000000;stroke-width:2.449;stroke-opacity:1"
       x="102.96093"
       y="47.815834"
       id="text1"><tspan
         sodipodi:role="line"
         id="tspan1"
         style="stroke:#000000;stroke-width:2.449;stroke-opacity:1"
         x="102.96093"
         y="47.815834" /></text>
    <text
       xml:space="preserve"
       style="font-size:9.87778px;line-height:0.4;font-family:Arial;-inkscape-font-specification:Arial;text-decoration-color:#000000;letter-spacing:0.0185208px;fill:#000997;fill-opacity:1;fill-rule:evenodd;stroke:none;stroke-width:0.3;stroke-dasharray:none;stroke-opacity:1"
       x="34.133492"
       y="98.703827"
       id="text2"><tspan
         sodipodi:role="line"
         id="tspan2"
         style="font-style:normal;font-variant:normal;font-weight:normal;font-stretch:normal;font-size:9.87778px;font-family:'DejaVu Sans Mono';-inkscape-font-specification:'DejaVu Sans Mono';fill:#000997;fill-opacity:1;stroke:none;stroke-width:0.3;stroke-dasharray:none"
         x="34.133492"
         y="98.703827">ATTGGGC<tspan
   style="font-weight:bold;font-size:9.87778px;fill:#000997;fill-opacity:1"
   id="tspan9">ATCGG</tspan>GTGAG<tspan
   style="font-weight:bold;font-size:9.87778px;fill:#000997;fill-opacity:1"
   id="tspan7">A</tspan>GTGACCC<tspan
   style="font-weight:bold;font-size:9.87778px;fill:#000997;fill-opacity:1"
   id="tspan11">TTTAAG</tspan>GCAGG</tspan></text>
    <text
       xml:space="preserve"
       style="font-size:9.87778px;line-height:0.4;font-family:Arial;-inkscape-font-specification:Arial;text-decoration-color:#000000;letter-spacing:0.0185208px;fill:#b28400;fill-opacity:1;fill-rule:evenodd;stroke:none;stroke-width:0.3;stroke-dasharray:none;stroke-opacity:1"
       x="34.133492"
       y="114.04965"
       id="text5"><tspan
         sodipodi:role="line"
         id="tspan5"
         style="font-style:normal;font-variant:normal;font-weight:normal;font-stretch:normal;font-size:9.87778px;font-family:'DejaVu Sans Mono';-inkscape-font-specification:'DejaVu Sans Mono';fill:#b28400;fill-opacity:1;stroke:none;stroke-width:0.3;stroke-dasharray:none"
         x="34.133492"
         y="114.04965">ATTGGGC<tspan
   style="font-weight:bold;font-size:9.87778px;fill:#b28400;fill-opacity:1"
   id="tspan8">-----</tspan>GTGAG<tspan
   style="font-weight:bold;font-size:9.87778px;fill:#b28400;fill-opacity:1"
   id="tspan6">C</tspan>GTGACCC<tspan
   style="font-weight:bold;font-size:9.87778px;fill:#b28400;fill-opacity:1"
   id="tspan10">CTTAAA</tspan>GCAGG</tspan></text>
    <text
       xml:space="preserve"
       style="font-style:normal;font-variant:normal;font-weight:normal;font-stretch:normal;font-size:5.64444px;line-height:0.4;font-family:'DejaVu Sans Mono';-inkscape-font-specification:'DejaVu Sans Mono';text-decoration-color:#000000;letter-spacing:0.0185208px;fill:#000000;fill-opacity:1;fill-rule:evenodd;stroke:none;stroke-width:0.3;stroke-dasharray:none;stroke-opacity:1"
       x="64.650269"
       y="129.91245"
       id="text13"><tspan
         sodipodi:role="line"
         id="tspan13"
         style="stroke-width:0.3"
         x="64.650269"
         y="129.91245">ATCGG</tspan></text>
    <text
       xml:space="preserve"
       style="font-style:normal;font-variant:normal;font-weight:normal;font-stretch:normal;font-size:5.64444px;line-height:0.4;font-family:'DejaVu Sans Mono';-inkscape-font-specification:'DejaVu Sans Mono';text-decoration-color:#000000;letter-spacing:0.0185208px;fill:#000000;fill-opacity:1;fill-rule:evenodd;stroke:none;stroke-width:0.3;stroke-dasharray:none;stroke-opacity:1"
       x="97.74308"
       y="145.28844"
       id="text14"><tspan
         sodipodi:role="line"
         id="tspan14"
         style="stroke-width:0.3"
         x="97.74308"
         y="145.28844">GTGAG</tspan></text>
    <text
       xml:space="preserve"
       style="font-style:normal;font-variant:normal;font-weight:normal;font-stretch:normal;font-size:5.64444px;line-height:0.4;font-family:'DejaVu Sans Mono';-inkscape-font-specification:'DejaVu Sans Mono';text-decoration-color:#000000;letter-spacing:0.0185208px;fill:#000000;fill-opacity:1;fill-rule:evenodd;stroke:none;stroke-width:0.3;stroke-dasharray:none;stroke-opacity:1"
       x="129.86179"
       y="130.77351"
       id="text15"><tspan
         sodipodi:role="line"
         id="tspan15"
         style="stroke-width:0.3"
         x="129.86179"
         y="130.77351">A</tspan></text>
    <text
       xml:space="preserve"
       style="font-style:normal;font-variant:normal;font-weight:normal;font-stretch:normal;font-size:5.64444px;line-height:0.4;font-family:'DejaVu Sans Mono';-inkscape-font-specification:'DejaVu Sans Mono';text-decoration-color:#000000;letter-spacing:0.0185208px;fill:#000000;fill-opacity:1;fill-rule:evenodd;stroke:none;stroke-width:0.3;stroke-dasharray:none;stroke-opacity:1"
       x="147.47668"
       y="145.28844"
       id="text17"><tspan
         sodipodi:role="line"
         id="tspan17"
         style="stroke-width:0.3"
         x="147.47668"
         y="145.28844">GTGACCC</tspan></text>
    <text
       xml:space="preserve"
       style="font-style:normal;font-variant:normal;font-weight:normal;font-stretch:normal;font-size:5.64444px;line-height:0.4;font-family:'DejaVu Sans Mono';-inkscape-font-specification:'DejaVu Sans Mono';text-decoration-color:#000000;letter-spacing:0.0185208px;fill:#000000;fill-opacity:1;fill-rule:evenodd;stroke:none;stroke-width:0.3;stroke-dasharray:none;stroke-opacity:1"
       x="196.45593"
       y="145.28844"
       id="text18"><tspan
         sodipodi:role="line"
         id="tspan18"
         style="stroke-width:0.3"
         x="196.45593"
         y="145.28844">CTTAAA</tspan></text>
    <text
       xml:space="preserve"
       style="font-style:normal;font-variant:normal;font-weight:normal;font-stretch:normal;font-size:5.64444px;line-height:0.4;font-family:'DejaVu Sans Mono';-inkscape-font-specification:'DejaVu Sans Mono';text-decoration-color:#000000;letter-spacing:0.0185208px;fill:#000000;fill-opacity:1;fill-rule:evenodd;stroke:none;stroke-width:0.3;stroke-dasharray:none;stroke-opacity:1"
       x="235.98892"
       y="145.28844"
       id="text19"><tspan
         sodipodi:role="line"
         id="tspan19"
         style="stroke-width:0.3"
         x="235.98892"
         y="145.28844">GCAGG</tspan></text>
    <path
       style="fill:none;fill-opacity:1;fill-rule:evenodd;stroke:#000000;stroke-width:0.5;stroke-dasharray:none;stroke-opacity:1"
       d="m 52.652104,142.82371 c 6.159516,0 10.674646,2.79118 21.294112,2.79118 10.058412,0 12.536971,-2.72536 19.205749,-2.69926"
       id="path33"
       sodipodi:nodetypes="csc" />
    <path
       style="fill:none;fill-opacity:1;fill-rule:evenodd;stroke:#000000;stroke-width:0.5;stroke-dasharray:none;stroke-opacity:1"
       d="m 52.652104,142.82371 c 5.069684,-1.4875 4.073781,-4.86452 3.93199,-8.12832 -0.115012,-2.64739 -0.812435,-6.72986 2.641289,-6.72173"
       id="path34"
       sodipodi:nodetypes="csc" />
    <path
       style="fill:none;fill-opacity:1;fill-rule:evenodd;stroke:#000000;stroke-width:0.5;stroke-dasharray:none;stroke-opacity:1"
       d="m 93.198827,142.82371 c -5.069684,-1.4875 -4.073781,-4.86452 -3.93199,-8.12832 0.115012,-2.64739 0.812435,-6.72986 -2.641289,-6.72173"
       id="path35"
       sodipodi:nodetypes="csc" />
    <path
       style="fill:none;fill-opacity:1;fill-rule:evenodd;stroke:#000000;stroke-width:0.5;stroke-dasharray:none;stroke-opacity:1"
       d="m 120.32441,143.43185 c 5.06969,-1.4875 4.07378,-4.86452 3.93199,-8.12832 -0.11501,-2.64739 -2.07615,-6.83022 1.37757,-6.82209"
       id="path36"
       sodipodi:nodetypes="csc" />
    <path
       style="fill:none;fill-opacity:1;fill-rule:evenodd;stroke:#000000;stroke-width:0.5;stroke-dasharray:none;stroke-opacity:1"
       d="m 142.96239,143.23924 c -5.06968,-1.4875 -4.07378,-4.86452 -3.93199,-8.12832 0.11502,-2.64739 2.19493,-6.8611 -1.25879,-6.85297"
       id="path37"
       sodipodi:nodetypes="csc" />
    <path
       style="fill:none;fill-opacity:1;fill-rule:evenodd;stroke:#000000;stroke-width:0.5;stroke-dasharray:none;stroke-opacity:1"
       d="m 120.39823,144.00824 c 5.06969,1.4875 4.07378,4.86452 3.93199,8.12832 -0.11501,2.64739 -0.81243,6.72986 2.64129,6.72173"
       id="path38"
       sodipodi:nodetypes="csc" />
    <path
       style="fill:none;fill-opacity:1;fill-rule:evenodd;stroke:#000000;stroke-width:0.5;stroke-dasharray:none;stroke-opacity:1"
       d="m 143.10443,144.20085 c -5.06968,1.4875 -4.07378,4.86452 -3.93199,8.12832 0.11502,2.64739 0.81244,6.72986 -2.64128,6.72173"
       id="path39"
       sodipodi:nodetypes="csc" />
    <path
       style="fill:none;fill-opacity:1;fill-rule:evenodd;stroke:#000000;stroke-width:0.499999;stroke-dasharray:none;stroke-opacity:1"
       d="m 175.95048,143.52699 16.87061,0.54832"
       id="path40"
       sodipodi:nodetypes="cc" />
    <path
       style="fill:none;fill-opacity:1;fill-rule:evenodd;stroke:#000000;stroke-width:0.499999;stroke-dasharray:none;stroke-opacity:1"
       d="m 221.40144,143.76421 9.79328,0.15509"
       id="path41"
       sodipodi:nodetypes="cc" />
    <path
       style="fill:none;fill-opacity:1;fill-rule:evenodd;stroke:#000000;stroke-width:0.499999;stroke-dasharray:none;stroke-opacity:1"
       d="m 175.85257,143.2307 c 5.83753,0 9.34564,-7.12343 18.27043,-11.04593 8.93793,-3.92828 22.39897,-5.69669 29.36409,1.14473 2.39901,2.35641 2.45773,5.26053 1.50214,6.91566 -1.52077,2.63405 -3.629,3.03563 -3.629,3.03563"
       id="path42"
       sodipodi:nodetypes="csssc" />
    <path
       style="fill:none;fill-opacity:1;fill-rule:evenodd;stroke:#000000;stroke-width:0.499999;stroke-dasharray:none;stroke-opacity:1"
       d="m 231.17486,144.07543 c -7.07927,0 -2.78288,9.22523 -11.51578,14.26717 -6.33283,3.65626 -26.66302,2.97075 -30.65504,-0.95037 -2.39901,-2.35641 -2.53625,-5.69117 -1.21988,-8.78554 1.19064,-2.79882 4.88108,-4.40465 4.88108,-4.40465"
       id="path43"
       sodipodi:nodetypes="csssc" />
    <rect
       style="font-variation-settings:normal;fill:#ffffff;fill-opacity:1;fill-rule:evenodd;stroke:#000000;stroke-width:0.800884;stroke-linecap:butt;stroke-linejoin:miter;stroke-miterlimit:4;stroke-dasharray:none;stroke-dashoffset:0;stroke-opacity:1;stop-color:#000000"
       id="rect5864-1"
       width="26.524719"
       height="8.1396637"
       x="23.014704"
       y="138.97667"
       ry="0" />
    <path
       style="fill:#e0ba09;fill-opacity:1;stroke:#000000;stroke-width:0.800884;stroke-dasharray:none;stroke-opacity:1"
       d="m 21.764943,147.12872 c -0.51148,-0.11437 -0.930132,-0.56273 -1.247179,-1.0165 -0.205717,-0.30427 -0.548143,-1.1722 -0.609557,-1.54501 -0.02037,-0.12367 -0.05601,-0.66156 -0.07919,-1.19532 -0.0701,-1.61409 0.244982,-2.93691 0.870703,-3.65554 0.3123,-0.35867 0.391885,-0.44751 0.571919,-0.52903 0.672232,-0.30581 1.202003,-0.21179 1.723622,-0.21344 -0.0035,0.14953 0.0065,8.14275 0.0065,8.14275 -0.757745,-0.009 -1.218243,0.0284 -1.236771,0.0121 z"
       id="path429-3-1"
       sodipodi:nodetypes="ccssscccsc" />
    <path
       style="fill:#cb6b08;fill-opacity:1;stroke:#000000;stroke-width:0.800884;stroke-dasharray:none;stroke-opacity:1"
       d="m 49.311463,138.97948 c 1.596766,0.047 1.671224,0.0947 1.949395,0.3133 0.53049,0.41684 1.029201,1.34608 1.179262,2.19731 0.08624,0.48919 0.0575,3.11528 -0.03788,3.46028 -0.0081,0.0293 -0.01329,0.0782 -0.01157,0.10864 0.01205,0.21109 -0.633119,1.28054 -0.969535,1.60714 -0.265248,0.25055 -0.431003,0.39437 -0.739808,0.47557 -0.04697,0.0123 -0.506491,-0.0189 -1.354736,-0.0235 0.01601,-0.3285 0.004,-7.93852 -0.01515,-8.13869 z"
       id="path429-59"
       sodipodi:nodetypes="cssscccccc" />
    <text
       xml:space="preserve"
       style="font-style:normal;font-variant:normal;font-weight:normal;font-stretch:normal;font-size:5.64444px;line-height:0.4;font-family:'DejaVu Sans Mono';-inkscape-font-specification:'DejaVu Sans Mono';text-decoration-color:#000000;letter-spacing:0.0185208px;fill:#000000;fill-opacity:1;fill-rule:evenodd;stroke:none;stroke-width:0.3;stroke-dasharray:none;stroke-opacity:1"
       x="24.442919"
       y="144.9744"
       id="text12"><tspan
         sodipodi:role="line"
         id="tspan12"
         style="stroke-width:0.3"
         x="24.442919"
         y="144.9744">ATTGGGC</tspan></text>
    <path
       style="fill:none;fill-opacity:1;fill-rule:evenodd;stroke:#000997;stroke-width:2;stroke-dasharray:none;stroke-opacity:0.416955"
       d="m 22.54156,147.91464 c 0,0 22.718861,0.0372 28.32913,0.0372 7.217759,0 3.817462,-13.64265 9.936192,-13.64265 h 22.771922 c 6.959137,0 4.449695,13.96328 11.066413,13.96328 h 23.401823 c 8.64709,0 6.09971,-13.55881 11.10809,-13.55881 h 4.64272 c 6.76534,0 1.65155,13.87613 10.72971,13.87613 h 26.9235 c 13.41057,0 14.13246,-7.68829 20.87235,-12.03945 4.8769,-3.14844 10.72701,-5.56263 16.53127,-5.47622 4.9427,0.0736 9.49587,0.64383 13.93239,5.08035 4.04431,4.04431 5.51188,11.88966 -0.71219,11.88966 h -28.04613 c -9.58821,0 -5.43207,9.69685 2.92019,10.62563 7.29527,0.81124 14.84832,0.44981 21.7553,-1.84353 7.66411,-2.54472 7.48199,-8.6434 13.89055,-8.6434 7.36789,0 22.10368,0 22.10368,0"
       id="path44"
       sodipodi:nodetypes="csssssssssssssssssc" />
    <path
       style="fill:none;fill-opacity:1;fill-rule:evenodd;stroke:#b28400;stroke-width:2;stroke-dasharray:none;stroke-opacity:0.45401"
       d="m 22.54156,151.08966 c 0,0 18.886079,0.0372 28.32913,0.0372 5.090309,0 9.784642,-1.79981 14.737237,-2.12268 5.438969,-0.35458 10.914266,-0.18837 16.350192,0.21015 4.255585,0.31199 8.451264,1.70399 12.687098,1.70399 7.800613,0 15.601213,0 23.401823,0 5.38815,0 2.23016,12.73158 10.22124,12.73158 2.29214,0 4.58429,0 6.87643,0 8.76908,0 2.96127,-11.88509 9.38285,-11.88509 8.9745,0 17.949,0 26.9235,0 7.83451,0 7.83046,-0.64676 23.11501,-0.53894 l 25.33895,0.17874 c 3.3647,0.0237 8.06536,-0.0468 12.68977,-0.0468 h 22.10368"
       id="path45"
       sodipodi:nodetypes="csaasssssssssc" />
    <rect
       style="font-variation-settings:normal;fill:#ffffff;fill-opacity:1;fill-rule:evenodd;stroke:#000000;stroke-width:0.800884;stroke-linecap:butt;stroke-linejoin:miter;stroke-miterlimit:4;stroke-dasharray:none;stroke-dashoffset:0;stroke-opacity:1;stop-color:#000000"
       id="rect822"
       width="5.7560163"
       height="8.1396637"
       x="128.84807"
       y="154.33815"
       ry="0" />
    <path
       style="fill:#e0ba09;fill-opacity:1;stroke:#000000;stroke-width:0.800884;stroke-dasharray:none;stroke-opacity:1"
       d="m 127.59829,162.49017 c -0.51148,-0.11437 -0.93014,-0.56273 -1.24718,-1.0165 -0.20572,-0.30427 -0.54815,-1.1722 -0.60956,-1.54501 -0.0204,-0.12367 -0.056,-0.66156 -0.0792,-1.19532 -0.0701,-1.61409 0.24498,-2.93691 0.8707,-3.65554 0.3123,-0.35867 0.39189,-0.44751 0.57192,-0.52903 0.67223,-0.30581 1.20201,-0.21179 1.72363,-0.21344 -0.004,0.14953 0.007,8.14275 0.007,8.14275 -0.75775,-0.009 -1.21825,0.0284 -1.23678,0.0121 z"
       id="path824"
       sodipodi:nodetypes="ccssscccsc" />
    <path
       style="fill:#cb6b08;fill-opacity:1;stroke:#000000;stroke-width:0.800884;stroke-dasharray:none;stroke-opacity:1"
       d="m 134.50731,154.34093 c 1.59676,0.047 1.67122,0.0947 1.94939,0.3133 0.53049,0.41684 1.0292,1.34608 1.17927,2.19731 0.0862,0.48919 0.0575,3.11528 -0.0379,3.46028 -0.008,0.0293 -0.0133,0.0782 -0.0116,0.10864 0.0121,0.21109 -0.63312,1.28054 -0.96954,1.60714 -0.26525,0.25055 -0.431,0.39437 -0.73981,0.47557 -0.047,0.0123 -0.50649,-0.0189 -1.35473,-0.0235 0.016,-0.3285 0.004,-7.93852 -0.0152,-8.13869 z"
       id="path826"
       sodipodi:nodetypes="cssscccccc" />
    <text
       xml:space="preserve"
       style="font-style:normal;font-variant:normal;font-weight:normal;font-stretch:normal;font-size:5.64444px;line-height:0.4;font-family:'DejaVu Sans Mono';-inkscape-font-specification:'DejaVu Sans Mono';text-decoration-color:#000000;letter-spacing:0.0185208px;fill:#000000;fill-opacity:1;fill-rule:evenodd;stroke:none;stroke-width:0.3;stroke-dasharray:none;stroke-opacity:1"
       x="129.86179"
       y="160.67987"
       id="text830"><tspan
         sodipodi:role="line"
         id="tspan828"
         style="stroke-width:0.3"
         x="129.86179"
         y="160.67987">C</tspan></text>
  </g>
</svg>
