<?xml version="1.0" encoding="UTF-8" standalone="no"?>
<!-- Generated by graphviz version 2.43.0 (0)
 -->

<!-- Title: graphname Pages: 1 -->

<svg
   width="1059.2667pt"
   height="368.68564pt"
   viewBox="0 0 1059.2667 368.68563"
   version="1.1"
   id="svg448"
   sodipodi:docname="simple_nested_snarl.summary.masked.svg"
   inkscape:version="1.2.2 (b0a8486541, 2022-12-01)"
   xmlns:inkscape="http://www.inkscape.org/namespaces/inkscape"
   xmlns:sodipodi="http://sodipodi.sourceforge.net/DTD/sodipodi-0.dtd"
   xmlns="http://www.w3.org/2000/svg"
   xmlns:svg="http://www.w3.org/2000/svg">
  <defs
     id="defs452" />
  <sodipodi:namedview
     id="namedview450"
     pagecolor="#ffffff"
     bordercolor="#000000"
     borderopacity="0.25"
     inkscape:showpageshadow="2"
     inkscape:pageopacity="0.0"
     inkscape:pagecheckerboard="0"
     inkscape:deskcolor="#d1d1d1"
     inkscape:document-units="pt"
     showgrid="false"
     inkscape:zoom="0.50772385"
     inkscape:cx="692.30547"
     inkscape:cy="337.78204"
     inkscape:window-width="1920"
     inkscape:window-height="1011"
     inkscape:window-x="0"
     inkscape:window-y="32"
     inkscape:window-maximized="1"
     inkscape:current-layer="svg448" />
  <g
     id="g2941"
     transform="matrix(0.81007439,0,0,0.81007439,-4.5370783,52.3187)">
    <g
       id="node1-6"
       class="node"
       transform="matrix(0.99966503,0,0,0.99966503,-9.2308486,288.54203)">
      <title
         id="title814">5</title>
      <polygon
         fill="none"
         stroke="#000000"
         stroke-width="2"
         points="419.31,-186 419.31,-213 489.31,-213 489.31,-186 "
         id="polygon816" />
      <text
         text-anchor="start"
         x="425.31"
         y="-195.8"
         font-family="Times, serif"
         font-size="14px"
         id="text818">5:CGGTA</text>
    </g>
    <g
       id="node2-7"
       class="node"
       transform="matrix(0.99966503,0,0,0.99966503,-9.2308486,288.54203)">
      <title
         id="title821">7</title>
      <polygon
         fill="none"
         stroke="#000000"
         stroke-width="2"
         points="634.81,-186 634.81,-213 703.81,-213 703.81,-186 "
         id="polygon823" />
      <text
         text-anchor="start"
         x="640.81"
         y="-195.8"
         font-family="Times, serif"
         font-size="14px"
         id="text825">7:CGTCA</text>
    </g>
    <g
       id="edge2-5"
       class="edge"
       transform="matrix(0.99966503,0,0,0.99966503,-9.2308486,288.54203)">
      <title
         id="title828">5:ne-&gt;7:nw</title>
      <path
         fill="none"
         stroke="#000000"
         stroke-width="2"
         d="m 490.31,-215 c 0,-63.78 143.5,-63.78 143.5,0"
         id="path830" />
    </g>
    <g
       id="node6-3"
       class="node"
       transform="matrix(0.99966503,0,0,0.99966503,-9.2308486,288.54203)">
      <title
         id="title833">6</title>
      <polygon
         fill="none"
         stroke="#000000"
         stroke-width="2"
         points="527.81,-186 527.81,-213 596.81,-213 596.81,-186 "
         id="polygon835" />
      <text
         text-anchor="start"
         x="533.81"
         y="-195.8"
         font-family="Times, serif"
         font-size="14px"
         id="text837">6:ACTAC</text>
    </g>
    <g
       id="edge1-5"
       class="edge"
       transform="matrix(0.99966503,0,0,0.99966503,-9.2308486,288.54203)">
      <title
         id="title840">5:ne-&gt;6:nw</title>
      <path
         fill="none"
         stroke="#000000"
         stroke-width="2"
         d="m 490.31,-215 c 0,-16.22 36.5,-16.22 36.5,0"
         id="path842" />
    </g>
    <g
       id="node3-6"
       class="node"
       transform="matrix(0.99966503,0,0,0.99966503,-9.2308486,288.54203)">
      <title
         id="title845">8</title>
      <polygon
         fill="none"
         stroke="#000000"
         stroke-width="2"
         points="741.31,-157 741.31,-184 811.31,-184 811.31,-157 "
         id="polygon847" />
      <text
         text-anchor="start"
         x="747.31"
         y="-166.8"
         font-family="Times, serif"
         font-size="14px"
         id="text849">8:CCAGG</text>
    </g>
    <g
       id="edge3-2"
       class="edge"
       transform="matrix(0.99966503,0,0,0.99966503,-9.2308486,288.54203)">
      <title
         id="title852">7:ne-&gt;8:nw</title>
      <path
         fill="none"
         stroke="#000000"
         stroke-width="2"
         d="m 704.81,-215 c 0,-20.37 35.5,8.63 35.5,29"
         id="path854" />
    </g>
    <g
       id="node8-9"
       class="node"
       transform="matrix(0.99966503,0,0,0.99966503,-9.2308486,288.54203)">
      <title
         id="title857">9</title>
      <polygon
         fill="none"
         stroke="#000000"
         stroke-width="2"
         points="849.81,-166 849.81,-193 916.81,-193 916.81,-166 "
         id="polygon859" />
      <text
         text-anchor="start"
         x="855.81"
         y="-175.8"
         font-family="Times, serif"
         font-size="14px"
         id="text861">9:TGATG</text>
    </g>
    <g
       id="edge4-1"
       class="edge"
       transform="matrix(0.99966503,0,0,0.99966503,-9.2308486,288.54203)">
      <title
         id="title864">7:ne-&gt;9:nw</title>
      <path
         fill="none"
         stroke="#000000"
         stroke-width="2"
         d="m 704.81,-215 c 0,-32.31 144,-12.31 144,20"
         id="path866" />
    </g>
    <g
       id="edge5-2"
       class="edge"
       transform="matrix(0.99966503,0,0,0.99966503,-9.2308486,288.54203)">
      <title
         id="title869">8:ne-&gt;9:nw</title>
      <path
         fill="none"
         stroke="#000000"
         stroke-width="2"
         d="m 812.31,-186 c 0,-16.71 36.5,-25.71 36.5,-9"
         id="path871" />
    </g>
    <g
       id="node4-7"
       class="node"
       transform="matrix(0.99966503,0,0,0.99966503,-9.2308486,288.54203)">
      <title
         id="title874">1</title>
      <polygon
         fill="none"
         stroke="#000000"
         stroke-width="2"
         points="61.31,-147 61.31,-174 130.31,-174 130.31,-147 "
         id="polygon876" />
      <text
         text-anchor="start"
         x="67.309998"
         y="-156.8"
         font-family="Times, serif"
         font-size="14px"
         id="text878">1:AGGAT</text>
    </g>
    <g
       id="node7-0"
       class="node"
       transform="matrix(0.99966503,0,0,0.99966503,-9.2308486,288.54203)">
      <title
         id="title881">2</title>
      <polygon
         fill="none"
         stroke="#000000"
         stroke-width="2"
         points="203.31,-182 203.31,-209 273.31,-209 273.31,-182 "
         id="polygon883" />
      <text
         text-anchor="start"
         x="209.31"
         y="-191.8"
         font-family="Times, serif"
         font-size="14px"
         id="text885">2:GGCAC</text>
    </g>
    <g
       id="edge6-9"
       class="edge"
       transform="matrix(0.99966503,0,0,0.99966503,-9.2308486,288.54203)">
      <title
         id="title888">1:ne-&gt;2:nw</title>
      <path
         fill="none"
         stroke="#000000"
         stroke-width="2"
         d="m 131.31,-176 c 0,-17.59 71,-52.59 71,-35"
         id="path890" />
    </g>
    <g
       id="node9-3"
       class="node"
       transform="matrix(0.99966503,0,0,0.99966503,-9.2308486,288.54203)">
      <title
         id="title893">3</title>
      <polygon
         fill="none"
         stroke="#000000"
         stroke-width="2"
         points="204.31,-135 204.31,-162 272.31,-162 272.31,-135 "
         id="polygon895" />
      <text
         text-anchor="start"
         x="210.31"
         y="-144.8"
         font-family="Times, serif"
         font-size="14px"
         id="text897">3:CTTAG</text>
    </g>
    <g
       id="edge7-6"
       class="edge"
       transform="matrix(0.99966503,0,0,0.99966503,-9.2308486,288.54203)">
      <title
         id="title900">1:ne-&gt;3:nw</title>
      <path
         fill="none"
         stroke="#000000"
         stroke-width="2"
         d="m 131.31,-176 c 0,-32.44 72,-20.44 72,12"
         id="path902" />
    </g>
    <g
       id="node5-0"
       class="node"
       transform="matrix(0.99966503,0,0,0.99966503,-9.2308486,288.54203)">
      <title
         id="title905">4</title>
      <polygon
         fill="none"
         stroke="#000000"
         stroke-width="2"
         points="311.31,-147 311.31,-174 381.31,-174 381.31,-147 "
         id="polygon907" />
      <text
         text-anchor="start"
         x="317.31"
         y="-156.8"
         font-family="Times, serif"
         font-size="14px"
         id="text909">4:AAGTC</text>
    </g>
    <g
       id="edge8-6"
       class="edge"
       transform="matrix(0.99966503,0,0,0.99966503,-9.2308486,288.54203)">
      <title
         id="title912">4:ne-&gt;5:nw</title>
      <path
         fill="none"
         stroke="#000000"
         stroke-width="2"
         d="m 382.31,-176 c 0,-23.59 36,-62.59 36,-39"
         id="path914" />
    </g>
    <g
       id="edge9-2"
       class="edge"
       transform="matrix(0.99966503,0,0,0.99966503,-9.2308486,288.54203)">
      <title
         id="title917">4:ne-&gt;8:nw</title>
      <path
         fill="none"
         stroke="#000000"
         stroke-width="2"
         d="m 382.31,-176 c 0,-1.12 320.89,-0.86 322,-1 16.36,-2.04 36,-25.49 36,-9"
         id="path919" />
    </g>
    <g
       id="edge10-6"
       class="edge"
       transform="matrix(0.99966503,0,0,0.99966503,-9.2308486,288.54203)">
      <title
         id="title922">6:ne-&gt;7:nw</title>
      <path
         fill="none"
         stroke="#000000"
         stroke-width="2"
         d="m 597.81,-215 c 0,-16 36,-16 36,0"
         id="path924" />
    </g>
    <g
       id="edge11-1"
       class="edge"
       transform="matrix(0.99966503,0,0,0.99966503,-9.2308486,288.54203)">
      <title
         id="title927">2:ne-&gt;4:nw</title>
      <path
         fill="none"
         stroke="#000000"
         stroke-width="2"
         d="m 274.31,-211 c 0,-22.32 36,12.68 36,35"
         id="path929" />
    </g>
    <g
       id="edge12-8"
       class="edge"
       transform="matrix(0.99966503,0,0,0.99966503,-9.2308486,288.54203)">
      <title
         id="title932">3:ne-&gt;4:nw</title>
      <path
         fill="none"
         stroke="#000000"
         stroke-width="2"
         d="m 273.31,-164 c 0,-17.29 37,-29.29 37,-12"
         id="path934" />
    </g>
    <g
       id="node10-7"
       class="node"
       transform="matrix(0.99966503,0,0,0.99966503,-9.2308486,288.54203)">
      <title
         id="title937">10</title>
      <text
         text-anchor="middle"
         x="95.309998"
         y="-231.3"
         font-family="Times, serif"
         font-size="14px"
         fill="#1b9e77"
         id="text939">🗆 ref#0#0  1</text>
    </g>
    <g
       id="node11-9"
       class="node"
       transform="matrix(0.99966503,0,0,0.99966503,-9.2308486,288.54203)">
      <title
         id="title942">11</title>
      <text
         text-anchor="middle"
         x="238.31"
         y="-243.3"
         font-family="Times, serif"
         font-size="14px"
         fill="#1b9e77"
         id="text944">🗆 2</text>
    </g>
    <g
       id="edge14-2"
       class="edge"
       transform="matrix(0.99966503,0,0,0.99966503,-9.2308486,288.54203)">
      <title
         id="title947">10-&gt;11</title>
      <path
         fill="none"
         stroke="#1b9e77"
         d="m 140.92,-238.8 c 23.08,-1.96 50.45,-4.29 70.12,-5.96"
         id="path949" />
    </g>
    <g
       id="node12-0"
       class="node"
       transform="matrix(0.99966503,0,0,0.99966503,-9.2308486,288.54203)">
      <title
         id="title952">12</title>
      <text
         text-anchor="middle"
         x="346.31"
         y="-212.3"
         font-family="Times, serif"
         font-size="14px"
         fill="#1b9e77"
         id="text954">🗆 4</text>
    </g>
    <g
       id="edge16-2"
       class="edge"
       transform="matrix(0.99966503,0,0,0.99966503,-9.2308486,288.54203)">
      <title
         id="title957">11-&gt;12</title>
      <path
         fill="none"
         stroke="#1b9e77"
         d="m 265.51,-239.34 c 16.31,4.77 37.21,10.88 53.53,15.66"
         id="path959" />
    </g>
    <g
       id="node13-3"
       class="node"
       transform="matrix(0.99966503,0,0,0.99966503,-9.2308486,288.54203)">
      <title
         id="title962">13</title>
      <text
         text-anchor="middle"
         x="776.31"
         y="-261.29999"
         font-family="Times, serif"
         font-size="14px"
         fill="#1b9e77"
         id="text964">🗆 8</text>
    </g>
    <g
       id="edge18-7"
       class="edge"
       transform="matrix(0.99966503,0,0,0.99966503,-9.2308486,288.54203)">
      <title
         id="title967">12-&gt;13</title>
      <path
         fill="none"
         stroke="#1b9e77"
         d="m 373.5,-225.95 c 34.44,-12.51 97.12,-33.27 152.81,-41.05 80.49,-11.24 177.05,-4.89 222.66,-0.73"
         id="path969" />
    </g>
    <g
       id="node14-5"
       class="node"
       transform="matrix(0.99966503,0,0,0.99966503,-9.2308486,288.54203)">
      <title
         id="title972">14</title>
      <text
         text-anchor="middle"
         x="882.81"
         y="-246.3"
         font-family="Times, serif"
         font-size="14px"
         fill="#1b9e77"
         id="text974">🗆 9</text>
    </g>
    <g
       id="edge20"
       class="edge"
       transform="matrix(0.99966503,0,0,0.99966503,-9.2308486,288.54203)">
      <title
         id="title977">13-&gt;14</title>
      <path
         fill="none"
         stroke="#1b9e77"
         d="m 803.41,-261.25 c 15.96,2.29 36.3,5.21 52.27,7.5"
         id="path979" />
    </g>
    <g
       id="node15-9"
       class="node"
       transform="matrix(0.99966503,0,0,0.99966503,-9.2308486,288.54203)">
      <title
         id="title982">15</title>
      <text
         text-anchor="middle"
         x="95.309998"
         y="-52.299999"
         font-family="Times, serif"
         font-size="14px"
         fill="#7570b3"
         id="text984">🗒 sample1#1#0#0  1</text>
    </g>
    <g
       id="node16-2"
       class="node"
       transform="matrix(0.99966503,0,0,0.99966503,-9.2308486,288.54203)">
      <title
         id="title987">16</title>
      <text
         text-anchor="middle"
         x="238.31"
         y="-14.3"
         font-family="Times, serif"
         font-size="14px"
         fill="#7570b3"
         id="text989">🗒 2</text>
    </g>
    <g
       id="edge23"
       class="edge"
       transform="matrix(0.99966503,0,0,0.99966503,-9.2308486,288.54203)">
      <title
         id="title992">15-&gt;16</title>
      <path
         fill="none"
         stroke="#7570b3"
         d="m 163.51,-37.89 c 16.88,4.55 34.01,9.17 47.52,12.81"
         id="path994" />
    </g>
    <g
       id="node17-2"
       class="node"
       transform="matrix(0.99966503,0,0,0.99966503,-9.2308486,288.54203)">
      <title
         id="title997">17</title>
      <text
         text-anchor="middle"
         x="346.31"
         y="-37.299999"
         font-family="Times, serif"
         font-size="14px"
         fill="#7570b3"
         id="text999">🗒 4</text>
    </g>
    <g
       id="edge25"
       class="edge"
       transform="matrix(0.99966503,0,0,0.99966503,-9.2308486,288.54203)">
      <title
         id="title1002">16-&gt;17</title>
      <path
         fill="none"
         stroke="#7570b3"
         d="m 265.51,-23.69 c 16.31,-3.53 37.21,-8.07 53.53,-11.61"
         id="path1004" />
    </g>
    <g
       id="node18-8"
       class="node"
       transform="matrix(0.99966503,0,0,0.99966503,-9.2308486,288.54203)">
      <title
         id="title1007">18</title>
      <text
         text-anchor="middle"
         x="454.31"
         y="-46.299999"
         font-family="Times, serif"
         font-size="14px"
         fill="#7570b3"
         id="text1009">🗒 5</text>
    </g>
    <g
       id="edge27"
       class="edge"
       transform="matrix(0.99966503,0,0,0.99966503,-9.2308486,288.54203)">
      <title
         id="title1012">17-&gt;18</title>
      <path
         fill="none"
         stroke="#7570b3"
         d="m 373.51,-43.22 c 16.31,-1.39 37.21,-3.16 53.53,-4.55"
         id="path1014" />
    </g>
    <g
       id="node19-9"
       class="node"
       transform="matrix(0.99966503,0,0,0.99966503,-9.2308486,288.54203)">
      <title
         id="title1017">19</title>
      <text
         text-anchor="middle"
         x="561.81"
         y="-54.299999"
         font-family="Times, serif"
         font-size="14px"
         fill="#7570b3"
         id="text1019">🗒 6</text>
    </g>
    <g
       id="edge29"
       class="edge"
       transform="matrix(0.99966503,0,0,0.99966503,-9.2308486,288.54203)">
      <title
         id="title1022">18-&gt;19</title>
      <path
         fill="none"
         stroke="#7570b3"
         d="m 481.39,-51.98 c 16.23,-1.23 37.03,-2.81 53.27,-4.04"
         id="path1024" />
    </g>
    <g
       id="node20"
       class="node"
       transform="matrix(0.99966503,0,0,0.99966503,-9.2308486,288.54203)">
      <title
         id="title1027">20</title>
      <text
         text-anchor="middle"
         x="668.81"
         y="-52.299999"
         font-family="Times, serif"
         font-size="14px"
         fill="#7570b3"
         id="text1029">🗒 7</text>
    </g>
    <g
       id="edge31"
       class="edge"
       transform="matrix(0.99966503,0,0,0.99966503,-9.2308486,288.54203)">
      <title
         id="title1032">19-&gt;20</title>
      <path
         fill="none"
         stroke="#7570b3"
         d="m 589.03,-57.5 c 16.04,0.3 36.48,0.69 52.52,1"
         id="path1034" />
    </g>
    <g
       id="node21"
       class="node"
       transform="matrix(0.99966503,0,0,0.99966503,-9.2308486,288.54203)">
      <title
         id="title1037">21</title>
      <text
         text-anchor="middle"
         x="776.31"
         y="-63.299999"
         font-family="Times, serif"
         font-size="14px"
         fill="#7570b3"
         id="text1039">🗒 8</text>
    </g>
    <g
       id="edge33"
       class="edge"
       transform="matrix(0.99966503,0,0,0.99966503,-9.2308486,288.54203)">
      <title
         id="title1042">20-&gt;21</title>
      <path
         fill="none"
         stroke="#7570b3"
         d="m 695.89,-58.72 c 16.23,-1.69 37.03,-3.86 53.27,-5.55"
         id="path1044" />
    </g>
    <g
       id="node22"
       class="node"
       transform="matrix(0.99966503,0,0,0.99966503,-9.2308486,288.54203)">
      <title
         id="title1047">22</title>
      <text
         text-anchor="middle"
         x="882.81"
         y="-71.300003"
         font-family="Times, serif"
         font-size="14px"
         fill="#7570b3"
         id="text1049">🗒 9</text>
    </g>
    <g
       id="edge35"
       class="edge"
       transform="matrix(0.99966503,0,0,0.99966503,-9.2308486,288.54203)">
      <title
         id="title1052">21-&gt;22</title>
      <path
         fill="none"
         stroke="#7570b3"
         d="m 803.41,-69 c 15.96,-1.22 36.3,-2.78 52.27,-4"
         id="path1054" />
    </g>
    <g
       id="node23"
       class="node"
       transform="matrix(0.99966503,0,0,0.99966503,-9.2308486,288.54203)">
      <title
         id="title1057">23</title>
      <text
         text-anchor="middle"
         x="95.309998"
         y="-106.3"
         font-family="Times, serif"
         font-size="14px"
         fill="#e7298a"
         id="text1059">💹 sample1#2#0#0  1</text>
    </g>
    <g
       id="node24"
       class="node"
       transform="matrix(0.99966503,0,0,0.99966503,-9.2308486,288.54203)">
      <title
         id="title1062">24</title>
      <text
         text-anchor="middle"
         x="238.31"
         y="-83.300003"
         font-family="Times, serif"
         font-size="14px"
         fill="#e7298a"
         id="text1064">💹 3</text>
    </g>
    <g
       id="edge38"
       class="edge"
       transform="matrix(0.99966503,0,0,0.99966503,-9.2308486,288.54203)">
      <title
         id="title1067">23-&gt;24</title>
      <path
         fill="none"
         stroke="#e7298a"
         d="m 166.4,-98.57 c 16.03,2.62 32.09,5.24 44.87,7.32"
         id="path1069" />
    </g>
    <g
       id="node25"
       class="node"
       transform="matrix(0.99966503,0,0,0.99966503,-9.2308486,288.54203)">
      <title
         id="title1072">25</title>
      <text
         text-anchor="middle"
         x="346.31"
         y="-98.300003"
         font-family="Times, serif"
         font-size="14px"
         fill="#e7298a"
         id="text1074">💹 4</text>
    </g>
    <g
       id="edge40"
       class="edge"
       transform="matrix(0.99966503,0,0,0.99966503,-9.2308486,288.54203)">
      <title
         id="title1077">24-&gt;25</title>
      <path
         fill="none"
         stroke="#e7298a"
         d="m 265.51,-90.71 c 16.31,-2.31 37.21,-5.26 53.53,-7.57"
         id="path1079" />
    </g>
    <g
       id="node26"
       class="node"
       transform="matrix(0.99966503,0,0,0.99966503,-9.2308486,288.54203)">
      <title
         id="title1082">26</title>
      <text
         text-anchor="middle"
         x="454.31"
         y="-105.3"
         font-family="Times, serif"
         font-size="14px"
         fill="#e7298a"
         id="text1084">💹 5</text>
    </g>
    <g
       id="edge42"
       class="edge"
       transform="matrix(0.99966503,0,0,0.99966503,-9.2308486,288.54203)">
      <title
         id="title1087">25-&gt;26</title>
      <path
         fill="none"
         stroke="#e7298a"
         d="m 373.51,-103.73 c 16.31,-1.08 37.21,-2.46 53.53,-3.54"
         id="path1089" />
    </g>
    <g
       id="node27"
       class="node"
       transform="matrix(0.99966503,0,0,0.99966503,-9.2308486,288.54203)">
      <title
         id="title1092">27</title>
      <text
         text-anchor="middle"
         x="668.81"
         y="-107.3"
         font-family="Times, serif"
         font-size="14px"
         fill="#e7298a"
         id="text1094">💹 7</text>
    </g>
    <g
       id="edge44"
       class="edge"
       transform="matrix(0.99966503,0,0,0.99966503,-9.2308486,288.54203)">
      <title
         id="title1097">26-&gt;27</title>
      <path
         fill="none"
         stroke="#e7298a"
         d="m 481.37,-109.25 c 40.78,-0.38 119.25,-1.12 160.17,-1.5"
         id="path1099" />
    </g>
    <g
       id="node28"
       class="node"
       transform="matrix(0.99966503,0,0,0.99966503,-9.2308486,288.54203)">
      <title
         id="title1102">28</title>
      <text
         text-anchor="middle"
         x="882.81"
         y="-125.3"
         font-family="Times, serif"
         font-size="14px"
         fill="#e7298a"
         id="text1104">💹 9</text>
    </g>
    <g
       id="edge46"
       class="edge"
       transform="matrix(0.99966503,0,0,0.99966503,-9.2308486,288.54203)">
      <title
         id="title1107">27-&gt;28</title>
      <path
         fill="none"
         stroke="#e7298a"
         d="m 696.23,-113.24 c 40.85,-3.47 118.85,-10.09 159.49,-13.54"
         id="path1109" />
    </g>
  </g>
</svg>
