<?xml version="1.0" encoding="UTF-8" standalone="no"?>
<!-- Created with Inkscape (http://www.inkscape.org/) -->

<svg
   width="689.63068mm"
   height="453.04684mm"
   viewBox="0 0 689.63067 453.04684"
   version="1.1"
   id="svg5"
   xml:space="preserve"
   inkscape:version="1.2.2 (b0a8486541, 2022-12-01)"
   sodipodi:docname="giraffe-algorithm-full.svg"
   inkscape:export-filename="sr-giraffe1.svg"
   inkscape:export-xdpi="96"
   inkscape:export-ydpi="96"
   xmlns:inkscape="http://www.inkscape.org/namespaces/inkscape"
   xmlns:sodipodi="http://sodipodi.sourceforge.net/DTD/sodipodi-0.dtd"
   xmlns="http://www.w3.org/2000/svg"
   xmlns:svg="http://www.w3.org/2000/svg"><sodipodi:namedview
     id="namedview7"
     pagecolor="#ffffff"
     bordercolor="#000000"
     borderopacity="0.25"
     inkscape:showpageshadow="2"
     inkscape:pageopacity="0.0"
     inkscape:pagecheckerboard="0"
     inkscape:deskcolor="#d1d1d1"
     inkscape:document-units="mm"
     showgrid="false"
     inkscape:zoom="0.125"
     inkscape:cx="1672"
     inkscape:cy="452"
     inkscape:window-width="1674"
     inkscape:window-height="991"
     inkscape:window-x="26"
     inkscape:window-y="23"
     inkscape:window-maximized="0"
     inkscape:current-layer="layer1" /><defs
     id="defs2"><marker
       style="overflow:visible"
       id="TriangleStart"
       refX="0"
       refY="0"
       orient="auto-start-reverse"
       inkscape:stockid="TriangleStart"
       markerWidth="5.3244081"
       markerHeight="6.155385"
       viewBox="0 0 5.3244081 6.1553851"
       inkscape:isstock="true"
       inkscape:collect="always"
       preserveAspectRatio="xMidYMid"><path
         transform="scale(0.5)"
         style="fill:context-stroke;fill-rule:evenodd;stroke:context-stroke;stroke-width:1pt"
         d="M 5.77,0 -2.88,5 V -5 Z"
         id="path135" /></marker><marker
       style="overflow:visible"
       id="TriangleStart-0"
       refX="0"
       refY="0"
       orient="auto-start-reverse"
       inkscape:stockid="TriangleStart"
       markerWidth="5.3244081"
       markerHeight="6.155385"
       viewBox="0 0 5.3244081 6.1553851"
       inkscape:isstock="true"
       inkscape:collect="always"
       preserveAspectRatio="xMidYMid"><path
         transform="scale(0.5)"
         style="fill:context-stroke;fill-rule:evenodd;stroke:context-stroke;stroke-width:1pt"
         d="M 5.77,0 -2.88,5 V -5 Z"
         id="path135-4" /></marker><marker
       style="overflow:visible"
       id="TriangleStart-0-6"
       refX="0"
       refY="0"
       orient="auto-start-reverse"
       inkscape:stockid="TriangleStart"
       markerWidth="5.3244081"
       markerHeight="6.155385"
       viewBox="0 0 5.3244081 6.1553851"
       inkscape:isstock="true"
       inkscape:collect="always"
       preserveAspectRatio="xMidYMid"><path
         transform="scale(0.5)"
         style="fill:context-stroke;fill-rule:evenodd;stroke:context-stroke;stroke-width:1pt"
         d="M 5.77,0 -2.88,5 V -5 Z"
         id="path135-4-2" /></marker></defs><g
     inkscape:label="Calque 1"
     inkscape:groupmode="layer"
     id="layer1"
     transform="translate(-123.00181,-1393.0022)"><path
       d="m 381.28905,1536.9423 h 30.35344 v 14.9994 h -30.35344 z"
       style="fill:#949494;fill-opacity:1;fill-rule:evenodd;stroke:none;stroke-width:2.5662"
       id="path1049-9-6" /><path
       d="m 411.67112,1536.9423 h 29.37366 v 14.9994 h -29.37366 z"
       style="fill:#f57600;fill-opacity:1;fill-rule:evenodd;stroke:none;stroke-width:2.52489"
       id="path1051-7-7" /><path
       d="m 441.03858,1536.9423 h 32.10108 v 14.9994 h -32.10108 z"
       style="fill:#949494;fill-opacity:1;fill-rule:evenodd;stroke:none;stroke-width:2.63904"
       id="path1053-5-5" /><path
       d="m 472.80997,1536.9423 h 31.40034 v 14.9994 h -31.40034 z"
       style="fill:#01b8c5;fill-opacity:1;fill-rule:evenodd;stroke:none;stroke-width:2.61055"
       id="path1055-3-3" /><text
       xml:space="preserve"
       style="font-style:normal;font-variant:normal;font-weight:normal;font-stretch:normal;font-size:14.1111px;font-family:sans-serif;-inkscape-font-specification:'sans-serif, Normal';font-variant-ligatures:normal;font-variant-caps:normal;font-variant-numeric:normal;font-variant-east-asian:normal;fill:#000000;stroke-width:1.4;stroke-dasharray:none"
       x="524.18347"
       y="1592.8531"
       id="text250-67-3-4-4-6"><tspan
         sodipodi:role="line"
         style="font-style:normal;font-variant:normal;font-weight:normal;font-stretch:normal;font-size:14.1111px;font-family:sans-serif;-inkscape-font-specification:'sans-serif, Normal';font-variant-ligatures:normal;font-variant-caps:normal;font-variant-numeric:normal;font-variant-east-asian:normal;stroke-width:1.4;stroke-dasharray:none"
         x="524.18347"
         y="1592.8531"
         id="tspan16140-3-9">Far away in graph</tspan></text><g
       id="g977-8-1-6-2-9"
       transform="matrix(2.3285795,0,0,2.4424969,-496.28616,969.29293)"><path
         d="m 359.543,285.371 h 7.465 c 0.969,0 1.75,0.883 1.75,1.981 v 1.343 c 0,1.098 -0.781,1.981 -1.75,1.981 h -7.465 c -0.969,0 -1.746,-0.883 -1.746,-1.981 v -1.343 c 0,-1.098 0.777,-1.981 1.746,-1.981 z"
         style="fill:#f57600;fill-opacity:1;fill-rule:nonzero;stroke:#000000;stroke-width:1.30394;stroke-linecap:butt;stroke-linejoin:miter;stroke-miterlimit:4;stroke-dasharray:none;stroke-opacity:1"
         id="path979-5-8-5-5-6" /></g><g
       id="g981-0-3-4-4-9"
       transform="matrix(2.3285795,0,0,2.4424969,-496.28616,969.29293)"><path
         d="m 411.941,285.414 h 7.704 c 0.851,0 1.535,0.891 1.535,1.992 v 1.657 c 0,1.101 -0.684,1.992 -1.535,1.992 h -7.704 c -0.851,0 -1.539,-0.891 -1.539,-1.992 v -1.657 c 0,-1.101 0.688,-1.992 1.539,-1.992 z"
         style="fill:#01b8c5;fill-opacity:1;fill-rule:nonzero;stroke:#000000;stroke-width:1.30394;stroke-linecap:butt;stroke-linejoin:miter;stroke-miterlimit:4;stroke-dasharray:none;stroke-opacity:1"
         id="path983-9-4-2-0-3" /></g><g
       id="g985-6-2-2-5-3"
       transform="matrix(2.3285795,0,0,2.4424969,-496.28616,969.29293)"><path
         d="m 430.668,277.891 h 7.773 c 0.86,0 1.551,0.886 1.551,1.992 v 1.652 c 0,1.106 -0.691,1.992 -1.551,1.992 h -7.773 c -0.859,0 -1.547,-0.886 -1.547,-1.992 v -1.652 c 0,-1.106 0.688,-1.992 1.547,-1.992 z"
         style="fill:#dfb9f4;fill-opacity:1;fill-rule:nonzero;stroke:#000000;stroke-width:1.30394;stroke-linecap:butt;stroke-linejoin:miter;stroke-miterlimit:4;stroke-dasharray:none;stroke-opacity:1"
         id="path987-3-2-1-9-8" /></g><g
       id="g989-8-4-7-4-0"
       transform="matrix(2.3285795,0,0,2.4424969,-496.28616,969.29293)"><path
         d="m 449.512,285.297 h 7.636 c 0.844,0 1.524,0.891 1.524,1.996 v 1.652 c 0,1.106 -0.68,1.996 -1.524,1.996 h -7.636 c -0.844,0 -1.524,-0.89 -1.524,-1.996 v -1.652 c 0,-1.105 0.68,-1.996 1.524,-1.996 z"
         style="fill:#01b8c5;fill-opacity:1;fill-rule:nonzero;stroke:#000000;stroke-width:1.30394;stroke-linecap:butt;stroke-linejoin:miter;stroke-miterlimit:4;stroke-dasharray:none;stroke-opacity:1"
         id="path991-5-51-2-6-5" /></g><g
       id="g993-6-7-4-9-6"
       transform="matrix(2.3285795,0,0,2.4424969,-496.28616,969.29293)"><path
         d="m 438.086,312.008 h 25.953 c 0.879,0 1.59,0.719 1.59,1.617 v 2.137 c 0,0.894 -0.711,1.617 -1.59,1.617 h -25.953 c -0.879,0 -1.59,-0.723 -1.59,-1.617 v -2.137 c 0,-0.898 0.711,-1.617 1.59,-1.617 z"
         style="fill:#1a992d;fill-opacity:1;fill-rule:nonzero;stroke:#000000;stroke-width:1.30394;stroke-linecap:butt;stroke-linejoin:miter;stroke-miterlimit:4;stroke-dasharray:none;stroke-opacity:1"
         id="path995-1-5-1-2-6" /></g><g
       id="g997-1-7-6-2-4"
       transform="matrix(2.3285795,0,0,2.4424969,-496.28616,969.29293)"><path
         d="m 329.652,298.703 h 14.7 c 0.968,0 1.75,0.883 1.75,1.981 v 1.621 c 0,1.097 -0.782,1.98 -1.75,1.98 h -14.7 c -0.968,0 -1.75,-0.883 -1.75,-1.98 v -1.621 c 0,-1.098 0.782,-1.981 1.75,-1.981 z"
         style="fill:#949494;fill-opacity:1;fill-rule:nonzero;stroke:#000000;stroke-width:1.30394;stroke-linecap:butt;stroke-linejoin:miter;stroke-miterlimit:4;stroke-dasharray:none;stroke-opacity:1"
         id="path999-5-1-5-4-0" /></g><g
       id="g1001-9-6-7-7-0"
       transform="matrix(2.3285795,0,0,2.4424969,-496.28616,969.29293)"><path
         d="m 382.227,298.703 h 14.699 c 0.969,0 1.75,0.883 1.75,1.981 v 1.621 c 0,1.097 -0.781,1.98 -1.75,1.98 h -14.699 c -0.969,0 -1.75,-0.883 -1.75,-1.98 v -1.621 c 0,-1.098 0.781,-1.981 1.75,-1.981 z"
         style="fill:#949494;fill-opacity:1;fill-rule:nonzero;stroke:#000000;stroke-width:1.30394;stroke-linecap:butt;stroke-linejoin:miter;stroke-miterlimit:4;stroke-dasharray:none;stroke-opacity:1"
         id="path1003-8-9-8-7-4" /></g><g
       id="g1005-4-8-5-5-6"
       transform="matrix(2.3285795,0,0,2.4424969,-496.28616,969.29293)"><path
         d="m 490.91,298.805 h 14.699 c 0.969,0 1.75,0.883 1.75,1.98 v 1.617 c 0,1.102 -0.781,1.985 -1.75,1.985 H 490.91 c -0.969,0 -1.75,-0.883 -1.75,-1.985 v -1.617 c 0,-1.097 0.781,-1.98 1.75,-1.98 z"
         style="fill:#949494;fill-opacity:1;fill-rule:nonzero;stroke:#000000;stroke-width:1.30394;stroke-linecap:butt;stroke-linejoin:miter;stroke-miterlimit:4;stroke-dasharray:none;stroke-opacity:1"
         id="path1007-8-1-9-4-2" /></g><g
       id="g1009-1-3-2-8-6"
       transform="matrix(2.3285795,0,0,2.4424969,-496.28616,969.29293)"><path
         d="m 346.117,301.617 c 6.121,0.156 6.258,-13.094 11.727,-13.086"
         style="fill:none;stroke:#000000;stroke-width:1.30394;stroke-linecap:butt;stroke-linejoin:miter;stroke-miterlimit:4;stroke-dasharray:none;stroke-opacity:1"
         id="path1011-0-33-7-1-7" /></g><g
       id="g1013-3-7-3-2-5"
       transform="matrix(2.3285795,0,0,2.4424969,-496.28616,969.29293)"><path
         d="m 369.055,288.785 c 6.047,-0.086 5.023,12.942 11.41,12.926"
         style="fill:none;stroke:#000000;stroke-width:1.30394;stroke-linecap:butt;stroke-linejoin:miter;stroke-miterlimit:4;stroke-dasharray:none;stroke-opacity:1"
         id="path1015-0-9-6-8-6" /></g><g
       id="g1021-4-8-4-9-9"
       transform="matrix(2.3285795,0,0,2.4424969,-496.28616,969.29293)"><path
         d="m 398.703,301.645 c 5.985,-0.215 5.699,-12.715 11.555,-12.875"
         style="fill:none;stroke:#000000;stroke-width:1.30394;stroke-linecap:butt;stroke-linejoin:miter;stroke-miterlimit:4;stroke-dasharray:none;stroke-opacity:1"
         id="path1023-4-6-7-3-8" /></g><g
       id="g1025-4-7-9-6-7"
       transform="matrix(2.3285795,0,0,2.4424969,-496.28616,969.29293)"><path
         d="m 421.156,288.152 26.922,0.008 c -4.316,-0.031 -4.277,-7.144 -7.996,-7.504"
         style="fill:none;stroke:#000000;stroke-width:1.30394;stroke-linecap:butt;stroke-linejoin:miter;stroke-miterlimit:4;stroke-dasharray:none;stroke-opacity:1"
         id="path1027-4-0-7-8-2" /></g><g
       id="g1029-7-4-2-0-8"
       transform="matrix(2.3285795,0,0,2.4424969,-496.28616,969.29293)"><path
         d="m 429.059,280.367 c -3.793,0.024 -4.196,7.871 -7.852,7.828"
         style="fill:none;stroke:#000000;stroke-width:1.30394;stroke-linecap:butt;stroke-linejoin:miter;stroke-miterlimit:4;stroke-dasharray:none;stroke-opacity:1"
         id="path1031-6-8-2-2-2" /></g><g
       id="g1033-3-48-1-1-9"
       transform="matrix(2.3285795,0,0,2.4424969,-496.28616,969.29293)"><path
         d="m 458.734,288.234 c 14.875,10.379 -37.89,17.688 -22.48,26.621"
         style="fill:none;stroke:#000000;stroke-width:1.30394;stroke-linecap:butt;stroke-linejoin:miter;stroke-miterlimit:4;stroke-dasharray:none;stroke-opacity:1"
         id="path1035-1-16-6-0-9" /></g><g
       id="g1037-7-8-3-5-6"
       transform="matrix(2.3285795,0,0,2.4424969,-496.28616,969.29293)"><path
         d="m 459.047,288.473 c 6.223,0.511 24.855,12.894 30.137,13.324"
         style="fill:none;stroke:#000000;stroke-width:1.30394;stroke-linecap:butt;stroke-linejoin:miter;stroke-miterlimit:4;stroke-dasharray:none;stroke-opacity:1"
         id="path1039-5-5-0-1-0" /></g><g
       id="g1041-9-2-2-1-2"
       transform="matrix(2.3285795,0,0,2.4424969,-496.28616,969.29293)"><path
         d="m 466.094,314.711 c 11.75,0.164 12.176,-12.609 23.054,-13.031"
         style="fill:none;stroke:#000000;stroke-width:1.30394;stroke-linecap:butt;stroke-linejoin:miter;stroke-miterlimit:4;stroke-dasharray:none;stroke-opacity:1"
         id="path1043-6-1-1-0-7" /></g><g
       id="g1045-2-9-5-8-6"
       transform="matrix(2.3285795,0,0,2.4424969,-496.28616,969.29293)"><path
         d="m 436.449,314.816 c -11.875,-0.476 -26.09,-13.281 -37.804,-13.265"
         style="fill:none;stroke:#000000;stroke-width:1.30394;stroke-linecap:butt;stroke-linejoin:miter;stroke-miterlimit:4;stroke-dasharray:none;stroke-opacity:1"
         id="path1047-1-9-6-5-1" /></g><g
       id="g977-3-1-6-7-6-5-0-3"
       transform="matrix(2.3285795,0,0,2.4424969,-495.22598,1033.5913)"
       style="fill:#f2c300;fill-opacity:1"><path
         d="m 359.543,285.371 h 7.465 c 0.969,0 1.75,0.883 1.75,1.981 v 1.343 c 0,1.098 -0.781,1.981 -1.75,1.981 h -7.465 c -0.969,0 -1.746,-0.883 -1.746,-1.981 v -1.343 c 0,-1.098 0.777,-1.981 1.746,-1.981 z"
         style="fill:#f2c300;fill-opacity:1;fill-rule:nonzero;stroke:#000000;stroke-width:1.30394;stroke-linecap:butt;stroke-linejoin:miter;stroke-miterlimit:4;stroke-dasharray:none;stroke-opacity:1"
         id="path979-6-0-7-8-0-0-6-2" /></g><g
       id="g1009-0-1-3-5-64-0-4-1"
       transform="matrix(2.3285795,0,0,2.4424969,-444.0632,1000.8841)"><path
         d="m 346.117,301.617 c 6.121,0.156 6.258,-13.094 11.727,-13.086"
         style="fill:none;stroke:#000000;stroke-width:1.30394;stroke-linecap:butt;stroke-linejoin:miter;stroke-miterlimit:4;stroke-dasharray:none;stroke-opacity:1"
         id="path1011-6-5-6-7-9-3-6-5" /></g><g
       id="g1013-2-9-5-4-9-4-2-9"
       transform="matrix(2.3285795,0,0,2.4424969,-549.13868,1000.6648)"><path
         d="m 369.055,288.785 c 6.047,-0.086 5.023,12.942 11.41,12.926"
         style="fill:none;stroke:#000000;stroke-width:1.30394;stroke-linecap:butt;stroke-linejoin:miter;stroke-miterlimit:4;stroke-dasharray:none;stroke-opacity:1"
         id="path1015-6-7-6-1-0-6-5-9" /></g><path
       d="m 668.65987,1681.991 -0.009,3.3389 h -12.29024 v 6.5923 h 12.27161 l -0.009,3.3023 7.36763,-6.563 z"
       style="fill:#000000;fill-opacity:1;fill-rule:evenodd;stroke:#000000;stroke-width:0.0373164;stroke-linecap:butt;stroke-linejoin:miter;stroke-miterlimit:4;stroke-dasharray:none;stroke-opacity:1"
       id="path1119-5-2-4" /><path
       d="m 400.32196,1537.4955 -0.007,3.3316 h -12.29024 v 6.5923 h 12.27161 l -0.009,3.2998 7.36762,-6.563 z"
       style="fill:#000000;fill-opacity:1;fill-rule:evenodd;stroke:#000000;stroke-width:1.07893;stroke-linecap:butt;stroke-linejoin:miter;stroke-miterlimit:4;stroke-dasharray:none;stroke-opacity:1"
       id="path1067-7-6" /><path
       d="m 429.98939,1537.3725 -0.009,3.3316 h -12.28791 v 6.5923 h 12.27161 l -0.009,3.3022 7.36762,-6.5654 z"
       style="fill:#000000;fill-opacity:1;fill-rule:evenodd;stroke:#000000;stroke-width:1.07893;stroke-linecap:butt;stroke-linejoin:miter;stroke-miterlimit:4;stroke-dasharray:none;stroke-opacity:1"
       id="path1071-4-9" /><path
       d="m 493.27882,1538.426 -0.009,3.3292 h -12.29755 v 6.5923 h 12.2786 l -0.0163,3.3022 7.36763,-6.5654 z"
       style="fill:#000000;fill-opacity:1;fill-rule:evenodd;stroke:#000000;stroke-width:1.07893;stroke-linecap:butt;stroke-linejoin:miter;stroke-miterlimit:4;stroke-dasharray:none;stroke-opacity:1"
       id="path1075-0-4" /><path
       d="m 354.28429,1651.1629 -0.0163,3.3291 h -12.29024 v 6.602 h 12.27161 l -0.009,3.2925 7.36762,-6.5556 z"
       style="fill:#000000;fill-opacity:1;fill-rule:evenodd;stroke:#000000;stroke-width:0.0373164;stroke-linecap:butt;stroke-linejoin:miter;stroke-miterlimit:4;stroke-dasharray:none;stroke-opacity:1"
       id="path1107-5-6" /><path
       d="m 353.46662,1713.2689 -0.0163,3.3291 h -12.29024 v 6.6021 h 12.27161 l -0.009,3.2925 7.36762,-6.5557 z"
       style="fill:#000000;fill-opacity:1;fill-rule:evenodd;stroke:#000000;stroke-width:0.0373164;stroke-linecap:butt;stroke-linejoin:miter;stroke-miterlimit:4;stroke-dasharray:none;stroke-opacity:1"
       id="path1107-5-8-4" /><path
       d="m 416.65762,1683.6505 -0.009,3.3291 h -12.29956 v 6.5923 h 12.28093 l -0.0186,3.3023 7.36763,-6.5654 z"
       style="fill:#000000;fill-opacity:1;fill-rule:evenodd;stroke:#000000;stroke-width:0.0373164;stroke-linecap:butt;stroke-linejoin:miter;stroke-miterlimit:4;stroke-dasharray:none;stroke-opacity:1"
       id="path1111-9-1" /><path
       d="m 472.73633,1649.259 -0.009,3.3389 h -12.29024 v 6.5923 h 12.27161 l -0.009,3.3023 7.36763,-6.563 z"
       style="fill:#000000;fill-opacity:1;fill-rule:evenodd;stroke:#000000;stroke-width:0.0373164;stroke-linecap:butt;stroke-linejoin:miter;stroke-miterlimit:4;stroke-dasharray:none;stroke-opacity:1"
       id="path1119-5-28" /><ellipse
       style="opacity:1;fill:none;fill-opacity:1;stroke:#000000;stroke-width:4;stroke-dasharray:16.0001, 4;stroke-dashoffset:0;stroke-opacity:1"
       id="path38940"
       cx="403.03226"
       cy="1691.3407"
       rx="97.721191"
       ry="71.18589" /><ellipse
       style="fill:none;fill-opacity:1;stroke:#000000;stroke-width:4;stroke-dasharray:16.0002, 4;stroke-dashoffset:0;stroke-opacity:1"
       id="path38940-3"
       cx="666.72388"
       cy="1686.3777"
       rx="26.478472"
       ry="25.655048" /><path
       style="opacity:1;fill:none;fill-opacity:1;stroke:#000000;stroke-width:2;stroke-dasharray:none;stroke-dashoffset:0;stroke-opacity:1;marker-end:url(#TriangleStart)"
       d="m 581.90199,1598.9605 -89.07444,40.2268"
       id="path39493" /><path
       style="opacity:1;fill:none;fill-opacity:1;stroke:#000000;stroke-width:2;stroke-dasharray:none;stroke-dashoffset:0;stroke-opacity:1;marker-end:url(#TriangleStart)"
       d="m 587.47998,1597.9738 66.68608,51.0627"
       id="path39495" /><text
       xml:space="preserve"
       style="font-style:normal;font-variant:normal;font-weight:normal;font-stretch:normal;font-size:14.1111px;font-family:sans-serif;-inkscape-font-specification:'sans-serif, Normal';font-variant-ligatures:normal;font-variant-caps:normal;font-variant-numeric:normal;font-variant-east-asian:normal;fill:#000000;stroke-width:1.4;stroke-dasharray:none"
       x="338.16812"
       y="1595.6348"
       id="text250-67-3-4-4-6-8"><tspan
         sodipodi:role="line"
         style="font-style:normal;font-variant:normal;font-weight:normal;font-stretch:normal;font-size:14.1111px;font-family:sans-serif;-inkscape-font-specification:'sans-serif, Normal';font-variant-ligatures:normal;font-variant-caps:normal;font-variant-numeric:normal;font-variant-east-asian:normal;stroke-width:1.4;stroke-dasharray:none"
         x="338.16812"
         y="1595.6348"
         id="tspan16140-3-9-7">Close together in graph</tspan></text><path
       style="fill:none;fill-opacity:1;stroke:#000000;stroke-width:2;stroke-dasharray:none;stroke-dashoffset:0;stroke-opacity:1;marker-end:url(#TriangleStart-0)"
       d="m 413.9253,1602.9931 -6.5627,70.9904"
       id="path39493-0"
       sodipodi:nodetypes="cc" /><path
       style="fill:none;fill-opacity:1;stroke:#000000;stroke-width:2;stroke-dasharray:none;stroke-dashoffset:0;stroke-opacity:1;marker-end:url(#TriangleStart-0-6)"
       d="m 398.51319,1601.7979 -41.44269,41.5212"
       id="path39493-0-4"
       sodipodi:nodetypes="cc" /><path
       style="fill:none;fill-opacity:1;stroke:#000000;stroke-width:1.76977;stroke-dasharray:none;stroke-dashoffset:0;stroke-opacity:1;marker-end:url(#TriangleStart-0)"
       d="m 424.23892,1603.7354 30.83226,41.6562"
       id="path39495-8"
       sodipodi:nodetypes="cc" /></g></svg>
