<?xml version="1.0" encoding="UTF-8" standalone="no"?>
<!-- Created with Inkscape (http://www.inkscape.org/) -->

<svg
   width="689.63068mm"
   height="453.04684mm"
   viewBox="0 0 689.63067 453.04684"
   version="1.1"
   id="svg5"
   xml:space="preserve"
   inkscape:version="1.2.2 (b0a8486541, 2022-12-01)"
   sodipodi:docname="sr-giraffe9.svg"
   inkscape:export-filename="sr-giraffe3.svg"
   inkscape:export-xdpi="96"
   inkscape:export-ydpi="96"
   xmlns:inkscape="http://www.inkscape.org/namespaces/inkscape"
   xmlns:sodipodi="http://sodipodi.sourceforge.net/DTD/sodipodi-0.dtd"
   xmlns="http://www.w3.org/2000/svg"
   xmlns:svg="http://www.w3.org/2000/svg"><sodipodi:namedview
     id="namedview7"
     pagecolor="#ffffff"
     bordercolor="#000000"
     borderopacity="0.25"
     inkscape:showpageshadow="2"
     inkscape:pageopacity="0.0"
     inkscape:pagecheckerboard="0"
     inkscape:deskcolor="#d1d1d1"
     inkscape:document-units="mm"
     showgrid="false"
     inkscape:zoom="0.25530592"
     inkscape:cx="1343.4863"
     inkscape:cy="1216.188"
     inkscape:window-width="1854"
     inkscape:window-height="1011"
     inkscape:window-x="0"
     inkscape:window-y="0"
     inkscape:window-maximized="1"
     inkscape:current-layer="g2995" /><defs
     id="defs2" /><g
     inkscape:label="Calque 1"
     inkscape:groupmode="layer"
     id="layer1"
     transform="translate(-123.00181,-1393.0022)"><path
       d="m 381.28905,1536.9423 h 30.35344 v 14.9994 h -30.35344 z"
       style="fill:#949494;fill-opacity:1;fill-rule:evenodd;stroke:none;stroke-width:2.5662"
       id="path1049-9-6" /><path
       d="m 411.67112,1536.9423 h 29.37366 v 14.9994 h -29.37366 z"
       style="fill:#f57600;fill-opacity:1;fill-rule:evenodd;stroke:none;stroke-width:2.52489"
       id="path1051-7-7" /><path
       d="m 441.03858,1536.9423 h 32.10108 v 14.9994 h -32.10108 z"
       style="fill:#949494;fill-opacity:1;fill-rule:evenodd;stroke:none;stroke-width:2.63904"
       id="path1053-5-5" /><path
       d="m 472.80997,1536.9423 h 31.40034 v 14.9994 h -31.40034 z"
       style="fill:#01b8c5;fill-opacity:1;fill-rule:evenodd;stroke:none;stroke-width:2.61055"
       id="path1055-3-3" /><rect
       style="fill:#c5c5c5;fill-opacity:0.984314;stroke:#000000;stroke-width:3;stroke-dasharray:none;stroke-dashoffset:0;stroke-opacity:1"
       id="rect63534-78"
       width="266.17578"
       height="117.77481"
       x="422.33472"
       y="1640.5348"
       ry="0" /><path
       style="fill:#60637a;fill-opacity:0.981699;stroke:#000000;stroke-width:3;stroke-dasharray:12, 3;stroke-dashoffset:0;stroke-opacity:1"
       d="M 381.88667,1556.0647 276.10188,1662.2651"
       id="path3430-9"
       sodipodi:nodetypes="cc" /><rect
       style="fill:none;fill-opacity:1;stroke:#000000;stroke-width:3;stroke-dasharray:none;stroke-dashoffset:0;stroke-opacity:1"
       id="rect63534"
       width="145.42274"
       height="57.688095"
       x="277.83777"
       y="1660.0321"
       ry="0" /><rect
       style="fill:none;fill-opacity:1;stroke:#000000;stroke-width:3;stroke-dasharray:none;stroke-dashoffset:0;stroke-opacity:1"
       id="rect63534-7"
       width="90.076874"
       height="24.711988"
       x="381.71878"
       y="1532.3016"
       ry="0" /><rect
       style="fill:none;fill-opacity:1;stroke:#000000;stroke-width:3;stroke-dasharray:none;stroke-dashoffset:0;stroke-opacity:1"
       id="rect63534-7-7"
       width="33.731396"
       height="25.97402"
       x="472.98245"
       y="1531.7419"
       ry="0" /><g
       id="g69178"><g
         id="g977-8-1-6-2-9"
         transform="matrix(2.3285795,0,0,2.4424969,-496.28616,969.29293)"><path
           d="m 359.543,285.371 h 7.465 c 0.969,0 1.75,0.883 1.75,1.981 v 1.343 c 0,1.098 -0.781,1.981 -1.75,1.981 h -7.465 c -0.969,0 -1.746,-0.883 -1.746,-1.981 v -1.343 c 0,-1.098 0.777,-1.981 1.746,-1.981 z"
           style="fill:#f57600;fill-opacity:1;fill-rule:nonzero;stroke:#000000;stroke-width:1.30394;stroke-linecap:butt;stroke-linejoin:miter;stroke-miterlimit:4;stroke-dasharray:none;stroke-opacity:1"
           id="path979-5-8-5-5-6" /></g><g
         id="g981-0-3-4-4-9"
         transform="matrix(2.3285795,0,0,2.4424969,-496.28616,969.29293)"><path
           d="m 411.941,285.414 h 7.704 c 0.851,0 1.535,0.891 1.535,1.992 v 1.657 c 0,1.101 -0.684,1.992 -1.535,1.992 h -7.704 c -0.851,0 -1.539,-0.891 -1.539,-1.992 v -1.657 c 0,-1.101 0.688,-1.992 1.539,-1.992 z"
           style="fill:#01b8c5;fill-opacity:1;fill-rule:nonzero;stroke:#000000;stroke-width:1.30394;stroke-linecap:butt;stroke-linejoin:miter;stroke-miterlimit:4;stroke-dasharray:none;stroke-opacity:1"
           id="path983-9-4-2-0-3" /></g><g
         id="g985-6-2-2-5-3"
         transform="matrix(2.3285795,0,0,2.4424969,-496.28616,969.29293)"><path
           d="m 430.668,277.891 h 7.773 c 0.86,0 1.551,0.886 1.551,1.992 v 1.652 c 0,1.106 -0.691,1.992 -1.551,1.992 h -7.773 c -0.859,0 -1.547,-0.886 -1.547,-1.992 v -1.652 c 0,-1.106 0.688,-1.992 1.547,-1.992 z"
           style="fill:#dfb9f4;fill-opacity:1;fill-rule:nonzero;stroke:#000000;stroke-width:1.30394;stroke-linecap:butt;stroke-linejoin:miter;stroke-miterlimit:4;stroke-dasharray:none;stroke-opacity:1"
           id="path987-3-2-1-9-8" /></g><g
         id="g989-8-4-7-4-0"
         transform="matrix(2.3285795,0,0,2.4424969,-496.28616,969.29293)"><path
           d="m 449.512,285.297 h 7.636 c 0.844,0 1.524,0.891 1.524,1.996 v 1.652 c 0,1.106 -0.68,1.996 -1.524,1.996 h -7.636 c -0.844,0 -1.524,-0.89 -1.524,-1.996 v -1.652 c 0,-1.105 0.68,-1.996 1.524,-1.996 z"
           style="fill:#01b8c5;fill-opacity:1;fill-rule:nonzero;stroke:#000000;stroke-width:1.30394;stroke-linecap:butt;stroke-linejoin:miter;stroke-miterlimit:4;stroke-dasharray:none;stroke-opacity:1"
           id="path991-5-51-2-6-5" /></g><g
         id="g993-6-7-4-9-6"
         transform="matrix(2.3285795,0,0,2.4424969,-496.28616,969.29293)"><path
           d="m 438.086,312.008 h 25.953 c 0.879,0 1.59,0.719 1.59,1.617 v 2.137 c 0,0.894 -0.711,1.617 -1.59,1.617 h -25.953 c -0.879,0 -1.59,-0.723 -1.59,-1.617 v -2.137 c 0,-0.898 0.711,-1.617 1.59,-1.617 z"
           style="fill:#1a992d;fill-opacity:1;fill-rule:nonzero;stroke:#000000;stroke-width:1.30394;stroke-linecap:butt;stroke-linejoin:miter;stroke-miterlimit:4;stroke-dasharray:none;stroke-opacity:1"
           id="path995-1-5-1-2-6" /></g><g
         id="g997-1-7-6-2-4"
         transform="matrix(2.3285795,0,0,2.4424969,-496.28616,969.29293)"><path
           d="m 329.652,298.703 h 14.7 c 0.968,0 1.75,0.883 1.75,1.981 v 1.621 c 0,1.097 -0.782,1.98 -1.75,1.98 h -14.7 c -0.968,0 -1.75,-0.883 -1.75,-1.98 v -1.621 c 0,-1.098 0.782,-1.981 1.75,-1.981 z"
           style="fill:#949494;fill-opacity:1;fill-rule:nonzero;stroke:#000000;stroke-width:1.30394;stroke-linecap:butt;stroke-linejoin:miter;stroke-miterlimit:4;stroke-dasharray:none;stroke-opacity:1"
           id="path999-5-1-5-4-0" /></g><g
         id="g1001-9-6-7-7-0"
         transform="matrix(2.3285795,0,0,2.4424969,-496.28616,969.29293)"><path
           d="m 382.227,298.703 h 14.699 c 0.969,0 1.75,0.883 1.75,1.981 v 1.621 c 0,1.097 -0.781,1.98 -1.75,1.98 h -14.699 c -0.969,0 -1.75,-0.883 -1.75,-1.98 v -1.621 c 0,-1.098 0.781,-1.981 1.75,-1.981 z"
           style="fill:#949494;fill-opacity:1;fill-rule:nonzero;stroke:#000000;stroke-width:1.30394;stroke-linecap:butt;stroke-linejoin:miter;stroke-miterlimit:4;stroke-dasharray:none;stroke-opacity:1"
           id="path1003-8-9-8-7-4" /></g><g
         id="g1005-4-8-5-5-6"
         transform="matrix(2.3285795,0,0,2.4424969,-496.28616,969.29293)"><path
           d="m 490.91,298.805 h 14.699 c 0.969,0 1.75,0.883 1.75,1.98 v 1.617 c 0,1.102 -0.781,1.985 -1.75,1.985 H 490.91 c -0.969,0 -1.75,-0.883 -1.75,-1.985 v -1.617 c 0,-1.097 0.781,-1.98 1.75,-1.98 z"
           style="fill:#949494;fill-opacity:1;fill-rule:nonzero;stroke:#000000;stroke-width:1.30394;stroke-linecap:butt;stroke-linejoin:miter;stroke-miterlimit:4;stroke-dasharray:none;stroke-opacity:1"
           id="path1007-8-1-9-4-2" /></g><g
         id="g1009-1-3-2-8-6"
         transform="matrix(2.3285795,0,0,2.4424969,-496.28616,969.29293)"><path
           d="m 346.117,301.617 c 6.121,0.156 6.258,-13.094 11.727,-13.086"
           style="fill:none;stroke:#000000;stroke-width:1.30394;stroke-linecap:butt;stroke-linejoin:miter;stroke-miterlimit:4;stroke-dasharray:none;stroke-opacity:1"
           id="path1011-0-33-7-1-7" /></g><g
         id="g1013-3-7-3-2-5"
         transform="matrix(2.3285795,0,0,2.4424969,-496.28616,969.29293)"><path
           d="m 369.055,288.785 c 6.047,-0.086 5.023,12.942 11.41,12.926"
           style="fill:none;stroke:#000000;stroke-width:1.30394;stroke-linecap:butt;stroke-linejoin:miter;stroke-miterlimit:4;stroke-dasharray:none;stroke-opacity:1"
           id="path1015-0-9-6-8-6" /></g><g
         id="g1021-4-8-4-9-9"
         transform="matrix(2.3285795,0,0,2.4424969,-496.28616,969.29293)"><path
           d="m 398.703,301.645 c 5.985,-0.215 5.699,-12.715 11.555,-12.875"
           style="fill:none;stroke:#000000;stroke-width:1.30394;stroke-linecap:butt;stroke-linejoin:miter;stroke-miterlimit:4;stroke-dasharray:none;stroke-opacity:1"
           id="path1023-4-6-7-3-8" /></g><g
         id="g1025-4-7-9-6-7"
         transform="matrix(2.3285795,0,0,2.4424969,-496.28616,969.29293)"><path
           d="m 421.156,288.152 26.922,0.008 c -4.316,-0.031 -4.277,-7.144 -7.996,-7.504"
           style="fill:none;stroke:#000000;stroke-width:1.30394;stroke-linecap:butt;stroke-linejoin:miter;stroke-miterlimit:4;stroke-dasharray:none;stroke-opacity:1"
           id="path1027-4-0-7-8-2" /></g><g
         id="g1029-7-4-2-0-8"
         transform="matrix(2.3285795,0,0,2.4424969,-496.28616,969.29293)"><path
           d="m 429.059,280.367 c -3.793,0.024 -4.196,7.871 -7.852,7.828"
           style="fill:none;stroke:#000000;stroke-width:1.30394;stroke-linecap:butt;stroke-linejoin:miter;stroke-miterlimit:4;stroke-dasharray:none;stroke-opacity:1"
           id="path1031-6-8-2-2-2" /></g><g
         id="g1033-3-48-1-1-9"
         transform="matrix(2.3285795,0,0,2.4424969,-496.28616,969.29293)"><path
           d="m 458.734,288.234 c 14.875,10.379 -37.89,17.688 -22.48,26.621"
           style="fill:none;stroke:#000000;stroke-width:1.30394;stroke-linecap:butt;stroke-linejoin:miter;stroke-miterlimit:4;stroke-dasharray:none;stroke-opacity:1"
           id="path1035-1-16-6-0-9" /></g><g
         id="g1037-7-8-3-5-6"
         transform="matrix(2.3285795,0,0,2.4424969,-496.28616,969.29293)"><path
           d="m 459.047,288.473 c 6.223,0.511 24.855,12.894 30.137,13.324"
           style="fill:none;stroke:#000000;stroke-width:1.30394;stroke-linecap:butt;stroke-linejoin:miter;stroke-miterlimit:4;stroke-dasharray:none;stroke-opacity:1"
           id="path1039-5-5-0-1-0" /></g><g
         id="g1041-9-2-2-1-2"
         transform="matrix(2.3285795,0,0,2.4424969,-496.28616,969.29293)"><path
           d="m 466.094,314.711 c 11.75,0.164 12.176,-12.609 23.054,-13.031"
           style="fill:none;stroke:#000000;stroke-width:1.30394;stroke-linecap:butt;stroke-linejoin:miter;stroke-miterlimit:4;stroke-dasharray:none;stroke-opacity:1"
           id="path1043-6-1-1-0-7" /></g><g
         id="g1045-2-9-5-8-6"
         transform="matrix(2.3285795,0,0,2.4424969,-496.28616,969.29293)"><path
           d="m 436.449,314.816 c -11.875,-0.476 -26.09,-13.281 -37.804,-13.265"
           style="fill:none;stroke:#000000;stroke-width:1.30394;stroke-linecap:butt;stroke-linejoin:miter;stroke-miterlimit:4;stroke-dasharray:none;stroke-opacity:1"
           id="path1047-1-9-6-5-1" /></g><g
         id="g977-3-1-6-7-6-5-0-3"
         transform="matrix(2.3285795,0,0,2.4424969,-495.22598,1033.5913)"
         style="fill:#f2c300;fill-opacity:1"><path
           d="m 359.543,285.371 h 7.465 c 0.969,0 1.75,0.883 1.75,1.981 v 1.343 c 0,1.098 -0.781,1.981 -1.75,1.981 h -7.465 c -0.969,0 -1.746,-0.883 -1.746,-1.981 v -1.343 c 0,-1.098 0.777,-1.981 1.746,-1.981 z"
           style="fill:#f2c300;fill-opacity:1;fill-rule:nonzero;stroke:#000000;stroke-width:1.30394;stroke-linecap:butt;stroke-linejoin:miter;stroke-miterlimit:4;stroke-dasharray:none;stroke-opacity:1"
           id="path979-6-0-7-8-0-0-6-2" /></g><g
         id="g1009-0-1-3-5-64-0-4-1"
         transform="matrix(2.3285795,0,0,2.4424969,-444.0632,1000.8841)"><path
           d="m 346.117,301.617 c 6.121,0.156 6.258,-13.094 11.727,-13.086"
           style="fill:none;stroke:#000000;stroke-width:1.30394;stroke-linecap:butt;stroke-linejoin:miter;stroke-miterlimit:4;stroke-dasharray:none;stroke-opacity:1"
           id="path1011-6-5-6-7-9-3-6-5" /></g><g
         id="g1013-2-9-5-4-9-4-2-9"
         transform="matrix(2.3285795,0,0,2.4424969,-549.13868,1000.6648)"><path
           d="m 369.055,288.785 c 6.047,-0.086 5.023,12.942 11.41,12.926"
           style="fill:none;stroke:#000000;stroke-width:1.30394;stroke-linecap:butt;stroke-linejoin:miter;stroke-miterlimit:4;stroke-dasharray:none;stroke-opacity:1"
           id="path1015-6-7-6-1-0-6-5-9" /></g></g><path
       style="opacity:1;fill:#c5c5c5;fill-opacity:0.981699;stroke:#000000;stroke-width:3;stroke-dasharray:12, 3;stroke-dashoffset:0;stroke-opacity:1"
       d="m 470.29468,1558.0608 -48.46164,81.688 267.47314,0.7638 -182.49651,-81.847 z"
       id="path66975" /><g
       id="g2995"
       transform="translate(204.97465,-302.06476)"><text
         xml:space="preserve"
         style="font-style:normal;font-variant:normal;font-weight:normal;font-stretch:normal;font-size:16.9333px;font-family:sans-serif;-inkscape-font-specification:'sans-serif, Normal';font-variant-ligatures:normal;font-variant-caps:normal;font-variant-numeric:normal;font-variant-east-asian:normal;fill:#000000;stroke-width:1.4;stroke-dasharray:none"
         x="380.38242"
         y="1822.5712"
         id="text250-67-3-0-2"><tspan
           sodipodi:role="line"
           style="font-style:normal;font-variant:normal;font-weight:normal;font-stretch:normal;font-size:16.9333px;font-family:sans-serif;-inkscape-font-specification:'sans-serif, Normal';font-variant-ligatures:normal;font-variant-caps:normal;font-variant-numeric:normal;font-variant-east-asian:normal;stroke-width:1.4;stroke-dasharray:none"
           x="380.38242"
           y="1822.5712"
           id="tspan330">The remainder of the read </tspan><tspan
           sodipodi:role="line"
           style="font-style:normal;font-variant:normal;font-weight:normal;font-stretch:normal;font-size:16.9333px;font-family:sans-serif;-inkscape-font-specification:'sans-serif, Normal';font-variant-ligatures:normal;font-variant-caps:normal;font-variant-numeric:normal;font-variant-east-asian:normal;stroke-width:1.4;stroke-dasharray:none"
           x="380.38242"
           y="1843.7378"
           id="tspan334">is found using </tspan><tspan
           sodipodi:role="line"
           style="font-style:normal;font-variant:normal;font-weight:normal;font-stretch:normal;font-size:16.9333px;font-family:sans-serif;-inkscape-font-specification:'sans-serif, Normal';font-variant-ligatures:normal;font-variant-caps:normal;font-variant-numeric:normal;font-variant-east-asian:normal;stroke-width:1.4;stroke-dasharray:none"
           x="380.38242"
           y="1864.9044"
           id="tspan336">gapped alignment</tspan></text></g></g></svg>
