<?xml version="1.0" encoding="UTF-8" standalone="no"?>
<!-- Created with Inkscape (http://www.inkscape.org/) -->

<svg
   width="689.63068mm"
   height="453.04684mm"
   viewBox="0 0 689.63067 453.04684"
   version="1.1"
   id="svg5"
   xml:space="preserve"
   inkscape:version="1.2.2 (b0a8486541, 2022-12-01)"
   sodipodi:docname="sr-giraffe7.svg"
   inkscape:export-filename="sr-giraffe6.svg"
   inkscape:export-xdpi="96"
   inkscape:export-ydpi="96"
   xmlns:inkscape="http://www.inkscape.org/namespaces/inkscape"
   xmlns:sodipodi="http://sodipodi.sourceforge.net/DTD/sodipodi-0.dtd"
   xmlns="http://www.w3.org/2000/svg"
   xmlns:svg="http://www.w3.org/2000/svg"><sodipodi:namedview
     id="namedview7"
     pagecolor="#ffffff"
     bordercolor="#000000"
     borderopacity="0.25"
     inkscape:showpageshadow="2"
     inkscape:pageopacity="0.0"
     inkscape:pagecheckerboard="0"
     inkscape:deskcolor="#d1d1d1"
     inkscape:document-units="mm"
     showgrid="false"
     inkscape:zoom="1"
     inkscape:cx="1217"
     inkscape:cy="495.5"
     inkscape:window-width="1854"
     inkscape:window-height="1131"
     inkscape:window-x="0"
     inkscape:window-y="0"
     inkscape:window-maximized="1"
     inkscape:current-layer="layer1" /><defs
     id="defs2" /><g
     inkscape:label="Calque 1"
     inkscape:groupmode="layer"
     id="layer1"
     transform="translate(-123.00181,-1393.0022)"><path
       d="m 381.28905,1536.9423 h 30.35344 v 14.9994 h -30.35344 z"
       style="fill:#949494;fill-opacity:1;fill-rule:evenodd;stroke:none;stroke-width:2.5662"
       id="path1049-9-6" /><path
       d="m 411.67112,1536.9423 h 29.37366 v 14.9994 h -29.37366 z"
       style="fill:#f57600;fill-opacity:1;fill-rule:evenodd;stroke:none;stroke-width:2.52489"
       id="path1051-7-7" /><path
       d="m 441.03858,1536.9423 h 32.10108 v 14.9994 h -32.10108 z"
       style="fill:#949494;fill-opacity:1;fill-rule:evenodd;stroke:none;stroke-width:2.63904"
       id="path1053-5-5" /><path
       d="m 472.80997,1536.9423 h 31.40034 v 14.9994 h -31.40034 z"
       style="fill:#01b8c5;fill-opacity:1;fill-rule:evenodd;stroke:none;stroke-width:2.61055"
       id="path1055-3-3" /><path
       style="fill:none;fill-opacity:1;stroke:#c12929;stroke-width:10;stroke-dasharray:none;stroke-dashoffset:0;stroke-opacity:0.526558"
       d="m 259.23076,1674.4826 c 16.55258,0.4207 269.63769,1.1802 381.31386,0.655"
       id="path45586-1"
       sodipodi:nodetypes="cc" /><path
       style="fill:#60637a;fill-opacity:0.981699;stroke:#000000;stroke-width:3;stroke-dasharray:12, 3;stroke-dashoffset:0;stroke-opacity:1"
       d="m 378.20425,1555.9739 -79.85188,107.3874"
       id="path3430-9"
       sodipodi:nodetypes="cc" /><path
       style="fill:#60637a;fill-opacity:0.981699;stroke:#000000;stroke-width:3;stroke-dasharray:12, 3;stroke-dashoffset:0;stroke-opacity:1"
       d="m 471.52344,1555.0652 -82.1021,106.5129"
       id="path3430-7-28"
       sodipodi:nodetypes="cc" /><text
       xml:space="preserve"
       style="font-style:normal;font-variant:normal;font-weight:normal;font-stretch:normal;font-size:14.1111px;font-family:sans-serif;-inkscape-font-specification:'sans-serif, Normal';font-variant-ligatures:normal;font-variant-caps:normal;font-variant-numeric:normal;font-variant-east-asian:normal;fill:#000000;stroke-width:1.4;stroke-dasharray:none"
       x="650.38177"
       y="1745.2615"
       id="text250-67-3-4-4-6"><tspan
         sodipodi:role="line"
         style="font-style:normal;font-variant:normal;font-weight:normal;font-stretch:normal;font-size:14.1111px;font-family:sans-serif;-inkscape-font-specification:'sans-serif, Normal';font-variant-ligatures:normal;font-variant-caps:normal;font-variant-numeric:normal;font-variant-east-asian:normal;stroke-width:1.4;stroke-dasharray:none"
         x="650.38177"
         y="1745.2615"
         id="tspan16140-3-9">Reference haplotypes</tspan></text><g
       id="g977-8-1-6-2-9-5"
       transform="matrix(2.3285795,0,0,2.4424969,-497.95078,971.23185)"><path
         d="m 359.543,285.371 h 7.465 c 0.969,0 1.75,0.883 1.75,1.981 v 1.343 c 0,1.098 -0.781,1.981 -1.75,1.981 h -7.465 c -0.969,0 -1.746,-0.883 -1.746,-1.981 v -1.343 c 0,-1.098 0.777,-1.981 1.746,-1.981 z"
         style="fill:#f57600;fill-opacity:1;fill-rule:nonzero;stroke:#000000;stroke-width:1.30394;stroke-linecap:butt;stroke-linejoin:miter;stroke-miterlimit:4;stroke-dasharray:none;stroke-opacity:1"
         id="path979-5-8-5-5-6-9" /></g><g
       id="g981-0-3-4-4-9-3"
       transform="matrix(2.3285795,0,0,2.4424969,-546.76178,970.71655)"><path
         d="m 411.941,285.414 h 7.704 c 0.851,0 1.535,0.891 1.535,1.992 v 1.657 c 0,1.101 -0.684,1.992 -1.535,1.992 h -7.704 c -0.851,0 -1.539,-0.891 -1.539,-1.992 v -1.657 c 0,-1.101 0.688,-1.992 1.539,-1.992 z"
         style="fill:#01b8c5;fill-opacity:1;fill-rule:nonzero;stroke:#000000;stroke-width:1.30394;stroke-linecap:butt;stroke-linejoin:miter;stroke-miterlimit:4;stroke-dasharray:none;stroke-opacity:1"
         id="path983-9-4-2-0-3-5" /></g><g
       id="g985-6-2-2-5-3-7"
       transform="matrix(2.3285795,0,0,2.4424969,-562.43654,989.09755)"><path
         d="m 430.668,277.891 h 7.773 c 0.86,0 1.551,0.886 1.551,1.992 v 1.652 c 0,1.106 -0.691,1.992 -1.551,1.992 h -7.773 c -0.859,0 -1.547,-0.886 -1.547,-1.992 v -1.652 c 0,-1.106 0.688,-1.992 1.547,-1.992 z"
         style="fill:#dfb9f4;fill-opacity:1;fill-rule:nonzero;stroke:#000000;stroke-width:1.30394;stroke-linecap:butt;stroke-linejoin:miter;stroke-miterlimit:4;stroke-dasharray:none;stroke-opacity:1"
         id="path987-3-2-1-9-8-0" /></g><g
       id="g989-8-4-7-4-0-8"
       transform="matrix(2.3285795,0,0,2.4424969,-577.90986,970.99865)"><path
         d="m 449.512,285.297 h 7.636 c 0.844,0 1.524,0.891 1.524,1.996 v 1.652 c 0,1.106 -0.68,1.996 -1.524,1.996 h -7.636 c -0.844,0 -1.524,-0.89 -1.524,-1.996 v -1.652 c 0,-1.105 0.68,-1.996 1.524,-1.996 z"
         style="fill:#01b8c5;fill-opacity:1;fill-rule:nonzero;stroke:#000000;stroke-width:1.30394;stroke-linecap:butt;stroke-linejoin:miter;stroke-miterlimit:4;stroke-dasharray:none;stroke-opacity:1"
         id="path991-5-51-2-6-5-1" /></g><g
       id="g997-1-7-6-2-4-7"
       transform="matrix(2.3285795,0,0,2.4424969,-472.63878,938.33025)"><path
         d="m 329.652,298.703 h 14.7 c 0.968,0 1.75,0.883 1.75,1.981 v 1.621 c 0,1.097 -0.782,1.98 -1.75,1.98 h -14.7 c -0.968,0 -1.75,-0.883 -1.75,-1.98 v -1.621 c 0,-1.098 0.782,-1.981 1.75,-1.981 z"
         style="fill:#949494;fill-opacity:1;fill-rule:nonzero;stroke:#000000;stroke-width:1.30394;stroke-linecap:butt;stroke-linejoin:miter;stroke-miterlimit:4;stroke-dasharray:none;stroke-opacity:1"
         id="path999-5-1-5-4-0-8" /></g><g
       id="g1001-9-6-7-7-0-2"
       transform="matrix(2.3285795,0,0,2.4424969,-522.2468,938.33025)"><path
         d="m 382.227,298.703 h 14.699 c 0.969,0 1.75,0.883 1.75,1.981 v 1.621 c 0,1.097 -0.781,1.98 -1.75,1.98 h -14.699 c -0.969,0 -1.75,-0.883 -1.75,-1.98 v -1.621 c 0,-1.098 0.781,-1.981 1.75,-1.981 z"
         style="fill:#949494;fill-opacity:1;fill-rule:nonzero;stroke:#000000;stroke-width:1.30394;stroke-linecap:butt;stroke-linejoin:miter;stroke-miterlimit:4;stroke-dasharray:none;stroke-opacity:1"
         id="path1003-8-9-8-7-4-5" /></g><g
       id="g1005-4-8-5-5-6-3"
       transform="matrix(2.3285795,0,0,2.4424969,-578.66892,938.08115)"><path
         d="m 490.91,298.805 h 14.699 c 0.969,0 1.75,0.883 1.75,1.98 v 1.617 c 0,1.102 -0.781,1.985 -1.75,1.985 H 490.91 c -0.969,0 -1.75,-0.883 -1.75,-1.985 v -1.617 c 0,-1.097 0.781,-1.98 1.75,-1.98 z"
         style="fill:#949494;fill-opacity:1;fill-rule:nonzero;stroke:#000000;stroke-width:1.30394;stroke-linecap:butt;stroke-linejoin:miter;stroke-miterlimit:4;stroke-dasharray:none;stroke-opacity:1"
         id="path1007-8-1-9-4-2-4" /></g><path
       style="fill:none;fill-opacity:1;stroke:#d3b317;stroke-width:10;stroke-dasharray:none;stroke-dashoffset:0;stroke-opacity:0.52549"
       d="m 259.25433,1698.4127 c 16.55258,0.4207 269.63769,1.1802 381.31386,0.655"
       id="path45586-1-0"
       sodipodi:nodetypes="cc" /><g
       id="g981-0-3-4-4-9-3-7"
       transform="matrix(2.3285795,0,0,2.4424969,-546.73821,994.64667)"><path
         d="m 411.941,285.414 h 7.704 c 0.851,0 1.535,0.891 1.535,1.992 v 1.657 c 0,1.101 -0.684,1.992 -1.535,1.992 h -7.704 c -0.851,0 -1.539,-0.891 -1.539,-1.992 v -1.657 c 0,-1.101 0.688,-1.992 1.539,-1.992 z"
         style="fill:#01b8c5;fill-opacity:1;fill-rule:nonzero;stroke:#000000;stroke-width:1.30394;stroke-linecap:butt;stroke-linejoin:miter;stroke-miterlimit:4;stroke-dasharray:none;stroke-opacity:1"
         id="path983-9-4-2-0-3-5-7" /></g><g
       id="g989-8-4-7-4-0-8-4"
       transform="matrix(2.3285795,0,0,2.4424969,-577.88629,994.92877)"><path
         d="m 449.512,285.297 h 7.636 c 0.844,0 1.524,0.891 1.524,1.996 v 1.652 c 0,1.106 -0.68,1.996 -1.524,1.996 h -7.636 c -0.844,0 -1.524,-0.89 -1.524,-1.996 v -1.652 c 0,-1.105 0.68,-1.996 1.524,-1.996 z"
         style="fill:#01b8c5;fill-opacity:1;fill-rule:nonzero;stroke:#000000;stroke-width:1.30394;stroke-linecap:butt;stroke-linejoin:miter;stroke-miterlimit:4;stroke-dasharray:none;stroke-opacity:1"
         id="path991-5-51-2-6-5-1-5" /></g><g
       id="g993-6-7-4-9-6-9-2"
       transform="matrix(2.3285795,0,0,2.4424969,-524.56467,930.02055)"><path
         d="m 438.086,312.008 h 25.953 c 0.879,0 1.59,0.719 1.59,1.617 v 2.137 c 0,0.894 -0.711,1.617 -1.59,1.617 h -25.953 c -0.879,0 -1.59,-0.723 -1.59,-1.617 v -2.137 c 0,-0.898 0.711,-1.617 1.59,-1.617 z"
         style="fill:#1a992d;fill-opacity:1;fill-rule:nonzero;stroke:#000000;stroke-width:1.30394;stroke-linecap:butt;stroke-linejoin:miter;stroke-miterlimit:4;stroke-dasharray:none;stroke-opacity:1"
         id="path995-1-5-1-2-6-9-0" /></g><g
       id="g997-1-7-6-2-4-7-2"
       transform="matrix(2.3285795,0,0,2.4424969,-472.61521,962.26035)"><path
         d="m 329.652,298.703 h 14.7 c 0.968,0 1.75,0.883 1.75,1.981 v 1.621 c 0,1.097 -0.782,1.98 -1.75,1.98 h -14.7 c -0.968,0 -1.75,-0.883 -1.75,-1.98 v -1.621 c 0,-1.098 0.782,-1.981 1.75,-1.981 z"
         style="fill:#949494;fill-opacity:1;fill-rule:nonzero;stroke:#000000;stroke-width:1.30394;stroke-linecap:butt;stroke-linejoin:miter;stroke-miterlimit:4;stroke-dasharray:none;stroke-opacity:1"
         id="path999-5-1-5-4-0-8-9" /></g><g
       id="g1001-9-6-7-7-0-2-0"
       transform="matrix(2.3285795,0,0,2.4424969,-522.22323,962.26035)"><path
         d="m 382.227,298.703 h 14.699 c 0.969,0 1.75,0.883 1.75,1.981 v 1.621 c 0,1.097 -0.781,1.98 -1.75,1.98 h -14.699 c -0.969,0 -1.75,-0.883 -1.75,-1.98 v -1.621 c 0,-1.098 0.781,-1.981 1.75,-1.981 z"
         style="fill:#949494;fill-opacity:1;fill-rule:nonzero;stroke:#000000;stroke-width:1.30394;stroke-linecap:butt;stroke-linejoin:miter;stroke-miterlimit:4;stroke-dasharray:none;stroke-opacity:1"
         id="path1003-8-9-8-7-4-5-9" /></g><g
       id="g1005-4-8-5-5-6-3-9"
       transform="matrix(2.3285795,0,0,2.4424969,-578.64535,962.01125)"><path
         d="m 490.91,298.805 h 14.699 c 0.969,0 1.75,0.883 1.75,1.98 v 1.617 c 0,1.102 -0.781,1.985 -1.75,1.985 H 490.91 c -0.969,0 -1.75,-0.883 -1.75,-1.985 v -1.617 c 0,-1.097 0.781,-1.98 1.75,-1.98 z"
         style="fill:#949494;fill-opacity:1;fill-rule:nonzero;stroke:#000000;stroke-width:1.30394;stroke-linecap:butt;stroke-linejoin:miter;stroke-miterlimit:4;stroke-dasharray:none;stroke-opacity:1"
         id="path1007-8-1-9-4-2-4-4" /></g><path
       style="fill:#2865c2;fill-opacity:0.52549;stroke:#2865c2;stroke-width:10;stroke-dasharray:none;stroke-dashoffset:0;stroke-opacity:0.52549"
       d="m 258.94194,1723.6605 c 16.55258,0.4207 269.63769,1.1802 381.31386,0.655"
       id="path45586-1-5"
       sodipodi:nodetypes="cc" /><g
       id="g993-6-7-4-9-6-9-6"
       transform="matrix(2.3285795,0,0,2.4424969,-524.87706,955.26835)"><path
         d="m 438.086,312.008 h 25.953 c 0.879,0 1.59,0.719 1.59,1.617 v 2.137 c 0,0.894 -0.711,1.617 -1.59,1.617 h -25.953 c -0.879,0 -1.59,-0.723 -1.59,-1.617 v -2.137 c 0,-0.898 0.711,-1.617 1.59,-1.617 z"
         style="fill:#1a992d;fill-opacity:1;fill-rule:nonzero;stroke:#000000;stroke-width:1.30394;stroke-linecap:butt;stroke-linejoin:miter;stroke-miterlimit:4;stroke-dasharray:none;stroke-opacity:1"
         id="path995-1-5-1-2-6-9-09" /></g><g
       id="g997-1-7-6-2-4-7-7"
       transform="matrix(2.3285795,0,0,2.4424969,-472.9276,987.50815)"><path
         d="m 329.652,298.703 h 14.7 c 0.968,0 1.75,0.883 1.75,1.981 v 1.621 c 0,1.097 -0.782,1.98 -1.75,1.98 h -14.7 c -0.968,0 -1.75,-0.883 -1.75,-1.98 v -1.621 c 0,-1.098 0.782,-1.981 1.75,-1.981 z"
         style="fill:#949494;fill-opacity:1;fill-rule:nonzero;stroke:#000000;stroke-width:1.30394;stroke-linecap:butt;stroke-linejoin:miter;stroke-miterlimit:4;stroke-dasharray:none;stroke-opacity:1"
         id="path999-5-1-5-4-0-8-5" /></g><g
       id="g1001-9-6-7-7-0-2-9"
       transform="matrix(2.3285795,0,0,2.4424969,-522.53562,987.50815)"><path
         d="m 382.227,298.703 h 14.699 c 0.969,0 1.75,0.883 1.75,1.981 v 1.621 c 0,1.097 -0.781,1.98 -1.75,1.98 h -14.699 c -0.969,0 -1.75,-0.883 -1.75,-1.98 v -1.621 c 0,-1.098 0.781,-1.981 1.75,-1.981 z"
         style="fill:#949494;fill-opacity:1;fill-rule:nonzero;stroke:#000000;stroke-width:1.30394;stroke-linecap:butt;stroke-linejoin:miter;stroke-miterlimit:4;stroke-dasharray:none;stroke-opacity:1"
         id="path1003-8-9-8-7-4-5-7" /></g><g
       id="g1005-4-8-5-5-6-3-8"
       transform="matrix(2.3285795,0,0,2.4424969,-578.95774,987.25905)"><path
         d="m 490.91,298.805 h 14.699 c 0.969,0 1.75,0.883 1.75,1.98 v 1.617 c 0,1.102 -0.781,1.985 -1.75,1.985 H 490.91 c -0.969,0 -1.75,-0.883 -1.75,-1.985 v -1.617 c 0,-1.097 0.781,-1.98 1.75,-1.98 z"
         style="fill:#949494;fill-opacity:1;fill-rule:nonzero;stroke:#000000;stroke-width:1.30394;stroke-linecap:butt;stroke-linejoin:miter;stroke-miterlimit:4;stroke-dasharray:none;stroke-opacity:1"
         id="path1007-8-1-9-4-2-4-5" /></g><g
       id="g977-3-1-6-7-6-5-0-3-9"
       transform="matrix(2.3285795,0,0,2.4424969,-497.93286,995.13777)"
       style="fill:#f57600;fill-opacity:1"><path
         d="m 359.543,285.371 h 7.465 c 0.969,0 1.75,0.883 1.75,1.981 v 1.343 c 0,1.098 -0.781,1.981 -1.75,1.981 h -7.465 c -0.969,0 -1.746,-0.883 -1.746,-1.981 v -1.343 c 0,-1.098 0.777,-1.981 1.746,-1.981 z"
         style="fill:#f57600;fill-opacity:1;fill-rule:nonzero;stroke:#000000;stroke-width:1.30394;stroke-linecap:butt;stroke-linejoin:miter;stroke-miterlimit:4;stroke-dasharray:none;stroke-opacity:1"
         id="path979-6-0-7-8-0-0-6-2-0" /></g><g
       id="g977-3-1-6-7-6-5-0-3-9-3"
       transform="matrix(2.3285795,0,0,2.4424969,-497.63022,1019.9836)"
       style="fill:#f2c300;fill-opacity:1"><path
         d="m 359.543,285.371 h 7.465 c 0.969,0 1.75,0.883 1.75,1.981 v 1.343 c 0,1.098 -0.781,1.981 -1.75,1.981 h -7.465 c -0.969,0 -1.746,-0.883 -1.746,-1.981 v -1.343 c 0,-1.098 0.777,-1.981 1.746,-1.981 z"
         style="fill:#f2c300;fill-opacity:1;fill-rule:nonzero;stroke:#000000;stroke-width:1.30394;stroke-linecap:butt;stroke-linejoin:miter;stroke-miterlimit:4;stroke-dasharray:none;stroke-opacity:1"
         id="path979-6-0-7-8-0-0-6-2-0-3" /></g><rect
       style="opacity:1;fill:none;fill-opacity:1;stroke:#000000;stroke-width:3.4087;stroke-dasharray:none;stroke-dashoffset:0;stroke-opacity:1"
       id="rect63534"
       width="96.271629"
       height="47.004887"
       x="296.06369"
       y="1664.515"
       ry="0" /><rect
       style="fill:none;fill-opacity:1;stroke:#000000;stroke-width:3.67778;stroke-dasharray:none;stroke-dashoffset:0;stroke-opacity:1"
       id="rect63534-7"
       width="90.221962"
       height="22.835028"
       x="381.16568"
       y="1533.0167"
       ry="0" /></g></svg>
