<?xml version="1.0" encoding="UTF-8" standalone="no"?>
<!-- Created with Inkscape (http://www.inkscape.org/) -->

<svg
   version="1.1"
   id="svg2"
   width="622.0061"
   height="289.655"
   viewBox="0 0 622.0061 289.655"
   sodipodi:docname="zipcode_snarl_inversion.svg"
   inkscape:version="1.2.2 (b0a8486541, 2022-12-01)"
   xmlns:inkscape="http://www.inkscape.org/namespaces/inkscape"
   xmlns:sodipodi="http://sodipodi.sourceforge.net/DTD/sodipodi-0.dtd"
   xmlns="http://www.w3.org/2000/svg"
   xmlns:svg="http://www.w3.org/2000/svg">
  <defs
     id="defs6" />
  <sodipodi:namedview
     id="namedview4"
     pagecolor="#ffffff"
     bordercolor="#666666"
     borderopacity="1.0"
     inkscape:showpageshadow="2"
     inkscape:pageopacity="0.0"
     inkscape:pagecheckerboard="0"
     inkscape:deskcolor="#d1d1d1"
     showgrid="false"
     inkscape:zoom="0.8147624"
     inkscape:cx="311.13365"
     inkscape:cy="144.8275"
     inkscape:window-width="1854"
     inkscape:window-height="1011"
     inkscape:window-x="66"
     inkscape:window-y="32"
     inkscape:window-maximized="1"
     inkscape:current-layer="g10">
    <inkscape:page
       x="0"
       y="0"
       id="page8"
       width="622.0061"
       height="289.655" />
  </sodipodi:namedview>
  <g
     id="g10"
     inkscape:groupmode="layer"
     inkscape:label="Page 1"
     transform="matrix(1.3333333,0,0,1.3333333,0,9.9080415e-6)">
    <g
       id="g12">
      <text
         xml:space="preserve"
         transform="translate(-0.559997,53.16193)"
         style="font-variant:normal;font-weight:normal;font-size:14px;font-family:'Noto Sans';-inkscape-font-specification:NotoSans-Regular;writing-mode:lr-tb;fill:#000000;fill-opacity:1;fill-rule:nonzero;stroke:none"
         id="text16"><tspan
           x="0 4.7459998 13.398 20.51 28.406 34.188 40.894001 44.506001 52.976002 61.627998 68.334 71.973999 75.585999 84.237999 87.877998 94.584 103.236 111.09 116.872 120.484"
           y="0"
           sodipodi:role="line"
           id="tspan14">Inversions in snarls</tspan></text>
      <g
         id="g18">
        <path
           d="m 16.137,109.574 h 23.675 c 1.559,0 2.817,1.422 2.817,3.192 v 2.605 c 0,1.77 -1.258,3.195 -2.817,3.195 H 16.137 c -1.559,0 -2.817,-1.425 -2.817,-3.195 v -2.605 c 0,-1.77 1.258,-3.192 2.817,-3.192 z"
           style="fill:#949494;fill-opacity:1;fill-rule:nonzero;stroke:#000000;stroke-width:2.1;stroke-linecap:butt;stroke-linejoin:miter;stroke-miterlimit:4;stroke-dasharray:none;stroke-opacity:1"
           id="path20" />
      </g>
      <g
         id="g22">
        <path
           d="m 142.512,109.32 h 23.676 c 1.558,0 2.816,1.426 2.816,3.192 v 2.605 c 0,1.77 -1.258,3.196 -2.816,3.196 h -23.676 c -1.559,0 -2.817,-1.426 -2.817,-3.196 v -2.605 c 0,-1.766 1.258,-3.192 2.817,-3.192 z"
           style="fill:#949494;fill-opacity:1;fill-rule:nonzero;stroke:#000000;stroke-width:2.1;stroke-linecap:butt;stroke-linejoin:miter;stroke-miterlimit:4;stroke-dasharray:none;stroke-opacity:1"
           id="path24" />
      </g>
      <g
         id="g26">
        <path
           d="m 43.504,114.344 95.289,-0.094"
           style="fill:none;stroke:#000000;stroke-width:1.20788;stroke-linecap:butt;stroke-linejoin:miter;stroke-miterlimit:4;stroke-dasharray:none;stroke-opacity:1"
           id="path28" />
      </g>
      <g
         id="g30">
        <path
           d="m 60.73,114.313 c -45.886,44.988 37.27,33.066 78.235,0.265"
           style="fill:none;stroke:#000000;stroke-width:1.20788;stroke-linecap:butt;stroke-linejoin:miter;stroke-miterlimit:4;stroke-dasharray:none;stroke-opacity:1"
           id="path32" />
      </g>
      <g
         id="g34">
        <path
           d="m 43.246,113.809 c 28.926,-31.02 109.547,-41.336 78.297,0.121"
           style="fill:none;stroke:#000000;stroke-width:1.20788;stroke-linecap:butt;stroke-linejoin:miter;stroke-miterlimit:4;stroke-dasharray:none;stroke-opacity:1"
           id="path36" />
      </g>
      <g
         id="g38">
        <path
           d="m 62.891,109.602 h 55.48 c 1.27,0 2.289,1.175 2.289,2.632 v 4.086 c 0,1.461 -1.019,2.637 -2.289,2.637 h -55.48 c -1.27,0 -2.289,-1.176 -2.289,-2.637 v -4.086 c 0,-1.457 1.019,-2.632 2.289,-2.632 z"
           style="fill:#1a992d;fill-opacity:1;fill-rule:nonzero;stroke:#000000;stroke-width:1.99545;stroke-linecap:butt;stroke-linejoin:miter;stroke-miterlimit:4;stroke-dasharray:none;stroke-opacity:1"
           id="path40" />
      </g>
      <path
         d="m 90.793,110.609 13.961,0.028 c 15.305,0.035 14.121,-0.039 14.5,0.472 0.336,0.45 0.355,0.629 0.355,3.203 0,2.696 -0.011,2.778 -0.472,3.254 -0.129,0.133 -0.36,0.278 -0.504,0.321 -0.172,0.047 -5.242,0.074 -14.067,0.074 H 90.77 c 0,0 0.031,-7.395 0.023,-7.352 z"
         style="fill:#01b8c5;fill-opacity:1;fill-rule:nonzero;stroke:none"
         id="path42" />
      <path
         d="m 115.18,65.629 h 25.066 v 7.43 H 115.18 Z"
         style="fill:#949494;fill-opacity:1;fill-rule:evenodd;stroke:none"
         id="path44" />
      <path
         d="m 40.043,65.629 h 25.066 v 7.43 H 40.043 Z"
         style="fill:#949494;fill-opacity:1;fill-rule:evenodd;stroke:none"
         id="path46" />
      <path
         d="m 65.191,65.629 h 25.066 v 7.43 H 65.191 Z"
         style="fill:#01b8c5;fill-opacity:1;fill-rule:evenodd;stroke:none"
         id="path48" />
      <path
         d="m 90.25,65.629 h 25.066 v 7.43 H 90.25 Z"
         style="fill:#1a992d;fill-opacity:1;fill-rule:evenodd;stroke:none"
         id="path50" />
      <g
         id="g52">
        <path
           d="m 80.344,66.07 -0.004,1.649 h -6.387 v 3.269 h 6.375 l -0.004,1.633 3.828,-3.25 z"
           style="fill:#000000;fill-opacity:1;fill-rule:evenodd;stroke:#000000;stroke-width:0.547415;stroke-linecap:butt;stroke-linejoin:miter;stroke-miterlimit:4;stroke-dasharray:none;stroke-opacity:1"
           id="path54" />
      </g>
      <g
         id="g56">
        <path
           d="m 104.535,66.07 -0.004,1.649 h -6.386 v 3.269 h 6.375 l -0.004,1.633 3.828,-3.25 z"
           style="fill:#000000;fill-opacity:1;fill-rule:evenodd;stroke:#000000;stroke-width:0.547415;stroke-linecap:butt;stroke-linejoin:miter;stroke-miterlimit:4;stroke-dasharray:none;stroke-opacity:1"
           id="path58" />
      </g>
      <g
         id="g60">
        <path
           d="m 55.508,66.07 -0.004,1.649 h -6.387 v 3.269 h 6.375 l -0.004,1.633 3.828,-3.25 z"
           style="fill:#000000;fill-opacity:1;fill-rule:evenodd;stroke:#000000;stroke-width:0.547415;stroke-linecap:butt;stroke-linejoin:miter;stroke-miterlimit:4;stroke-dasharray:none;stroke-opacity:1"
           id="path62" />
      </g>
      <g
         id="g64">
        <path
           d="m 128.965,66.07 -0.004,1.649 h -6.387 v 3.269 h 6.379 l -0.008,1.633 3.828,-3.25 z"
           style="fill:#000000;fill-opacity:1;fill-rule:evenodd;stroke:#000000;stroke-width:0.547415;stroke-linecap:butt;stroke-linejoin:miter;stroke-miterlimit:4;stroke-dasharray:none;stroke-opacity:1"
           id="path66" />
      </g>
      <path
         d="m 293.508,15.719 h 15.957 v 9.891 h -15.957 z"
         style="fill:#1a992d;fill-opacity:1;fill-rule:evenodd;stroke:none"
         id="path68" />
      <g
         id="g70">
        <path
           d="m 303.109,16.309 -0.007,2.195 h -8.5 v 4.348 h 8.488 l -0.008,2.175 5.094,-4.324 z"
           style="fill:#000000;fill-opacity:1;fill-rule:evenodd;stroke:#000000;stroke-width:0.72861;stroke-linecap:butt;stroke-linejoin:miter;stroke-miterlimit:4;stroke-dasharray:none;stroke-opacity:1"
           id="path72" />
      </g>
      <path
         d="m 260.629,15.719 h 16.27 v 9.891 h -16.27 z"
         style="fill:#01b8c5;fill-opacity:1;fill-rule:evenodd;stroke:none"
         id="path74" />
      <g
         id="g76"
         transform="scale(-1,0.980752)">
        <path
           d="m -267.109,16.629 -0.008,2.238 h -8.664 V 23.3 h 8.652 l -0.008,2.219 5.196,-4.41 z"
           style="fill:#000000;fill-opacity:1;fill-rule:evenodd;stroke:#000000;stroke-width:0.742909;stroke-linecap:butt;stroke-linejoin:miter;stroke-miterlimit:4;stroke-dasharray:none;stroke-opacity:1"
           id="path78" />
      </g>
      <path
         d="m 227.996,15.719 h 16.027 v 9.891 h -16.027 z"
         style="fill:#1a992d;fill-opacity:1;fill-rule:evenodd;stroke:none"
         id="path80" />
      <g
         id="g82"
         transform="scale(-1,0.995484)">
        <path
           d="m -234.383,16.383 -0.004,2.205 h -8.539 v 4.367 h 8.524 l -0.004,2.186 5.117,-4.344 z"
           style="fill:#000000;fill-opacity:1;fill-rule:evenodd;stroke:#000000;stroke-width:0.731915;stroke-linecap:butt;stroke-linejoin:miter;stroke-miterlimit:4;stroke-dasharray:none;stroke-opacity:1"
           id="path84" />
      </g>
      <text
         xml:space="preserve"
         transform="translate(178.89443,7.600007)"
         style="font-variant:normal;font-weight:normal;font-size:10px;font-family:'Noto Sans';-inkscape-font-specification:NotoSans-Regular;writing-mode:lr-tb;fill:#000000;fill-opacity:1;fill-rule:nonzero;stroke:none"
         id="text96"><tspan
           x="0 5.7199998 8.3999996 11 16.49 22.540001 26.67 30.280001 32.880001 37.669998 43.310001 48.950001 55.099998 59.889999 62.490002 68.440002 73.540001 76.139999 80.940002 87.120003 92.730003 95.309998 101.49 104.09 108.89 114.94 120.99 124.92 131.07001 133.64999 139.83 145.44 149.05"
           y="0"
           sodipodi:role="line"
           id="tspan86">1. Sort seeds by chain coordinate</tspan><tspan
           x="0.89006603 6.6100659 9.2900658 11.890066 17.380066 23.530066 26.110065 28.690065 32.300068 34.900066 37.480064 43.660065 47.270065 53.320065 55.920067 60.050068 66.230064 72.410065 77.200066 79.800064 85.750069 90.850067 93.450066 99.600067 103.53007 109.14007 115.29007 121.47006 124.07007 129.68007 135.86006 142.01007 144.61006 148.54007 154.18007 159.79007 165.94006 168.54007 174.69006 177.27007 182.06006 185.67006 191.28006 197.46007 202.26007"
           y="35.818611"
           sodipodi:role="line"
           id="tspan88">2. Split into runs by graph and read distance</tspan><tspan
           x="0.89006603 13.890066 19.500067 25.680065 31.830067 34.430065 40.480064 44.610065 47.190067 52.830067 59.010067 62.620068 68.230064 71.840065 74.420067 80.470062 86.650063 89.250069 91.830063 98.010063 100.61007 104.54007 110.18007 115.79007"
           y="48.318619"
           sodipodi:role="line"
           id="tspan90"> and orientation in read</tspan><tspan
           x="0.44005901 6.160059 8.8400593 11.440059 16.930059 22.980059 27.11006 30.720058 33.320061 37.450058 43.630058 49.810059 54.60006 57.200058 63.150059 68.250061 70.85006 74.78006 80.420059 86.03006 92.180061 94.78006 99.580055 105.63006 111.68006 115.61006 121.76006 124.34006 130.52007 136.13007 139.74007"
           y="95.90654"
           sodipodi:role="line"
           id="tspan92">3. Sort runs by read coordinate</tspan><tspan
           x="0.260039 5.9800391 8.6600389 11.260039 17.760038 23.940039 26.520039 29.100039 35.250038 37.85004 42.550037 45.130039 51.280041 53.880039 58.680038 64.730042 70.880035 76.520042 79.120041 82.730042 86.660042 92.300041 97.940041 100.54004 108.40004 110.98004 114.59004 120.77004 123.37004 127.50004 133.68004 139.86005 144.65004 147.25005 152.86005 157.65004 160.25005 165.05003 171.23004 176.84004 179.42004 185.60004"
           y="162.29495"
           sodipodi:role="line"
           id="tspan94">5. Build zip code tree with runs as chains</tspan></text>
      <g
         id="g98">
        <path
           d="m 85.062,99.902 -0.003,1.653 h -6.387 v 3.265 h 6.375 l -0.004,1.637 3.828,-3.254 z"
           style="fill:#000000;fill-opacity:1;fill-rule:evenodd;stroke:#000000;stroke-width:0.547415;stroke-linecap:butt;stroke-linejoin:miter;stroke-miterlimit:4;stroke-dasharray:none;stroke-opacity:1"
           id="path100" />
      </g>
      <g
         id="g102">
        <path
           d="m 157.535,99.902 -0.008,1.653 h -6.386 v 3.265 h 6.379 l -0.008,1.637 3.828,-3.254 z"
           style="fill:#000000;fill-opacity:1;fill-rule:evenodd;stroke:#000000;stroke-width:0.547415;stroke-linecap:butt;stroke-linejoin:miter;stroke-miterlimit:4;stroke-dasharray:none;stroke-opacity:1"
           id="path104" />
      </g>
      <g
         id="g106">
        <path
           d="m 28.883,99.902 -0.004,1.653 h -6.387 v 3.265 h 6.375 l -0.004,1.637 3.828,-3.254 z"
           style="fill:#000000;fill-opacity:1;fill-rule:evenodd;stroke:#000000;stroke-width:0.547415;stroke-linecap:butt;stroke-linejoin:miter;stroke-miterlimit:4;stroke-dasharray:none;stroke-opacity:1"
           id="path108" />
      </g>
      <g
         id="g110">
        <path
           d="m 68.09,99.906 0.004,1.649 h 6.515 v 3.265 h -6.504 l 0.004,1.629 -3.906,-3.246 z"
           style="fill:#000000;fill-opacity:1;fill-rule:evenodd;stroke:#000000;stroke-width:0.55262;stroke-linecap:butt;stroke-linejoin:miter;stroke-miterlimit:4;stroke-dasharray:none;stroke-opacity:1"
           id="path112" />
      </g>
      <g
         id="g114">
        <path
           d="m 103.289,99.902 0.004,1.653 h 6.332 v 3.265 h -6.32 l 0.004,1.637 -3.793,-3.254 z"
           style="fill:#000000;fill-opacity:1;fill-rule:evenodd;stroke:#000000;stroke-width:0.545145;stroke-linecap:butt;stroke-linejoin:miter;stroke-miterlimit:4;stroke-dasharray:none;stroke-opacity:1"
           id="path116" />
      </g>
      <g
         id="g118">
        <path
           d="M 108.465,70.199 64.219,103.75"
           style="fill:none;stroke:#000000;stroke-width:0.749999;stroke-linecap:butt;stroke-linejoin:miter;stroke-miterlimit:4;stroke-dasharray:2.25, 0.749999;stroke-dashoffset:0;stroke-opacity:1"
           id="path120" />
      </g>
      <g
         id="g122">
        <path
           d="M 97.547,69.5 74.715,103.289"
           style="fill:none;stroke:#000000;stroke-width:0.749999;stroke-linecap:butt;stroke-linejoin:miter;stroke-miterlimit:4;stroke-dasharray:2.25, 0.749999;stroke-dashoffset:0;stroke-opacity:1"
           id="path124" />
      </g>
      <text
         xml:space="preserve"
         transform="translate(281.0099,68.211512)"
         style="font-variant:normal;font-weight:normal;font-size:7.99999px;font-family:'Noto Sans';-inkscape-font-specification:NotoSans-Regular;writing-mode:lr-tb;fill:#000000;fill-opacity:1;fill-rule:nonzero;stroke:none"
         id="text128"><tspan
           x="0 4.9199939"
           y="0"
           sodipodi:role="line"
           id="tspan126">di</tspan></text>
      <text
         xml:space="preserve"
         transform="translate(287.99389,68.211512)"
         style="font-variant:normal;font-weight:normal;font-size:7.99999px;font-family:'Noto Sans';-inkscape-font-specification:NotoSans-Regular;writing-mode:lr-tb;fill:#000000;fill-opacity:1;fill-rule:nonzero;stroke:none"
         id="text132"><tspan
           x="0"
           y="0"
           id="tspan130">ﬀ</tspan></text>
      <text
         xml:space="preserve"
         transform="translate(293.49788,68.211512)"
         style="font-variant:normal;font-weight:normal;font-size:7.99999px;font-family:'Noto Sans';-inkscape-font-specification:NotoSans-Regular;writing-mode:lr-tb;fill:#000000;fill-opacity:1;fill-rule:nonzero;stroke:none"
         id="text136"><tspan
           x="0 4.5119944 7.6559906 12.167985 17.111979 19.999975 22.079973 25.223969 29.735962 34.223957 39.143951 41.223949 46.063942 49.367939 51.431934 55.943932 60.887924 63.775921 68.263916 71.151909 73.215912 78.055901"
           y="0"
           sodipodi:role="line"
           id="tspan134">erent read orientation</tspan></text>
      <path
         d="m 296.914,76.703 h 15.957 v 9.891 h -15.957 z"
         style="fill:#1a992d;fill-opacity:1;fill-rule:evenodd;stroke:none"
         id="path138" />
      <g
         id="g140">
        <path
           d="m 306.512,77.293 -0.004,2.195 h -8.5 v 4.348 h 8.484 l -0.004,2.18 5.094,-4.328 z"
           style="fill:#000000;fill-opacity:1;fill-rule:evenodd;stroke:#000000;stroke-width:0.72861;stroke-linecap:butt;stroke-linejoin:miter;stroke-miterlimit:4;stroke-dasharray:none;stroke-opacity:1"
           id="path142" />
      </g>
      <path
         d="m 264.031,76.703 h 16.27 v 9.891 h -16.27 z"
         style="fill:#01b8c5;fill-opacity:1;fill-rule:evenodd;stroke:none"
         id="path144" />
      <g
         id="g146"
         transform="scale(-1,0.980752)">
        <path
           d="m -270.516,78.81 -0.004,2.238 h -8.668 v 4.433 h 8.653 l -0.004,2.223 5.195,-4.413 z"
           style="fill:#000000;fill-opacity:1;fill-rule:evenodd;stroke:#000000;stroke-width:0.742909;stroke-linecap:butt;stroke-linejoin:miter;stroke-miterlimit:4;stroke-dasharray:none;stroke-opacity:1"
           id="path148" />
      </g>
      <path
         d="m 231.398,76.703 h 16.031 v 9.891 h -16.031 z"
         style="fill:#1a992d;fill-opacity:1;fill-rule:evenodd;stroke:none"
         id="path150" />
      <g
         id="g152"
         transform="scale(-1,0.995484)">
        <path
           d="m -237.785,77.644 -0.008,2.205 h -8.539 v 4.367 h 8.527 l -0.007,2.19 5.121,-4.348 z"
           style="fill:#000000;fill-opacity:1;fill-rule:evenodd;stroke:#000000;stroke-width:0.731915;stroke-linecap:butt;stroke-linejoin:miter;stroke-miterlimit:4;stroke-dasharray:none;stroke-opacity:1"
           id="path154" />
      </g>
      <path
         d="m 290.203,111.805 h 15.957 v 9.891 h -15.957 z"
         style="fill:#1a992d;fill-opacity:1;fill-rule:evenodd;stroke:none"
         id="path156" />
      <g
         id="g158">
        <path
           d="m 299.805,112.395 -0.008,2.195 h -8.5 v 4.348 h 8.488 l -0.008,2.175 5.094,-4.324 z"
           style="fill:#000000;fill-opacity:1;fill-rule:evenodd;stroke:#000000;stroke-width:0.72861;stroke-linecap:butt;stroke-linejoin:miter;stroke-miterlimit:4;stroke-dasharray:none;stroke-opacity:1"
           id="path160" />
      </g>
      <path
         d="m 259.309,111.812 h 16.27 v 9.887 h -16.27 z"
         style="fill:#01b8c5;fill-opacity:1;fill-rule:evenodd;stroke:none"
         id="path162" />
      <g
         id="g164"
         transform="scale(-1,0.980752)">
        <path
           d="m -265.789,114.604 -0.008,2.239 h -8.668 v 4.437 h 8.656 l -0.007,2.218 5.195,-4.413 z"
           style="fill:#000000;fill-opacity:1;fill-rule:evenodd;stroke:#000000;stroke-width:0.742909;stroke-linecap:butt;stroke-linejoin:miter;stroke-miterlimit:4;stroke-dasharray:none;stroke-opacity:1"
           id="path166" />
      </g>
      <path
         d="m 243.34,111.773 h 16.027 v 9.891 H 243.34 Z"
         style="fill:#1a992d;fill-opacity:1;fill-rule:evenodd;stroke:none"
         id="path168" />
      <g
         id="g170"
         transform="scale(-1,0.995484)">
        <path
           d="m -249.727,112.873 -0.003,2.205 h -8.54 v 4.368 h 8.524 l -0.004,2.185 5.117,-4.344 z"
           style="fill:#000000;fill-opacity:1;fill-rule:evenodd;stroke:#000000;stroke-width:0.731915;stroke-linecap:butt;stroke-linejoin:miter;stroke-miterlimit:4;stroke-dasharray:none;stroke-opacity:1"
           id="path172" />
      </g>
      <text
         xml:space="preserve"
         transform="translate(179.57446,136.5437)"
         style="font-variant:normal;font-weight:normal;font-size:10px;font-family:'Noto Sans';-inkscape-font-specification:NotoSans-Regular;writing-mode:lr-tb;fill:#000000;fill-opacity:1;fill-rule:nonzero;stroke:none"
         id="text176"><tspan
           x="0 5.7199998 8.3999996 11 18.809999 22.940001 25.52 31.16 37.34 40.950001 43.549999 47.68 53.860001 60.040001 64.830002 67.43 73.580002 79.190002 83.980003 89.620003 95.769997 98.370003 104.42 110.6 113.2 118 124.05 128.17999 132.11 137.75 140.33 145.94 149.55 152.13 158.17999 164.36 166.96001 173.00999 176.45 179.05 182.98 188.62 194.23 200.38 202.98 209.13 215.17999 219.97 222.55 226.16 228.74001 234.78999 240.97 245.75999 248.36 250.94 257.12 259.72 265.87 269.79999 275.41 281.56"
           y="0"
           sodipodi:role="line"
           id="tspan174">4. Orient runs based on correlation of read positions in graph</tspan></text>
      <path
         d="m 290.66,143.344 h 15.957 v 9.891 H 290.66 Z"
         style="fill:#1a992d;fill-opacity:1;fill-rule:evenodd;stroke:none"
         id="path178" />
      <g
         id="g180">
        <path
           d="m 300.258,143.93 -0.004,2.199 h -8.5 v 4.348 h 8.484 l -0.004,2.175 5.094,-4.328 z"
           style="fill:#000000;fill-opacity:1;fill-rule:evenodd;stroke:#000000;stroke-width:0.72861;stroke-linecap:butt;stroke-linejoin:miter;stroke-miterlimit:4;stroke-dasharray:none;stroke-opacity:1"
           id="path182" />
      </g>
      <g
         id="g184">
        <path
           d="m 298.203,72.113 c -14.91,22.203 -14.91,22.203 -14.91,22.203"
           style="fill:none;stroke:#000000;stroke-width:0.749999;stroke-linecap:butt;stroke-linejoin:miter;stroke-miterlimit:4;stroke-dasharray:none;stroke-opacity:1"
           id="path186" />
      </g>
      <g
         id="g188"
         transform="matrix(0.878265,0.0419152,0.047725,-1,0,0)">
        <path
           d="m 286.926,-63.61 c 4.407,6.72 7.948,10.638 15.498,0.189"
           style="fill:none;stroke:#000000;stroke-width:0.852981;stroke-linecap:butt;stroke-linejoin:miter;stroke-miterlimit:4;stroke-dasharray:none;stroke-opacity:1"
           id="path190" />
      </g>
      <path
         d="m 263.34,72.93 0.027,4.894 -3.734,-2.785 z"
         style="fill:#000000;fill-opacity:1;fill-rule:nonzero;stroke:none"
         id="path192" />
      <path
         d="m 251.457,75.914 -3.945,2.016 0.82,-5.035 z"
         style="fill:#000000;fill-opacity:1;fill-rule:nonzero;stroke:none"
         id="path194" />
      <path
         d="m 235.508,142.285 h 19.961 v 11.965 h -19.961 z"
         style="fill:#01b8c5;fill-opacity:1;fill-rule:evenodd;stroke:none"
         id="path196" />
      <g
         id="g198"
         transform="scale(1,0.967294)">
        <path
           d="m 247.516,147.831 -0.008,2.75 h -10.633 v 5.436 h 10.617 l -0.008,2.722 6.371,-5.412 z"
           style="fill:#000000;fill-opacity:1;fill-rule:evenodd;stroke:#000000;stroke-width:0.911425;stroke-linecap:butt;stroke-linejoin:miter;stroke-miterlimit:4;stroke-dasharray:none;stroke-opacity:1"
           id="path200" />
      </g>
      <g
         id="g202"
         transform="matrix(-1,-0.174943,0.189161,-0.904698,0,0)">
        <path
           d="m -264.046,-113.697 -0.985,0.553 0.008,-1.133 z"
           style="fill:#ffffff;fill-opacity:1;fill-rule:nonzero;stroke:#fcfcfc;stroke-width:0.337036;stroke-linecap:butt;stroke-linejoin:miter;stroke-miterlimit:4;stroke-dasharray:none;stroke-opacity:1"
           id="path204" />
      </g>
      <path
         d="m 244.66,146.277 c -1.055,-0.132 -1.953,0.629 -2.012,1.7 -0.027,0.511 0.145,1.027 0.481,1.437 l 0.422,-0.34 c -0.246,-0.293 -0.375,-0.668 -0.356,-1.039 0.043,-0.762 0.692,-1.305 1.45,-1.207 0.757,0.094 1.339,0.789 1.3,1.555 -0.023,0.406 -0.218,0.769 -0.543,0.992 l 0.352,0.445 c 0.422,-0.316 0.68,-0.812 0.707,-1.363 0.059,-1.07 -0.75,-2.047 -1.801,-2.18 z"
         style="fill:#ffffff;fill-opacity:1;fill-rule:nonzero;stroke:none"
         id="path206" />
      <path
         d="m 255.395,142.238 h 19.664 v 11.969 h -19.664 z"
         style="fill:#1a992d;fill-opacity:1;fill-rule:evenodd;stroke:none"
         id="path208" />
      <g
         id="g210"
         transform="scale(1,0.981824)">
        <path
           d="m 267.223,145.6 -0.008,2.705 h -10.477 v 5.359 h 10.461 l -0.008,2.682 6.278,-5.332 z"
           style="fill:#000000;fill-opacity:1;fill-rule:evenodd;stroke:#000000;stroke-width:0.897938;stroke-linecap:butt;stroke-linejoin:miter;stroke-miterlimit:4;stroke-dasharray:none;stroke-opacity:1"
           id="path212" />
      </g>
      <g
         id="g214"
         transform="matrix(-1,-0.174943,0.189161,-0.904698,0,0)">
        <path
           d="m -279.963,-110.55 -0.984,0.557 0.008,-1.133 z"
           style="fill:#ffffff;fill-opacity:1;fill-rule:nonzero;stroke:#fcfcfc;stroke-width:0.337036;stroke-linecap:butt;stroke-linejoin:miter;stroke-miterlimit:4;stroke-dasharray:none;stroke-opacity:1"
           id="path216" />
      </g>
      <path
         d="m 261.172,146.211 c -1.051,-0.133 -1.953,0.629 -2.012,1.703 -0.027,0.512 0.145,1.027 0.481,1.434 l 0.421,-0.34 c -0.246,-0.293 -0.371,-0.664 -0.351,-1.035 0.039,-0.766 0.687,-1.305 1.445,-1.211 0.762,0.097 1.344,0.793 1.301,1.554 -0.023,0.407 -0.219,0.77 -0.539,0.996 l 0.348,0.446 c 0.422,-0.32 0.679,-0.813 0.711,-1.363 0.054,-1.075 -0.75,-2.051 -1.805,-2.184 z"
         style="fill:#ffffff;fill-opacity:1;fill-rule:nonzero;stroke:none"
         id="path218" />
      <g
         id="g220">
        <path
           d="M 189.277,180.305 333.98,179.734"
           style="fill:none;stroke:#000000;stroke-width:1.73554;stroke-linecap:butt;stroke-linejoin:miter;stroke-miterlimit:4;stroke-dasharray:none;stroke-opacity:1"
           id="path222" />
      </g>
      <g
         id="g224">
        <path
           d="m 210.234,173.289 c -5.738,1.066 -9.543,3.793 -9.546,6.844 0.003,3.047 3.808,5.777 9.546,6.844 z"
           style="fill:#949494;fill-opacity:1;fill-rule:nonzero;stroke:#000000;stroke-width:1.73554;stroke-linecap:butt;stroke-linejoin:miter;stroke-miterlimit:4;stroke-dasharray:none;stroke-opacity:1"
           id="path226" />
      </g>
      <g
         id="g228">
        <path
           d="m 306.816,172.316 v 13.977 c 6.11,-0.961 10.27,-3.789 10.27,-6.988 0,-3.2 -4.156,-6.028 -10.27,-6.989 z"
           style="fill:#949494;fill-opacity:1;fill-rule:nonzero;stroke:#000000;stroke-width:1.73554;stroke-linecap:butt;stroke-linejoin:miter;stroke-miterlimit:4;stroke-dasharray:none;stroke-opacity:1"
           id="path230" />
      </g>
      <g
         id="g232">
        <path
           d="m 210.207,179.832 c 9.645,0.57 8.836,16.918 15.402,17.133"
           style="fill:none;stroke:#000000;stroke-width:1.73554;stroke-linecap:butt;stroke-linejoin:miter;stroke-miterlimit:4;stroke-dasharray:none;stroke-opacity:1"
           id="path234" />
      </g>
      <g
         id="g236">
        <path
           d="m 335.699,175.828 -0.008,1.996 h -7.726 v 3.953 h 7.715 l -0.004,1.977 4.633,-3.93 z"
           style="fill:#000000;fill-opacity:1;fill-rule:evenodd;stroke:#000000;stroke-width:0.662374;stroke-linecap:butt;stroke-linejoin:miter;stroke-miterlimit:4;stroke-dasharray:none;stroke-opacity:1"
           id="path238" />
      </g>
      <g
         id="g240">
        <path
           d="m 185.793,176.031 -0.008,1.996 h -7.726 v 3.953 h 7.714 l -0.003,1.981 4.628,-3.934 z"
           style="fill:#000000;fill-opacity:1;fill-rule:evenodd;stroke:#000000;stroke-width:0.662374;stroke-linecap:butt;stroke-linejoin:miter;stroke-miterlimit:4;stroke-dasharray:none;stroke-opacity:1"
           id="path242" />
      </g>
      <g
         id="g244">
        <path
           d="m 258.234,196.965 c 19.567,-0.524 17.125,-15.637 47.977,-17.293 m -47.801,16.937 c 12.371,-0.125 11.063,16.059 16.996,15.465"
           style="fill:none;stroke:#000000;stroke-width:1.73554;stroke-linecap:butt;stroke-linejoin:miter;stroke-miterlimit:4;stroke-dasharray:none;stroke-opacity:1"
           id="path246" />
      </g>
      <g
         id="g248">
        <path
           d="m 210.766,181.441 c 5.808,33.563 27.492,30.758 65.324,30.219"
           style="fill:none;stroke:#000000;stroke-width:1.73554;stroke-linecap:butt;stroke-linejoin:miter;stroke-miterlimit:4;stroke-dasharray:none;stroke-opacity:1"
           id="path250" />
      </g>
      <g
         id="g252">
        <path
           d="m 292.234,211.969 c 7.496,-0.383 3.692,-32.469 13.286,-31.86"
           style="fill:none;stroke:#000000;stroke-width:1.73554;stroke-linecap:butt;stroke-linejoin:miter;stroke-miterlimit:4;stroke-dasharray:none;stroke-opacity:1"
           id="path254" />
      </g>
      <path
         d="m 275.852,207.145 h 15.957 v 9.887 h -15.957 z"
         style="fill:#1a992d;fill-opacity:1;fill-rule:evenodd;stroke:none"
         id="path256" />
      <g
         id="g258">
        <path
           d="m 285.453,207.73 -0.008,2.2 h -8.5 v 4.347 h 8.489 l -0.008,2.176 5.094,-4.328 z"
           style="fill:#000000;fill-opacity:1;fill-rule:evenodd;stroke:#000000;stroke-width:0.72861;stroke-linecap:butt;stroke-linejoin:miter;stroke-miterlimit:4;stroke-dasharray:none;stroke-opacity:1"
           id="path260" />
      </g>
      <path
         d="m 225.652,191.887 h 16.496 v 9.891 h -16.496 z"
         style="fill:#01b8c5;fill-opacity:1;fill-rule:evenodd;stroke:none"
         id="path262" />
      <g
         id="g264"
         transform="scale(1,0.967294)">
        <path
           d="m 235.574,198.985 -0.008,2.269 h -8.785 v 4.495 h 8.774 l -0.008,2.249 5.269,-4.47 z"
           style="fill:#000000;fill-opacity:1;fill-rule:evenodd;stroke:#000000;stroke-width:0.753244;stroke-linecap:butt;stroke-linejoin:miter;stroke-miterlimit:4;stroke-dasharray:none;stroke-opacity:1"
           id="path266" />
      </g>
      <path
         d="m 242.086,191.852 h 16.25 v 9.891 h -16.25 z"
         style="fill:#1a992d;fill-opacity:1;fill-rule:evenodd;stroke:none"
         id="path268" />
      <g
         id="g270"
         transform="scale(1,0.981824)">
        <path
           d="m 251.863,196 -0.008,2.24 h -8.656 v 4.428 h 8.641 l -0.004,2.216 5.187,-4.408 z"
           style="fill:#000000;fill-opacity:1;fill-rule:evenodd;stroke:#000000;stroke-width:0.742097;stroke-linecap:butt;stroke-linejoin:miter;stroke-miterlimit:4;stroke-dasharray:none;stroke-opacity:1"
           id="path272" />
      </g>
      <g
         id="g274"
         transform="matrix(-1,-0.174943,0.189161,-0.904698,0,0)">
        <path
           d="m -261.295,-167.959 -0.989,0.554 0.013,-1.13 z"
           style="fill:#ffffff;fill-opacity:1;fill-rule:nonzero;stroke:#fcfcfc;stroke-width:0.337036;stroke-linecap:butt;stroke-linejoin:miter;stroke-miterlimit:4;stroke-dasharray:none;stroke-opacity:1"
           id="path276" />
      </g>
      <path
         d="m 231.645,194.883 c -1.051,-0.129 -1.954,0.633 -2.012,1.703 -0.028,0.512 0.148,1.027 0.48,1.437 l 0.426,-0.343 c -0.25,-0.293 -0.375,-0.664 -0.355,-1.035 0.039,-0.762 0.687,-1.305 1.449,-1.211 0.758,0.097 1.34,0.793 1.297,1.558 -0.02,0.406 -0.219,0.766 -0.539,0.992 l 0.347,0.446 c 0.422,-0.317 0.68,-0.813 0.711,-1.364 0.055,-1.074 -0.75,-2.05 -1.804,-2.179 z"
         style="fill:#ffffff;fill-opacity:1;fill-rule:nonzero;stroke:none"
         id="path278" />
      <g
         id="g280"
         transform="matrix(-1,-0.174943,0.189161,-0.904698,0,0)">
        <path
           d="m -276.634,-165.023 -0.989,0.554 0.013,-1.13 z"
           style="fill:#ffffff;fill-opacity:1;fill-rule:nonzero;stroke:#fcfcfc;stroke-width:0.337036;stroke-linecap:butt;stroke-linejoin:miter;stroke-miterlimit:4;stroke-dasharray:none;stroke-opacity:1"
           id="path282" />
      </g>
      <path
         d="m 247.539,194.914 c -1.051,-0.133 -1.953,0.629 -2.012,1.699 -0.027,0.512 0.145,1.028 0.481,1.438 l 0.426,-0.344 c -0.25,-0.293 -0.375,-0.664 -0.356,-1.035 0.039,-0.762 0.688,-1.305 1.445,-1.211 0.762,0.098 1.344,0.793 1.301,1.559 -0.023,0.406 -0.219,0.769 -0.539,0.992 l 0.348,0.445 c 0.422,-0.316 0.679,-0.812 0.711,-1.363 0.054,-1.074 -0.75,-2.047 -1.805,-2.18 z"
         style="fill:#ffffff;fill-opacity:1;fill-rule:nonzero;stroke:none"
         id="path284" />
    </g>
  </g>
</svg>
