<?xml version="1.0" encoding="UTF-8" standalone="no"?>
<!DOCTYPE svg PUBLIC "-//W3C//DTD SVG 1.1//EN"
 "http://www.w3.org/Graphics/SVG/1.1/DTD/svg11.dtd">
<!-- Generated by graphviz version 2.43.0 (0)
 -->
<!-- Title: graphname Pages: 1 -->
<svg width="185pt" height="304pt"
 viewBox="0.00 0.00 185.00 304.00" xmlns="http://www.w3.org/2000/svg" xmlns:xlink="http://www.w3.org/1999/xlink">
<g id="graph0" class="graph" transform="scale(1 1) rotate(0) translate(4 300)">
<title>graphname</title>
<polygon fill="white" stroke="transparent" points="-4,4 -4,-300 181,-300 181,4 -4,4"/>
<!-- chain_1fd__7fdtraversing_start__end -->
<g id="node1" class="node">
<title>chain_1fd__7fdtraversing_start__end</title>
<polygon fill="lightskyblue" stroke="transparent" points="111.5,-224 65.5,-224 65.5,-195 111.5,-195 111.5,-224"/>
<polygon fill="none" stroke="black" stroke-width="2" points="66.5,-195.5 66.5,-222.5 110.5,-222.5 110.5,-195.5 66.5,-195.5"/>
<text text-anchor="start" x="72.5" y="-205.3" font-family="Times,serif" font-size="14.00">1 to 7</text>
</g>
<!-- node_1fd -->
<g id="node3" class="node">
<title>node_1fd</title>
<polygon fill="#e5e5e5" stroke="transparent" points="47,-159 26,-159 26,-130 47,-130 47,-159"/>
<polygon fill="none" stroke="black" stroke-width="2" points="27.5,-130.5 27.5,-157.5 46.5,-157.5 46.5,-130.5 27.5,-130.5"/>
<text text-anchor="start" x="33.5" y="-140.3" font-family="Times,serif" font-size="14.00">1</text>
</g>
<!-- chain_1fd__7fdtraversing_start__end&#45;&gt;node_1fd -->
<g id="edge2" class="edge">
<title>chain_1fd__7fdtraversing_start__end&#45;&gt;node_1fd</title>
<path fill="none" stroke="black" stroke-width="2" d="M77.22,-194.83C70.29,-186.43 61.27,-175.52 53.49,-166.09"/>
<polygon fill="black" stroke="black" stroke-width="2" points="56.12,-163.77 47.05,-158.28 50.72,-168.22 56.12,-163.77"/>
</g>
<!-- snarl_1fd__7fdtraversing_start__end -->
<g id="node4" class="node">
<title>snarl_1fd__7fdtraversing_start__end</title>
<polygon fill="lightcoral" stroke="transparent" points="111.5,-159 65.5,-159 65.5,-130 111.5,-130 111.5,-159"/>
<polygon fill="none" stroke="black" stroke-width="2" points="66.5,-130.5 66.5,-157.5 110.5,-157.5 110.5,-130.5 66.5,-130.5"/>
<text text-anchor="start" x="72.5" y="-140.3" font-family="Times,serif" font-size="14.00">1 to 7</text>
</g>
<!-- chain_1fd__7fdtraversing_start__end&#45;&gt;snarl_1fd__7fdtraversing_start__end -->
<g id="edge3" class="edge">
<title>chain_1fd__7fdtraversing_start__end&#45;&gt;snarl_1fd__7fdtraversing_start__end</title>
<path fill="none" stroke="black" stroke-width="2" d="M88.5,-194.83C88.5,-187.4 88.5,-178 88.5,-169.4"/>
<polygon fill="black" stroke="black" stroke-width="2" points="92,-169.14 88.5,-159.14 85,-169.14 92,-169.14"/>
</g>
<!-- node_7fd -->
<g id="node15" class="node">
<title>node_7fd</title>
<polygon fill="#e5e5e5" stroke="transparent" points="151,-159 130,-159 130,-130 151,-130 151,-159"/>
<polygon fill="none" stroke="black" stroke-width="2" points="131.5,-130.5 131.5,-157.5 150.5,-157.5 150.5,-130.5 131.5,-130.5"/>
<text text-anchor="start" x="137.5" y="-140.3" font-family="Times,serif" font-size="14.00">7</text>
</g>
<!-- chain_1fd__7fdtraversing_start__end&#45;&gt;node_7fd -->
<g id="edge14" class="edge">
<title>chain_1fd__7fdtraversing_start__end&#45;&gt;node_7fd</title>
<path fill="none" stroke="black" stroke-width="2" d="M99.78,-194.83C106.71,-186.43 115.73,-175.52 123.51,-166.09"/>
<polygon fill="black" stroke="black" stroke-width="2" points="126.28,-168.22 129.95,-158.28 120.88,-163.77 126.28,-168.22"/>
</g>
<!-- root -->
<g id="node2" class="node">
<title>root</title>
<polygon fill="lightgrey" stroke="transparent" points="115.5,-296 61.5,-296 61.5,-260 115.5,-260 115.5,-296"/>
<text text-anchor="middle" x="88.5" y="-274.3" font-family="Times,serif" font-size="14.00">root</text>
</g>
<!-- root&#45;&gt;chain_1fd__7fdtraversing_start__end -->
<g id="edge1" class="edge">
<title>root&#45;&gt;chain_1fd__7fdtraversing_start__end</title>
<path fill="none" stroke="black" stroke-width="2" d="M88.5,-259.87C88.5,-252.08 88.5,-242.73 88.5,-234.27"/>
<polygon fill="black" stroke="black" stroke-width="2" points="92,-234.22 88.5,-224.22 85,-234.22 92,-234.22"/>
</g>
<!-- node_5fd_pretending_to_be_a_chain -->
<g id="node5" class="node">
<title>node_5fd_pretending_to_be_a_chain</title>
<polygon fill="lightskyblue" stroke="transparent" points="21,-94 0,-94 0,-65 21,-65 21,-94"/>
<polygon fill="none" stroke="black" stroke-width="2" points="1.5,-65.5 1.5,-92.5 20.5,-92.5 20.5,-65.5 1.5,-65.5"/>
<text text-anchor="start" x="7.5" y="-75.3" font-family="Times,serif" font-size="14.00">5</text>
</g>
<!-- snarl_1fd__7fdtraversing_start__end&#45;&gt;node_5fd_pretending_to_be_a_chain -->
<g id="edge4" class="edge">
<title>snarl_1fd__7fdtraversing_start__end&#45;&gt;node_5fd_pretending_to_be_a_chain</title>
<path fill="none" stroke="black" stroke-width="2" d="M71.58,-129.83C59.08,-119.74 42.07,-106 29.18,-95.59"/>
<polygon fill="black" stroke="black" stroke-width="2" points="31.37,-92.86 21.39,-89.3 26.97,-98.3 31.37,-92.86"/>
</g>
<!-- node_4fd_pretending_to_be_a_chain -->
<g id="node7" class="node">
<title>node_4fd_pretending_to_be_a_chain</title>
<polygon fill="lightskyblue" stroke="transparent" points="60,-94 39,-94 39,-65 60,-65 60,-94"/>
<polygon fill="none" stroke="black" stroke-width="2" points="40.5,-65.5 40.5,-92.5 59.5,-92.5 59.5,-65.5 40.5,-65.5"/>
<text text-anchor="start" x="46.5" y="-75.3" font-family="Times,serif" font-size="14.00">4</text>
</g>
<!-- snarl_1fd__7fdtraversing_start__end&#45;&gt;node_4fd_pretending_to_be_a_chain -->
<g id="edge6" class="edge">
<title>snarl_1fd__7fdtraversing_start__end&#45;&gt;node_4fd_pretending_to_be_a_chain</title>
<path fill="none" stroke="black" stroke-width="2" d="M80.04,-129.83C75.13,-121.9 68.84,-111.73 63.24,-102.69"/>
<polygon fill="black" stroke="black" stroke-width="2" points="66.19,-100.8 57.95,-94.14 60.23,-104.49 66.19,-100.8"/>
</g>
<!-- node_6fd_pretending_to_be_a_chain -->
<g id="node9" class="node">
<title>node_6fd_pretending_to_be_a_chain</title>
<polygon fill="lightskyblue" stroke="transparent" points="99,-94 78,-94 78,-65 99,-65 99,-94"/>
<polygon fill="none" stroke="black" stroke-width="2" points="79.5,-65.5 79.5,-92.5 98.5,-92.5 98.5,-65.5 79.5,-65.5"/>
<text text-anchor="start" x="85.5" y="-75.3" font-family="Times,serif" font-size="14.00">6</text>
</g>
<!-- snarl_1fd__7fdtraversing_start__end&#45;&gt;node_6fd_pretending_to_be_a_chain -->
<g id="edge8" class="edge">
<title>snarl_1fd__7fdtraversing_start__end&#45;&gt;node_6fd_pretending_to_be_a_chain</title>
<path fill="none" stroke="black" stroke-width="2" d="M88.5,-129.83C88.5,-122.4 88.5,-113 88.5,-104.4"/>
<polygon fill="black" stroke="black" stroke-width="2" points="92,-104.14 88.5,-94.14 85,-104.14 92,-104.14"/>
</g>
<!-- node_2fd_pretending_to_be_a_chain -->
<g id="node11" class="node">
<title>node_2fd_pretending_to_be_a_chain</title>
<polygon fill="lightskyblue" stroke="transparent" points="138,-94 117,-94 117,-65 138,-65 138,-94"/>
<polygon fill="none" stroke="black" stroke-width="2" points="118.5,-65.5 118.5,-92.5 137.5,-92.5 137.5,-65.5 118.5,-65.5"/>
<text text-anchor="start" x="124.5" y="-75.3" font-family="Times,serif" font-size="14.00">2</text>
</g>
<!-- snarl_1fd__7fdtraversing_start__end&#45;&gt;node_2fd_pretending_to_be_a_chain -->
<g id="edge10" class="edge">
<title>snarl_1fd__7fdtraversing_start__end&#45;&gt;node_2fd_pretending_to_be_a_chain</title>
<path fill="none" stroke="black" stroke-width="2" d="M96.96,-129.83C101.87,-121.9 108.16,-111.73 113.76,-102.69"/>
<polygon fill="black" stroke="black" stroke-width="2" points="116.77,-104.49 119.05,-94.14 110.81,-100.8 116.77,-104.49"/>
</g>
<!-- node_3fd_pretending_to_be_a_chain -->
<g id="node13" class="node">
<title>node_3fd_pretending_to_be_a_chain</title>
<polygon fill="lightskyblue" stroke="transparent" points="177,-94 156,-94 156,-65 177,-65 177,-94"/>
<polygon fill="none" stroke="black" stroke-width="2" points="157.5,-65.5 157.5,-92.5 176.5,-92.5 176.5,-65.5 157.5,-65.5"/>
<text text-anchor="start" x="163.5" y="-75.3" font-family="Times,serif" font-size="14.00">3</text>
</g>
<!-- snarl_1fd__7fdtraversing_start__end&#45;&gt;node_3fd_pretending_to_be_a_chain -->
<g id="edge12" class="edge">
<title>snarl_1fd__7fdtraversing_start__end&#45;&gt;node_3fd_pretending_to_be_a_chain</title>
<path fill="none" stroke="black" stroke-width="2" d="M105.42,-129.83C117.92,-119.74 134.93,-106 147.82,-95.59"/>
<polygon fill="black" stroke="black" stroke-width="2" points="150.03,-98.3 155.61,-89.3 145.63,-92.86 150.03,-98.3"/>
</g>
<!-- node_5fd -->
<g id="node6" class="node">
<title>node_5fd</title>
<polygon fill="#e5e5e5" stroke="transparent" points="21,-29 0,-29 0,0 21,0 21,-29"/>
<polygon fill="none" stroke="black" stroke-width="2" points="1.5,-0.5 1.5,-27.5 20.5,-27.5 20.5,-0.5 1.5,-0.5"/>
<text text-anchor="start" x="7.5" y="-10.3" font-family="Times,serif" font-size="14.00">5</text>
</g>
<!-- node_5fd_pretending_to_be_a_chain&#45;&gt;node_5fd -->
<g id="edge5" class="edge">
<title>node_5fd_pretending_to_be_a_chain&#45;&gt;node_5fd</title>
<path fill="none" stroke="black" stroke-width="2" d="M10.5,-64.83C10.5,-57.4 10.5,-48 10.5,-39.4"/>
<polygon fill="black" stroke="black" stroke-width="2" points="14,-39.14 10.5,-29.14 7,-39.14 14,-39.14"/>
</g>
<!-- node_4fd -->
<g id="node8" class="node">
<title>node_4fd</title>
<polygon fill="#e5e5e5" stroke="transparent" points="60,-29 39,-29 39,0 60,0 60,-29"/>
<polygon fill="none" stroke="black" stroke-width="2" points="40.5,-0.5 40.5,-27.5 59.5,-27.5 59.5,-0.5 40.5,-0.5"/>
<text text-anchor="start" x="46.5" y="-10.3" font-family="Times,serif" font-size="14.00">4</text>
</g>
<!-- node_4fd_pretending_to_be_a_chain&#45;&gt;node_4fd -->
<g id="edge7" class="edge">
<title>node_4fd_pretending_to_be_a_chain&#45;&gt;node_4fd</title>
<path fill="none" stroke="black" stroke-width="2" d="M49.5,-64.83C49.5,-57.4 49.5,-48 49.5,-39.4"/>
<polygon fill="black" stroke="black" stroke-width="2" points="53,-39.14 49.5,-29.14 46,-39.14 53,-39.14"/>
</g>
<!-- node_6fd -->
<g id="node10" class="node">
<title>node_6fd</title>
<polygon fill="#e5e5e5" stroke="transparent" points="99,-29 78,-29 78,0 99,0 99,-29"/>
<polygon fill="none" stroke="black" stroke-width="2" points="79.5,-0.5 79.5,-27.5 98.5,-27.5 98.5,-0.5 79.5,-0.5"/>
<text text-anchor="start" x="85.5" y="-10.3" font-family="Times,serif" font-size="14.00">6</text>
</g>
<!-- node_6fd_pretending_to_be_a_chain&#45;&gt;node_6fd -->
<g id="edge9" class="edge">
<title>node_6fd_pretending_to_be_a_chain&#45;&gt;node_6fd</title>
<path fill="none" stroke="black" stroke-width="2" d="M88.5,-64.83C88.5,-57.4 88.5,-48 88.5,-39.4"/>
<polygon fill="black" stroke="black" stroke-width="2" points="92,-39.14 88.5,-29.14 85,-39.14 92,-39.14"/>
</g>
<!-- node_2fd -->
<g id="node12" class="node">
<title>node_2fd</title>
<polygon fill="#e5e5e5" stroke="transparent" points="138,-29 117,-29 117,0 138,0 138,-29"/>
<polygon fill="none" stroke="black" stroke-width="2" points="118.5,-0.5 118.5,-27.5 137.5,-27.5 137.5,-0.5 118.5,-0.5"/>
<text text-anchor="start" x="124.5" y="-10.3" font-family="Times,serif" font-size="14.00">2</text>
</g>
<!-- node_2fd_pretending_to_be_a_chain&#45;&gt;node_2fd -->
<g id="edge11" class="edge">
<title>node_2fd_pretending_to_be_a_chain&#45;&gt;node_2fd</title>
<path fill="none" stroke="black" stroke-width="2" d="M127.5,-64.83C127.5,-57.4 127.5,-48 127.5,-39.4"/>
<polygon fill="black" stroke="black" stroke-width="2" points="131,-39.14 127.5,-29.14 124,-39.14 131,-39.14"/>
</g>
<!-- node_3fd -->
<g id="node14" class="node">
<title>node_3fd</title>
<polygon fill="#e5e5e5" stroke="transparent" points="177,-29 156,-29 156,0 177,0 177,-29"/>
<polygon fill="none" stroke="black" stroke-width="2" points="157.5,-0.5 157.5,-27.5 176.5,-27.5 176.5,-0.5 157.5,-0.5"/>
<text text-anchor="start" x="163.5" y="-10.3" font-family="Times,serif" font-size="14.00">3</text>
</g>
<!-- node_3fd_pretending_to_be_a_chain&#45;&gt;node_3fd -->
<g id="edge13" class="edge">
<title>node_3fd_pretending_to_be_a_chain&#45;&gt;node_3fd</title>
<path fill="none" stroke="black" stroke-width="2" d="M166.5,-64.83C166.5,-57.4 166.5,-48 166.5,-39.4"/>
<polygon fill="black" stroke="black" stroke-width="2" points="170,-39.14 166.5,-29.14 163,-39.14 170,-39.14"/>
</g>
</g>
</svg>
