<?xml version="1.0" encoding="UTF-8" standalone="no"?>
<!DOCTYPE svg PUBLIC "-//W3C//DTD SVG 1.1//EN"
 "http://www.w3.org/Graphics/SVG/1.1/DTD/svg11.dtd">
<!-- Generated by graphviz version 2.43.0 (0)
 -->
<!-- Title: graphname Pages: 1 -->
<svg width="842pt" height="408pt"
 viewBox="0.00 0.00 842.15 408.23" xmlns="http://www.w3.org/2000/svg" xmlns:xlink="http://www.w3.org/1999/xlink">
<g id="graph0" class="graph" transform="scale(1 1) rotate(0) translate(4 404.23)">
<title>graphname</title>
<polygon fill="white" stroke="transparent" points="-4,4 -4,-404.23 838.15,-404.23 838.15,4 -4,4"/>
<!-- 5 -->
<g id="node1" class="node">
<title>5</title>
<polygon fill="none" stroke="black" stroke-width="2" points="494.15,-280 494.15,-307 527.15,-307 527.15,-280 494.15,-280"/>
<text text-anchor="start" x="500.15" y="-289.8" font-family="Times,serif" font-size="14.00">5:A</text>
</g>
<!-- 6 -->
<g id="node5" class="node">
<title>6</title>
<polygon fill="none" stroke="black" stroke-width="2" points="584.15,-280 584.15,-307 617.15,-307 617.15,-280 584.15,-280"/>
<text text-anchor="start" x="590.15" y="-289.8" font-family="Times,serif" font-size="14.00">6:A</text>
</g>
<!-- 5&#45;&gt;6 -->
<g id="edge1" class="edge">
<title>5:ne&#45;&gt;6:nw</title>
<path fill="none" stroke="black" stroke-width="2" d="M528.15,-309C528.15,-333.44 583.15,-333.44 583.15,-309"/>
</g>
<!-- 7 -->
<g id="node2" class="node">
<title>7</title>
<polygon fill="none" stroke="black" stroke-width="2" points="664.65,-340 664.65,-367 833.65,-367 833.65,-340 664.65,-340"/>
<text text-anchor="start" x="670.65" y="-349.8" font-family="Times,serif" font-size="14.00">7:AAAAAAAAAAAAAAA</text>
</g>
<!-- 1 -->
<g id="node3" class="node">
<title>1</title>
<polygon fill="none" stroke="black" stroke-width="2" points="46.15,-253 46.15,-280 167.15,-280 167.15,-253 46.15,-253"/>
<text text-anchor="start" x="52.15" y="-262.8" font-family="Times,serif" font-size="14.00">1:AAAAAAAAAA</text>
</g>
<!-- 1&#45;&gt;5 -->
<g id="edge5" class="edge">
<title>1:ne&#45;&gt;5:nw</title>
<path fill="none" stroke="black" stroke-width="2" d="M168.15,-282C168.15,-362.56 493.15,-380.47 493.15,-309"/>
</g>
<!-- 1&#45;&gt;7 -->
<g id="edge7" class="edge">
<title>1:ne&#45;&gt;7:nw</title>
<path fill="none" stroke="black" stroke-width="2" d="M168.15,-282C168.15,-363.98 247.17,-372 329.15,-372 329.15,-372 329.15,-372 511.15,-372 578.94,-372 663.65,-436.79 663.65,-369"/>
</g>
<!-- 4 -->
<g id="node4" class="node">
<title>4</title>
<polygon fill="none" stroke="black" stroke-width="2" points="404.15,-253 404.15,-280 437.15,-280 437.15,-253 404.15,-253"/>
<text text-anchor="start" x="410.15" y="-262.8" font-family="Times,serif" font-size="14.00">4:A</text>
</g>
<!-- 1&#45;&gt;4 -->
<g id="edge4" class="edge">
<title>1:ne&#45;&gt;4:nw</title>
<path fill="none" stroke="black" stroke-width="2" d="M168.15,-282C168.15,-312.9 185.11,-241.98 213.15,-229 234.93,-218.92 243.22,-227.15 267.15,-229 307.51,-232.12 320.33,-226.17 357.15,-243 381.53,-254.14 403.15,-308.8 403.15,-282"/>
</g>
<!-- 1&#45;&gt;6 -->
<g id="edge6" class="edge">
<title>1:ne&#45;&gt;6:nw</title>
<path fill="none" stroke="black" stroke-width="2" d="M168.15,-282C168.15,-315.69 186.69,-241.85 213.15,-221 257.11,-186.36 273.18,-172 329.15,-172 329.15,-172 329.15,-172 421.15,-172 424.1,-172 583.15,-311.95 583.15,-309"/>
</g>
<!-- 2 -->
<g id="node6" class="node">
<title>2</title>
<polygon fill="none" stroke="black" stroke-width="2" points="224.15,-239 224.15,-266 257.15,-266 257.15,-239 224.15,-239"/>
<text text-anchor="start" x="230.15" y="-248.8" font-family="Times,serif" font-size="14.00">2:A</text>
</g>
<!-- 1&#45;&gt;2 -->
<g id="edge2" class="edge">
<title>1:ne&#45;&gt;2:nw</title>
<path fill="none" stroke="black" stroke-width="2" d="M168.15,-282C168.15,-294.61 223.15,-280.61 223.15,-268"/>
</g>
<!-- 3 -->
<g id="node7" class="node">
<title>3</title>
<polygon fill="none" stroke="black" stroke-width="2" points="314.15,-253 314.15,-280 347.15,-280 347.15,-253 314.15,-253"/>
<text text-anchor="start" x="320.15" y="-262.8" font-family="Times,serif" font-size="14.00">3:A</text>
</g>
<!-- 1&#45;&gt;3 -->
<g id="edge3" class="edge">
<title>1:ne&#45;&gt;3:nw</title>
<path fill="none" stroke="black" stroke-width="2" d="M168.15,-282C168.15,-314.22 313.15,-314.22 313.15,-282"/>
</g>
<!-- 4&#45;&gt;5 -->
<g id="edge8" class="edge">
<title>4:ne&#45;&gt;5:nw</title>
<path fill="none" stroke="black" stroke-width="2" d="M438.15,-282C438.15,-309.23 493.15,-336.23 493.15,-309"/>
</g>
<!-- 6&#45;&gt;7 -->
<g id="edge9" class="edge">
<title>6:ne&#45;&gt;7:nw</title>
<path fill="none" stroke="black" stroke-width="2" d="M618.15,-309C618.15,-342.47 663.65,-402.47 663.65,-369"/>
</g>
<!-- 2&#45;&gt;3 -->
<g id="edge10" class="edge">
<title>2:ne&#45;&gt;3:nw</title>
<path fill="none" stroke="black" stroke-width="2" d="M258.15,-268C258.15,-280.61 313.15,-294.61 313.15,-282"/>
</g>
<!-- 3&#45;&gt;4 -->
<g id="edge11" class="edge">
<title>3:ne&#45;&gt;4:nw</title>
<path fill="none" stroke="black" stroke-width="2" d="M348.15,-282C348.15,-306.44 403.15,-306.44 403.15,-282"/>
</g>
<!-- 8 -->
<g id="node8" class="node">
<title>8</title>
<text text-anchor="middle" x="106.15" y="-59.3" font-family="Times,serif" font-size="14.00" fill="#1b9e77">🗆 ref#0#0 &#160;1 </text>
</g>
<!-- 8&#45;&gt;1 -->
<!-- 9 -->
<g id="node9" class="node">
<title>9</title>
<text text-anchor="middle" x="510.15" y="-14.3" font-family="Times,serif" font-size="14.00" fill="#1b9e77">🗆 5 </text>
</g>
<!-- 8&#45;&gt;9 -->
<g id="edge13" class="edge">
<title>8&#45;&gt;9</title>
<path fill="none" stroke="#1b9e77" d="M151.71,-58.01C235.73,-48.61 415.19,-28.52 482.72,-20.96"/>
</g>
<!-- 9&#45;&gt;5 -->
<!-- 10 -->
<g id="node10" class="node">
<title>10</title>
<text text-anchor="middle" x="600.15" y="-131.3" font-family="Times,serif" font-size="14.00" fill="#1b9e77">🗆 6 </text>
</g>
<!-- 9&#45;&gt;10 -->
<g id="edge15" class="edge">
<title>9&#45;&gt;10</title>
<path fill="none" stroke="#1b9e77" d="M529.47,-36.22C532.12,-39.09 534.76,-42.08 537.15,-45 556.47,-68.66 576.01,-98.16 587.86,-116.79"/>
</g>
<!-- 10&#45;&gt;6 -->
<!-- 11 -->
<g id="node11" class="node">
<title>11</title>
<text text-anchor="middle" x="748.65" y="-163.3" font-family="Times,serif" font-size="14.00" fill="#1b9e77">🗆 7 </text>
</g>
<!-- 10&#45;&gt;11 -->
<g id="edge17" class="edge">
<title>10&#45;&gt;11</title>
<path fill="none" stroke="#1b9e77" d="M627.34,-140.72C653.84,-146.51 694.6,-155.41 721.19,-161.22"/>
</g>
<!-- 11&#45;&gt;7 -->
<!-- 12 -->
<g id="node12" class="node">
<title>12</title>
<text text-anchor="middle" x="106.15" y="-206.3" font-family="Times,serif" font-size="14.00" fill="#7570b3">🗒 sample1#1#0#0 &#160;1 </text>
</g>
<!-- 12&#45;&gt;1 -->
<!-- 13 -->
<g id="node13" class="node">
<title>13</title>
<text text-anchor="middle" x="240.15" y="-122.3" font-family="Times,serif" font-size="14.00" fill="#7570b3">🗒 2 </text>
</g>
<!-- 12&#45;&gt;13 -->
<g id="edge20" class="edge">
<title>12&#45;&gt;13</title>
<path fill="none" stroke="#7570b3" d="M140.31,-191.93C152.09,-185.28 165.35,-177.53 177.15,-170 189.83,-161.9 203.51,-152.29 214.79,-144.12"/>
</g>
<!-- 13&#45;&gt;2 -->
<!-- 14 -->
<g id="node14" class="node">
<title>14</title>
<text text-anchor="middle" x="330.15" y="-118.3" font-family="Times,serif" font-size="14.00" fill="#7570b3">🗒 3 </text>
</g>
<!-- 13&#45;&gt;14 -->
<g id="edge22" class="edge">
<title>13&#45;&gt;14</title>
<path fill="none" stroke="#7570b3" d="M267.55,-124.8C278.79,-124.29 291.87,-123.69 303.07,-123.19"/>
</g>
<!-- 14&#45;&gt;3 -->
<!-- 15 -->
<g id="node15" class="node">
<title>15</title>
<text text-anchor="middle" x="420.15" y="-121.3" font-family="Times,serif" font-size="14.00" fill="#7570b3">🗒 4 </text>
</g>
<!-- 14&#45;&gt;15 -->
<g id="edge24" class="edge">
<title>14&#45;&gt;15</title>
<path fill="none" stroke="#7570b3" d="M357.55,-122.9C368.79,-123.28 381.87,-123.73 393.07,-124.11"/>
</g>
<!-- 15&#45;&gt;4 -->
<!-- 16 -->
<g id="node16" class="node">
<title>16</title>
<text text-anchor="middle" x="510.15" y="-122.3" font-family="Times,serif" font-size="14.00" fill="#7570b3">🗒 5 </text>
</g>
<!-- 15&#45;&gt;16 -->
<g id="edge26" class="edge">
<title>15&#45;&gt;16</title>
<path fill="none" stroke="#7570b3" d="M447.55,-125.3C458.79,-125.43 471.87,-125.58 483.07,-125.7"/>
</g>
<!-- 16&#45;&gt;5 -->
<!-- 17 -->
<g id="node17" class="node">
<title>17</title>
<text text-anchor="middle" x="600.15" y="-239.3" font-family="Times,serif" font-size="14.00" fill="#7570b3">🗒 6 </text>
</g>
<!-- 16&#45;&gt;17 -->
<g id="edge28" class="edge">
<title>16&#45;&gt;17</title>
<path fill="none" stroke="#7570b3" d="M526.68,-144.3C530.23,-148.71 533.91,-153.45 537.15,-158 554.75,-182.71 554.52,-192.05 573.15,-216 575.47,-218.98 578.07,-221.99 580.71,-224.88"/>
</g>
<!-- 17&#45;&gt;6 -->
<!-- 18 -->
<g id="node18" class="node">
<title>18</title>
<text text-anchor="middle" x="748.65" y="-295.3" font-family="Times,serif" font-size="14.00" fill="#7570b3">🗒 7 </text>
</g>
<!-- 17&#45;&gt;18 -->
<g id="edge30" class="edge">
<title>17&#45;&gt;18</title>
<path fill="none" stroke="#7570b3" d="M627.34,-253.01C653.84,-263.14 694.6,-278.72 721.19,-288.89"/>
</g>
<!-- 18&#45;&gt;7 -->
<!-- 19 -->
<g id="node19" class="node">
<title>19</title>
<text text-anchor="middle" x="106.15" y="-139.3" font-family="Times,serif" font-size="14.00" fill="#e7298a">💹 sample1#2#0#0 &#160;1 </text>
</g>
<!-- 19&#45;&gt;1 -->
<!-- 20 -->
<g id="node20" class="node">
<title>20</title>
<text text-anchor="middle" x="420.15" y="-65.3" font-family="Times,serif" font-size="14.00" fill="#e7298a">💹 4 </text>
</g>
<!-- 19&#45;&gt;20 -->
<g id="edge33" class="edge">
<title>19&#45;&gt;20</title>
<path fill="none" stroke="#e7298a" d="M144.12,-124.99C164.13,-115.93 189.52,-105.51 213.15,-99 276.39,-81.56 353.5,-73.77 393.03,-70.71"/>
</g>
<!-- 20&#45;&gt;4 -->
<!-- 21 -->
<g id="node21" class="node">
<title>21</title>
<text text-anchor="middle" x="510.15" y="-68.3" font-family="Times,serif" font-size="14.00" fill="#e7298a">💹 5 </text>
</g>
<!-- 20&#45;&gt;21 -->
<g id="edge35" class="edge">
<title>20&#45;&gt;21</title>
<path fill="none" stroke="#e7298a" d="M447.55,-69.9C458.79,-70.28 471.87,-70.73 483.07,-71.11"/>
</g>
<!-- 21&#45;&gt;5 -->
<!-- 22 -->
<g id="node22" class="node">
<title>22</title>
<text text-anchor="middle" x="600.15" y="-185.3" font-family="Times,serif" font-size="14.00" fill="#e7298a">💹 6 </text>
</g>
<!-- 21&#45;&gt;22 -->
<g id="edge37" class="edge">
<title>21&#45;&gt;22</title>
<path fill="none" stroke="#e7298a" d="M529.69,-90.05C532.32,-92.94 534.89,-95.98 537.15,-99 556.48,-124.81 553.82,-136.19 573.15,-162 575.41,-165.02 577.98,-168.06 580.61,-170.95"/>
</g>
<!-- 22&#45;&gt;6 -->
<!-- 23 -->
<g id="node23" class="node">
<title>23</title>
<text text-anchor="middle" x="748.65" y="-233.3" font-family="Times,serif" font-size="14.00" fill="#e7298a">💹 7 </text>
</g>
<!-- 22&#45;&gt;23 -->
<g id="edge39" class="edge">
<title>22&#45;&gt;23</title>
<path fill="none" stroke="#e7298a" d="M627.34,-197.58C653.84,-206.26 694.6,-219.62 721.19,-228.33"/>
</g>
<!-- 23&#45;&gt;7 -->
</g>
</svg>
