<?xml version="1.0" encoding="UTF-8" standalone="no"?>
<!DOCTYPE svg PUBLIC "-//W3C//DTD SVG 1.1//EN"
 "http://www.w3.org/Graphics/SVG/1.1/DTD/svg11.dtd">
<!-- Generated by graphviz version 2.43.0 (0)
 -->
<!-- Title: graphname Pages: 1 -->
<svg width="198pt" height="304pt"
 viewBox="0.00 0.00 198.00 304.00" xmlns="http://www.w3.org/2000/svg" xmlns:xlink="http://www.w3.org/1999/xlink">
<g id="graph0" class="graph" transform="scale(1 1) rotate(0) translate(4 300)">
<title>graphname</title>
<polygon fill="white" stroke="transparent" points="-4,4 -4,-300 194,-300 194,4 -4,4"/>
<!-- chain_5fd__5fdtraversing_start__end -->
<g id="node1" class="node">
<title>chain_5fd__5fdtraversing_start__end</title>
<polygon fill="lightskyblue" stroke="transparent" points="111.5,-224 65.5,-224 65.5,-195 111.5,-195 111.5,-224"/>
<polygon fill="none" stroke="black" stroke-width="2" points="66.5,-195.5 66.5,-222.5 110.5,-222.5 110.5,-195.5 66.5,-195.5"/>
<text text-anchor="start" x="72.5" y="-205.3" font-family="Times,serif" font-size="14.00">5 to 5</text>
</g>
<!-- node_5fd -->
<g id="node3" class="node">
<title>node_5fd</title>
<polygon fill="#e5e5e5" stroke="transparent" points="21,-159 0,-159 0,-130 21,-130 21,-159"/>
<polygon fill="none" stroke="black" stroke-width="2" points="1.5,-130.5 1.5,-157.5 20.5,-157.5 20.5,-130.5 1.5,-130.5"/>
<text text-anchor="start" x="7.5" y="-140.3" font-family="Times,serif" font-size="14.00">5</text>
</g>
<!-- chain_5fd__5fdtraversing_start__end&#45;&gt;node_5fd -->
<g id="edge2" class="edge">
<title>chain_5fd__5fdtraversing_start__end&#45;&gt;node_5fd</title>
<path fill="none" stroke="black" stroke-width="2" d="M71.58,-194.83C59.08,-184.74 42.07,-171 29.18,-160.59"/>
<polygon fill="black" stroke="black" stroke-width="2" points="31.37,-157.86 21.39,-154.3 26.97,-163.3 31.37,-157.86"/>
</g>
<!-- snarl_5fd__2fdtraversing_start__end -->
<g id="node4" class="node">
<title>snarl_5fd__2fdtraversing_start__end</title>
<polygon fill="lightcoral" stroke="transparent" points="85.5,-159 39.5,-159 39.5,-130 85.5,-130 85.5,-159"/>
<polygon fill="none" stroke="black" stroke-width="2" points="40.5,-130.5 40.5,-157.5 84.5,-157.5 84.5,-130.5 40.5,-130.5"/>
<text text-anchor="start" x="46.5" y="-140.3" font-family="Times,serif" font-size="14.00">5 to 2</text>
</g>
<!-- chain_5fd__5fdtraversing_start__end&#45;&gt;snarl_5fd__2fdtraversing_start__end -->
<g id="edge3" class="edge">
<title>chain_5fd__5fdtraversing_start__end&#45;&gt;snarl_5fd__2fdtraversing_start__end</title>
<path fill="none" stroke="black" stroke-width="2" d="M82.86,-194.83C79.69,-187.15 75.65,-177.37 72.01,-168.54"/>
<polygon fill="black" stroke="black" stroke-width="2" points="75.18,-167.05 68.13,-159.14 68.71,-169.72 75.18,-167.05"/>
</g>
<!-- node_2fd -->
<g id="node9" class="node">
<title>node_2fd</title>
<polygon fill="#e5e5e5" stroke="transparent" points="125,-159 104,-159 104,-130 125,-130 125,-159"/>
<polygon fill="none" stroke="black" stroke-width="2" points="105.5,-130.5 105.5,-157.5 124.5,-157.5 124.5,-130.5 105.5,-130.5"/>
<text text-anchor="start" x="111.5" y="-140.3" font-family="Times,serif" font-size="14.00">2</text>
</g>
<!-- chain_5fd__5fdtraversing_start__end&#45;&gt;node_2fd -->
<g id="edge8" class="edge">
<title>chain_5fd__5fdtraversing_start__end&#45;&gt;node_2fd</title>
<path fill="none" stroke="black" stroke-width="2" d="M94.14,-194.83C97.31,-187.15 101.35,-177.37 104.99,-168.54"/>
<polygon fill="black" stroke="black" stroke-width="2" points="108.29,-169.72 108.87,-159.14 101.82,-167.05 108.29,-169.72"/>
</g>
<!-- simple_snarl_2fd__5fdtraversing_start__end -->
<g id="node10" class="node">
<title>simple_snarl_2fd__5fdtraversing_start__end</title>
<polygon fill="lightcoral" stroke="transparent" points="189.5,-159 143.5,-159 143.5,-130 189.5,-130 189.5,-159"/>
<polygon fill="none" stroke="black" stroke-width="2" points="144.5,-130.5 144.5,-157.5 188.5,-157.5 188.5,-130.5 144.5,-130.5"/>
<text text-anchor="start" x="150.5" y="-140.3" font-family="Times,serif" font-size="14.00">2 to 5</text>
</g>
<!-- chain_5fd__5fdtraversing_start__end&#45;&gt;simple_snarl_2fd__5fdtraversing_start__end -->
<g id="edge9" class="edge">
<title>chain_5fd__5fdtraversing_start__end&#45;&gt;simple_snarl_2fd__5fdtraversing_start__end</title>
<path fill="none" stroke="black" stroke-width="2" d="M105.42,-194.83C116.05,-186.24 129.95,-175.02 141.8,-165.45"/>
<polygon fill="black" stroke="black" stroke-width="2" points="144.03,-168.15 149.61,-159.14 139.63,-162.7 144.03,-168.15"/>
</g>
<!-- root -->
<g id="node2" class="node">
<title>root</title>
<polygon fill="lightgrey" stroke="transparent" points="115.5,-296 61.5,-296 61.5,-260 115.5,-260 115.5,-296"/>
<text text-anchor="middle" x="88.5" y="-274.3" font-family="Times,serif" font-size="14.00">root</text>
</g>
<!-- root&#45;&gt;chain_5fd__5fdtraversing_start__end -->
<g id="edge1" class="edge">
<title>root&#45;&gt;chain_5fd__5fdtraversing_start__end</title>
<path fill="none" stroke="black" stroke-width="2" d="M88.5,-259.87C88.5,-252.08 88.5,-242.73 88.5,-234.27"/>
<polygon fill="black" stroke="black" stroke-width="2" points="92,-234.22 88.5,-224.22 85,-234.22 92,-234.22"/>
</g>
<!-- node_1fd_pretending_to_be_a_chain -->
<g id="node5" class="node">
<title>node_1fd_pretending_to_be_a_chain</title>
<polygon fill="lightskyblue" stroke="transparent" points="60,-94 39,-94 39,-65 60,-65 60,-94"/>
<polygon fill="none" stroke="black" stroke-width="2" points="40.5,-65.5 40.5,-92.5 59.5,-92.5 59.5,-65.5 40.5,-65.5"/>
<text text-anchor="start" x="46.5" y="-75.3" font-family="Times,serif" font-size="14.00">1</text>
</g>
<!-- snarl_5fd__2fdtraversing_start__end&#45;&gt;node_1fd_pretending_to_be_a_chain -->
<g id="edge4" class="edge">
<title>snarl_5fd__2fdtraversing_start__end&#45;&gt;node_1fd_pretending_to_be_a_chain</title>
<path fill="none" stroke="black" stroke-width="2" d="M59.68,-129.83C58.13,-122.32 56.16,-112.79 54.37,-104.11"/>
<polygon fill="black" stroke="black" stroke-width="2" points="57.76,-103.23 52.32,-94.14 50.91,-104.64 57.76,-103.23"/>
</g>
<!-- node_6fd_pretending_to_be_a_chain -->
<g id="node7" class="node">
<title>node_6fd_pretending_to_be_a_chain</title>
<polygon fill="lightskyblue" stroke="transparent" points="99,-94 78,-94 78,-65 99,-65 99,-94"/>
<polygon fill="none" stroke="black" stroke-width="2" points="79.5,-65.5 79.5,-92.5 98.5,-92.5 98.5,-65.5 79.5,-65.5"/>
<text text-anchor="start" x="85.5" y="-75.3" font-family="Times,serif" font-size="14.00">6</text>
</g>
<!-- snarl_5fd__2fdtraversing_start__end&#45;&gt;node_6fd_pretending_to_be_a_chain -->
<g id="edge6" class="edge">
<title>snarl_5fd__2fdtraversing_start__end&#45;&gt;node_6fd_pretending_to_be_a_chain</title>
<path fill="none" stroke="black" stroke-width="2" d="M68.14,-129.83C71.31,-122.15 75.35,-112.37 78.99,-103.54"/>
<polygon fill="black" stroke="black" stroke-width="2" points="82.29,-104.72 82.87,-94.14 75.82,-102.05 82.29,-104.72"/>
</g>
<!-- node_1fd -->
<g id="node6" class="node">
<title>node_1fd</title>
<polygon fill="#e5e5e5" stroke="transparent" points="60,-29 39,-29 39,0 60,0 60,-29"/>
<polygon fill="none" stroke="black" stroke-width="2" points="40.5,-0.5 40.5,-27.5 59.5,-27.5 59.5,-0.5 40.5,-0.5"/>
<text text-anchor="start" x="46.5" y="-10.3" font-family="Times,serif" font-size="14.00">1</text>
</g>
<!-- node_1fd_pretending_to_be_a_chain&#45;&gt;node_1fd -->
<g id="edge5" class="edge">
<title>node_1fd_pretending_to_be_a_chain&#45;&gt;node_1fd</title>
<path fill="none" stroke="black" stroke-width="2" d="M49.5,-64.83C49.5,-57.4 49.5,-48 49.5,-39.4"/>
<polygon fill="black" stroke="black" stroke-width="2" points="53,-39.14 49.5,-29.14 46,-39.14 53,-39.14"/>
</g>
<!-- node_6fd -->
<g id="node8" class="node">
<title>node_6fd</title>
<polygon fill="#e5e5e5" stroke="transparent" points="99,-29 78,-29 78,0 99,0 99,-29"/>
<polygon fill="none" stroke="black" stroke-width="2" points="79.5,-0.5 79.5,-27.5 98.5,-27.5 98.5,-0.5 79.5,-0.5"/>
<text text-anchor="start" x="85.5" y="-10.3" font-family="Times,serif" font-size="14.00">6</text>
</g>
<!-- node_6fd_pretending_to_be_a_chain&#45;&gt;node_6fd -->
<g id="edge7" class="edge">
<title>node_6fd_pretending_to_be_a_chain&#45;&gt;node_6fd</title>
<path fill="none" stroke="black" stroke-width="2" d="M88.5,-64.83C88.5,-57.4 88.5,-48 88.5,-39.4"/>
<polygon fill="black" stroke="black" stroke-width="2" points="92,-39.14 88.5,-29.14 85,-39.14 92,-39.14"/>
</g>
<!-- node_4fd_pretending_to_be_a_chain_in_a_simple_snarl -->
<g id="node11" class="node">
<title>node_4fd_pretending_to_be_a_chain_in_a_simple_snarl</title>
<polygon fill="lightskyblue" stroke="transparent" points="151,-94 130,-94 130,-65 151,-65 151,-94"/>
<polygon fill="none" stroke="black" stroke-width="2" points="131.5,-65.5 131.5,-92.5 150.5,-92.5 150.5,-65.5 131.5,-65.5"/>
<text text-anchor="start" x="137.5" y="-75.3" font-family="Times,serif" font-size="14.00">4</text>
</g>
<!-- simple_snarl_2fd__5fdtraversing_start__end&#45;&gt;node_4fd_pretending_to_be_a_chain_in_a_simple_snarl -->
<g id="edge10" class="edge">
<title>simple_snarl_2fd__5fdtraversing_start__end&#45;&gt;node_4fd_pretending_to_be_a_chain_in_a_simple_snarl</title>
<path fill="none" stroke="black" stroke-width="2" d="M160.86,-129.83C157.69,-122.15 153.65,-112.37 150.01,-103.54"/>
<polygon fill="black" stroke="black" stroke-width="2" points="153.18,-102.05 146.13,-94.14 146.71,-104.72 153.18,-102.05"/>
</g>
<!-- node_3fd_pretending_to_be_a_chain_in_a_simple_snarl -->
<g id="node13" class="node">
<title>node_3fd_pretending_to_be_a_chain_in_a_simple_snarl</title>
<polygon fill="lightskyblue" stroke="transparent" points="190,-94 169,-94 169,-65 190,-65 190,-94"/>
<polygon fill="none" stroke="black" stroke-width="2" points="170.5,-65.5 170.5,-92.5 189.5,-92.5 189.5,-65.5 170.5,-65.5"/>
<text text-anchor="start" x="176.5" y="-75.3" font-family="Times,serif" font-size="14.00">3</text>
</g>
<!-- simple_snarl_2fd__5fdtraversing_start__end&#45;&gt;node_3fd_pretending_to_be_a_chain_in_a_simple_snarl -->
<g id="edge12" class="edge">
<title>simple_snarl_2fd__5fdtraversing_start__end&#45;&gt;node_3fd_pretending_to_be_a_chain_in_a_simple_snarl</title>
<path fill="none" stroke="black" stroke-width="2" d="M169.32,-129.83C170.87,-122.32 172.84,-112.79 174.63,-104.11"/>
<polygon fill="black" stroke="black" stroke-width="2" points="178.09,-104.64 176.68,-94.14 171.24,-103.23 178.09,-104.64"/>
</g>
<!-- node_4fd -->
<g id="node12" class="node">
<title>node_4fd</title>
<polygon fill="#e5e5e5" stroke="transparent" points="151,-29 130,-29 130,0 151,0 151,-29"/>
<polygon fill="none" stroke="black" stroke-width="2" points="131.5,-0.5 131.5,-27.5 150.5,-27.5 150.5,-0.5 131.5,-0.5"/>
<text text-anchor="start" x="137.5" y="-10.3" font-family="Times,serif" font-size="14.00">4</text>
</g>
<!-- node_4fd_pretending_to_be_a_chain_in_a_simple_snarl&#45;&gt;node_4fd -->
<g id="edge11" class="edge">
<title>node_4fd_pretending_to_be_a_chain_in_a_simple_snarl&#45;&gt;node_4fd</title>
<path fill="none" stroke="black" stroke-width="2" d="M140.5,-64.83C140.5,-57.4 140.5,-48 140.5,-39.4"/>
<polygon fill="black" stroke="black" stroke-width="2" points="144,-39.14 140.5,-29.14 137,-39.14 144,-39.14"/>
</g>
<!-- node_3fd -->
<g id="node14" class="node">
<title>node_3fd</title>
<polygon fill="#e5e5e5" stroke="transparent" points="190,-29 169,-29 169,0 190,0 190,-29"/>
<polygon fill="none" stroke="black" stroke-width="2" points="170.5,-0.5 170.5,-27.5 189.5,-27.5 189.5,-0.5 170.5,-0.5"/>
<text text-anchor="start" x="176.5" y="-10.3" font-family="Times,serif" font-size="14.00">3</text>
</g>
<!-- node_3fd_pretending_to_be_a_chain_in_a_simple_snarl&#45;&gt;node_3fd -->
<g id="edge13" class="edge">
<title>node_3fd_pretending_to_be_a_chain_in_a_simple_snarl&#45;&gt;node_3fd</title>
<path fill="none" stroke="black" stroke-width="2" d="M179.5,-64.83C179.5,-57.4 179.5,-48 179.5,-39.4"/>
<polygon fill="black" stroke="black" stroke-width="2" points="183,-39.14 179.5,-29.14 176,-39.14 183,-39.14"/>
</g>
</g>
</svg>
