<?xml version="1.0" encoding="UTF-8" standalone="no"?>
<!DOCTYPE svg PUBLIC "-//W3C//DTD SVG 1.1//EN"
 "http://www.w3.org/Graphics/SVG/1.1/DTD/svg11.dtd">
<!-- Generated by graphviz version 2.43.0 (0)
 -->
<!-- Title: graphname Pages: 1 -->
<svg width="248pt" height="304pt"
 viewBox="0.00 0.00 248.00 304.00" xmlns="http://www.w3.org/2000/svg" xmlns:xlink="http://www.w3.org/1999/xlink">
<g id="graph0" class="graph" transform="scale(1 1) rotate(0) translate(4 300)">
<title>graphname</title>
<polygon fill="white" stroke="transparent" points="-4,4 -4,-300 244,-300 244,4 -4,4"/>
<!-- chain_3rev__3revtraversing_start__end -->
<g id="node1" class="node">
<title>chain_3rev__3revtraversing_start__end</title>
<polygon fill="lightskyblue" stroke="transparent" points="159,-224 78,-224 78,-195 159,-195 159,-224"/>
<polygon fill="none" stroke="black" stroke-width="2" points="79.5,-195.5 79.5,-222.5 158.5,-222.5 158.5,-195.5 79.5,-195.5"/>
<text text-anchor="start" x="85.5" y="-205.3" font-family="Times,serif" font-size="14.00">3rev to 3rev</text>
</g>
<!-- node_3rev -->
<g id="node3" class="node">
<title>node_3rev</title>
<polygon fill="#e5e5e5" stroke="transparent" points="39,-159 0,-159 0,-130 39,-130 39,-159"/>
<polygon fill="none" stroke="black" stroke-width="2" points="1.5,-130.5 1.5,-157.5 38.5,-157.5 38.5,-130.5 1.5,-130.5"/>
<text text-anchor="start" x="7.5" y="-140.3" font-family="Times,serif" font-size="14.00">3rev</text>
</g>
<!-- chain_3rev__3revtraversing_start__end&#45;&gt;node_3rev -->
<g id="edge2" class="edge">
<title>chain_3rev__3revtraversing_start__end&#45;&gt;node_3rev</title>
<path fill="none" stroke="black" stroke-width="2" d="M97.02,-194.83C82.66,-185.69 63.62,-173.57 48,-163.63"/>
<polygon fill="black" stroke="black" stroke-width="2" points="49.57,-160.49 39.26,-158.07 45.81,-166.39 49.57,-160.49"/>
</g>
<!-- snarl_3rev__4fdtraversing_start__end -->
<g id="node4" class="node">
<title>snarl_3rev__4fdtraversing_start__end</title>
<polygon fill="lightcoral" stroke="transparent" points="120,-159 57,-159 57,-130 120,-130 120,-159"/>
<polygon fill="none" stroke="black" stroke-width="2" points="58.5,-130.5 58.5,-157.5 119.5,-157.5 119.5,-130.5 58.5,-130.5"/>
<text text-anchor="start" x="64.5" y="-140.3" font-family="Times,serif" font-size="14.00">3rev to 4</text>
</g>
<!-- chain_3rev__3revtraversing_start__end&#45;&gt;snarl_3rev__4fdtraversing_start__end -->
<g id="edge3" class="edge">
<title>chain_3rev__3revtraversing_start__end&#45;&gt;snarl_3rev__4fdtraversing_start__end</title>
<path fill="none" stroke="black" stroke-width="2" d="M111.99,-194.83C108.3,-187.07 103.57,-177.16 99.34,-168.26"/>
<polygon fill="black" stroke="black" stroke-width="2" points="102.46,-166.67 95,-159.14 96.14,-169.68 102.46,-166.67"/>
</g>
<!-- node_4fd -->
<g id="node8" class="node">
<title>node_4fd</title>
<polygon fill="#e5e5e5" stroke="transparent" points="159,-159 138,-159 138,-130 159,-130 159,-159"/>
<polygon fill="none" stroke="black" stroke-width="2" points="139.5,-130.5 139.5,-157.5 158.5,-157.5 158.5,-130.5 139.5,-130.5"/>
<text text-anchor="start" x="145.5" y="-140.3" font-family="Times,serif" font-size="14.00">4</text>
</g>
<!-- chain_3rev__3revtraversing_start__end&#45;&gt;node_4fd -->
<g id="edge7" class="edge">
<title>chain_3rev__3revtraversing_start__end&#45;&gt;node_4fd</title>
<path fill="none" stroke="black" stroke-width="2" d="M125.01,-194.83C128.7,-187.07 133.43,-177.16 137.66,-168.26"/>
<polygon fill="black" stroke="black" stroke-width="2" points="140.86,-169.68 142,-159.14 134.54,-166.67 140.86,-169.68"/>
</g>
<!-- snarl_4fd__3revtraversing_start__end -->
<g id="node9" class="node">
<title>snarl_4fd__3revtraversing_start__end</title>
<polygon fill="lightcoral" stroke="transparent" points="240,-159 177,-159 177,-130 240,-130 240,-159"/>
<polygon fill="none" stroke="black" stroke-width="2" points="178.5,-130.5 178.5,-157.5 239.5,-157.5 239.5,-130.5 178.5,-130.5"/>
<text text-anchor="start" x="184.5" y="-140.3" font-family="Times,serif" font-size="14.00">4 to 3rev</text>
</g>
<!-- chain_3rev__3revtraversing_start__end&#45;&gt;snarl_4fd__3revtraversing_start__end -->
<g id="edge8" class="edge">
<title>chain_3rev__3revtraversing_start__end&#45;&gt;snarl_4fd__3revtraversing_start__end</title>
<path fill="none" stroke="black" stroke-width="2" d="M138.03,-194.83C150.53,-186.08 166.94,-174.59 180.78,-164.9"/>
<polygon fill="black" stroke="black" stroke-width="2" points="182.82,-167.75 189.01,-159.14 178.81,-162.01 182.82,-167.75"/>
</g>
<!-- root -->
<g id="node2" class="node">
<title>root</title>
<polygon fill="lightgrey" stroke="transparent" points="145.5,-296 91.5,-296 91.5,-260 145.5,-260 145.5,-296"/>
<text text-anchor="middle" x="118.5" y="-274.3" font-family="Times,serif" font-size="14.00">root</text>
</g>
<!-- root&#45;&gt;chain_3rev__3revtraversing_start__end -->
<g id="edge1" class="edge">
<title>root&#45;&gt;chain_3rev__3revtraversing_start__end</title>
<path fill="none" stroke="black" stroke-width="2" d="M118.5,-259.87C118.5,-252.08 118.5,-242.73 118.5,-234.27"/>
<polygon fill="black" stroke="black" stroke-width="2" points="122,-234.22 118.5,-224.22 115,-234.22 122,-234.22"/>
</g>
<!-- chain_2rev__1revtraversing_start__end -->
<g id="node5" class="node">
<title>chain_2rev__1revtraversing_start__end</title>
<polygon fill="lightskyblue" stroke="transparent" points="129,-94 48,-94 48,-65 129,-65 129,-94"/>
<polygon fill="none" stroke="black" stroke-width="2" points="49.5,-65.5 49.5,-92.5 128.5,-92.5 128.5,-65.5 49.5,-65.5"/>
<text text-anchor="start" x="55.5" y="-75.3" font-family="Times,serif" font-size="14.00">2rev to 1rev</text>
</g>
<!-- snarl_3rev__4fdtraversing_start__end&#45;&gt;chain_2rev__1revtraversing_start__end -->
<g id="edge4" class="edge">
<title>snarl_3rev__4fdtraversing_start__end&#45;&gt;chain_2rev__1revtraversing_start__end</title>
<path fill="none" stroke="black" stroke-width="2" d="M88.5,-129.83C88.5,-122.4 88.5,-113 88.5,-104.4"/>
<polygon fill="black" stroke="black" stroke-width="2" points="92,-104.14 88.5,-94.14 85,-104.14 92,-104.14"/>
</g>
<!-- node_2rev -->
<g id="node6" class="node">
<title>node_2rev</title>
<polygon fill="#e5e5e5" stroke="transparent" points="80,-29 41,-29 41,0 80,0 80,-29"/>
<polygon fill="none" stroke="black" stroke-width="2" points="42.5,-0.5 42.5,-27.5 79.5,-27.5 79.5,-0.5 42.5,-0.5"/>
<text text-anchor="start" x="48.5" y="-10.3" font-family="Times,serif" font-size="14.00">2rev</text>
</g>
<!-- chain_2rev__1revtraversing_start__end&#45;&gt;node_2rev -->
<g id="edge5" class="edge">
<title>chain_2rev__1revtraversing_start__end&#45;&gt;node_2rev</title>
<path fill="none" stroke="black" stroke-width="2" d="M82.42,-64.83C79.01,-57.15 74.66,-47.37 70.74,-38.54"/>
<polygon fill="black" stroke="black" stroke-width="2" points="73.82,-36.86 66.56,-29.14 67.43,-39.7 73.82,-36.86"/>
</g>
<!-- node_1rev -->
<g id="node7" class="node">
<title>node_1rev</title>
<polygon fill="#e5e5e5" stroke="transparent" points="137,-29 98,-29 98,0 137,0 137,-29"/>
<polygon fill="none" stroke="black" stroke-width="2" points="99.5,-0.5 99.5,-27.5 136.5,-27.5 136.5,-0.5 99.5,-0.5"/>
<text text-anchor="start" x="105.5" y="-10.3" font-family="Times,serif" font-size="14.00">1rev</text>
</g>
<!-- chain_2rev__1revtraversing_start__end&#45;&gt;node_1rev -->
<g id="edge6" class="edge">
<title>chain_2rev__1revtraversing_start__end&#45;&gt;node_1rev</title>
<path fill="none" stroke="black" stroke-width="2" d="M94.79,-64.83C98.36,-57.07 102.93,-47.16 107.03,-38.26"/>
<polygon fill="black" stroke="black" stroke-width="2" points="110.22,-39.69 111.22,-29.14 103.86,-36.76 110.22,-39.69"/>
</g>
<!-- chain_5fd__6fdtraversing_start__end -->
<g id="node10" class="node">
<title>chain_5fd__6fdtraversing_start__end</title>
<polygon fill="lightskyblue" stroke="transparent" points="231.5,-94 185.5,-94 185.5,-65 231.5,-65 231.5,-94"/>
<polygon fill="none" stroke="black" stroke-width="2" points="186.5,-65.5 186.5,-92.5 230.5,-92.5 230.5,-65.5 186.5,-65.5"/>
<text text-anchor="start" x="192.5" y="-75.3" font-family="Times,serif" font-size="14.00">5 to 6</text>
</g>
<!-- snarl_4fd__3revtraversing_start__end&#45;&gt;chain_5fd__6fdtraversing_start__end -->
<g id="edge9" class="edge">
<title>snarl_4fd__3revtraversing_start__end&#45;&gt;chain_5fd__6fdtraversing_start__end</title>
<path fill="none" stroke="black" stroke-width="2" d="M208.5,-129.83C208.5,-122.4 208.5,-113 208.5,-104.4"/>
<polygon fill="black" stroke="black" stroke-width="2" points="212,-104.14 208.5,-94.14 205,-104.14 212,-104.14"/>
</g>
<!-- node_5fd -->
<g id="node11" class="node">
<title>node_5fd</title>
<polygon fill="#e5e5e5" stroke="transparent" points="200,-29 179,-29 179,0 200,0 200,-29"/>
<polygon fill="none" stroke="black" stroke-width="2" points="180.5,-0.5 180.5,-27.5 199.5,-27.5 199.5,-0.5 180.5,-0.5"/>
<text text-anchor="start" x="186.5" y="-10.3" font-family="Times,serif" font-size="14.00">5</text>
</g>
<!-- chain_5fd__6fdtraversing_start__end&#45;&gt;node_5fd -->
<g id="edge10" class="edge">
<title>chain_5fd__6fdtraversing_start__end&#45;&gt;node_5fd</title>
<path fill="none" stroke="black" stroke-width="2" d="M204.38,-64.83C202.09,-57.23 199.17,-47.58 196.53,-38.82"/>
<polygon fill="black" stroke="black" stroke-width="2" points="199.85,-37.71 193.61,-29.14 193.15,-39.73 199.85,-37.71"/>
</g>
<!-- node_6fd -->
<g id="node12" class="node">
<title>node_6fd</title>
<polygon fill="#e5e5e5" stroke="transparent" points="239,-29 218,-29 218,0 239,0 239,-29"/>
<polygon fill="none" stroke="black" stroke-width="2" points="219.5,-0.5 219.5,-27.5 238.5,-27.5 238.5,-0.5 219.5,-0.5"/>
<text text-anchor="start" x="225.5" y="-10.3" font-family="Times,serif" font-size="14.00">6</text>
</g>
<!-- chain_5fd__6fdtraversing_start__end&#45;&gt;node_6fd -->
<g id="edge11" class="edge">
<title>chain_5fd__6fdtraversing_start__end&#45;&gt;node_6fd</title>
<path fill="none" stroke="black" stroke-width="2" d="M212.84,-64.83C215.25,-57.23 218.32,-47.58 221.1,-38.82"/>
<polygon fill="black" stroke="black" stroke-width="2" points="224.48,-39.73 224.17,-29.14 217.81,-37.62 224.48,-39.73"/>
</g>
</g>
</svg>
