<?xml version="1.0" encoding="UTF-8" standalone="no"?>
<!DOCTYPE svg PUBLIC "-//W3C//DTD SVG 1.1//EN"
 "http://www.w3.org/Graphics/SVG/1.1/DTD/svg11.dtd">
<!-- Generated by graphviz version 2.43.0 (0)
 -->
<!-- Title: graphname Pages: 1 -->
<svg width="133pt" height="434pt"
 viewBox="0.00 0.00 133.00 434.00" xmlns="http://www.w3.org/2000/svg" xmlns:xlink="http://www.w3.org/1999/xlink">
<g id="graph0" class="graph" transform="scale(1 1) rotate(0) translate(4 430)">
<title>graphname</title>
<polygon fill="white" stroke="transparent" points="-4,4 -4,-430 129,-430 129,4 -4,4"/>
<!-- chain_1fd__6fdtraversing_start__end -->
<g id="node1" class="node">
<title>chain_1fd__6fdtraversing_start__end</title>
<polygon fill="lightskyblue" stroke="transparent" points="85.5,-354 39.5,-354 39.5,-325 85.5,-325 85.5,-354"/>
<polygon fill="none" stroke="black" stroke-width="2" points="40.5,-325.5 40.5,-352.5 84.5,-352.5 84.5,-325.5 40.5,-325.5"/>
<text text-anchor="start" x="46.5" y="-335.3" font-family="Times,serif" font-size="14.00">1 to 6</text>
</g>
<!-- node_1fd -->
<g id="node3" class="node">
<title>node_1fd</title>
<polygon fill="#e5e5e5" stroke="transparent" points="21,-289 0,-289 0,-260 21,-260 21,-289"/>
<polygon fill="none" stroke="black" stroke-width="2" points="1.5,-260.5 1.5,-287.5 20.5,-287.5 20.5,-260.5 1.5,-260.5"/>
<text text-anchor="start" x="7.5" y="-270.3" font-family="Times,serif" font-size="14.00">1</text>
</g>
<!-- chain_1fd__6fdtraversing_start__end&#45;&gt;node_1fd -->
<g id="edge2" class="edge">
<title>chain_1fd__6fdtraversing_start__end&#45;&gt;node_1fd</title>
<path fill="none" stroke="black" stroke-width="2" d="M51.22,-324.83C44.29,-316.43 35.27,-305.52 27.49,-296.09"/>
<polygon fill="black" stroke="black" stroke-width="2" points="30.12,-293.77 21.05,-288.28 24.72,-298.22 30.12,-293.77"/>
</g>
<!-- snarl_1fd__6fdtraversing_start__end -->
<g id="node4" class="node">
<title>snarl_1fd__6fdtraversing_start__end</title>
<polygon fill="lightcoral" stroke="transparent" points="85.5,-289 39.5,-289 39.5,-260 85.5,-260 85.5,-289"/>
<polygon fill="none" stroke="black" stroke-width="2" points="40.5,-260.5 40.5,-287.5 84.5,-287.5 84.5,-260.5 40.5,-260.5"/>
<text text-anchor="start" x="46.5" y="-270.3" font-family="Times,serif" font-size="14.00">1 to 6</text>
</g>
<!-- chain_1fd__6fdtraversing_start__end&#45;&gt;snarl_1fd__6fdtraversing_start__end -->
<g id="edge3" class="edge">
<title>chain_1fd__6fdtraversing_start__end&#45;&gt;snarl_1fd__6fdtraversing_start__end</title>
<path fill="none" stroke="black" stroke-width="2" d="M62.5,-324.83C62.5,-317.4 62.5,-308 62.5,-299.4"/>
<polygon fill="black" stroke="black" stroke-width="2" points="66,-299.14 62.5,-289.14 59,-299.14 66,-299.14"/>
</g>
<!-- node_6fd -->
<g id="node13" class="node">
<title>node_6fd</title>
<polygon fill="#e5e5e5" stroke="transparent" points="125,-289 104,-289 104,-260 125,-260 125,-289"/>
<polygon fill="none" stroke="black" stroke-width="2" points="105.5,-260.5 105.5,-287.5 124.5,-287.5 124.5,-260.5 105.5,-260.5"/>
<text text-anchor="start" x="111.5" y="-270.3" font-family="Times,serif" font-size="14.00">6</text>
</g>
<!-- chain_1fd__6fdtraversing_start__end&#45;&gt;node_6fd -->
<g id="edge12" class="edge">
<title>chain_1fd__6fdtraversing_start__end&#45;&gt;node_6fd</title>
<path fill="none" stroke="black" stroke-width="2" d="M73.78,-324.83C80.71,-316.43 89.73,-305.52 97.51,-296.09"/>
<polygon fill="black" stroke="black" stroke-width="2" points="100.28,-298.22 103.95,-288.28 94.88,-293.77 100.28,-298.22"/>
</g>
<!-- root -->
<g id="node2" class="node">
<title>root</title>
<polygon fill="lightgrey" stroke="transparent" points="89.5,-426 35.5,-426 35.5,-390 89.5,-390 89.5,-426"/>
<text text-anchor="middle" x="62.5" y="-404.3" font-family="Times,serif" font-size="14.00">root</text>
</g>
<!-- root&#45;&gt;chain_1fd__6fdtraversing_start__end -->
<g id="edge1" class="edge">
<title>root&#45;&gt;chain_1fd__6fdtraversing_start__end</title>
<path fill="none" stroke="black" stroke-width="2" d="M62.5,-389.87C62.5,-382.08 62.5,-372.73 62.5,-364.27"/>
<polygon fill="black" stroke="black" stroke-width="2" points="66,-364.22 62.5,-354.22 59,-364.22 66,-364.22"/>
</g>
<!-- chain_2fd__5fdtraversing_start__end -->
<g id="node5" class="node">
<title>chain_2fd__5fdtraversing_start__end</title>
<polygon fill="lightskyblue" stroke="transparent" points="85.5,-224 39.5,-224 39.5,-195 85.5,-195 85.5,-224"/>
<polygon fill="none" stroke="black" stroke-width="2" points="40.5,-195.5 40.5,-222.5 84.5,-222.5 84.5,-195.5 40.5,-195.5"/>
<text text-anchor="start" x="46.5" y="-205.3" font-family="Times,serif" font-size="14.00">2 to 5</text>
</g>
<!-- snarl_1fd__6fdtraversing_start__end&#45;&gt;chain_2fd__5fdtraversing_start__end -->
<g id="edge4" class="edge">
<title>snarl_1fd__6fdtraversing_start__end&#45;&gt;chain_2fd__5fdtraversing_start__end</title>
<path fill="none" stroke="black" stroke-width="2" d="M62.5,-259.83C62.5,-252.4 62.5,-243 62.5,-234.4"/>
<polygon fill="black" stroke="black" stroke-width="2" points="66,-234.14 62.5,-224.14 59,-234.14 66,-234.14"/>
</g>
<!-- node_2fd -->
<g id="node6" class="node">
<title>node_2fd</title>
<polygon fill="#e5e5e5" stroke="transparent" points="21,-159 0,-159 0,-130 21,-130 21,-159"/>
<polygon fill="none" stroke="black" stroke-width="2" points="1.5,-130.5 1.5,-157.5 20.5,-157.5 20.5,-130.5 1.5,-130.5"/>
<text text-anchor="start" x="7.5" y="-140.3" font-family="Times,serif" font-size="14.00">2</text>
</g>
<!-- chain_2fd__5fdtraversing_start__end&#45;&gt;node_2fd -->
<g id="edge5" class="edge">
<title>chain_2fd__5fdtraversing_start__end&#45;&gt;node_2fd</title>
<path fill="none" stroke="black" stroke-width="2" d="M51.22,-194.83C44.29,-186.43 35.27,-175.52 27.49,-166.09"/>
<polygon fill="black" stroke="black" stroke-width="2" points="30.12,-163.77 21.05,-158.28 24.72,-168.22 30.12,-163.77"/>
</g>
<!-- simple_snarl_2fd__5fdtraversing_start__end -->
<g id="node7" class="node">
<title>simple_snarl_2fd__5fdtraversing_start__end</title>
<polygon fill="lightcoral" stroke="transparent" points="85.5,-159 39.5,-159 39.5,-130 85.5,-130 85.5,-159"/>
<polygon fill="none" stroke="black" stroke-width="2" points="40.5,-130.5 40.5,-157.5 84.5,-157.5 84.5,-130.5 40.5,-130.5"/>
<text text-anchor="start" x="46.5" y="-140.3" font-family="Times,serif" font-size="14.00">2 to 5</text>
</g>
<!-- chain_2fd__5fdtraversing_start__end&#45;&gt;simple_snarl_2fd__5fdtraversing_start__end -->
<g id="edge6" class="edge">
<title>chain_2fd__5fdtraversing_start__end&#45;&gt;simple_snarl_2fd__5fdtraversing_start__end</title>
<path fill="none" stroke="black" stroke-width="2" d="M62.5,-194.83C62.5,-187.4 62.5,-178 62.5,-169.4"/>
<polygon fill="black" stroke="black" stroke-width="2" points="66,-169.14 62.5,-159.14 59,-169.14 66,-169.14"/>
</g>
<!-- node_5fd -->
<g id="node12" class="node">
<title>node_5fd</title>
<polygon fill="#e5e5e5" stroke="transparent" points="125,-159 104,-159 104,-130 125,-130 125,-159"/>
<polygon fill="none" stroke="black" stroke-width="2" points="105.5,-130.5 105.5,-157.5 124.5,-157.5 124.5,-130.5 105.5,-130.5"/>
<text text-anchor="start" x="111.5" y="-140.3" font-family="Times,serif" font-size="14.00">5</text>
</g>
<!-- chain_2fd__5fdtraversing_start__end&#45;&gt;node_5fd -->
<g id="edge11" class="edge">
<title>chain_2fd__5fdtraversing_start__end&#45;&gt;node_5fd</title>
<path fill="none" stroke="black" stroke-width="2" d="M73.78,-194.83C80.71,-186.43 89.73,-175.52 97.51,-166.09"/>
<polygon fill="black" stroke="black" stroke-width="2" points="100.28,-168.22 103.95,-158.28 94.88,-163.77 100.28,-168.22"/>
</g>
<!-- node_4fd_pretending_to_be_a_chain_in_a_simple_snarl -->
<g id="node8" class="node">
<title>node_4fd_pretending_to_be_a_chain_in_a_simple_snarl</title>
<polygon fill="lightskyblue" stroke="transparent" points="54,-94 33,-94 33,-65 54,-65 54,-94"/>
<polygon fill="none" stroke="black" stroke-width="2" points="34.5,-65.5 34.5,-92.5 53.5,-92.5 53.5,-65.5 34.5,-65.5"/>
<text text-anchor="start" x="40.5" y="-75.3" font-family="Times,serif" font-size="14.00">4</text>
</g>
<!-- simple_snarl_2fd__5fdtraversing_start__end&#45;&gt;node_4fd_pretending_to_be_a_chain_in_a_simple_snarl -->
<g id="edge7" class="edge">
<title>simple_snarl_2fd__5fdtraversing_start__end&#45;&gt;node_4fd_pretending_to_be_a_chain_in_a_simple_snarl</title>
<path fill="none" stroke="black" stroke-width="2" d="M58.38,-129.83C56.09,-122.23 53.17,-112.58 50.53,-103.82"/>
<polygon fill="black" stroke="black" stroke-width="2" points="53.85,-102.71 47.61,-94.14 47.15,-104.73 53.85,-102.71"/>
</g>
<!-- node_3fd_pretending_to_be_a_chain_in_a_simple_snarl -->
<g id="node10" class="node">
<title>node_3fd_pretending_to_be_a_chain_in_a_simple_snarl</title>
<polygon fill="lightskyblue" stroke="transparent" points="93,-94 72,-94 72,-65 93,-65 93,-94"/>
<polygon fill="none" stroke="black" stroke-width="2" points="73.5,-65.5 73.5,-92.5 92.5,-92.5 92.5,-65.5 73.5,-65.5"/>
<text text-anchor="start" x="79.5" y="-75.3" font-family="Times,serif" font-size="14.00">3</text>
</g>
<!-- simple_snarl_2fd__5fdtraversing_start__end&#45;&gt;node_3fd_pretending_to_be_a_chain_in_a_simple_snarl -->
<g id="edge9" class="edge">
<title>simple_snarl_2fd__5fdtraversing_start__end&#45;&gt;node_3fd_pretending_to_be_a_chain_in_a_simple_snarl</title>
<path fill="none" stroke="black" stroke-width="2" d="M66.84,-129.83C69.25,-122.23 72.32,-112.58 75.1,-103.82"/>
<polygon fill="black" stroke="black" stroke-width="2" points="78.48,-104.73 78.17,-94.14 71.81,-102.62 78.48,-104.73"/>
</g>
<!-- node_4fd -->
<g id="node9" class="node">
<title>node_4fd</title>
<polygon fill="#e5e5e5" stroke="transparent" points="54,-29 33,-29 33,0 54,0 54,-29"/>
<polygon fill="none" stroke="black" stroke-width="2" points="34.5,-0.5 34.5,-27.5 53.5,-27.5 53.5,-0.5 34.5,-0.5"/>
<text text-anchor="start" x="40.5" y="-10.3" font-family="Times,serif" font-size="14.00">4</text>
</g>
<!-- node_4fd_pretending_to_be_a_chain_in_a_simple_snarl&#45;&gt;node_4fd -->
<g id="edge8" class="edge">
<title>node_4fd_pretending_to_be_a_chain_in_a_simple_snarl&#45;&gt;node_4fd</title>
<path fill="none" stroke="black" stroke-width="2" d="M43.5,-64.83C43.5,-57.4 43.5,-48 43.5,-39.4"/>
<polygon fill="black" stroke="black" stroke-width="2" points="47,-39.14 43.5,-29.14 40,-39.14 47,-39.14"/>
</g>
<!-- node_3fd -->
<g id="node11" class="node">
<title>node_3fd</title>
<polygon fill="#e5e5e5" stroke="transparent" points="93,-29 72,-29 72,0 93,0 93,-29"/>
<polygon fill="none" stroke="black" stroke-width="2" points="73.5,-0.5 73.5,-27.5 92.5,-27.5 92.5,-0.5 73.5,-0.5"/>
<text text-anchor="start" x="79.5" y="-10.3" font-family="Times,serif" font-size="14.00">3</text>
</g>
<!-- node_3fd_pretending_to_be_a_chain_in_a_simple_snarl&#45;&gt;node_3fd -->
<g id="edge10" class="edge">
<title>node_3fd_pretending_to_be_a_chain_in_a_simple_snarl&#45;&gt;node_3fd</title>
<path fill="none" stroke="black" stroke-width="2" d="M82.5,-64.83C82.5,-57.4 82.5,-48 82.5,-39.4"/>
<polygon fill="black" stroke="black" stroke-width="2" points="86,-39.14 82.5,-29.14 79,-39.14 86,-39.14"/>
</g>
</g>
</svg>
