<?xml version="1.0" encoding="UTF-8" standalone="no"?>
<!DOCTYPE svg PUBLIC "-//W3C//DTD SVG 1.1//EN"
 "http://www.w3.org/Graphics/SVG/1.1/DTD/svg11.dtd">
<!-- Generated by graphviz version 2.43.0 (0)
 -->
<!-- Title: graphname Pages: 1 -->
<svg width="925pt" height="291pt"
 viewBox="0.00 0.00 925.31 291.00" xmlns="http://www.w3.org/2000/svg" xmlns:xlink="http://www.w3.org/1999/xlink">
<g id="graph0" class="graph" transform="scale(1 1) rotate(0) translate(4 287)">
<title>graphname</title>
<polygon fill="white" stroke="transparent" points="-4,4 -4,-287 921.31,-287 921.31,4 -4,4"/>
<!-- 5 -->
<g id="node1" class="node">
<title>5</title>
<polygon fill="none" stroke="black" stroke-width="2" points="419.31,-186 419.31,-213 489.31,-213 489.31,-186 419.31,-186"/>
<text text-anchor="start" x="425.31" y="-195.8" font-family="Times,serif" font-size="14.00">5:CGGTA</text>
</g>
<!-- 7 -->
<g id="node2" class="node">
<title>7</title>
<polygon fill="none" stroke="black" stroke-width="2" points="634.81,-186 634.81,-213 703.81,-213 703.81,-186 634.81,-186"/>
<text text-anchor="start" x="640.81" y="-195.8" font-family="Times,serif" font-size="14.00">7:CGTCA</text>
</g>
<!-- 5&#45;&gt;7 -->
<g id="edge2" class="edge">
<title>5:ne&#45;&gt;7:nw</title>
<path fill="none" stroke="black" stroke-width="2" d="M490.31,-215C490.31,-278.78 633.81,-278.78 633.81,-215"/>
</g>
<!-- 6 -->
<g id="node6" class="node">
<title>6</title>
<polygon fill="none" stroke="black" stroke-width="2" points="527.81,-186 527.81,-213 596.81,-213 596.81,-186 527.81,-186"/>
<text text-anchor="start" x="533.81" y="-195.8" font-family="Times,serif" font-size="14.00">6:ACTAC</text>
</g>
<!-- 5&#45;&gt;6 -->
<g id="edge1" class="edge">
<title>5:ne&#45;&gt;6:nw</title>
<path fill="none" stroke="black" stroke-width="2" d="M490.31,-215C490.31,-231.22 526.81,-231.22 526.81,-215"/>
</g>
<!-- 8 -->
<g id="node3" class="node">
<title>8</title>
<polygon fill="none" stroke="black" stroke-width="2" points="741.31,-157 741.31,-184 811.31,-184 811.31,-157 741.31,-157"/>
<text text-anchor="start" x="747.31" y="-166.8" font-family="Times,serif" font-size="14.00">8:CCAGG</text>
</g>
<!-- 7&#45;&gt;8 -->
<g id="edge3" class="edge">
<title>7:ne&#45;&gt;8:nw</title>
<path fill="none" stroke="black" stroke-width="2" d="M704.81,-215C704.81,-235.37 740.31,-206.37 740.31,-186"/>
</g>
<!-- 9 -->
<g id="node8" class="node">
<title>9</title>
<polygon fill="none" stroke="black" stroke-width="2" points="849.81,-166 849.81,-193 916.81,-193 916.81,-166 849.81,-166"/>
<text text-anchor="start" x="855.81" y="-175.8" font-family="Times,serif" font-size="14.00">9:TGATG</text>
</g>
<!-- 7&#45;&gt;9 -->
<g id="edge4" class="edge">
<title>7:ne&#45;&gt;9:nw</title>
<path fill="none" stroke="black" stroke-width="2" d="M704.81,-215C704.81,-247.31 848.81,-227.31 848.81,-195"/>
</g>
<!-- 8&#45;&gt;9 -->
<g id="edge5" class="edge">
<title>8:ne&#45;&gt;9:nw</title>
<path fill="none" stroke="black" stroke-width="2" d="M812.31,-186C812.31,-202.71 848.81,-211.71 848.81,-195"/>
</g>
<!-- 1 -->
<g id="node4" class="node">
<title>1</title>
<polygon fill="none" stroke="black" stroke-width="2" points="61.31,-147 61.31,-174 130.31,-174 130.31,-147 61.31,-147"/>
<text text-anchor="start" x="67.31" y="-156.8" font-family="Times,serif" font-size="14.00">1:AGGAT</text>
</g>
<!-- 2 -->
<g id="node7" class="node">
<title>2</title>
<polygon fill="none" stroke="black" stroke-width="2" points="203.31,-182 203.31,-209 273.31,-209 273.31,-182 203.31,-182"/>
<text text-anchor="start" x="209.31" y="-191.8" font-family="Times,serif" font-size="14.00">2:GGCAC</text>
</g>
<!-- 1&#45;&gt;2 -->
<g id="edge6" class="edge">
<title>1:ne&#45;&gt;2:nw</title>
<path fill="none" stroke="black" stroke-width="2" d="M131.31,-176C131.31,-193.59 202.31,-228.59 202.31,-211"/>
</g>
<!-- 3 -->
<g id="node9" class="node">
<title>3</title>
<polygon fill="none" stroke="black" stroke-width="2" points="204.31,-135 204.31,-162 272.31,-162 272.31,-135 204.31,-135"/>
<text text-anchor="start" x="210.31" y="-144.8" font-family="Times,serif" font-size="14.00">3:CTTAG</text>
</g>
<!-- 1&#45;&gt;3 -->
<g id="edge7" class="edge">
<title>1:ne&#45;&gt;3:nw</title>
<path fill="none" stroke="black" stroke-width="2" d="M131.31,-176C131.31,-208.44 203.31,-196.44 203.31,-164"/>
</g>
<!-- 4 -->
<g id="node5" class="node">
<title>4</title>
<polygon fill="none" stroke="black" stroke-width="2" points="311.31,-147 311.31,-174 381.31,-174 381.31,-147 311.31,-147"/>
<text text-anchor="start" x="317.31" y="-156.8" font-family="Times,serif" font-size="14.00">4:AAGTC</text>
</g>
<!-- 4&#45;&gt;5 -->
<g id="edge8" class="edge">
<title>4:ne&#45;&gt;5:nw</title>
<path fill="none" stroke="black" stroke-width="2" d="M382.31,-176C382.31,-199.59 418.31,-238.59 418.31,-215"/>
</g>
<!-- 4&#45;&gt;8 -->
<g id="edge9" class="edge">
<title>4:ne&#45;&gt;8:nw</title>
<path fill="none" stroke="black" stroke-width="2" d="M382.31,-176C382.31,-177.12 703.2,-176.86 704.31,-177 720.67,-179.04 740.31,-202.49 740.31,-186"/>
</g>
<!-- 6&#45;&gt;7 -->
<g id="edge10" class="edge">
<title>6:ne&#45;&gt;7:nw</title>
<path fill="none" stroke="black" stroke-width="2" d="M597.81,-215C597.81,-231 633.81,-231 633.81,-215"/>
</g>
<!-- 2&#45;&gt;4 -->
<g id="edge11" class="edge">
<title>2:ne&#45;&gt;4:nw</title>
<path fill="none" stroke="black" stroke-width="2" d="M274.31,-211C274.31,-233.32 310.31,-198.32 310.31,-176"/>
</g>
<!-- 3&#45;&gt;4 -->
<g id="edge12" class="edge">
<title>3:ne&#45;&gt;4:nw</title>
<path fill="none" stroke="black" stroke-width="2" d="M273.31,-164C273.31,-181.29 310.31,-193.29 310.31,-176"/>
</g>
<!-- 10 -->
<g id="node10" class="node">
<title>10</title>
<text text-anchor="middle" x="95.31" y="-231.3" font-family="Times,serif" font-size="14.00" fill="#1b9e77">🗆 ref#0#0 &#160;1 </text>
</g>
<!-- 10&#45;&gt;1 -->
<!-- 11 -->
<g id="node11" class="node">
<title>11</title>
<text text-anchor="middle" x="238.31" y="-243.3" font-family="Times,serif" font-size="14.00" fill="#1b9e77">🗆 2 </text>
</g>
<!-- 10&#45;&gt;11 -->
<g id="edge14" class="edge">
<title>10&#45;&gt;11</title>
<path fill="none" stroke="#1b9e77" d="M140.92,-238.8C164,-240.76 191.37,-243.09 211.04,-244.76"/>
</g>
<!-- 11&#45;&gt;2 -->
<!-- 12 -->
<g id="node12" class="node">
<title>12</title>
<text text-anchor="middle" x="346.31" y="-212.3" font-family="Times,serif" font-size="14.00" fill="#1b9e77">🗆 4 </text>
</g>
<!-- 11&#45;&gt;12 -->
<g id="edge16" class="edge">
<title>11&#45;&gt;12</title>
<path fill="none" stroke="#1b9e77" d="M265.51,-239.34C281.82,-234.57 302.72,-228.46 319.04,-223.68"/>
</g>
<!-- 12&#45;&gt;4 -->
<!-- 13 -->
<g id="node13" class="node">
<title>13</title>
<text text-anchor="middle" x="776.31" y="-261.3" font-family="Times,serif" font-size="14.00" fill="#1b9e77">🗆 8 </text>
</g>
<!-- 12&#45;&gt;13 -->
<g id="edge18" class="edge">
<title>12&#45;&gt;13</title>
<path fill="none" stroke="#1b9e77" d="M373.5,-225.95C407.94,-238.46 470.62,-259.22 526.31,-267 606.8,-278.24 703.36,-271.89 748.97,-267.73"/>
</g>
<!-- 13&#45;&gt;8 -->
<!-- 14 -->
<g id="node14" class="node">
<title>14</title>
<text text-anchor="middle" x="882.81" y="-246.3" font-family="Times,serif" font-size="14.00" fill="#1b9e77">🗆 9 </text>
</g>
<!-- 13&#45;&gt;14 -->
<g id="edge20" class="edge">
<title>13&#45;&gt;14</title>
<path fill="none" stroke="#1b9e77" d="M803.41,-261.25C819.37,-258.96 839.71,-256.04 855.68,-253.75"/>
</g>
<!-- 14&#45;&gt;9 -->
<!-- 15 -->
<g id="node15" class="node">
<title>15</title>
<text text-anchor="middle" x="95.31" y="-52.3" font-family="Times,serif" font-size="14.00" fill="#7570b3">🗒 sample1#1#0#0 &#160;1 </text>
</g>
<!-- 15&#45;&gt;1 -->
<!-- 16 -->
<g id="node16" class="node">
<title>16</title>
<text text-anchor="middle" x="238.31" y="-14.3" font-family="Times,serif" font-size="14.00" fill="#7570b3">🗒 2 </text>
</g>
<!-- 15&#45;&gt;16 -->
<g id="edge23" class="edge">
<title>15&#45;&gt;16</title>
<path fill="none" stroke="#7570b3" d="M163.51,-37.89C180.39,-33.34 197.52,-28.72 211.03,-25.08"/>
</g>
<!-- 16&#45;&gt;2 -->
<!-- 17 -->
<g id="node17" class="node">
<title>17</title>
<text text-anchor="middle" x="346.31" y="-37.3" font-family="Times,serif" font-size="14.00" fill="#7570b3">🗒 4 </text>
</g>
<!-- 16&#45;&gt;17 -->
<g id="edge25" class="edge">
<title>16&#45;&gt;17</title>
<path fill="none" stroke="#7570b3" d="M265.51,-23.69C281.82,-27.22 302.72,-31.76 319.04,-35.3"/>
</g>
<!-- 17&#45;&gt;4 -->
<!-- 18 -->
<g id="node18" class="node">
<title>18</title>
<text text-anchor="middle" x="454.31" y="-46.3" font-family="Times,serif" font-size="14.00" fill="#7570b3">🗒 5 </text>
</g>
<!-- 17&#45;&gt;18 -->
<g id="edge27" class="edge">
<title>17&#45;&gt;18</title>
<path fill="none" stroke="#7570b3" d="M373.51,-43.22C389.82,-44.61 410.72,-46.38 427.04,-47.77"/>
</g>
<!-- 18&#45;&gt;5 -->
<!-- 19 -->
<g id="node19" class="node">
<title>19</title>
<text text-anchor="middle" x="561.81" y="-54.3" font-family="Times,serif" font-size="14.00" fill="#7570b3">🗒 6 </text>
</g>
<!-- 18&#45;&gt;19 -->
<g id="edge29" class="edge">
<title>18&#45;&gt;19</title>
<path fill="none" stroke="#7570b3" d="M481.39,-51.98C497.62,-53.21 518.42,-54.79 534.66,-56.02"/>
</g>
<!-- 19&#45;&gt;6 -->
<!-- 20 -->
<g id="node20" class="node">
<title>20</title>
<text text-anchor="middle" x="668.81" y="-52.3" font-family="Times,serif" font-size="14.00" fill="#7570b3">🗒 7 </text>
</g>
<!-- 19&#45;&gt;20 -->
<g id="edge31" class="edge">
<title>19&#45;&gt;20</title>
<path fill="none" stroke="#7570b3" d="M589.03,-57.5C605.07,-57.2 625.51,-56.81 641.55,-56.5"/>
</g>
<!-- 20&#45;&gt;7 -->
<!-- 21 -->
<g id="node21" class="node">
<title>21</title>
<text text-anchor="middle" x="776.31" y="-63.3" font-family="Times,serif" font-size="14.00" fill="#7570b3">🗒 8 </text>
</g>
<!-- 20&#45;&gt;21 -->
<g id="edge33" class="edge">
<title>20&#45;&gt;21</title>
<path fill="none" stroke="#7570b3" d="M695.89,-58.72C712.12,-60.41 732.92,-62.58 749.16,-64.27"/>
</g>
<!-- 21&#45;&gt;8 -->
<!-- 22 -->
<g id="node22" class="node">
<title>22</title>
<text text-anchor="middle" x="882.81" y="-71.3" font-family="Times,serif" font-size="14.00" fill="#7570b3">🗒 9 </text>
</g>
<!-- 21&#45;&gt;22 -->
<g id="edge35" class="edge">
<title>21&#45;&gt;22</title>
<path fill="none" stroke="#7570b3" d="M803.41,-69C819.37,-70.22 839.71,-71.78 855.68,-73"/>
</g>
<!-- 22&#45;&gt;9 -->
<!-- 23 -->
<g id="node23" class="node">
<title>23</title>
<text text-anchor="middle" x="95.31" y="-106.3" font-family="Times,serif" font-size="14.00" fill="#e7298a">💹 sample1#2#0#0 &#160;1 </text>
</g>
<!-- 23&#45;&gt;1 -->
<!-- 24 -->
<g id="node24" class="node">
<title>24</title>
<text text-anchor="middle" x="238.31" y="-83.3" font-family="Times,serif" font-size="14.00" fill="#e7298a">💹 3 </text>
</g>
<!-- 23&#45;&gt;24 -->
<g id="edge38" class="edge">
<title>23&#45;&gt;24</title>
<path fill="none" stroke="#e7298a" d="M166.4,-98.57C182.43,-95.95 198.49,-93.33 211.27,-91.25"/>
</g>
<!-- 24&#45;&gt;3 -->
<!-- 25 -->
<g id="node25" class="node">
<title>25</title>
<text text-anchor="middle" x="346.31" y="-98.3" font-family="Times,serif" font-size="14.00" fill="#e7298a">💹 4 </text>
</g>
<!-- 24&#45;&gt;25 -->
<g id="edge40" class="edge">
<title>24&#45;&gt;25</title>
<path fill="none" stroke="#e7298a" d="M265.51,-90.71C281.82,-93.02 302.72,-95.97 319.04,-98.28"/>
</g>
<!-- 25&#45;&gt;4 -->
<!-- 26 -->
<g id="node26" class="node">
<title>26</title>
<text text-anchor="middle" x="454.31" y="-105.3" font-family="Times,serif" font-size="14.00" fill="#e7298a">💹 5 </text>
</g>
<!-- 25&#45;&gt;26 -->
<g id="edge42" class="edge">
<title>25&#45;&gt;26</title>
<path fill="none" stroke="#e7298a" d="M373.51,-103.73C389.82,-104.81 410.72,-106.19 427.04,-107.27"/>
</g>
<!-- 26&#45;&gt;5 -->
<!-- 27 -->
<g id="node27" class="node">
<title>27</title>
<text text-anchor="middle" x="668.81" y="-107.3" font-family="Times,serif" font-size="14.00" fill="#e7298a">💹 7 </text>
</g>
<!-- 26&#45;&gt;27 -->
<g id="edge44" class="edge">
<title>26&#45;&gt;27</title>
<path fill="none" stroke="#e7298a" d="M481.37,-109.25C522.15,-109.63 600.62,-110.37 641.54,-110.75"/>
</g>
<!-- 27&#45;&gt;7 -->
<!-- 28 -->
<g id="node28" class="node">
<title>28</title>
<text text-anchor="middle" x="882.81" y="-125.3" font-family="Times,serif" font-size="14.00" fill="#e7298a">💹 9 </text>
</g>
<!-- 27&#45;&gt;28 -->
<g id="edge46" class="edge">
<title>27&#45;&gt;28</title>
<path fill="none" stroke="#e7298a" d="M696.23,-113.24C737.08,-116.71 815.08,-123.33 855.72,-126.78"/>
</g>
<!-- 28&#45;&gt;9 -->
</g>
</svg>
