<?xml version="1.0" encoding="UTF-8" standalone="no"?>
<!DOCTYPE svg PUBLIC "-//W3C//DTD SVG 1.1//EN"
 "http://www.w3.org/Graphics/SVG/1.1/DTD/svg11.dtd">
<!-- Generated by graphviz version 2.43.0 (0)
 -->
<!-- Title: graphname Pages: 1 -->
<svg width="272pt" height="434pt"
 viewBox="0.00 0.00 272.00 434.00" xmlns="http://www.w3.org/2000/svg" xmlns:xlink="http://www.w3.org/1999/xlink">
<g id="graph0" class="graph" transform="scale(1 1) rotate(0) translate(4 430)">
<title>graphname</title>
<polygon fill="white" stroke="transparent" points="-4,4 -4,-430 268,-430 268,4 -4,4"/>
<!-- chain_1fd__9fdtraversing_start__end -->
<g id="node1" class="node">
<title>chain_1fd__9fdtraversing_start__end</title>
<polygon fill="lightskyblue" stroke="transparent" points="137.5,-354 91.5,-354 91.5,-325 137.5,-325 137.5,-354"/>
<polygon fill="none" stroke="black" stroke-width="2" points="92.5,-325.5 92.5,-352.5 136.5,-352.5 136.5,-325.5 92.5,-325.5"/>
<text text-anchor="start" x="98.5" y="-335.3" font-family="Times,serif" font-size="14.00">1 to 9</text>
</g>
<!-- node_1fd -->
<g id="node3" class="node">
<title>node_1fd</title>
<polygon fill="#e5e5e5" stroke="transparent" points="21,-289 0,-289 0,-260 21,-260 21,-289"/>
<polygon fill="none" stroke="black" stroke-width="2" points="1.5,-260.5 1.5,-287.5 20.5,-287.5 20.5,-260.5 1.5,-260.5"/>
<text text-anchor="start" x="7.5" y="-270.3" font-family="Times,serif" font-size="14.00">1</text>
</g>
<!-- chain_1fd__9fdtraversing_start__end&#45;&gt;node_1fd -->
<g id="edge2" class="edge">
<title>chain_1fd__9fdtraversing_start__end&#45;&gt;node_1fd</title>
<path fill="none" stroke="black" stroke-width="2" d="M91.45,-325.43C74.45,-315.66 50.82,-301.83 30.5,-289 30.21,-288.82 29.91,-288.63 29.62,-288.44"/>
<polygon fill="black" stroke="black" stroke-width="2" points="31.28,-285.35 21.01,-282.77 27.43,-291.19 31.28,-285.35"/>
</g>
<!-- simple_snarl_1fd__4fdtraversing_start__end -->
<g id="node4" class="node">
<title>simple_snarl_1fd__4fdtraversing_start__end</title>
<polygon fill="lightcoral" stroke="transparent" points="85.5,-289 39.5,-289 39.5,-260 85.5,-260 85.5,-289"/>
<polygon fill="none" stroke="black" stroke-width="2" points="40.5,-260.5 40.5,-287.5 84.5,-287.5 84.5,-260.5 40.5,-260.5"/>
<text text-anchor="start" x="46.5" y="-270.3" font-family="Times,serif" font-size="14.00">1 to 4</text>
</g>
<!-- chain_1fd__9fdtraversing_start__end&#45;&gt;simple_snarl_1fd__4fdtraversing_start__end -->
<g id="edge3" class="edge">
<title>chain_1fd__9fdtraversing_start__end&#45;&gt;simple_snarl_1fd__4fdtraversing_start__end</title>
<path fill="none" stroke="black" stroke-width="2" d="M103.22,-324.83C96.54,-316.74 87.93,-306.31 80.35,-297.12"/>
<polygon fill="black" stroke="black" stroke-width="2" points="82.83,-294.63 73.76,-289.14 77.43,-299.08 82.83,-294.63"/>
</g>
<!-- node_4fd -->
<g id="node9" class="node">
<title>node_4fd</title>
<polygon fill="#e5e5e5" stroke="transparent" points="125,-289 104,-289 104,-260 125,-260 125,-289"/>
<polygon fill="none" stroke="black" stroke-width="2" points="105.5,-260.5 105.5,-287.5 124.5,-287.5 124.5,-260.5 105.5,-260.5"/>
<text text-anchor="start" x="111.5" y="-270.3" font-family="Times,serif" font-size="14.00">4</text>
</g>
<!-- chain_1fd__9fdtraversing_start__end&#45;&gt;node_4fd -->
<g id="edge8" class="edge">
<title>chain_1fd__9fdtraversing_start__end&#45;&gt;node_4fd</title>
<path fill="none" stroke="black" stroke-width="2" d="M114.5,-324.83C114.5,-317.4 114.5,-308 114.5,-299.4"/>
<polygon fill="black" stroke="black" stroke-width="2" points="118,-299.14 114.5,-289.14 111,-299.14 118,-299.14"/>
</g>
<!-- snarl_4fd__9fdtraversing_start__end -->
<g id="node10" class="node">
<title>snarl_4fd__9fdtraversing_start__end</title>
<polygon fill="lightcoral" stroke="transparent" points="189.5,-289 143.5,-289 143.5,-260 189.5,-260 189.5,-289"/>
<polygon fill="none" stroke="black" stroke-width="2" points="144.5,-260.5 144.5,-287.5 188.5,-287.5 188.5,-260.5 144.5,-260.5"/>
<text text-anchor="start" x="150.5" y="-270.3" font-family="Times,serif" font-size="14.00">4 to 9</text>
</g>
<!-- chain_1fd__9fdtraversing_start__end&#45;&gt;snarl_4fd__9fdtraversing_start__end -->
<g id="edge9" class="edge">
<title>chain_1fd__9fdtraversing_start__end&#45;&gt;snarl_4fd__9fdtraversing_start__end</title>
<path fill="none" stroke="black" stroke-width="2" d="M125.78,-324.83C132.46,-316.74 141.07,-306.31 148.65,-297.12"/>
<polygon fill="black" stroke="black" stroke-width="2" points="151.57,-299.08 155.24,-289.14 146.17,-294.63 151.57,-299.08"/>
</g>
<!-- node_9fd -->
<g id="node19" class="node">
<title>node_9fd</title>
<polygon fill="#e5e5e5" stroke="transparent" points="229,-289 208,-289 208,-260 229,-260 229,-289"/>
<polygon fill="none" stroke="black" stroke-width="2" points="209.5,-260.5 209.5,-287.5 228.5,-287.5 228.5,-260.5 209.5,-260.5"/>
<text text-anchor="start" x="215.5" y="-270.3" font-family="Times,serif" font-size="14.00">9</text>
</g>
<!-- chain_1fd__9fdtraversing_start__end&#45;&gt;node_9fd -->
<g id="edge18" class="edge">
<title>chain_1fd__9fdtraversing_start__end&#45;&gt;node_9fd</title>
<path fill="none" stroke="black" stroke-width="2" d="M137.55,-325.43C154.55,-315.66 178.18,-301.83 198.5,-289 198.79,-288.82 199.09,-288.63 199.38,-288.44"/>
<polygon fill="black" stroke="black" stroke-width="2" points="201.57,-291.19 207.99,-282.77 197.72,-285.35 201.57,-291.19"/>
</g>
<!-- root -->
<g id="node2" class="node">
<title>root</title>
<polygon fill="lightgrey" stroke="transparent" points="141.5,-426 87.5,-426 87.5,-390 141.5,-390 141.5,-426"/>
<text text-anchor="middle" x="114.5" y="-404.3" font-family="Times,serif" font-size="14.00">root</text>
</g>
<!-- root&#45;&gt;chain_1fd__9fdtraversing_start__end -->
<g id="edge1" class="edge">
<title>root&#45;&gt;chain_1fd__9fdtraversing_start__end</title>
<path fill="none" stroke="black" stroke-width="2" d="M114.5,-389.87C114.5,-382.08 114.5,-372.73 114.5,-364.27"/>
<polygon fill="black" stroke="black" stroke-width="2" points="118,-364.22 114.5,-354.22 111,-364.22 118,-364.22"/>
</g>
<!-- node_2fd_pretending_to_be_a_chain_in_a_simple_snarl -->
<g id="node5" class="node">
<title>node_2fd_pretending_to_be_a_chain_in_a_simple_snarl</title>
<polygon fill="lightskyblue" stroke="transparent" points="37,-224 16,-224 16,-195 37,-195 37,-224"/>
<polygon fill="none" stroke="black" stroke-width="2" points="17.5,-195.5 17.5,-222.5 36.5,-222.5 36.5,-195.5 17.5,-195.5"/>
<text text-anchor="start" x="23.5" y="-205.3" font-family="Times,serif" font-size="14.00">2</text>
</g>
<!-- simple_snarl_1fd__4fdtraversing_start__end&#45;&gt;node_2fd_pretending_to_be_a_chain_in_a_simple_snarl -->
<g id="edge4" class="edge">
<title>simple_snarl_1fd__4fdtraversing_start__end&#45;&gt;node_2fd_pretending_to_be_a_chain_in_a_simple_snarl</title>
<path fill="none" stroke="black" stroke-width="2" d="M54.69,-259.83C50.21,-251.99 44.47,-241.95 39.34,-232.97"/>
<polygon fill="black" stroke="black" stroke-width="2" points="42.3,-231.09 34.3,-224.14 36.22,-234.56 42.3,-231.09"/>
</g>
<!-- node_3fd_pretending_to_be_a_chain_in_a_simple_snarl -->
<g id="node7" class="node">
<title>node_3fd_pretending_to_be_a_chain_in_a_simple_snarl</title>
<polygon fill="lightskyblue" stroke="transparent" points="76,-224 55,-224 55,-195 76,-195 76,-224"/>
<polygon fill="none" stroke="black" stroke-width="2" points="56.5,-195.5 56.5,-222.5 75.5,-222.5 75.5,-195.5 56.5,-195.5"/>
<text text-anchor="start" x="62.5" y="-205.3" font-family="Times,serif" font-size="14.00">3</text>
</g>
<!-- simple_snarl_1fd__4fdtraversing_start__end&#45;&gt;node_3fd_pretending_to_be_a_chain_in_a_simple_snarl -->
<g id="edge6" class="edge">
<title>simple_snarl_1fd__4fdtraversing_start__end&#45;&gt;node_3fd_pretending_to_be_a_chain_in_a_simple_snarl</title>
<path fill="none" stroke="black" stroke-width="2" d="M63.15,-259.83C63.5,-252.4 63.95,-243 64.36,-234.4"/>
<polygon fill="black" stroke="black" stroke-width="2" points="67.87,-234.3 64.85,-224.14 60.88,-233.97 67.87,-234.3"/>
</g>
<!-- node_2fd -->
<g id="node6" class="node">
<title>node_2fd</title>
<polygon fill="#e5e5e5" stroke="transparent" points="37,-159 16,-159 16,-130 37,-130 37,-159"/>
<polygon fill="none" stroke="black" stroke-width="2" points="17.5,-130.5 17.5,-157.5 36.5,-157.5 36.5,-130.5 17.5,-130.5"/>
<text text-anchor="start" x="23.5" y="-140.3" font-family="Times,serif" font-size="14.00">2</text>
</g>
<!-- node_2fd_pretending_to_be_a_chain_in_a_simple_snarl&#45;&gt;node_2fd -->
<g id="edge5" class="edge">
<title>node_2fd_pretending_to_be_a_chain_in_a_simple_snarl&#45;&gt;node_2fd</title>
<path fill="none" stroke="black" stroke-width="2" d="M26.5,-194.83C26.5,-187.4 26.5,-178 26.5,-169.4"/>
<polygon fill="black" stroke="black" stroke-width="2" points="30,-169.14 26.5,-159.14 23,-169.14 30,-169.14"/>
</g>
<!-- node_3fd -->
<g id="node8" class="node">
<title>node_3fd</title>
<polygon fill="#e5e5e5" stroke="transparent" points="76,-159 55,-159 55,-130 76,-130 76,-159"/>
<polygon fill="none" stroke="black" stroke-width="2" points="56.5,-130.5 56.5,-157.5 75.5,-157.5 75.5,-130.5 56.5,-130.5"/>
<text text-anchor="start" x="62.5" y="-140.3" font-family="Times,serif" font-size="14.00">3</text>
</g>
<!-- node_3fd_pretending_to_be_a_chain_in_a_simple_snarl&#45;&gt;node_3fd -->
<g id="edge7" class="edge">
<title>node_3fd_pretending_to_be_a_chain_in_a_simple_snarl&#45;&gt;node_3fd</title>
<path fill="none" stroke="black" stroke-width="2" d="M65.5,-194.83C65.5,-187.4 65.5,-178 65.5,-169.4"/>
<polygon fill="black" stroke="black" stroke-width="2" points="69,-169.14 65.5,-159.14 62,-169.14 69,-169.14"/>
</g>
<!-- node_8fd_pretending_to_be_a_chain -->
<g id="node11" class="node">
<title>node_8fd_pretending_to_be_a_chain</title>
<polygon fill="lightskyblue" stroke="transparent" points="131,-224 110,-224 110,-195 131,-195 131,-224"/>
<polygon fill="none" stroke="black" stroke-width="2" points="111.5,-195.5 111.5,-222.5 130.5,-222.5 130.5,-195.5 111.5,-195.5"/>
<text text-anchor="start" x="117.5" y="-205.3" font-family="Times,serif" font-size="14.00">8</text>
</g>
<!-- snarl_4fd__9fdtraversing_start__end&#45;&gt;node_8fd_pretending_to_be_a_chain -->
<g id="edge10" class="edge">
<title>snarl_4fd__9fdtraversing_start__end&#45;&gt;node_8fd_pretending_to_be_a_chain</title>
<path fill="none" stroke="black" stroke-width="2" d="M156.52,-259.83C150.67,-251.82 143.15,-241.52 136.5,-232.41"/>
<polygon fill="black" stroke="black" stroke-width="2" points="139.19,-230.16 130.46,-224.14 133.53,-234.28 139.19,-230.16"/>
</g>
<!-- chain_5fd__7fdtraversing_start__end -->
<g id="node13" class="node">
<title>chain_5fd__7fdtraversing_start__end</title>
<polygon fill="lightskyblue" stroke="transparent" points="206.5,-224 160.5,-224 160.5,-195 206.5,-195 206.5,-224"/>
<polygon fill="none" stroke="black" stroke-width="2" points="161.5,-195.5 161.5,-222.5 205.5,-222.5 205.5,-195.5 161.5,-195.5"/>
<text text-anchor="start" x="167.5" y="-205.3" font-family="Times,serif" font-size="14.00">5 to 7</text>
</g>
<!-- snarl_4fd__9fdtraversing_start__end&#45;&gt;chain_5fd__7fdtraversing_start__end -->
<g id="edge12" class="edge">
<title>snarl_4fd__9fdtraversing_start__end&#45;&gt;chain_5fd__7fdtraversing_start__end</title>
<path fill="none" stroke="black" stroke-width="2" d="M170.19,-259.83C172.24,-252.23 174.84,-242.58 177.21,-233.82"/>
<polygon fill="black" stroke="black" stroke-width="2" points="180.59,-234.71 179.82,-224.14 173.83,-232.89 180.59,-234.71"/>
</g>
<!-- node_8fd -->
<g id="node12" class="node">
<title>node_8fd</title>
<polygon fill="#e5e5e5" stroke="transparent" points="121,-159 100,-159 100,-130 121,-130 121,-159"/>
<polygon fill="none" stroke="black" stroke-width="2" points="101.5,-130.5 101.5,-157.5 120.5,-157.5 120.5,-130.5 101.5,-130.5"/>
<text text-anchor="start" x="107.5" y="-140.3" font-family="Times,serif" font-size="14.00">8</text>
</g>
<!-- node_8fd_pretending_to_be_a_chain&#45;&gt;node_8fd -->
<g id="edge11" class="edge">
<title>node_8fd_pretending_to_be_a_chain&#45;&gt;node_8fd</title>
<path fill="none" stroke="black" stroke-width="2" d="M118.33,-194.83C117.14,-187.32 115.62,-177.79 114.25,-169.11"/>
<polygon fill="black" stroke="black" stroke-width="2" points="117.69,-168.47 112.67,-159.14 110.78,-169.57 117.69,-168.47"/>
</g>
<!-- node_5fd -->
<g id="node14" class="node">
<title>node_5fd</title>
<polygon fill="#e5e5e5" stroke="transparent" points="160,-159 139,-159 139,-130 160,-130 160,-159"/>
<polygon fill="none" stroke="black" stroke-width="2" points="140.5,-130.5 140.5,-157.5 159.5,-157.5 159.5,-130.5 140.5,-130.5"/>
<text text-anchor="start" x="146.5" y="-140.3" font-family="Times,serif" font-size="14.00">5</text>
</g>
<!-- chain_5fd__7fdtraversing_start__end&#45;&gt;node_5fd -->
<g id="edge13" class="edge">
<title>chain_5fd__7fdtraversing_start__end&#45;&gt;node_5fd</title>
<path fill="none" stroke="black" stroke-width="2" d="M176.12,-194.83C171.89,-186.99 166.47,-176.95 161.63,-167.97"/>
<polygon fill="black" stroke="black" stroke-width="2" points="164.69,-166.28 156.86,-159.14 158.53,-169.61 164.69,-166.28"/>
</g>
<!-- simple_snarl_5fd__7fdtraversing_start__end -->
<g id="node15" class="node">
<title>simple_snarl_5fd__7fdtraversing_start__end</title>
<polygon fill="lightcoral" stroke="transparent" points="224.5,-159 178.5,-159 178.5,-130 224.5,-130 224.5,-159"/>
<polygon fill="none" stroke="black" stroke-width="2" points="179.5,-130.5 179.5,-157.5 223.5,-157.5 223.5,-130.5 179.5,-130.5"/>
<text text-anchor="start" x="185.5" y="-140.3" font-family="Times,serif" font-size="14.00">5 to 7</text>
</g>
<!-- chain_5fd__7fdtraversing_start__end&#45;&gt;simple_snarl_5fd__7fdtraversing_start__end -->
<g id="edge14" class="edge">
<title>chain_5fd__7fdtraversing_start__end&#45;&gt;simple_snarl_5fd__7fdtraversing_start__end</title>
<path fill="none" stroke="black" stroke-width="2" d="M187.41,-194.83C189.58,-187.23 192.34,-177.58 194.84,-168.82"/>
<polygon fill="black" stroke="black" stroke-width="2" points="198.22,-169.72 197.6,-159.14 191.49,-167.8 198.22,-169.72"/>
</g>
<!-- node_7fd -->
<g id="node18" class="node">
<title>node_7fd</title>
<polygon fill="#e5e5e5" stroke="transparent" points="264,-159 243,-159 243,-130 264,-130 264,-159"/>
<polygon fill="none" stroke="black" stroke-width="2" points="244.5,-130.5 244.5,-157.5 263.5,-157.5 263.5,-130.5 244.5,-130.5"/>
<text text-anchor="start" x="250.5" y="-140.3" font-family="Times,serif" font-size="14.00">7</text>
</g>
<!-- chain_5fd__7fdtraversing_start__end&#45;&gt;node_7fd -->
<g id="edge17" class="edge">
<title>chain_5fd__7fdtraversing_start__end&#45;&gt;node_7fd</title>
<path fill="none" stroke="black" stroke-width="2" d="M198.69,-194.83C209.43,-185.16 223.89,-172.15 235.25,-161.92"/>
<polygon fill="black" stroke="black" stroke-width="2" points="237.8,-164.34 242.89,-155.05 233.12,-159.14 237.8,-164.34"/>
</g>
<!-- node_6fd_pretending_to_be_a_chain_in_a_simple_snarl -->
<g id="node16" class="node">
<title>node_6fd_pretending_to_be_a_chain_in_a_simple_snarl</title>
<polygon fill="lightskyblue" stroke="transparent" points="212,-94 191,-94 191,-65 212,-65 212,-94"/>
<polygon fill="none" stroke="black" stroke-width="2" points="192.5,-65.5 192.5,-92.5 211.5,-92.5 211.5,-65.5 192.5,-65.5"/>
<text text-anchor="start" x="198.5" y="-75.3" font-family="Times,serif" font-size="14.00">6</text>
</g>
<!-- simple_snarl_5fd__7fdtraversing_start__end&#45;&gt;node_6fd_pretending_to_be_a_chain_in_a_simple_snarl -->
<g id="edge15" class="edge">
<title>simple_snarl_5fd__7fdtraversing_start__end&#45;&gt;node_6fd_pretending_to_be_a_chain_in_a_simple_snarl</title>
<path fill="none" stroke="black" stroke-width="2" d="M201.5,-129.83C201.5,-122.4 201.5,-113 201.5,-104.4"/>
<polygon fill="black" stroke="black" stroke-width="2" points="205,-104.14 201.5,-94.14 198,-104.14 205,-104.14"/>
</g>
<!-- node_6fd -->
<g id="node17" class="node">
<title>node_6fd</title>
<polygon fill="#e5e5e5" stroke="transparent" points="212,-29 191,-29 191,0 212,0 212,-29"/>
<polygon fill="none" stroke="black" stroke-width="2" points="192.5,-0.5 192.5,-27.5 211.5,-27.5 211.5,-0.5 192.5,-0.5"/>
<text text-anchor="start" x="198.5" y="-10.3" font-family="Times,serif" font-size="14.00">6</text>
</g>
<!-- node_6fd_pretending_to_be_a_chain_in_a_simple_snarl&#45;&gt;node_6fd -->
<g id="edge16" class="edge">
<title>node_6fd_pretending_to_be_a_chain_in_a_simple_snarl&#45;&gt;node_6fd</title>
<path fill="none" stroke="black" stroke-width="2" d="M201.5,-64.83C201.5,-57.4 201.5,-48 201.5,-39.4"/>
<polygon fill="black" stroke="black" stroke-width="2" points="205,-39.14 201.5,-29.14 198,-39.14 205,-39.14"/>
</g>
</g>
</svg>
